M48
; DRILL file {KiCad 9.0.1} date 2025-05-21T23:19:58+0100
; FORMAT={-:-/ absolute / inch / decimal}
; #@! TF.CreationDate,2025-05-21T23:19:58+01:00
; #@! TF.GenerationSoftware,Kicad,Pcbnew,9.0.1
; #@! TF.FileFunction,Plated,1,4,PTH
FMAT,2
INCH
; #@! TA.AperFunction,Plated,PTH,ViaDrill
T1C0.0157
; #@! TA.AperFunction,Plated,PTH,ComponentDrill
T2C0.0315
; #@! TA.AperFunction,Plated,PTH,ComponentDrill
T3C0.0354
; #@! TA.AperFunction,Plated,PTH,ComponentDrill
T4C0.0394
; #@! TA.AperFunction,Plated,PTH,ComponentDrill
T5C0.0433
; #@! TA.AperFunction,Plated,PTH,ComponentDrill
T6C0.0512
; #@! TA.AperFunction,Plated,PTH,ComponentDrill
T7C0.0689
%
G90
G05
T1
X3.1535Y-4.3071
X3.2008Y-4.7165
X3.2205Y-4.815
X3.2726Y-5.0157
X3.3031Y-5.1732
X3.3425Y-4.622
X3.378Y-4.4882
X3.3858Y-4.8976
X3.4331Y-4.9016
X3.437Y-5.0472
X3.4449Y-4.5511
X3.4488Y-5.1073
X3.5079Y-4.5118
X3.5552Y-4.9419
X3.5787Y-4.3976
X3.626Y-4.3189
X3.6767Y-4.4595
X3.689Y-4.1811
X3.6912Y-4.8841
X3.7008Y-4.7402
X3.7126Y-5.0433
X3.7294Y-5.2727
X3.8071Y-4.5906
X3.8093Y-5.0787
X3.815Y-5.1959
X3.9213Y-4.815
X3.9291Y-2.1535
X3.937Y-2.4213
X3.9444Y-2.8302
X3.9449Y-3.5669
X3.9528Y-5.0984
X3.9567Y-2.2717
X3.9882Y-3.4961
X3.9921Y-2.6772
X4.0433Y-3.4291
X4.0551Y-4.6732
X4.0748Y-1.9173
X4.0827Y-2.6693
X4.0984Y-3.5984
X4.1033Y-2.1153
X4.1093Y-2.9133
X4.1258Y-3.277
X4.1299Y-2.6772
X4.1417Y-4.3228
X4.1424Y-2.12
X4.1575Y-3.4528
X4.1654Y-2.5118
X4.178Y-2.1032
X4.1819Y-2.0369
X4.193Y-2.5944
X4.1969Y-3.3976
X4.2008Y-2.3386
X4.2008Y-3.9134
X4.2126Y-2.122
X4.2126Y-3.0315
X4.2165Y-2.0598
X4.2402Y-2.5118
X4.2441Y-2.1535
X4.2598Y-2.2362
X4.2756Y-2.6614
X4.2822Y-2.3081
X4.2992Y-3.4488
X4.2992Y-4.5197
X4.3386Y-2.7244
X4.4961Y-4.9055
X5.0Y-5.0039
X5.0118Y-5.0551
T2
X3.6614Y-5.4874
X3.6614Y-5.7874
X3.9563Y-3.8228
X3.9756Y-3.0866
X4.2563Y-3.8228
X4.2756Y-3.0866
T3
X3.4252Y-5.5512
X3.5252Y-5.5512
T4
X3.2338Y-2.5209
X3.2338Y-2.6209
X3.2338Y-2.7209
X3.2338Y-2.8209
X3.2338Y-2.9209
X3.2338Y-3.0209
X3.2338Y-3.1209
X3.2338Y-3.2209
X3.2338Y-3.3209
X3.2338Y-3.4209
X3.2338Y-3.5209
X3.2338Y-3.6209
X3.2338Y-3.7209
X3.2338Y-3.8209
X3.2338Y-3.9209
X3.2338Y-4.0209
X3.2338Y-4.1209
X3.2338Y-4.2209
X3.3338Y-2.5209
X3.3338Y-2.6209
X3.3338Y-2.7209
X3.3338Y-2.8209
X3.3338Y-2.9209
X3.3338Y-3.0209
X3.3338Y-3.1209
X3.3338Y-3.2209
X3.3338Y-3.3209
X3.3338Y-3.4209
X3.3338Y-3.5209
X3.3338Y-3.6209
X3.3338Y-3.7209
X3.3338Y-3.8209
X3.3338Y-3.9209
X3.3338Y-4.0209
X3.3338Y-4.1209
X3.3338Y-4.2209
X3.4338Y-2.5209
X3.4338Y-2.6209
X3.4338Y-2.7209
X3.4338Y-2.8209
X3.4338Y-2.9209
X3.4338Y-3.0209
X3.4338Y-3.1209
X3.4338Y-3.2209
X3.4338Y-3.3209
X3.4338Y-3.4209
X3.4338Y-3.5209
X3.4338Y-3.6209
X3.4338Y-3.7209
X3.4338Y-3.8209
X3.4338Y-3.9209
X3.4338Y-4.0209
X3.4338Y-4.1209
X3.4338Y-4.2209
X3.4709Y-5.1717
X3.4709Y-5.2717
X3.4709Y-5.3717
X3.5338Y-1.9209
X3.5338Y-2.0209
X3.5338Y-2.1209
X3.5338Y-2.2209
X3.5338Y-2.3209
X3.5338Y-2.4209
X3.5338Y-2.5209
X3.5338Y-2.6209
X3.5338Y-2.7209
X3.5338Y-2.8209
X3.5338Y-2.9209
X3.5338Y-3.0209
X3.5338Y-3.1209
X3.5338Y-3.2209
X3.5338Y-3.3209
X3.5338Y-3.4209
X3.5338Y-3.5209
X3.5338Y-3.6209
X3.5338Y-3.7209
X3.5338Y-3.8209
X3.5338Y-3.9209
X3.5338Y-4.0209
X3.5338Y-4.1209
X3.5338Y-4.2209
X3.5709Y-5.1717
X3.5709Y-5.2717
X3.5709Y-5.3717
X3.6338Y-1.9209
X3.6338Y-2.0209
X3.6338Y-2.1209
X3.6338Y-2.2209
X3.6338Y-2.3209
X3.6338Y-2.4209
X3.6338Y-2.5209
X3.6338Y-2.6209
X3.6338Y-2.7209
X3.6338Y-2.8209
X3.6338Y-2.9209
X3.6338Y-3.0209
X3.6338Y-3.1209
X3.6338Y-3.2209
X3.6338Y-3.3209
X3.6338Y-3.4209
X3.6338Y-3.5209
X3.6338Y-3.6209
X3.6338Y-3.7209
X3.6338Y-3.8209
X3.6338Y-3.9209
X3.6338Y-4.0209
X3.6338Y-4.1209
X3.6338Y-4.2209
X3.6709Y-5.1717
X3.6709Y-5.2717
X3.6709Y-5.3717
X4.6339Y-1.9209
X4.6339Y-2.0209
X4.6339Y-2.1209
X4.6339Y-2.2209
X4.6339Y-2.3209
X4.6339Y-2.4209
X4.6339Y-2.5209
X4.6339Y-2.6209
X4.6339Y-2.7209
X4.6339Y-2.8209
X4.6339Y-2.9209
X4.6339Y-3.0209
X4.6339Y-3.1209
X4.6339Y-3.2209
X4.6339Y-3.3209
X4.6339Y-3.4209
X4.6339Y-3.5209
X4.6339Y-3.6209
X4.6339Y-3.7209
X4.6339Y-3.8209
X4.6339Y-3.9209
X4.6339Y-4.0209
X4.6339Y-4.1209
X4.6339Y-4.2209
X4.7339Y-1.9209
X4.7339Y-2.0209
X4.7339Y-2.1209
X4.7339Y-2.2209
X4.7339Y-2.3209
X4.7339Y-2.4209
X4.7339Y-2.5209
X4.7339Y-2.6209
X4.7339Y-2.7209
X4.7339Y-2.8209
X4.7339Y-2.9209
X4.7339Y-3.0209
X4.7339Y-3.1209
X4.7339Y-3.2209
X4.7339Y-3.3209
X4.7339Y-3.4209
X4.7339Y-3.5209
X4.7339Y-3.6209
X4.7339Y-3.7209
X4.7339Y-3.8209
X4.7339Y-3.9209
X4.7339Y-4.0209
X4.7339Y-4.1209
X4.7339Y-4.2209
X4.8339Y-2.5209
X4.8339Y-2.6209
X4.8339Y-2.7209
X4.8339Y-2.8209
X4.8339Y-2.9209
X4.8339Y-3.0209
X4.8339Y-3.1209
X4.8339Y-3.2209
X4.8339Y-3.3209
X4.8339Y-3.4209
X4.8339Y-3.5209
X4.8339Y-3.6209
X4.8339Y-3.7209
X4.8339Y-3.8209
X4.8339Y-3.9209
X4.8339Y-4.0209
X4.8339Y-4.1209
X4.8339Y-4.2209
X4.9339Y-2.5209
X4.9339Y-2.6209
X4.9339Y-2.7209
X4.9339Y-2.8209
X4.9339Y-2.9209
X4.9339Y-3.0209
X4.9339Y-3.1209
X4.9339Y-3.2209
X4.9339Y-3.3209
X4.9339Y-3.4209
X4.9339Y-3.5209
X4.9339Y-3.6209
X4.9339Y-3.7209
X4.9339Y-3.8209
X4.9339Y-3.9209
X4.9339Y-4.0209
X4.9339Y-4.1209
X4.9339Y-4.2209
X5.0339Y-2.5209
X5.0339Y-2.6209
X5.0339Y-2.7209
X5.0339Y-2.8209
X5.0339Y-2.9209
X5.0339Y-3.0209
X5.0339Y-3.1209
X5.0339Y-3.2209
X5.0339Y-3.3209
X5.0339Y-3.4209
X5.0339Y-3.5209
X5.0339Y-3.6209
X5.0339Y-3.7209
X5.0339Y-3.8209
X5.0339Y-3.9209
X5.0339Y-4.0209
X5.0339Y-4.1209
X5.0339Y-4.2209
T5
X3.7339Y-1.9209
X3.7339Y-2.0209
X3.7339Y-2.1209
X3.7339Y-2.2209
X3.7339Y-2.3209
X3.7339Y-2.4209
X3.7339Y-2.5209
X3.7339Y-2.6209
X3.7339Y-2.7209
X3.7339Y-2.8209
X3.7339Y-2.9209
X3.7339Y-3.0209
X3.7339Y-3.1209
X3.7339Y-3.2209
X3.7339Y-3.3209
X3.7339Y-3.4209
X3.7339Y-3.5209
X3.7339Y-3.6209
X3.7339Y-3.7209
X3.7339Y-3.8209
X3.7339Y-3.9209
X3.7339Y-4.0209
X3.7339Y-4.1209
X3.7339Y-4.2209
X3.8339Y-1.9209
X3.8339Y-2.0209
X3.8339Y-2.1209
X3.8339Y-2.2209
X3.8339Y-2.3209
X3.8339Y-2.4209
X3.8339Y-2.5209
X3.8339Y-2.6209
X3.8339Y-2.7209
X3.8339Y-2.8209
X3.8339Y-2.9209
X3.8339Y-3.0209
X3.8339Y-3.1209
X3.8339Y-3.2209
X3.8339Y-3.3209
X3.8339Y-3.4209
X3.8339Y-3.5209
X3.8339Y-3.6209
X3.8339Y-3.7209
X3.8339Y-3.8209
X3.8339Y-3.9209
X3.8339Y-4.0209
X3.8339Y-4.1209
X3.8339Y-4.2209
X4.4311Y-4.4291
X4.4311Y-4.8291
X4.4339Y-1.9209
X4.4339Y-2.0209
X4.4339Y-2.1209
X4.4339Y-2.2209
X4.4339Y-2.3209
X4.4339Y-2.4209
X4.4339Y-2.5209
X4.4339Y-2.6209
X4.4339Y-2.7209
X4.4339Y-2.8209
X4.4339Y-2.9209
X4.4339Y-3.0209
X4.4339Y-3.1209
X4.4339Y-3.2209
X4.4339Y-3.3209
X4.4339Y-3.4209
X4.4339Y-3.5209
X4.4339Y-3.6209
X4.4339Y-3.7209
X4.4339Y-3.8209
X4.4339Y-3.9209
X4.4339Y-4.0209
X4.4339Y-4.1209
X4.4339Y-4.2209
X4.5339Y-1.9209
X4.5339Y-2.0209
X4.5339Y-2.1209
X4.5339Y-2.2209
X4.5339Y-2.3209
X4.5339Y-2.4209
X4.5339Y-2.5209
X4.5339Y-2.6209
X4.5339Y-2.7209
X4.5339Y-2.8209
X4.5339Y-2.9209
X4.5339Y-3.0209
X4.5339Y-3.1209
X4.5339Y-3.2209
X4.5339Y-3.3209
X4.5339Y-3.4209
X4.5339Y-3.5209
X4.5339Y-3.6209
X4.5339Y-3.7209
X4.5339Y-3.8209
X4.5339Y-3.9209
X4.5339Y-4.0209
X4.5339Y-4.1209
X4.5339Y-4.2209
T7
X3.2677Y-4.3701
X3.4803Y-4.3701
X4.0394Y-4.3465
X4.252Y-4.3465
X4.7874Y-4.3701
X5.0Y-4.3701
T6
G00X3.8917Y-5.2835
M15
G01X3.9587Y-5.2835
M16
G05
G00X3.8917Y-5.4724
M15
G01X3.9587Y-5.4724
M16
G05
G00X3.8917Y-5.6614
M15
G01X3.9587Y-5.6614
M16
G05
G00X4.1004Y-5.2835
M15
G01X4.1673Y-5.2835
M16
G05
G00X4.1004Y-5.4724
M15
G01X4.1673Y-5.4724
M16
G05
G00X4.1004Y-5.6614
M15
G01X4.1673Y-5.6614
M16
G05
G00X4.3091Y-5.2835
M15
G01X4.376Y-5.2835
M16
G05
G00X4.3091Y-5.4724
M15
G01X4.376Y-5.4724
M16
G05
G00X4.3091Y-5.6614
M15
G01X4.376Y-5.6614
M16
G05
M30
