%TF.GenerationSoftware,KiCad,Pcbnew,7.0.2*%
%TF.CreationDate,2025-02-17T11:53:52+00:00*%
%TF.ProjectId,stomp_00,73746f6d-705f-4303-902e-6b696361645f,rev?*%
%TF.SameCoordinates,Original*%
%TF.FileFunction,Legend,Top*%
%TF.FilePolarity,Positive*%
%FSLAX46Y46*%
G04 Gerber Fmt 4.6, Leading zero omitted, Abs format (unit mm)*
G04 Created by KiCad (PCBNEW 7.0.2) date 2025-02-17 11:53:52*
%MOMM*%
%LPD*%
G01*
G04 APERTURE LIST*
G04 Aperture macros list*
%AMRoundRect*
0 Rectangle with rounded corners*
0 $1 Rounding radius*
0 $2 $3 $4 $5 $6 $7 $8 $9 X,Y pos of 4 corners*
0 Add a 4 corners polygon primitive as box body*
4,1,4,$2,$3,$4,$5,$6,$7,$8,$9,$2,$3,0*
0 Add four circle primitives for the rounded corners*
1,1,$1+$1,$2,$3*
1,1,$1+$1,$4,$5*
1,1,$1+$1,$6,$7*
1,1,$1+$1,$8,$9*
0 Add four rect primitives between the rounded corners*
20,1,$1+$1,$2,$3,$4,$5,0*
20,1,$1+$1,$4,$5,$6,$7,0*
20,1,$1+$1,$6,$7,$8,$9,0*
20,1,$1+$1,$8,$9,$2,$3,0*%
G04 Aperture macros list end*
%ADD10C,0.150000*%
%ADD11C,0.120000*%
%ADD12R,5.700000X1.700000*%
%ADD13RoundRect,0.225000X-0.225000X-0.250000X0.225000X-0.250000X0.225000X0.250000X-0.225000X0.250000X0*%
%ADD14RoundRect,0.200000X0.200000X0.275000X-0.200000X0.275000X-0.200000X-0.275000X0.200000X-0.275000X0*%
%ADD15RoundRect,0.200000X-0.275000X0.200000X-0.275000X-0.200000X0.275000X-0.200000X0.275000X0.200000X0*%
%ADD16RoundRect,0.200000X0.275000X-0.200000X0.275000X0.200000X-0.275000X0.200000X-0.275000X-0.200000X0*%
%ADD17C,3.000000*%
%ADD18C,1.700000*%
%ADD19O,1.700000X1.700000*%
%ADD20RoundRect,0.225000X0.225000X0.250000X-0.225000X0.250000X-0.225000X-0.250000X0.225000X-0.250000X0*%
%ADD21RoundRect,0.250000X1.000000X0.650000X-1.000000X0.650000X-1.000000X-0.650000X1.000000X-0.650000X0*%
%ADD22C,1.600000*%
%ADD23O,1.600000X1.600000*%
%ADD24RoundRect,0.150000X0.150000X-0.825000X0.150000X0.825000X-0.150000X0.825000X-0.150000X-0.825000X0*%
%ADD25RoundRect,0.050000X-0.375000X-0.050000X0.375000X-0.050000X0.375000X0.050000X-0.375000X0.050000X0*%
%ADD26RoundRect,0.050000X-0.050000X-0.375000X0.050000X-0.375000X0.050000X0.375000X-0.050000X0.375000X0*%
%ADD27R,1.650000X1.650000*%
%ADD28RoundRect,0.200000X-0.200000X-0.275000X0.200000X-0.275000X0.200000X0.275000X-0.200000X0.275000X0*%
%ADD29RoundRect,0.218750X0.218750X0.256250X-0.218750X0.256250X-0.218750X-0.256250X0.218750X-0.256250X0*%
%ADD30RoundRect,0.150000X-0.825000X-0.150000X0.825000X-0.150000X0.825000X0.150000X-0.825000X0.150000X0*%
%ADD31R,1.700000X1.700000*%
%ADD32RoundRect,0.250000X0.475000X-0.250000X0.475000X0.250000X-0.475000X0.250000X-0.475000X-0.250000X0*%
%ADD33RoundRect,0.225000X-0.250000X0.225000X-0.250000X-0.225000X0.250000X-0.225000X0.250000X0.225000X0*%
%ADD34RoundRect,0.150000X0.150000X-0.587500X0.150000X0.587500X-0.150000X0.587500X-0.150000X-0.587500X0*%
%ADD35RoundRect,0.225000X0.250000X-0.225000X0.250000X0.225000X-0.250000X0.225000X-0.250000X-0.225000X0*%
%ADD36C,3.200000*%
%ADD37RoundRect,0.250000X0.325000X1.100000X-0.325000X1.100000X-0.325000X-1.100000X0.325000X-1.100000X0*%
%ADD38R,1.600000X1.600000*%
%ADD39R,2.200000X2.200000*%
%ADD40O,2.200000X2.200000*%
%ADD41R,1.800000X1.800000*%
%ADD42C,1.800000*%
%ADD43O,4.000000X2.800000*%
G04 APERTURE END LIST*
D10*
X3810000Y-54570000D02*
X6350000Y-54570000D01*
X6350000Y-62230000D01*
X3810000Y-62230000D01*
X3810000Y-54570000D01*
X49530000Y-16510000D02*
X52070000Y-16510000D01*
X52070000Y-62230000D01*
X49530000Y-62230000D01*
X49530000Y-16510000D01*
X3810000Y-16510000D02*
X6350000Y-16510000D01*
X6350000Y-21590000D01*
X3810000Y-21590000D01*
X3810000Y-16510000D01*
X3810000Y-26670000D02*
X6350000Y-26670000D01*
X6350000Y-31750000D01*
X3810000Y-31750000D01*
X3810000Y-26670000D01*
X3810000Y-21590000D02*
X6350000Y-21590000D01*
X6350000Y-26670000D01*
X3810000Y-26670000D01*
X3810000Y-21590000D01*
X6350000Y-16510000D02*
X26670000Y-16510000D01*
X26670000Y-62230000D01*
X6350000Y-62230000D01*
X6350000Y-16510000D01*
X52961904Y-9610238D02*
X52866666Y-9562619D01*
X52866666Y-9562619D02*
X52723809Y-9562619D01*
X52723809Y-9562619D02*
X52580952Y-9610238D01*
X52580952Y-9610238D02*
X52485714Y-9705476D01*
X52485714Y-9705476D02*
X52438095Y-9800714D01*
X52438095Y-9800714D02*
X52390476Y-9991190D01*
X52390476Y-9991190D02*
X52390476Y-10134047D01*
X52390476Y-10134047D02*
X52438095Y-10324523D01*
X52438095Y-10324523D02*
X52485714Y-10419761D01*
X52485714Y-10419761D02*
X52580952Y-10515000D01*
X52580952Y-10515000D02*
X52723809Y-10562619D01*
X52723809Y-10562619D02*
X52819047Y-10562619D01*
X52819047Y-10562619D02*
X52961904Y-10515000D01*
X52961904Y-10515000D02*
X53009523Y-10467380D01*
X53009523Y-10467380D02*
X53009523Y-10134047D01*
X53009523Y-10134047D02*
X52819047Y-10134047D01*
X419524Y-40362095D02*
X419524Y-39562095D01*
X419524Y-39562095D02*
X724286Y-39562095D01*
X724286Y-39562095D02*
X800476Y-39600190D01*
X800476Y-39600190D02*
X838571Y-39638285D01*
X838571Y-39638285D02*
X876667Y-39714476D01*
X876667Y-39714476D02*
X876667Y-39828761D01*
X876667Y-39828761D02*
X838571Y-39904952D01*
X838571Y-39904952D02*
X800476Y-39943047D01*
X800476Y-39943047D02*
X724286Y-39981142D01*
X724286Y-39981142D02*
X419524Y-39981142D01*
X1257619Y-39562095D02*
X1181428Y-39714476D01*
X1562380Y-40133523D02*
X1943333Y-40133523D01*
X1486190Y-40362095D02*
X1752857Y-39562095D01*
X1752857Y-39562095D02*
X2019523Y-40362095D01*
X2286190Y-40362095D02*
X2286190Y-39562095D01*
X2286190Y-39562095D02*
X2552856Y-40133523D01*
X2552856Y-40133523D02*
X2819523Y-39562095D01*
X2819523Y-39562095D02*
X2819523Y-40362095D01*
X3200476Y-40362095D02*
X3200476Y-39562095D01*
X3200476Y-39562095D02*
X3505238Y-39562095D01*
X3505238Y-39562095D02*
X3581428Y-39600190D01*
X3581428Y-39600190D02*
X3619523Y-39638285D01*
X3619523Y-39638285D02*
X3657619Y-39714476D01*
X3657619Y-39714476D02*
X3657619Y-39828761D01*
X3657619Y-39828761D02*
X3619523Y-39904952D01*
X3619523Y-39904952D02*
X3581428Y-39943047D01*
X3581428Y-39943047D02*
X3505238Y-39981142D01*
X3505238Y-39981142D02*
X3200476Y-39981142D01*
X1371905Y-41658095D02*
X1371905Y-40858095D01*
X1752857Y-41658095D02*
X1752857Y-40858095D01*
X1752857Y-40858095D02*
X2210000Y-41658095D01*
X2210000Y-41658095D02*
X2210000Y-40858095D01*
X3657619Y-41658095D02*
X3390952Y-41277142D01*
X3200476Y-41658095D02*
X3200476Y-40858095D01*
X3200476Y-40858095D02*
X3505238Y-40858095D01*
X3505238Y-40858095D02*
X3581428Y-40896190D01*
X3581428Y-40896190D02*
X3619523Y-40934285D01*
X3619523Y-40934285D02*
X3657619Y-41010476D01*
X3657619Y-41010476D02*
X3657619Y-41124761D01*
X3657619Y-41124761D02*
X3619523Y-41200952D01*
X3619523Y-41200952D02*
X3581428Y-41239047D01*
X3581428Y-41239047D02*
X3505238Y-41277142D01*
X3505238Y-41277142D02*
X3200476Y-41277142D01*
X49290476Y-15070095D02*
X49290476Y-14270095D01*
X49290476Y-14270095D02*
X49595238Y-14270095D01*
X49595238Y-14270095D02*
X49671428Y-14308190D01*
X49671428Y-14308190D02*
X49709523Y-14346285D01*
X49709523Y-14346285D02*
X49747619Y-14422476D01*
X49747619Y-14422476D02*
X49747619Y-14536761D01*
X49747619Y-14536761D02*
X49709523Y-14612952D01*
X49709523Y-14612952D02*
X49671428Y-14651047D01*
X49671428Y-14651047D02*
X49595238Y-14689142D01*
X49595238Y-14689142D02*
X49290476Y-14689142D01*
X50090476Y-15070095D02*
X50090476Y-14270095D01*
X50090476Y-14651047D02*
X50547619Y-14651047D01*
X50547619Y-15070095D02*
X50547619Y-14270095D01*
X51080952Y-14270095D02*
X51233333Y-14270095D01*
X51233333Y-14270095D02*
X51309523Y-14308190D01*
X51309523Y-14308190D02*
X51385714Y-14384380D01*
X51385714Y-14384380D02*
X51423809Y-14536761D01*
X51423809Y-14536761D02*
X51423809Y-14803428D01*
X51423809Y-14803428D02*
X51385714Y-14955809D01*
X51385714Y-14955809D02*
X51309523Y-15032000D01*
X51309523Y-15032000D02*
X51233333Y-15070095D01*
X51233333Y-15070095D02*
X51080952Y-15070095D01*
X51080952Y-15070095D02*
X51004761Y-15032000D01*
X51004761Y-15032000D02*
X50928571Y-14955809D01*
X50928571Y-14955809D02*
X50890475Y-14803428D01*
X50890475Y-14803428D02*
X50890475Y-14536761D01*
X50890475Y-14536761D02*
X50928571Y-14384380D01*
X50928571Y-14384380D02*
X51004761Y-14308190D01*
X51004761Y-14308190D02*
X51080952Y-14270095D01*
X51766666Y-15070095D02*
X51766666Y-14270095D01*
X51766666Y-14270095D02*
X52223809Y-15070095D01*
X52223809Y-15070095D02*
X52223809Y-14270095D01*
X52604761Y-14651047D02*
X52871427Y-14651047D01*
X52985713Y-15070095D02*
X52604761Y-15070095D01*
X52604761Y-15070095D02*
X52604761Y-14270095D01*
X52604761Y-14270095D02*
X52985713Y-14270095D01*
X53290475Y-15032000D02*
X53404761Y-15070095D01*
X53404761Y-15070095D02*
X53595237Y-15070095D01*
X53595237Y-15070095D02*
X53671428Y-15032000D01*
X53671428Y-15032000D02*
X53709523Y-14993904D01*
X53709523Y-14993904D02*
X53747618Y-14917714D01*
X53747618Y-14917714D02*
X53747618Y-14841523D01*
X53747618Y-14841523D02*
X53709523Y-14765333D01*
X53709523Y-14765333D02*
X53671428Y-14727238D01*
X53671428Y-14727238D02*
X53595237Y-14689142D01*
X53595237Y-14689142D02*
X53442856Y-14651047D01*
X53442856Y-14651047D02*
X53366666Y-14612952D01*
X53366666Y-14612952D02*
X53328571Y-14574857D01*
X53328571Y-14574857D02*
X53290475Y-14498666D01*
X53290475Y-14498666D02*
X53290475Y-14422476D01*
X53290475Y-14422476D02*
X53328571Y-14346285D01*
X53328571Y-14346285D02*
X53366666Y-14308190D01*
X53366666Y-14308190D02*
X53442856Y-14270095D01*
X53442856Y-14270095D02*
X53633333Y-14270095D01*
X53633333Y-14270095D02*
X53747618Y-14308190D01*
X2567619Y-30696189D02*
X2567619Y-30077142D01*
X2567619Y-30077142D02*
X2948571Y-30410475D01*
X2948571Y-30410475D02*
X2948571Y-30267618D01*
X2948571Y-30267618D02*
X2996190Y-30172380D01*
X2996190Y-30172380D02*
X3043809Y-30124761D01*
X3043809Y-30124761D02*
X3139047Y-30077142D01*
X3139047Y-30077142D02*
X3377142Y-30077142D01*
X3377142Y-30077142D02*
X3472380Y-30124761D01*
X3472380Y-30124761D02*
X3520000Y-30172380D01*
X3520000Y-30172380D02*
X3567619Y-30267618D01*
X3567619Y-30267618D02*
X3567619Y-30553332D01*
X3567619Y-30553332D02*
X3520000Y-30648570D01*
X3520000Y-30648570D02*
X3472380Y-30696189D01*
X3472380Y-29648570D02*
X3520000Y-29600951D01*
X3520000Y-29600951D02*
X3567619Y-29648570D01*
X3567619Y-29648570D02*
X3520000Y-29696189D01*
X3520000Y-29696189D02*
X3472380Y-29648570D01*
X3472380Y-29648570D02*
X3567619Y-29648570D01*
X2567619Y-29267618D02*
X2567619Y-28648571D01*
X2567619Y-28648571D02*
X2948571Y-28981904D01*
X2948571Y-28981904D02*
X2948571Y-28839047D01*
X2948571Y-28839047D02*
X2996190Y-28743809D01*
X2996190Y-28743809D02*
X3043809Y-28696190D01*
X3043809Y-28696190D02*
X3139047Y-28648571D01*
X3139047Y-28648571D02*
X3377142Y-28648571D01*
X3377142Y-28648571D02*
X3472380Y-28696190D01*
X3472380Y-28696190D02*
X3520000Y-28743809D01*
X3520000Y-28743809D02*
X3567619Y-28839047D01*
X3567619Y-28839047D02*
X3567619Y-29124761D01*
X3567619Y-29124761D02*
X3520000Y-29219999D01*
X3520000Y-29219999D02*
X3472380Y-29267618D01*
X2567619Y-28362856D02*
X3567619Y-28029523D01*
X3567619Y-28029523D02*
X2567619Y-27696190D01*
X53009523Y-13162619D02*
X52676190Y-12686428D01*
X52438095Y-13162619D02*
X52438095Y-12162619D01*
X52438095Y-12162619D02*
X52819047Y-12162619D01*
X52819047Y-12162619D02*
X52914285Y-12210238D01*
X52914285Y-12210238D02*
X52961904Y-12257857D01*
X52961904Y-12257857D02*
X53009523Y-12353095D01*
X53009523Y-12353095D02*
X53009523Y-12495952D01*
X53009523Y-12495952D02*
X52961904Y-12591190D01*
X52961904Y-12591190D02*
X52914285Y-12638809D01*
X52914285Y-12638809D02*
X52819047Y-12686428D01*
X52819047Y-12686428D02*
X52438095Y-12686428D01*
X1790952Y-50522095D02*
X1410000Y-50522095D01*
X1410000Y-50522095D02*
X1410000Y-49722095D01*
X2057619Y-50522095D02*
X2057619Y-49722095D01*
X2438571Y-50522095D02*
X2438571Y-49722095D01*
X2438571Y-49722095D02*
X2895714Y-50522095D01*
X2895714Y-50522095D02*
X2895714Y-49722095D01*
X3276666Y-50103047D02*
X3543332Y-50103047D01*
X3657618Y-50522095D02*
X3276666Y-50522095D01*
X3276666Y-50522095D02*
X3276666Y-49722095D01*
X3276666Y-49722095D02*
X3657618Y-49722095D01*
X457619Y-51018095D02*
X610000Y-51018095D01*
X610000Y-51018095D02*
X686190Y-51056190D01*
X686190Y-51056190D02*
X762381Y-51132380D01*
X762381Y-51132380D02*
X800476Y-51284761D01*
X800476Y-51284761D02*
X800476Y-51551428D01*
X800476Y-51551428D02*
X762381Y-51703809D01*
X762381Y-51703809D02*
X686190Y-51780000D01*
X686190Y-51780000D02*
X610000Y-51818095D01*
X610000Y-51818095D02*
X457619Y-51818095D01*
X457619Y-51818095D02*
X381428Y-51780000D01*
X381428Y-51780000D02*
X305238Y-51703809D01*
X305238Y-51703809D02*
X267142Y-51551428D01*
X267142Y-51551428D02*
X267142Y-51284761D01*
X267142Y-51284761D02*
X305238Y-51132380D01*
X305238Y-51132380D02*
X381428Y-51056190D01*
X381428Y-51056190D02*
X457619Y-51018095D01*
X1143333Y-51018095D02*
X1143333Y-51665714D01*
X1143333Y-51665714D02*
X1181428Y-51741904D01*
X1181428Y-51741904D02*
X1219523Y-51780000D01*
X1219523Y-51780000D02*
X1295714Y-51818095D01*
X1295714Y-51818095D02*
X1448095Y-51818095D01*
X1448095Y-51818095D02*
X1524285Y-51780000D01*
X1524285Y-51780000D02*
X1562380Y-51741904D01*
X1562380Y-51741904D02*
X1600476Y-51665714D01*
X1600476Y-51665714D02*
X1600476Y-51018095D01*
X1867142Y-51018095D02*
X2324285Y-51018095D01*
X2095713Y-51818095D02*
X2095713Y-51018095D01*
X3657619Y-51818095D02*
X3390952Y-51437142D01*
X3200476Y-51818095D02*
X3200476Y-51018095D01*
X3200476Y-51018095D02*
X3505238Y-51018095D01*
X3505238Y-51018095D02*
X3581428Y-51056190D01*
X3581428Y-51056190D02*
X3619523Y-51094285D01*
X3619523Y-51094285D02*
X3657619Y-51170476D01*
X3657619Y-51170476D02*
X3657619Y-51284761D01*
X3657619Y-51284761D02*
X3619523Y-51360952D01*
X3619523Y-51360952D02*
X3581428Y-51399047D01*
X3581428Y-51399047D02*
X3505238Y-51437142D01*
X3505238Y-51437142D02*
X3200476Y-51437142D01*
X1790952Y-47982095D02*
X1410000Y-47982095D01*
X1410000Y-47982095D02*
X1410000Y-47182095D01*
X2057619Y-47982095D02*
X2057619Y-47182095D01*
X2438571Y-47982095D02*
X2438571Y-47182095D01*
X2438571Y-47182095D02*
X2895714Y-47982095D01*
X2895714Y-47982095D02*
X2895714Y-47182095D01*
X3276666Y-47563047D02*
X3543332Y-47563047D01*
X3657618Y-47982095D02*
X3276666Y-47982095D01*
X3276666Y-47982095D02*
X3276666Y-47182095D01*
X3276666Y-47182095D02*
X3657618Y-47182095D01*
X610000Y-48478095D02*
X762381Y-48478095D01*
X762381Y-48478095D02*
X838571Y-48516190D01*
X838571Y-48516190D02*
X914762Y-48592380D01*
X914762Y-48592380D02*
X952857Y-48744761D01*
X952857Y-48744761D02*
X952857Y-49011428D01*
X952857Y-49011428D02*
X914762Y-49163809D01*
X914762Y-49163809D02*
X838571Y-49240000D01*
X838571Y-49240000D02*
X762381Y-49278095D01*
X762381Y-49278095D02*
X610000Y-49278095D01*
X610000Y-49278095D02*
X533809Y-49240000D01*
X533809Y-49240000D02*
X457619Y-49163809D01*
X457619Y-49163809D02*
X419523Y-49011428D01*
X419523Y-49011428D02*
X419523Y-48744761D01*
X419523Y-48744761D02*
X457619Y-48592380D01*
X457619Y-48592380D02*
X533809Y-48516190D01*
X533809Y-48516190D02*
X610000Y-48478095D01*
X1295714Y-48478095D02*
X1295714Y-49125714D01*
X1295714Y-49125714D02*
X1333809Y-49201904D01*
X1333809Y-49201904D02*
X1371904Y-49240000D01*
X1371904Y-49240000D02*
X1448095Y-49278095D01*
X1448095Y-49278095D02*
X1600476Y-49278095D01*
X1600476Y-49278095D02*
X1676666Y-49240000D01*
X1676666Y-49240000D02*
X1714761Y-49201904D01*
X1714761Y-49201904D02*
X1752857Y-49125714D01*
X1752857Y-49125714D02*
X1752857Y-48478095D01*
X2019523Y-48478095D02*
X2476666Y-48478095D01*
X2248094Y-49278095D02*
X2248094Y-48478095D01*
X3733809Y-49278095D02*
X3352857Y-49278095D01*
X3352857Y-49278095D02*
X3352857Y-48478095D01*
X3567619Y-19679047D02*
X3567619Y-19488571D01*
X3567619Y-19488571D02*
X3520000Y-19393333D01*
X3520000Y-19393333D02*
X3472380Y-19345714D01*
X3472380Y-19345714D02*
X3329523Y-19250476D01*
X3329523Y-19250476D02*
X3139047Y-19202857D01*
X3139047Y-19202857D02*
X2758095Y-19202857D01*
X2758095Y-19202857D02*
X2662857Y-19250476D01*
X2662857Y-19250476D02*
X2615238Y-19298095D01*
X2615238Y-19298095D02*
X2567619Y-19393333D01*
X2567619Y-19393333D02*
X2567619Y-19583809D01*
X2567619Y-19583809D02*
X2615238Y-19679047D01*
X2615238Y-19679047D02*
X2662857Y-19726666D01*
X2662857Y-19726666D02*
X2758095Y-19774285D01*
X2758095Y-19774285D02*
X2996190Y-19774285D01*
X2996190Y-19774285D02*
X3091428Y-19726666D01*
X3091428Y-19726666D02*
X3139047Y-19679047D01*
X3139047Y-19679047D02*
X3186666Y-19583809D01*
X3186666Y-19583809D02*
X3186666Y-19393333D01*
X3186666Y-19393333D02*
X3139047Y-19298095D01*
X3139047Y-19298095D02*
X3091428Y-19250476D01*
X3091428Y-19250476D02*
X2996190Y-19202857D01*
X2567619Y-18917142D02*
X3567619Y-18583809D01*
X3567619Y-18583809D02*
X2567619Y-18250476D01*
X2567619Y-24330476D02*
X2567619Y-24806666D01*
X2567619Y-24806666D02*
X3043809Y-24854285D01*
X3043809Y-24854285D02*
X2996190Y-24806666D01*
X2996190Y-24806666D02*
X2948571Y-24711428D01*
X2948571Y-24711428D02*
X2948571Y-24473333D01*
X2948571Y-24473333D02*
X2996190Y-24378095D01*
X2996190Y-24378095D02*
X3043809Y-24330476D01*
X3043809Y-24330476D02*
X3139047Y-24282857D01*
X3139047Y-24282857D02*
X3377142Y-24282857D01*
X3377142Y-24282857D02*
X3472380Y-24330476D01*
X3472380Y-24330476D02*
X3520000Y-24378095D01*
X3520000Y-24378095D02*
X3567619Y-24473333D01*
X3567619Y-24473333D02*
X3567619Y-24711428D01*
X3567619Y-24711428D02*
X3520000Y-24806666D01*
X3520000Y-24806666D02*
X3472380Y-24854285D01*
X2567619Y-23997142D02*
X3567619Y-23663809D01*
X3567619Y-23663809D02*
X2567619Y-23330476D01*
X1790952Y-42902095D02*
X1410000Y-42902095D01*
X1410000Y-42902095D02*
X1410000Y-42102095D01*
X2057619Y-42902095D02*
X2057619Y-42102095D01*
X2438571Y-42902095D02*
X2438571Y-42102095D01*
X2438571Y-42102095D02*
X2895714Y-42902095D01*
X2895714Y-42902095D02*
X2895714Y-42102095D01*
X3276666Y-42483047D02*
X3543332Y-42483047D01*
X3657618Y-42902095D02*
X3276666Y-42902095D01*
X3276666Y-42902095D02*
X3276666Y-42102095D01*
X3276666Y-42102095D02*
X3657618Y-42102095D01*
X1524286Y-44198095D02*
X1524286Y-43398095D01*
X1905238Y-44198095D02*
X1905238Y-43398095D01*
X1905238Y-43398095D02*
X2362381Y-44198095D01*
X2362381Y-44198095D02*
X2362381Y-43398095D01*
X3733809Y-44198095D02*
X3352857Y-44198095D01*
X3352857Y-44198095D02*
X3352857Y-43398095D01*
X4478571Y-11885000D02*
X5621429Y-11885000D01*
X1428571Y-83962619D02*
X1619047Y-83962619D01*
X1619047Y-83962619D02*
X1714285Y-84010238D01*
X1714285Y-84010238D02*
X1809523Y-84105476D01*
X1809523Y-84105476D02*
X1857142Y-84295952D01*
X1857142Y-84295952D02*
X1857142Y-84629285D01*
X1857142Y-84629285D02*
X1809523Y-84819761D01*
X1809523Y-84819761D02*
X1714285Y-84915000D01*
X1714285Y-84915000D02*
X1619047Y-84962619D01*
X1619047Y-84962619D02*
X1428571Y-84962619D01*
X1428571Y-84962619D02*
X1333333Y-84915000D01*
X1333333Y-84915000D02*
X1238095Y-84819761D01*
X1238095Y-84819761D02*
X1190476Y-84629285D01*
X1190476Y-84629285D02*
X1190476Y-84295952D01*
X1190476Y-84295952D02*
X1238095Y-84105476D01*
X1238095Y-84105476D02*
X1333333Y-84010238D01*
X1333333Y-84010238D02*
X1428571Y-83962619D01*
X2285714Y-83962619D02*
X2285714Y-84772142D01*
X2285714Y-84772142D02*
X2333333Y-84867380D01*
X2333333Y-84867380D02*
X2380952Y-84915000D01*
X2380952Y-84915000D02*
X2476190Y-84962619D01*
X2476190Y-84962619D02*
X2666666Y-84962619D01*
X2666666Y-84962619D02*
X2761904Y-84915000D01*
X2761904Y-84915000D02*
X2809523Y-84867380D01*
X2809523Y-84867380D02*
X2857142Y-84772142D01*
X2857142Y-84772142D02*
X2857142Y-83962619D01*
X3190476Y-83962619D02*
X3761904Y-83962619D01*
X3476190Y-84962619D02*
X3476190Y-83962619D01*
X4095238Y-84962619D02*
X4095238Y-83962619D01*
X4095238Y-83962619D02*
X4476190Y-83962619D01*
X4476190Y-83962619D02*
X4571428Y-84010238D01*
X4571428Y-84010238D02*
X4619047Y-84057857D01*
X4619047Y-84057857D02*
X4666666Y-84153095D01*
X4666666Y-84153095D02*
X4666666Y-84295952D01*
X4666666Y-84295952D02*
X4619047Y-84391190D01*
X4619047Y-84391190D02*
X4571428Y-84438809D01*
X4571428Y-84438809D02*
X4476190Y-84486428D01*
X4476190Y-84486428D02*
X4095238Y-84486428D01*
X5095238Y-83962619D02*
X5095238Y-84772142D01*
X5095238Y-84772142D02*
X5142857Y-84867380D01*
X5142857Y-84867380D02*
X5190476Y-84915000D01*
X5190476Y-84915000D02*
X5285714Y-84962619D01*
X5285714Y-84962619D02*
X5476190Y-84962619D01*
X5476190Y-84962619D02*
X5571428Y-84915000D01*
X5571428Y-84915000D02*
X5619047Y-84867380D01*
X5619047Y-84867380D02*
X5666666Y-84772142D01*
X5666666Y-84772142D02*
X5666666Y-83962619D01*
X6000000Y-83962619D02*
X6571428Y-83962619D01*
X6285714Y-84962619D02*
X6285714Y-83962619D01*
X1790952Y-45442095D02*
X1410000Y-45442095D01*
X1410000Y-45442095D02*
X1410000Y-44642095D01*
X2057619Y-45442095D02*
X2057619Y-44642095D01*
X2438571Y-45442095D02*
X2438571Y-44642095D01*
X2438571Y-44642095D02*
X2895714Y-45442095D01*
X2895714Y-45442095D02*
X2895714Y-44642095D01*
X3276666Y-45023047D02*
X3543332Y-45023047D01*
X3657618Y-45442095D02*
X3276666Y-45442095D01*
X3276666Y-45442095D02*
X3276666Y-44642095D01*
X3276666Y-44642095D02*
X3657618Y-44642095D01*
X1371905Y-46738095D02*
X1371905Y-45938095D01*
X1752857Y-46738095D02*
X1752857Y-45938095D01*
X1752857Y-45938095D02*
X2210000Y-46738095D01*
X2210000Y-46738095D02*
X2210000Y-45938095D01*
X3657619Y-46738095D02*
X3390952Y-46357142D01*
X3200476Y-46738095D02*
X3200476Y-45938095D01*
X3200476Y-45938095D02*
X3505238Y-45938095D01*
X3505238Y-45938095D02*
X3581428Y-45976190D01*
X3581428Y-45976190D02*
X3619523Y-46014285D01*
X3619523Y-46014285D02*
X3657619Y-46090476D01*
X3657619Y-46090476D02*
X3657619Y-46204761D01*
X3657619Y-46204761D02*
X3619523Y-46280952D01*
X3619523Y-46280952D02*
X3581428Y-46319047D01*
X3581428Y-46319047D02*
X3505238Y-46357142D01*
X3505238Y-46357142D02*
X3200476Y-46357142D01*
X48904762Y-84962619D02*
X48904762Y-83962619D01*
X49380952Y-84962619D02*
X49380952Y-83962619D01*
X49380952Y-83962619D02*
X49952380Y-84962619D01*
X49952380Y-84962619D02*
X49952380Y-83962619D01*
X50428571Y-84962619D02*
X50428571Y-83962619D01*
X50428571Y-83962619D02*
X50809523Y-83962619D01*
X50809523Y-83962619D02*
X50904761Y-84010238D01*
X50904761Y-84010238D02*
X50952380Y-84057857D01*
X50952380Y-84057857D02*
X50999999Y-84153095D01*
X50999999Y-84153095D02*
X50999999Y-84295952D01*
X50999999Y-84295952D02*
X50952380Y-84391190D01*
X50952380Y-84391190D02*
X50904761Y-84438809D01*
X50904761Y-84438809D02*
X50809523Y-84486428D01*
X50809523Y-84486428D02*
X50428571Y-84486428D01*
X51428571Y-83962619D02*
X51428571Y-84772142D01*
X51428571Y-84772142D02*
X51476190Y-84867380D01*
X51476190Y-84867380D02*
X51523809Y-84915000D01*
X51523809Y-84915000D02*
X51619047Y-84962619D01*
X51619047Y-84962619D02*
X51809523Y-84962619D01*
X51809523Y-84962619D02*
X51904761Y-84915000D01*
X51904761Y-84915000D02*
X51952380Y-84867380D01*
X51952380Y-84867380D02*
X51999999Y-84772142D01*
X51999999Y-84772142D02*
X51999999Y-83962619D01*
X52333333Y-83962619D02*
X52904761Y-83962619D01*
X52619047Y-84962619D02*
X52619047Y-83962619D01*
X52914285Y-8082619D02*
X52438095Y-8082619D01*
X52438095Y-8082619D02*
X52438095Y-7082619D01*
X1938571Y-11885000D02*
X3081429Y-11885000D01*
X2510000Y-12456428D02*
X2510000Y-11313571D01*
X1333809Y-31942095D02*
X1333809Y-32513523D01*
X1333809Y-32513523D02*
X1295714Y-32627809D01*
X1295714Y-32627809D02*
X1219523Y-32704000D01*
X1219523Y-32704000D02*
X1105238Y-32742095D01*
X1105238Y-32742095D02*
X1029047Y-32742095D01*
X1676666Y-32513523D02*
X2057619Y-32513523D01*
X1600476Y-32742095D02*
X1867143Y-31942095D01*
X1867143Y-31942095D02*
X2133809Y-32742095D01*
X2857619Y-32665904D02*
X2819523Y-32704000D01*
X2819523Y-32704000D02*
X2705238Y-32742095D01*
X2705238Y-32742095D02*
X2629047Y-32742095D01*
X2629047Y-32742095D02*
X2514761Y-32704000D01*
X2514761Y-32704000D02*
X2438571Y-32627809D01*
X2438571Y-32627809D02*
X2400476Y-32551619D01*
X2400476Y-32551619D02*
X2362380Y-32399238D01*
X2362380Y-32399238D02*
X2362380Y-32284952D01*
X2362380Y-32284952D02*
X2400476Y-32132571D01*
X2400476Y-32132571D02*
X2438571Y-32056380D01*
X2438571Y-32056380D02*
X2514761Y-31980190D01*
X2514761Y-31980190D02*
X2629047Y-31942095D01*
X2629047Y-31942095D02*
X2705238Y-31942095D01*
X2705238Y-31942095D02*
X2819523Y-31980190D01*
X2819523Y-31980190D02*
X2857619Y-32018285D01*
X3200476Y-32742095D02*
X3200476Y-31942095D01*
X3657619Y-32742095D02*
X3314761Y-32284952D01*
X3657619Y-31942095D02*
X3200476Y-32399238D01*
X2781429Y-34038095D02*
X2781429Y-33238095D01*
X3162381Y-34038095D02*
X3162381Y-33238095D01*
X3162381Y-33238095D02*
X3619524Y-34038095D01*
X3619524Y-34038095D02*
X3619524Y-33238095D01*
X419524Y-37822095D02*
X419524Y-37022095D01*
X419524Y-37022095D02*
X724286Y-37022095D01*
X724286Y-37022095D02*
X800476Y-37060190D01*
X800476Y-37060190D02*
X838571Y-37098285D01*
X838571Y-37098285D02*
X876667Y-37174476D01*
X876667Y-37174476D02*
X876667Y-37288761D01*
X876667Y-37288761D02*
X838571Y-37364952D01*
X838571Y-37364952D02*
X800476Y-37403047D01*
X800476Y-37403047D02*
X724286Y-37441142D01*
X724286Y-37441142D02*
X419524Y-37441142D01*
X1257619Y-37022095D02*
X1181428Y-37174476D01*
X1562380Y-37593523D02*
X1943333Y-37593523D01*
X1486190Y-37822095D02*
X1752857Y-37022095D01*
X1752857Y-37022095D02*
X2019523Y-37822095D01*
X2286190Y-37822095D02*
X2286190Y-37022095D01*
X2286190Y-37022095D02*
X2552856Y-37593523D01*
X2552856Y-37593523D02*
X2819523Y-37022095D01*
X2819523Y-37022095D02*
X2819523Y-37822095D01*
X3200476Y-37822095D02*
X3200476Y-37022095D01*
X3200476Y-37022095D02*
X3505238Y-37022095D01*
X3505238Y-37022095D02*
X3581428Y-37060190D01*
X3581428Y-37060190D02*
X3619523Y-37098285D01*
X3619523Y-37098285D02*
X3657619Y-37174476D01*
X3657619Y-37174476D02*
X3657619Y-37288761D01*
X3657619Y-37288761D02*
X3619523Y-37364952D01*
X3619523Y-37364952D02*
X3581428Y-37403047D01*
X3581428Y-37403047D02*
X3505238Y-37441142D01*
X3505238Y-37441142D02*
X3200476Y-37441142D01*
X1524286Y-39118095D02*
X1524286Y-38318095D01*
X1905238Y-39118095D02*
X1905238Y-38318095D01*
X1905238Y-38318095D02*
X2362381Y-39118095D01*
X2362381Y-39118095D02*
X2362381Y-38318095D01*
X3733809Y-39118095D02*
X3352857Y-39118095D01*
X3352857Y-39118095D02*
X3352857Y-38318095D01*
X2209999Y-53062095D02*
X1829047Y-53062095D01*
X1829047Y-53062095D02*
X1829047Y-52262095D01*
X2476666Y-52643047D02*
X2743332Y-52643047D01*
X2857618Y-53062095D02*
X2476666Y-53062095D01*
X2476666Y-53062095D02*
X2476666Y-52262095D01*
X2476666Y-52262095D02*
X2857618Y-52262095D01*
X3200476Y-53062095D02*
X3200476Y-52262095D01*
X3200476Y-52262095D02*
X3390952Y-52262095D01*
X3390952Y-52262095D02*
X3505238Y-52300190D01*
X3505238Y-52300190D02*
X3581428Y-52376380D01*
X3581428Y-52376380D02*
X3619523Y-52452571D01*
X3619523Y-52452571D02*
X3657619Y-52604952D01*
X3657619Y-52604952D02*
X3657619Y-52719238D01*
X3657619Y-52719238D02*
X3619523Y-52871619D01*
X3619523Y-52871619D02*
X3581428Y-52947809D01*
X3581428Y-52947809D02*
X3505238Y-53024000D01*
X3505238Y-53024000D02*
X3390952Y-53062095D01*
X3390952Y-53062095D02*
X3200476Y-53062095D01*
X1600476Y-54053333D02*
X2210000Y-54053333D01*
X2476666Y-53558095D02*
X2743333Y-54358095D01*
X2743333Y-54358095D02*
X3009999Y-53558095D01*
X3276666Y-53939047D02*
X3543332Y-53939047D01*
X3657618Y-54358095D02*
X3276666Y-54358095D01*
X3276666Y-54358095D02*
X3276666Y-53558095D01*
X3276666Y-53558095D02*
X3657618Y-53558095D01*
X1333809Y-34482095D02*
X1333809Y-35053523D01*
X1333809Y-35053523D02*
X1295714Y-35167809D01*
X1295714Y-35167809D02*
X1219523Y-35244000D01*
X1219523Y-35244000D02*
X1105238Y-35282095D01*
X1105238Y-35282095D02*
X1029047Y-35282095D01*
X1676666Y-35053523D02*
X2057619Y-35053523D01*
X1600476Y-35282095D02*
X1867143Y-34482095D01*
X1867143Y-34482095D02*
X2133809Y-35282095D01*
X2857619Y-35205904D02*
X2819523Y-35244000D01*
X2819523Y-35244000D02*
X2705238Y-35282095D01*
X2705238Y-35282095D02*
X2629047Y-35282095D01*
X2629047Y-35282095D02*
X2514761Y-35244000D01*
X2514761Y-35244000D02*
X2438571Y-35167809D01*
X2438571Y-35167809D02*
X2400476Y-35091619D01*
X2400476Y-35091619D02*
X2362380Y-34939238D01*
X2362380Y-34939238D02*
X2362380Y-34824952D01*
X2362380Y-34824952D02*
X2400476Y-34672571D01*
X2400476Y-34672571D02*
X2438571Y-34596380D01*
X2438571Y-34596380D02*
X2514761Y-34520190D01*
X2514761Y-34520190D02*
X2629047Y-34482095D01*
X2629047Y-34482095D02*
X2705238Y-34482095D01*
X2705238Y-34482095D02*
X2819523Y-34520190D01*
X2819523Y-34520190D02*
X2857619Y-34558285D01*
X3200476Y-35282095D02*
X3200476Y-34482095D01*
X3657619Y-35282095D02*
X3314761Y-34824952D01*
X3657619Y-34482095D02*
X3200476Y-34939238D01*
X1867143Y-35778095D02*
X2019524Y-35778095D01*
X2019524Y-35778095D02*
X2095714Y-35816190D01*
X2095714Y-35816190D02*
X2171905Y-35892380D01*
X2171905Y-35892380D02*
X2210000Y-36044761D01*
X2210000Y-36044761D02*
X2210000Y-36311428D01*
X2210000Y-36311428D02*
X2171905Y-36463809D01*
X2171905Y-36463809D02*
X2095714Y-36540000D01*
X2095714Y-36540000D02*
X2019524Y-36578095D01*
X2019524Y-36578095D02*
X1867143Y-36578095D01*
X1867143Y-36578095D02*
X1790952Y-36540000D01*
X1790952Y-36540000D02*
X1714762Y-36463809D01*
X1714762Y-36463809D02*
X1676666Y-36311428D01*
X1676666Y-36311428D02*
X1676666Y-36044761D01*
X1676666Y-36044761D02*
X1714762Y-35892380D01*
X1714762Y-35892380D02*
X1790952Y-35816190D01*
X1790952Y-35816190D02*
X1867143Y-35778095D01*
X2552857Y-35778095D02*
X2552857Y-36425714D01*
X2552857Y-36425714D02*
X2590952Y-36501904D01*
X2590952Y-36501904D02*
X2629047Y-36540000D01*
X2629047Y-36540000D02*
X2705238Y-36578095D01*
X2705238Y-36578095D02*
X2857619Y-36578095D01*
X2857619Y-36578095D02*
X2933809Y-36540000D01*
X2933809Y-36540000D02*
X2971904Y-36501904D01*
X2971904Y-36501904D02*
X3010000Y-36425714D01*
X3010000Y-36425714D02*
X3010000Y-35778095D01*
X3276666Y-35778095D02*
X3733809Y-35778095D01*
X3505237Y-36578095D02*
X3505237Y-35778095D01*
X2615238Y-59171904D02*
X2567619Y-59267142D01*
X2567619Y-59267142D02*
X2567619Y-59409999D01*
X2567619Y-59409999D02*
X2615238Y-59552856D01*
X2615238Y-59552856D02*
X2710476Y-59648094D01*
X2710476Y-59648094D02*
X2805714Y-59695713D01*
X2805714Y-59695713D02*
X2996190Y-59743332D01*
X2996190Y-59743332D02*
X3139047Y-59743332D01*
X3139047Y-59743332D02*
X3329523Y-59695713D01*
X3329523Y-59695713D02*
X3424761Y-59648094D01*
X3424761Y-59648094D02*
X3520000Y-59552856D01*
X3520000Y-59552856D02*
X3567619Y-59409999D01*
X3567619Y-59409999D02*
X3567619Y-59314761D01*
X3567619Y-59314761D02*
X3520000Y-59171904D01*
X3520000Y-59171904D02*
X3472380Y-59124285D01*
X3472380Y-59124285D02*
X3139047Y-59124285D01*
X3139047Y-59124285D02*
X3139047Y-59314761D01*
X3567619Y-58695713D02*
X2567619Y-58695713D01*
X2567619Y-58695713D02*
X3567619Y-58124285D01*
X3567619Y-58124285D02*
X2567619Y-58124285D01*
X3567619Y-57648094D02*
X2567619Y-57648094D01*
X2567619Y-57648094D02*
X2567619Y-57409999D01*
X2567619Y-57409999D02*
X2615238Y-57267142D01*
X2615238Y-57267142D02*
X2710476Y-57171904D01*
X2710476Y-57171904D02*
X2805714Y-57124285D01*
X2805714Y-57124285D02*
X2996190Y-57076666D01*
X2996190Y-57076666D02*
X3139047Y-57076666D01*
X3139047Y-57076666D02*
X3329523Y-57124285D01*
X3329523Y-57124285D02*
X3424761Y-57171904D01*
X3424761Y-57171904D02*
X3520000Y-57267142D01*
X3520000Y-57267142D02*
X3567619Y-57409999D01*
X3567619Y-57409999D02*
X3567619Y-57648094D01*
%TO.C,L1*%
X19462619Y-8566666D02*
X19462619Y-9042856D01*
X19462619Y-9042856D02*
X18462619Y-9042856D01*
X19462619Y-7709523D02*
X19462619Y-8280951D01*
X19462619Y-7995237D02*
X18462619Y-7995237D01*
X18462619Y-7995237D02*
X18605476Y-8090475D01*
X18605476Y-8090475D02*
X18700714Y-8185713D01*
X18700714Y-8185713D02*
X18748333Y-8280951D01*
%TO.C,J13*%
X8771428Y-89418285D02*
X8809524Y-89380190D01*
X8809524Y-89380190D02*
X8885714Y-89342095D01*
X8885714Y-89342095D02*
X9076190Y-89342095D01*
X9076190Y-89342095D02*
X9152381Y-89380190D01*
X9152381Y-89380190D02*
X9190476Y-89418285D01*
X9190476Y-89418285D02*
X9228571Y-89494476D01*
X9228571Y-89494476D02*
X9228571Y-89570666D01*
X9228571Y-89570666D02*
X9190476Y-89684952D01*
X9190476Y-89684952D02*
X8733333Y-90142095D01*
X8733333Y-90142095D02*
X9228571Y-90142095D01*
X11652381Y-86802095D02*
X11500000Y-86802095D01*
X11500000Y-86802095D02*
X11423809Y-86840190D01*
X11423809Y-86840190D02*
X11385714Y-86878285D01*
X11385714Y-86878285D02*
X11309524Y-86992571D01*
X11309524Y-86992571D02*
X11271428Y-87144952D01*
X11271428Y-87144952D02*
X11271428Y-87449714D01*
X11271428Y-87449714D02*
X11309524Y-87525904D01*
X11309524Y-87525904D02*
X11347619Y-87564000D01*
X11347619Y-87564000D02*
X11423809Y-87602095D01*
X11423809Y-87602095D02*
X11576190Y-87602095D01*
X11576190Y-87602095D02*
X11652381Y-87564000D01*
X11652381Y-87564000D02*
X11690476Y-87525904D01*
X11690476Y-87525904D02*
X11728571Y-87449714D01*
X11728571Y-87449714D02*
X11728571Y-87259238D01*
X11728571Y-87259238D02*
X11690476Y-87183047D01*
X11690476Y-87183047D02*
X11652381Y-87144952D01*
X11652381Y-87144952D02*
X11576190Y-87106857D01*
X11576190Y-87106857D02*
X11423809Y-87106857D01*
X11423809Y-87106857D02*
X11347619Y-87144952D01*
X11347619Y-87144952D02*
X11309524Y-87183047D01*
X11309524Y-87183047D02*
X11271428Y-87259238D01*
X8733333Y-86802095D02*
X9228571Y-86802095D01*
X9228571Y-86802095D02*
X8961905Y-87106857D01*
X8961905Y-87106857D02*
X9076190Y-87106857D01*
X9076190Y-87106857D02*
X9152381Y-87144952D01*
X9152381Y-87144952D02*
X9190476Y-87183047D01*
X9190476Y-87183047D02*
X9228571Y-87259238D01*
X9228571Y-87259238D02*
X9228571Y-87449714D01*
X9228571Y-87449714D02*
X9190476Y-87525904D01*
X9190476Y-87525904D02*
X9152381Y-87564000D01*
X9152381Y-87564000D02*
X9076190Y-87602095D01*
X9076190Y-87602095D02*
X8847619Y-87602095D01*
X8847619Y-87602095D02*
X8771428Y-87564000D01*
X8771428Y-87564000D02*
X8733333Y-87525904D01*
X11690476Y-89342095D02*
X11309524Y-89342095D01*
X11309524Y-89342095D02*
X11271428Y-89723047D01*
X11271428Y-89723047D02*
X11309524Y-89684952D01*
X11309524Y-89684952D02*
X11385714Y-89646857D01*
X11385714Y-89646857D02*
X11576190Y-89646857D01*
X11576190Y-89646857D02*
X11652381Y-89684952D01*
X11652381Y-89684952D02*
X11690476Y-89723047D01*
X11690476Y-89723047D02*
X11728571Y-89799238D01*
X11728571Y-89799238D02*
X11728571Y-89989714D01*
X11728571Y-89989714D02*
X11690476Y-90065904D01*
X11690476Y-90065904D02*
X11652381Y-90104000D01*
X11652381Y-90104000D02*
X11576190Y-90142095D01*
X11576190Y-90142095D02*
X11385714Y-90142095D01*
X11385714Y-90142095D02*
X11309524Y-90104000D01*
X11309524Y-90104000D02*
X11271428Y-90065904D01*
X13833333Y-91882095D02*
X14366667Y-91882095D01*
X14366667Y-91882095D02*
X14023809Y-92682095D01*
X9228571Y-92682095D02*
X8771428Y-92682095D01*
X9000000Y-92682095D02*
X9000000Y-91882095D01*
X9000000Y-91882095D02*
X8923809Y-91996380D01*
X8923809Y-91996380D02*
X8847619Y-92072571D01*
X8847619Y-92072571D02*
X8771428Y-92110666D01*
X14023809Y-89684952D02*
X13947619Y-89646857D01*
X13947619Y-89646857D02*
X13909524Y-89608761D01*
X13909524Y-89608761D02*
X13871428Y-89532571D01*
X13871428Y-89532571D02*
X13871428Y-89494476D01*
X13871428Y-89494476D02*
X13909524Y-89418285D01*
X13909524Y-89418285D02*
X13947619Y-89380190D01*
X13947619Y-89380190D02*
X14023809Y-89342095D01*
X14023809Y-89342095D02*
X14176190Y-89342095D01*
X14176190Y-89342095D02*
X14252381Y-89380190D01*
X14252381Y-89380190D02*
X14290476Y-89418285D01*
X14290476Y-89418285D02*
X14328571Y-89494476D01*
X14328571Y-89494476D02*
X14328571Y-89532571D01*
X14328571Y-89532571D02*
X14290476Y-89608761D01*
X14290476Y-89608761D02*
X14252381Y-89646857D01*
X14252381Y-89646857D02*
X14176190Y-89684952D01*
X14176190Y-89684952D02*
X14023809Y-89684952D01*
X14023809Y-89684952D02*
X13947619Y-89723047D01*
X13947619Y-89723047D02*
X13909524Y-89761142D01*
X13909524Y-89761142D02*
X13871428Y-89837333D01*
X13871428Y-89837333D02*
X13871428Y-89989714D01*
X13871428Y-89989714D02*
X13909524Y-90065904D01*
X13909524Y-90065904D02*
X13947619Y-90104000D01*
X13947619Y-90104000D02*
X14023809Y-90142095D01*
X14023809Y-90142095D02*
X14176190Y-90142095D01*
X14176190Y-90142095D02*
X14252381Y-90104000D01*
X14252381Y-90104000D02*
X14290476Y-90065904D01*
X14290476Y-90065904D02*
X14328571Y-89989714D01*
X14328571Y-89989714D02*
X14328571Y-89837333D01*
X14328571Y-89837333D02*
X14290476Y-89761142D01*
X14290476Y-89761142D02*
X14252381Y-89723047D01*
X14252381Y-89723047D02*
X14176190Y-89684952D01*
X11652381Y-92148761D02*
X11652381Y-92682095D01*
X11461905Y-91844000D02*
X11271428Y-92415428D01*
X11271428Y-92415428D02*
X11766667Y-92415428D01*
X13947619Y-87602095D02*
X14100000Y-87602095D01*
X14100000Y-87602095D02*
X14176190Y-87564000D01*
X14176190Y-87564000D02*
X14214286Y-87525904D01*
X14214286Y-87525904D02*
X14290476Y-87411619D01*
X14290476Y-87411619D02*
X14328571Y-87259238D01*
X14328571Y-87259238D02*
X14328571Y-86954476D01*
X14328571Y-86954476D02*
X14290476Y-86878285D01*
X14290476Y-86878285D02*
X14252381Y-86840190D01*
X14252381Y-86840190D02*
X14176190Y-86802095D01*
X14176190Y-86802095D02*
X14023809Y-86802095D01*
X14023809Y-86802095D02*
X13947619Y-86840190D01*
X13947619Y-86840190D02*
X13909524Y-86878285D01*
X13909524Y-86878285D02*
X13871428Y-86954476D01*
X13871428Y-86954476D02*
X13871428Y-87144952D01*
X13871428Y-87144952D02*
X13909524Y-87221142D01*
X13909524Y-87221142D02*
X13947619Y-87259238D01*
X13947619Y-87259238D02*
X14023809Y-87297333D01*
X14023809Y-87297333D02*
X14176190Y-87297333D01*
X14176190Y-87297333D02*
X14252381Y-87259238D01*
X14252381Y-87259238D02*
X14290476Y-87221142D01*
X14290476Y-87221142D02*
X14328571Y-87144952D01*
%TO.C,U1*%
X36838095Y-1532619D02*
X36838095Y-2342142D01*
X36838095Y-2342142D02*
X36885714Y-2437380D01*
X36885714Y-2437380D02*
X36933333Y-2485000D01*
X36933333Y-2485000D02*
X37028571Y-2532619D01*
X37028571Y-2532619D02*
X37219047Y-2532619D01*
X37219047Y-2532619D02*
X37314285Y-2485000D01*
X37314285Y-2485000D02*
X37361904Y-2437380D01*
X37361904Y-2437380D02*
X37409523Y-2342142D01*
X37409523Y-2342142D02*
X37409523Y-1532619D01*
X37838095Y-2485000D02*
X37980952Y-2532619D01*
X37980952Y-2532619D02*
X38219047Y-2532619D01*
X38219047Y-2532619D02*
X38314285Y-2485000D01*
X38314285Y-2485000D02*
X38361904Y-2437380D01*
X38361904Y-2437380D02*
X38409523Y-2342142D01*
X38409523Y-2342142D02*
X38409523Y-2246904D01*
X38409523Y-2246904D02*
X38361904Y-2151666D01*
X38361904Y-2151666D02*
X38314285Y-2104047D01*
X38314285Y-2104047D02*
X38219047Y-2056428D01*
X38219047Y-2056428D02*
X38028571Y-2008809D01*
X38028571Y-2008809D02*
X37933333Y-1961190D01*
X37933333Y-1961190D02*
X37885714Y-1913571D01*
X37885714Y-1913571D02*
X37838095Y-1818333D01*
X37838095Y-1818333D02*
X37838095Y-1723095D01*
X37838095Y-1723095D02*
X37885714Y-1627857D01*
X37885714Y-1627857D02*
X37933333Y-1580238D01*
X37933333Y-1580238D02*
X38028571Y-1532619D01*
X38028571Y-1532619D02*
X38266666Y-1532619D01*
X38266666Y-1532619D02*
X38409523Y-1580238D01*
X39171428Y-2008809D02*
X39314285Y-2056428D01*
X39314285Y-2056428D02*
X39361904Y-2104047D01*
X39361904Y-2104047D02*
X39409523Y-2199285D01*
X39409523Y-2199285D02*
X39409523Y-2342142D01*
X39409523Y-2342142D02*
X39361904Y-2437380D01*
X39361904Y-2437380D02*
X39314285Y-2485000D01*
X39314285Y-2485000D02*
X39219047Y-2532619D01*
X39219047Y-2532619D02*
X38838095Y-2532619D01*
X38838095Y-2532619D02*
X38838095Y-1532619D01*
X38838095Y-1532619D02*
X39171428Y-1532619D01*
X39171428Y-1532619D02*
X39266666Y-1580238D01*
X39266666Y-1580238D02*
X39314285Y-1627857D01*
X39314285Y-1627857D02*
X39361904Y-1723095D01*
X39361904Y-1723095D02*
X39361904Y-1818333D01*
X39361904Y-1818333D02*
X39314285Y-1913571D01*
X39314285Y-1913571D02*
X39266666Y-1961190D01*
X39266666Y-1961190D02*
X39171428Y-2008809D01*
X39171428Y-2008809D02*
X38838095Y-2008809D01*
%TO.C,D1*%
X7238095Y-4762619D02*
X7238095Y-3762619D01*
X7809523Y-4762619D02*
X7380952Y-4191190D01*
X7809523Y-3762619D02*
X7238095Y-4334047D01*
D11*
%TO.C,L1*%
X26260000Y-4540000D02*
X26110000Y-4540000D01*
X26260000Y-11060000D02*
X26110000Y-11060000D01*
X19740000Y-4540000D02*
X19890000Y-4540000D01*
X19740000Y-11060000D02*
X19890000Y-11060000D01*
X26260000Y-11060000D02*
X26260000Y-4540000D01*
X19740000Y-11060000D02*
X19740000Y-4540000D01*
%TO.C,C21*%
X37909420Y-8090000D02*
X38190580Y-8090000D01*
X37909420Y-9110000D02*
X38190580Y-9110000D01*
%TO.C,R19*%
X43412258Y-20122500D02*
X42937742Y-20122500D01*
X43412258Y-19077500D02*
X42937742Y-19077500D01*
%TO.C,C7*%
X44984420Y-88690000D02*
X45265580Y-88690000D01*
X44984420Y-89710000D02*
X45265580Y-89710000D01*
%TO.C,R10*%
X42422500Y-48862742D02*
X42422500Y-49337258D01*
X41377500Y-48862742D02*
X41377500Y-49337258D01*
%TO.C,R23*%
X41177500Y-93112258D02*
X41177500Y-92637742D01*
X42222500Y-93112258D02*
X42222500Y-92637742D01*
%TO.C,C22*%
X34115580Y-16610000D02*
X33834420Y-16610000D01*
X34115580Y-15590000D02*
X33834420Y-15590000D01*
%TO.C,D2*%
X17510000Y-4350000D02*
X12000000Y-4350000D01*
X17510000Y-7650000D02*
X12000000Y-7650000D01*
X17510000Y-7650000D02*
X17510000Y-4350000D01*
%TO.C,R17*%
X34727500Y-31087258D02*
X34727500Y-30612742D01*
X35772500Y-31087258D02*
X35772500Y-30612742D01*
%TO.C,R25*%
X3630000Y-101060000D02*
X3630000Y-94520000D01*
X3960000Y-101060000D02*
X3630000Y-101060000D01*
X6040000Y-101060000D02*
X6370000Y-101060000D01*
X6370000Y-101060000D02*
X6370000Y-94520000D01*
X3630000Y-94520000D02*
X3960000Y-94520000D01*
X6370000Y-94520000D02*
X6040000Y-94520000D01*
%TO.C,U3*%
X35845000Y-42975000D02*
X35845000Y-46425000D01*
X35845000Y-42975000D02*
X35845000Y-41025000D01*
X40965000Y-42975000D02*
X40965000Y-44925000D01*
X40965000Y-42975000D02*
X40965000Y-41025000D01*
%TO.C,U5*%
X36690000Y-14260000D02*
X36690000Y-13810000D01*
X37140000Y-11040000D02*
X36690000Y-11040000D01*
X37140000Y-14260000D02*
X36690000Y-14260000D01*
X39460000Y-11040000D02*
X39910000Y-11040000D01*
X39460000Y-14260000D02*
X39910000Y-14260000D01*
X39910000Y-11040000D02*
X39910000Y-11490000D01*
X39910000Y-14260000D02*
X39910000Y-13810000D01*
%TO.C,R20*%
X42587742Y-7677500D02*
X43062258Y-7677500D01*
X42587742Y-8722500D02*
X43062258Y-8722500D01*
%TO.C,R16*%
X40227500Y-31087258D02*
X40227500Y-30612742D01*
X41272500Y-31087258D02*
X41272500Y-30612742D01*
%TO.C,FB1*%
X42150279Y-6610000D02*
X41824721Y-6610000D01*
X42150279Y-5590000D02*
X41824721Y-5590000D01*
%TO.C,C4*%
X19140580Y-15065000D02*
X18859420Y-15065000D01*
X19140580Y-16085000D02*
X18859420Y-16085000D01*
%TO.C,U2*%
X13000000Y-10440000D02*
X9550000Y-10440000D01*
X13000000Y-10440000D02*
X14950000Y-10440000D01*
X13000000Y-15560000D02*
X11050000Y-15560000D01*
X13000000Y-15560000D02*
X14950000Y-15560000D01*
%TO.C,C8*%
X48084420Y-88690000D02*
X48365580Y-88690000D01*
X48084420Y-89710000D02*
X48365580Y-89710000D01*
%TO.C,R15*%
X39812258Y-38922500D02*
X39337742Y-38922500D01*
X39812258Y-37877500D02*
X39337742Y-37877500D01*
%TO.C,R18*%
X43412258Y-22722500D02*
X42937742Y-22722500D01*
X43412258Y-21677500D02*
X42937742Y-21677500D01*
%TO.C,R3*%
X23237742Y-16097500D02*
X23712258Y-16097500D01*
X23237742Y-15052500D02*
X23712258Y-15052500D01*
%TO.C,J12*%
X52130000Y-14030000D02*
X50800000Y-14030000D01*
X52130000Y-12700000D02*
X52130000Y-14030000D01*
X52130000Y-11430000D02*
X52130000Y-6290000D01*
X52130000Y-11430000D02*
X49470000Y-11430000D01*
X52130000Y-6290000D02*
X49470000Y-6290000D01*
X49470000Y-11430000D02*
X49470000Y-6290000D01*
%TO.C,C1*%
X9510000Y-8261252D02*
X9510000Y-7738748D01*
X8040000Y-8261252D02*
X8040000Y-7738748D01*
%TO.C,J11*%
X6410000Y-12640000D02*
X6410000Y-13970000D01*
X5080000Y-12640000D02*
X6410000Y-12640000D01*
X3810000Y-12640000D02*
X1210000Y-12640000D01*
X3810000Y-12640000D02*
X3810000Y-15300000D01*
X1210000Y-12640000D02*
X1210000Y-15300000D01*
X3810000Y-15300000D02*
X1210000Y-15300000D01*
%TO.C,C16*%
X39660000Y-27634420D02*
X39660000Y-27915580D01*
X38640000Y-27634420D02*
X38640000Y-27915580D01*
%TO.C,U4*%
X36465000Y-5662500D02*
X36465000Y-7337500D01*
X36465000Y-5662500D02*
X36465000Y-5012500D01*
X39585000Y-5662500D02*
X39585000Y-6312500D01*
X39585000Y-5662500D02*
X39585000Y-5012500D01*
%TO.C,R11*%
X41477500Y-39412258D02*
X41477500Y-38937742D01*
X42522500Y-39412258D02*
X42522500Y-38937742D01*
%TO.C,R13*%
X39237258Y-48722500D02*
X38762742Y-48722500D01*
X39237258Y-47677500D02*
X38762742Y-47677500D01*
%TO.C,D4*%
X34640000Y-24237500D02*
X34640000Y-25912500D01*
X34640000Y-24237500D02*
X34640000Y-23587500D01*
X37760000Y-24237500D02*
X37760000Y-24887500D01*
X37760000Y-24237500D02*
X37760000Y-23587500D01*
%TO.C,R22*%
X41177500Y-90012258D02*
X41177500Y-89537742D01*
X42222500Y-90012258D02*
X42222500Y-89537742D01*
%TO.C,C26*%
X40610000Y-86584420D02*
X40610000Y-86865580D01*
X39590000Y-86584420D02*
X39590000Y-86865580D01*
%TO.C,R7*%
X47987742Y-85477500D02*
X48462258Y-85477500D01*
X47987742Y-86522500D02*
X48462258Y-86522500D01*
%TO.C,C3*%
X7490000Y-13859420D02*
X7490000Y-14140580D01*
X8510000Y-13859420D02*
X8510000Y-14140580D01*
%TO.C,J13*%
X10160000Y-87930000D02*
X10160000Y-87330000D01*
X10160000Y-90470000D02*
X10160000Y-89870000D01*
X12700000Y-87940000D02*
X12700000Y-87340000D01*
X12700000Y-90480000D02*
X12700000Y-89880000D01*
X15240000Y-87940000D02*
X15240000Y-87340000D01*
X15240000Y-90480000D02*
X15240000Y-89880000D01*
%TO.C,D3*%
X38240000Y-24237500D02*
X38240000Y-25912500D01*
X38240000Y-24237500D02*
X38240000Y-23587500D01*
X41360000Y-24237500D02*
X41360000Y-24887500D01*
X41360000Y-24237500D02*
X41360000Y-23587500D01*
%TO.C,C23*%
X32290000Y-12740580D02*
X32290000Y-12459420D01*
X33310000Y-12740580D02*
X33310000Y-12459420D01*
%TO.C,C24*%
X33990000Y-13140580D02*
X33990000Y-12859420D01*
X35010000Y-13140580D02*
X35010000Y-12859420D01*
%TO.C,R8*%
X44887742Y-87077500D02*
X45362258Y-87077500D01*
X44887742Y-88122500D02*
X45362258Y-88122500D01*
%TO.C,C19*%
X43810000Y-14359420D02*
X43810000Y-14640580D01*
X42790000Y-14359420D02*
X42790000Y-14640580D01*
%TO.C,R6*%
X44887742Y-85477500D02*
X45362258Y-85477500D01*
X44887742Y-86522500D02*
X45362258Y-86522500D01*
%TO.C,C13*%
X34290000Y-42715580D02*
X34290000Y-42434420D01*
X35310000Y-42715580D02*
X35310000Y-42434420D01*
%TO.C,R21*%
X39577500Y-90012258D02*
X39577500Y-89537742D01*
X40622500Y-90012258D02*
X40622500Y-89537742D01*
%TO.C,C17*%
X37360000Y-27659420D02*
X37360000Y-27940580D01*
X36340000Y-27659420D02*
X36340000Y-27940580D01*
%TO.C,C14*%
X39660000Y-30709420D02*
X39660000Y-30990580D01*
X38640000Y-30709420D02*
X38640000Y-30990580D01*
%TO.C,R1*%
X19702500Y-12762742D02*
X19702500Y-13237258D01*
X20747500Y-12762742D02*
X20747500Y-13237258D01*
%TO.C,R9*%
X47987742Y-87077500D02*
X48462258Y-87077500D01*
X47987742Y-88122500D02*
X48462258Y-88122500D01*
%TO.C,C11*%
X39140580Y-50510000D02*
X38859420Y-50510000D01*
X39140580Y-49490000D02*
X38859420Y-49490000D01*
%TO.C,C25*%
X42210000Y-86584420D02*
X42210000Y-86865580D01*
X41190000Y-86584420D02*
X41190000Y-86865580D01*
%TO.C,C6*%
X22811252Y-1140000D02*
X21388748Y-1140000D01*
X22811252Y-3860000D02*
X21388748Y-3860000D01*
%TO.C,C18*%
X35065000Y-6165580D02*
X35065000Y-5884420D01*
X36085000Y-6165580D02*
X36085000Y-5884420D01*
%TO.C,C9*%
X42510000Y-45234420D02*
X42510000Y-45515580D01*
X41490000Y-45234420D02*
X41490000Y-45515580D01*
D10*
%TO.C,U1*%
X46990000Y-1270000D02*
X46990000Y-62230000D01*
X29210000Y-1270000D02*
X46990000Y-1270000D01*
X29210000Y-24130000D02*
X29210000Y-36830000D01*
X46990000Y-62230000D02*
X29210000Y-62230000D01*
X29210000Y-62230000D02*
X29210000Y-1270000D01*
D11*
%TO.C,D1*%
X8840000Y-2250000D02*
X9860000Y-2250000D01*
X9860000Y-780000D02*
X9860000Y-3720000D01*
X9860000Y-3720000D02*
X15300000Y-3720000D01*
X10640000Y-780000D02*
X10640000Y-3720000D01*
X10760000Y-780000D02*
X10760000Y-3720000D01*
X10880000Y-780000D02*
X10880000Y-3720000D01*
X15300000Y-780000D02*
X9860000Y-780000D01*
X15300000Y-3720000D02*
X15300000Y-780000D01*
X16320000Y-2250000D02*
X15300000Y-2250000D01*
%TO.C,R2*%
X22202500Y-12837742D02*
X22202500Y-13312258D01*
X23247500Y-12837742D02*
X23247500Y-13312258D01*
%TO.C,D5*%
X7710000Y-94455000D02*
X7710000Y-97545000D01*
X13259999Y-96000462D02*
G75*
G03*
X7710001Y-94455170I-2989999J462D01*
G01*
X7710000Y-97544830D02*
G75*
G03*
X13260000Y-95999538I2560000J1544830D01*
G01*
X12770000Y-96000000D02*
G75*
G03*
X12770000Y-96000000I-2500000J0D01*
G01*
%TO.C,SW1*%
X17200000Y-87500000D02*
X36800000Y-87500000D01*
X36800000Y-87500000D02*
X36800000Y-104500000D01*
X36800000Y-104500000D02*
X17200000Y-104500000D01*
X17200000Y-104500000D02*
X17200000Y-87500000D01*
%TO.C,C2*%
X13140580Y-8490000D02*
X12859420Y-8490000D01*
X13140580Y-9510000D02*
X12859420Y-9510000D01*
%TO.C,R5*%
X47977742Y-90277500D02*
X48452258Y-90277500D01*
X47977742Y-91322500D02*
X48452258Y-91322500D01*
%TO.C,C15*%
X36340000Y-30990580D02*
X36340000Y-30709420D01*
X37360000Y-30990580D02*
X37360000Y-30709420D01*
%TO.C,R4*%
X44887742Y-90277500D02*
X45362258Y-90277500D01*
X44887742Y-91322500D02*
X45362258Y-91322500D01*
%TO.C,C12*%
X39715580Y-37310000D02*
X39434420Y-37310000D01*
X39715580Y-36290000D02*
X39434420Y-36290000D01*
%TO.C,C20*%
X42010000Y-14359420D02*
X42010000Y-14640580D01*
X40990000Y-14359420D02*
X40990000Y-14640580D01*
%TO.C,R24*%
X39577500Y-93112258D02*
X39577500Y-92637742D01*
X40622500Y-93112258D02*
X40622500Y-92637742D01*
%TO.C,C10*%
X41490000Y-42465580D02*
X41490000Y-42184420D01*
X42510000Y-42465580D02*
X42510000Y-42184420D01*
%TO.C,C5*%
X18485000Y-13240580D02*
X18485000Y-12959420D01*
X17465000Y-13240580D02*
X17465000Y-12959420D01*
%TD*%
%LPC*%
D12*
%TO.C,L1*%
X23000000Y-5550000D03*
X23000000Y-10050000D03*
%TD*%
D13*
%TO.C,C21*%
X37275000Y-8600000D03*
X38825000Y-8600000D03*
%TD*%
D14*
%TO.C,R19*%
X44000000Y-19600000D03*
X42350000Y-19600000D03*
%TD*%
D13*
%TO.C,C7*%
X44350000Y-89200000D03*
X45900000Y-89200000D03*
%TD*%
D15*
%TO.C,R10*%
X41900000Y-48275000D03*
X41900000Y-49925000D03*
%TD*%
D16*
%TO.C,R23*%
X41700000Y-93700000D03*
X41700000Y-92050000D03*
%TD*%
D17*
%TO.C,J14*%
X47700000Y-65770000D03*
X47700000Y-82000000D03*
X35000000Y-65770000D03*
X35000000Y-82000000D03*
%TD*%
D18*
%TO.C,J4*%
X12700000Y-17780000D03*
D19*
X12700000Y-20320000D03*
X12700000Y-22860000D03*
X12700000Y-25400000D03*
X12700000Y-27940000D03*
X12700000Y-30480000D03*
X12700000Y-33020000D03*
X12700000Y-35560000D03*
X12700000Y-38100000D03*
X12700000Y-40640000D03*
X12700000Y-43180000D03*
X12700000Y-45720000D03*
X12700000Y-48260000D03*
X12700000Y-50800000D03*
X12700000Y-53340000D03*
X12700000Y-55880000D03*
X12700000Y-58420000D03*
X12700000Y-60960000D03*
%TD*%
D20*
%TO.C,C22*%
X34750000Y-16100000D03*
X33200000Y-16100000D03*
%TD*%
D21*
%TO.C,D2*%
X12000000Y-6000000D03*
X16000000Y-6000000D03*
%TD*%
D16*
%TO.C,R17*%
X35250000Y-31675000D03*
X35250000Y-30025000D03*
%TD*%
D22*
%TO.C,R25*%
X5000000Y-101600000D03*
D23*
X5000000Y-93980000D03*
%TD*%
D24*
%TO.C,U3*%
X36500000Y-45450000D03*
X37770000Y-45450000D03*
X39040000Y-45450000D03*
X40310000Y-45450000D03*
X40310000Y-40500000D03*
X39040000Y-40500000D03*
X37770000Y-40500000D03*
X36500000Y-40500000D03*
%TD*%
D25*
%TO.C,U5*%
X36850000Y-11850000D03*
X36850000Y-12250000D03*
X36850000Y-12650000D03*
X36850000Y-13050000D03*
X36850000Y-13450000D03*
D26*
X37500000Y-14100000D03*
X37900000Y-14100000D03*
X38300000Y-14100000D03*
X38700000Y-14100000D03*
X39100000Y-14100000D03*
D25*
X39750000Y-13450000D03*
X39750000Y-13050000D03*
X39750000Y-12650000D03*
X39750000Y-12250000D03*
X39750000Y-11850000D03*
D26*
X39100000Y-11200000D03*
X38700000Y-11200000D03*
X38300000Y-11200000D03*
X37900000Y-11200000D03*
X37500000Y-11200000D03*
D27*
X38300000Y-12650000D03*
%TD*%
D28*
%TO.C,R20*%
X42000000Y-8200000D03*
X43650000Y-8200000D03*
%TD*%
D16*
%TO.C,R16*%
X40750000Y-31675000D03*
X40750000Y-30025000D03*
%TD*%
D29*
%TO.C,FB1*%
X42775000Y-6100000D03*
X41200000Y-6100000D03*
%TD*%
D20*
%TO.C,C4*%
X18225000Y-15575000D03*
X19775000Y-15575000D03*
%TD*%
D18*
%TO.C,J5*%
X15240000Y-17780000D03*
D19*
X15240000Y-20320000D03*
X15240000Y-22860000D03*
X15240000Y-25400000D03*
X15240000Y-27940000D03*
X15240000Y-30480000D03*
X15240000Y-33020000D03*
X15240000Y-35560000D03*
X15240000Y-38100000D03*
X15240000Y-40640000D03*
X15240000Y-43180000D03*
X15240000Y-45720000D03*
X15240000Y-48260000D03*
X15240000Y-50800000D03*
X15240000Y-53340000D03*
X15240000Y-55880000D03*
X15240000Y-58420000D03*
X15240000Y-60960000D03*
%TD*%
D30*
%TO.C,U2*%
X10525000Y-11095000D03*
X10525000Y-12365000D03*
X10525000Y-13635000D03*
X10525000Y-14905000D03*
X15475000Y-14905000D03*
X15475000Y-13635000D03*
X15475000Y-12365000D03*
X15475000Y-11095000D03*
%TD*%
D13*
%TO.C,C8*%
X47450000Y-89200000D03*
X49000000Y-89200000D03*
%TD*%
D14*
%TO.C,R15*%
X40400000Y-38400000D03*
X38750000Y-38400000D03*
%TD*%
%TO.C,R18*%
X44000000Y-22200000D03*
X42350000Y-22200000D03*
%TD*%
D28*
%TO.C,R3*%
X24300000Y-15575000D03*
X22650000Y-15575000D03*
%TD*%
D31*
%TO.C,J12*%
X50800000Y-12700000D03*
D19*
X50800000Y-10160000D03*
X50800000Y-7620000D03*
%TD*%
D32*
%TO.C,C1*%
X8775000Y-7050000D03*
X8775000Y-8950000D03*
%TD*%
D18*
%TO.C,J9*%
X25400000Y-17780000D03*
D19*
X25400000Y-20320000D03*
X25400000Y-22860000D03*
X25400000Y-25400000D03*
X25400000Y-27940000D03*
X25400000Y-30480000D03*
X25400000Y-33020000D03*
X25400000Y-35560000D03*
X25400000Y-38100000D03*
X25400000Y-40640000D03*
X25400000Y-43180000D03*
X25400000Y-45720000D03*
X25400000Y-48260000D03*
X25400000Y-50800000D03*
X25400000Y-53340000D03*
X25400000Y-55880000D03*
X25400000Y-58420000D03*
X25400000Y-60960000D03*
%TD*%
D18*
%TO.C,J8*%
X22860000Y-17780000D03*
D19*
X22860000Y-20320000D03*
X22860000Y-22860000D03*
X22860000Y-25400000D03*
X22860000Y-27940000D03*
X22860000Y-30480000D03*
X22860000Y-33020000D03*
X22860000Y-35560000D03*
X22860000Y-38100000D03*
X22860000Y-40640000D03*
X22860000Y-43180000D03*
X22860000Y-45720000D03*
X22860000Y-48260000D03*
X22860000Y-50800000D03*
X22860000Y-53340000D03*
X22860000Y-55880000D03*
X22860000Y-58420000D03*
X22860000Y-60960000D03*
%TD*%
D18*
%TO.C,J3*%
X10160000Y-17780000D03*
D19*
X10160000Y-20320000D03*
X10160000Y-22860000D03*
X10160000Y-25400000D03*
X10160000Y-27940000D03*
X10160000Y-30480000D03*
X10160000Y-33020000D03*
X10160000Y-35560000D03*
X10160000Y-38100000D03*
X10160000Y-40640000D03*
X10160000Y-43180000D03*
X10160000Y-45720000D03*
X10160000Y-48260000D03*
X10160000Y-50800000D03*
X10160000Y-53340000D03*
X10160000Y-55880000D03*
X10160000Y-58420000D03*
X10160000Y-60960000D03*
%TD*%
D18*
%TO.C,J2*%
X7620000Y-17780000D03*
D19*
X7620000Y-20320000D03*
X7620000Y-22860000D03*
X7620000Y-25400000D03*
X7620000Y-27940000D03*
X7620000Y-30480000D03*
X7620000Y-33020000D03*
X7620000Y-35560000D03*
X7620000Y-38100000D03*
X7620000Y-40640000D03*
X7620000Y-43180000D03*
X7620000Y-45720000D03*
X7620000Y-48260000D03*
X7620000Y-50800000D03*
X7620000Y-53340000D03*
X7620000Y-55880000D03*
X7620000Y-58420000D03*
X7620000Y-60960000D03*
%TD*%
D31*
%TO.C,J11*%
X5080000Y-13970000D03*
D19*
X2540000Y-13970000D03*
%TD*%
D33*
%TO.C,C16*%
X39150000Y-27000000D03*
X39150000Y-28550000D03*
%TD*%
D34*
%TO.C,U4*%
X37075000Y-6600000D03*
X38975000Y-6600000D03*
X38025000Y-4725000D03*
%TD*%
D16*
%TO.C,R11*%
X42000000Y-40000000D03*
X42000000Y-38350000D03*
%TD*%
D14*
%TO.C,R13*%
X39825000Y-48200000D03*
X38175000Y-48200000D03*
%TD*%
D34*
%TO.C,D4*%
X35250000Y-25175000D03*
X37150000Y-25175000D03*
X36200000Y-23300000D03*
%TD*%
D18*
%TO.C,J10*%
X50800000Y-17780000D03*
D19*
X50800000Y-20320000D03*
X50800000Y-22860000D03*
X50800000Y-25400000D03*
X50800000Y-27940000D03*
X50800000Y-30480000D03*
X50800000Y-33020000D03*
X50800000Y-35560000D03*
X50800000Y-38100000D03*
X50800000Y-40640000D03*
X50800000Y-43180000D03*
X50800000Y-45720000D03*
X50800000Y-48260000D03*
X50800000Y-50800000D03*
X50800000Y-53340000D03*
X50800000Y-55880000D03*
X50800000Y-58420000D03*
X50800000Y-60960000D03*
%TD*%
D16*
%TO.C,R22*%
X41700000Y-90600000D03*
X41700000Y-88950000D03*
%TD*%
D33*
%TO.C,C26*%
X40100000Y-85950000D03*
X40100000Y-87500000D03*
%TD*%
D28*
%TO.C,R7*%
X47400000Y-86000000D03*
X49050000Y-86000000D03*
%TD*%
D33*
%TO.C,C3*%
X8000000Y-14775000D03*
X8000000Y-13225000D03*
%TD*%
D31*
%TO.C,J13*%
X10160000Y-91440000D03*
D19*
X10160000Y-88900000D03*
X10160000Y-86360000D03*
X12700000Y-91440000D03*
X12700000Y-88900000D03*
X12700000Y-86360000D03*
X15240000Y-91440000D03*
X15240000Y-88900000D03*
X15240000Y-86360000D03*
%TD*%
D34*
%TO.C,D3*%
X38850000Y-25175000D03*
X40750000Y-25175000D03*
X39800000Y-23300000D03*
%TD*%
D35*
%TO.C,C23*%
X32800000Y-13375000D03*
X32800000Y-11825000D03*
%TD*%
%TO.C,C24*%
X34500000Y-13775000D03*
X34500000Y-12225000D03*
%TD*%
D28*
%TO.C,R8*%
X44300000Y-87600000D03*
X45950000Y-87600000D03*
%TD*%
D36*
%TO.C,H2*%
X50000000Y-98000000D03*
%TD*%
D33*
%TO.C,C19*%
X43300000Y-13725000D03*
X43300000Y-15275000D03*
%TD*%
D28*
%TO.C,R6*%
X44300000Y-86000000D03*
X45950000Y-86000000D03*
%TD*%
D35*
%TO.C,C13*%
X34800000Y-43350000D03*
X34800000Y-41800000D03*
%TD*%
D16*
%TO.C,R21*%
X40100000Y-90600000D03*
X40100000Y-88950000D03*
%TD*%
D17*
%TO.C,J15*%
X6300000Y-82000000D03*
X6300000Y-65770000D03*
X19000000Y-82000000D03*
X19000000Y-65770000D03*
%TD*%
D33*
%TO.C,C17*%
X36850000Y-27025000D03*
X36850000Y-28575000D03*
%TD*%
D18*
%TO.C,J7*%
X20320000Y-17780000D03*
D19*
X20320000Y-20320000D03*
X20320000Y-22860000D03*
X20320000Y-25400000D03*
X20320000Y-27940000D03*
X20320000Y-30480000D03*
X20320000Y-33020000D03*
X20320000Y-35560000D03*
X20320000Y-38100000D03*
X20320000Y-40640000D03*
X20320000Y-43180000D03*
X20320000Y-45720000D03*
X20320000Y-48260000D03*
X20320000Y-50800000D03*
X20320000Y-53340000D03*
X20320000Y-55880000D03*
X20320000Y-58420000D03*
X20320000Y-60960000D03*
%TD*%
D33*
%TO.C,C14*%
X39150000Y-30075000D03*
X39150000Y-31625000D03*
%TD*%
D15*
%TO.C,R1*%
X20225000Y-13825000D03*
X20225000Y-12175000D03*
%TD*%
D28*
%TO.C,R9*%
X47400000Y-87600000D03*
X49050000Y-87600000D03*
%TD*%
D18*
%TO.C,J6*%
X17780000Y-17780000D03*
D19*
X17780000Y-20320000D03*
X17780000Y-22860000D03*
X17780000Y-25400000D03*
X17780000Y-27940000D03*
X17780000Y-30480000D03*
X17780000Y-33020000D03*
X17780000Y-35560000D03*
X17780000Y-38100000D03*
X17780000Y-40640000D03*
X17780000Y-43180000D03*
X17780000Y-45720000D03*
X17780000Y-48260000D03*
X17780000Y-50800000D03*
X17780000Y-53340000D03*
X17780000Y-55880000D03*
X17780000Y-58420000D03*
X17780000Y-60960000D03*
%TD*%
D20*
%TO.C,C11*%
X39775000Y-50000000D03*
X38225000Y-50000000D03*
%TD*%
D33*
%TO.C,C25*%
X41700000Y-85950000D03*
X41700000Y-87500000D03*
%TD*%
D37*
%TO.C,C6*%
X20625000Y-2500000D03*
X23575000Y-2500000D03*
%TD*%
D35*
%TO.C,C18*%
X35575000Y-6800000D03*
X35575000Y-5250000D03*
%TD*%
D33*
%TO.C,C9*%
X42000000Y-44600000D03*
X42000000Y-46150000D03*
%TD*%
D36*
%TO.C,H1*%
X4000000Y-8000000D03*
%TD*%
D38*
%TO.C,U1*%
X30480000Y-2540000D03*
X27940000Y-2540000D03*
D22*
X30480000Y-5080000D03*
X27940000Y-5080000D03*
X30480000Y-7620000D03*
X27940000Y-7620000D03*
X30480000Y-10160000D03*
X27940000Y-10160000D03*
X30480000Y-12700000D03*
X27940000Y-12700000D03*
X30480000Y-15240000D03*
X27940000Y-15240000D03*
X30480000Y-17780000D03*
X27940000Y-17780000D03*
X30480000Y-20320000D03*
X27940000Y-20320000D03*
X30480000Y-22860000D03*
X27940000Y-22860000D03*
X30480000Y-25400000D03*
X27940000Y-25400000D03*
X30480000Y-27940000D03*
X27940000Y-27940000D03*
X30480000Y-30480000D03*
X27940000Y-30480000D03*
X30480000Y-33020000D03*
X27940000Y-33020000D03*
X30480000Y-35560000D03*
X27940000Y-35560000D03*
X30480000Y-38100000D03*
X27940000Y-38100000D03*
X30480000Y-40640000D03*
X27940000Y-40640000D03*
X30480000Y-43180000D03*
X27940000Y-43180000D03*
X30480000Y-45720000D03*
X27940000Y-45720000D03*
X30480000Y-48260000D03*
X27940000Y-48260000D03*
X30480000Y-50800000D03*
X27940000Y-50800000D03*
X30480000Y-53340000D03*
X27940000Y-53340000D03*
X30480000Y-55880000D03*
X27940000Y-55880000D03*
X30480000Y-58420000D03*
X27940000Y-58420000D03*
X30480000Y-60960000D03*
X27940000Y-60960000D03*
X48260000Y-60960000D03*
X45720000Y-60960000D03*
X48260000Y-58420000D03*
X45720000Y-58420000D03*
X48260000Y-55880000D03*
X45720000Y-55880000D03*
X48260000Y-53340000D03*
X45720000Y-53340000D03*
X48260000Y-50800000D03*
X45720000Y-50800000D03*
X48260000Y-48260000D03*
X45720000Y-48260000D03*
X48260000Y-45720000D03*
X45720000Y-45720000D03*
X48260000Y-43180000D03*
X45720000Y-43180000D03*
X48260000Y-40640000D03*
X45720000Y-40640000D03*
X48260000Y-38100000D03*
X45720000Y-38100000D03*
X48260000Y-35560000D03*
X45720000Y-35560000D03*
X48260000Y-33020000D03*
X45720000Y-33020000D03*
X48260000Y-30480000D03*
X45720000Y-30480000D03*
X48260000Y-27940000D03*
X45720000Y-27940000D03*
X48260000Y-25400000D03*
X45720000Y-25400000D03*
X48260000Y-22860000D03*
X45720000Y-22860000D03*
X48260000Y-20320000D03*
X45720000Y-20320000D03*
X48260000Y-17780000D03*
X45720000Y-17780000D03*
X48260000Y-15240000D03*
X45720000Y-15240000D03*
X48260000Y-12700000D03*
X45720000Y-12700000D03*
X48260000Y-10160000D03*
X45720000Y-10160000D03*
X48260000Y-7620000D03*
X45720000Y-7620000D03*
X48260000Y-5080000D03*
X45720000Y-5080000D03*
X48260000Y-2540000D03*
X45720000Y-2540000D03*
%TD*%
D39*
%TO.C,D1*%
X7500000Y-2250000D03*
D40*
X17660000Y-2250000D03*
%TD*%
D15*
%TO.C,R2*%
X22725000Y-13900000D03*
X22725000Y-12250000D03*
%TD*%
D41*
%TO.C,D5*%
X9000000Y-96000000D03*
D42*
X11540000Y-96000000D03*
%TD*%
D43*
%TO.C,SW1*%
X21700000Y-100800000D03*
X21700000Y-96000000D03*
X21700000Y-91200000D03*
X27000000Y-100800000D03*
X27000000Y-96000000D03*
X27000000Y-91200000D03*
X32300000Y-100800000D03*
X32300000Y-96000000D03*
X32300000Y-91200000D03*
%TD*%
D20*
%TO.C,C2*%
X12225000Y-9000000D03*
X13775000Y-9000000D03*
%TD*%
D28*
%TO.C,R5*%
X47390000Y-90800000D03*
X49040000Y-90800000D03*
%TD*%
D18*
%TO.C,J1*%
X5080000Y-17780000D03*
D19*
X5080000Y-20320000D03*
X5080000Y-22860000D03*
X5080000Y-25400000D03*
X5080000Y-27940000D03*
X5080000Y-30480000D03*
X5080000Y-33020000D03*
X5080000Y-35560000D03*
X5080000Y-38100000D03*
X5080000Y-40640000D03*
X5080000Y-43180000D03*
X5080000Y-45720000D03*
X5080000Y-48260000D03*
X5080000Y-50800000D03*
X5080000Y-53340000D03*
X5080000Y-55880000D03*
X5080000Y-58420000D03*
X5080000Y-60960000D03*
%TD*%
D35*
%TO.C,C15*%
X36850000Y-31625000D03*
X36850000Y-30075000D03*
%TD*%
D28*
%TO.C,R4*%
X44300000Y-90800000D03*
X45950000Y-90800000D03*
%TD*%
D20*
%TO.C,C12*%
X40350000Y-36800000D03*
X38800000Y-36800000D03*
%TD*%
D33*
%TO.C,C20*%
X41500000Y-13725000D03*
X41500000Y-15275000D03*
%TD*%
D16*
%TO.C,R24*%
X40100000Y-93700000D03*
X40100000Y-92050000D03*
%TD*%
D35*
%TO.C,C10*%
X42000000Y-43100000D03*
X42000000Y-41550000D03*
%TD*%
%TO.C,C5*%
X17975000Y-12325000D03*
X17975000Y-13875000D03*
%TD*%
D22*
%TO.C,R14*%
X42300000Y-34200000D03*
D23*
X34680000Y-34200000D03*
%TD*%
D22*
%TO.C,R12*%
X41810000Y-52900000D03*
D23*
X34190000Y-52900000D03*
%TD*%
%LPD*%
M02*
