%TF.GenerationSoftware,KiCad,Pcbnew,9.0.1*%
%TF.CreationDate,2025-05-21T23:19:58+01:00*%
%TF.ProjectId,stomp_01,73746f6d-705f-4303-912e-6b696361645f,rev?*%
%TF.SameCoordinates,Original*%
%TF.FileFunction,Soldermask,Bot*%
%TF.FilePolarity,Negative*%
%FSLAX46Y46*%
G04 Gerber Fmt 4.6, Leading zero omitted, Abs format (unit mm)*
G04 Created by KiCad (PCBNEW 9.0.1) date 2025-05-21 23:19:58*
%MOMM*%
%LPD*%
G01*
G04 APERTURE LIST*
G04 Aperture macros list*
%AMRoundRect*
0 Rectangle with rounded corners*
0 $1 Rounding radius*
0 $2 $3 $4 $5 $6 $7 $8 $9 X,Y pos of 4 corners*
0 Add a 4 corners polygon primitive as box body*
4,1,4,$2,$3,$4,$5,$6,$7,$8,$9,$2,$3,0*
0 Add four circle primitives for the rounded corners*
1,1,$1+$1,$2,$3*
1,1,$1+$1,$4,$5*
1,1,$1+$1,$6,$7*
1,1,$1+$1,$8,$9*
0 Add four rect primitives between the rounded corners*
20,1,$1+$1,$2,$3,$4,$5,0*
20,1,$1+$1,$4,$5,$6,$7,0*
20,1,$1+$1,$6,$7,$8,$9,0*
20,1,$1+$1,$8,$9,$2,$3,0*%
%AMFreePoly0*
4,1,23,0.500000,-0.750000,0.000000,-0.750000,0.000000,-0.745722,-0.065263,-0.745722,-0.191342,-0.711940,-0.304381,-0.646677,-0.396677,-0.554381,-0.461940,-0.441342,-0.495722,-0.315263,-0.495722,-0.250000,-0.500000,-0.250000,-0.500000,0.250000,-0.495722,0.250000,-0.495722,0.315263,-0.461940,0.441342,-0.396677,0.554381,-0.304381,0.646677,-0.191342,0.711940,-0.065263,0.745722,0.000000,0.745722,
0.000000,0.750000,0.500000,0.750000,0.500000,-0.750000,0.500000,-0.750000,$1*%
%AMFreePoly1*
4,1,23,0.000000,0.745722,0.065263,0.745722,0.191342,0.711940,0.304381,0.646677,0.396677,0.554381,0.461940,0.441342,0.495722,0.315263,0.495722,0.250000,0.500000,0.250000,0.500000,-0.250000,0.495722,-0.250000,0.495722,-0.315263,0.461940,-0.441342,0.396677,-0.554381,0.304381,-0.646677,0.191342,-0.711940,0.065263,-0.745722,0.000000,-0.745722,0.000000,-0.750000,-0.500000,-0.750000,
-0.500000,0.750000,0.000000,0.750000,0.000000,0.745722,0.000000,0.745722,$1*%
G04 Aperture macros list end*
%ADD10C,1.700000*%
%ADD11O,1.700000X1.700000*%
%ADD12C,1.600000*%
%ADD13O,1.600000X1.600000*%
%ADD14C,3.200000*%
%ADD15RoundRect,0.250000X-1.125000X-1.125000X1.125000X-1.125000X1.125000X1.125000X-1.125000X1.125000X0*%
%ADD16C,2.750000*%
%ADD17RoundRect,0.250000X1.125000X1.125000X-1.125000X1.125000X-1.125000X-1.125000X1.125000X-1.125000X0*%
%ADD18R,1.700000X1.700000*%
%ADD19R,2.200000X2.200000*%
%ADD20O,2.200000X2.200000*%
%ADD21R,1.800000X1.800000*%
%ADD22C,1.800000*%
%ADD23O,4.500000X2.800000*%
%ADD24FreePoly0,270.000000*%
%ADD25FreePoly1,270.000000*%
%ADD26FreePoly0,0.000000*%
%ADD27FreePoly1,0.000000*%
%ADD28FreePoly0,90.000000*%
%ADD29FreePoly1,90.000000*%
G04 APERTURE END LIST*
%TO.C,JP6*%
G36*
X89750000Y-122200000D02*
G01*
X91250000Y-122200000D01*
X91250000Y-122500000D01*
X89750000Y-122500000D01*
X89750000Y-122200000D01*
G37*
%TO.C,JP7*%
G36*
X89750000Y-118200000D02*
G01*
X91250000Y-118200000D01*
X91250000Y-118500000D01*
X89750000Y-118500000D01*
X89750000Y-118200000D01*
G37*
%TO.C,JP11*%
G36*
X127200000Y-117500000D02*
G01*
X127500000Y-117500000D01*
X127500000Y-116000000D01*
X127200000Y-116000000D01*
X127200000Y-117500000D01*
G37*
%TO.C,JP9*%
G36*
X95250000Y-122500000D02*
G01*
X93750000Y-122500000D01*
X93750000Y-122200000D01*
X95250000Y-122200000D01*
X95250000Y-122500000D01*
G37*
%TO.C,JP10*%
G36*
X95250000Y-118500000D02*
G01*
X93750000Y-118500000D01*
X93750000Y-118200000D01*
X95250000Y-118200000D01*
X95250000Y-118500000D01*
G37*
%TO.C,JP5*%
G36*
X85750000Y-118200000D02*
G01*
X87250000Y-118200000D01*
X87250000Y-118500000D01*
X85750000Y-118500000D01*
X85750000Y-118200000D01*
G37*
%TO.C,JP8*%
G36*
X95250000Y-126500000D02*
G01*
X93750000Y-126500000D01*
X93750000Y-126200000D01*
X95250000Y-126200000D01*
X95250000Y-126500000D01*
G37*
%TO.C,JP2*%
G36*
X103650000Y-81900000D02*
G01*
X102150000Y-81900000D01*
X102150000Y-81600000D01*
X103650000Y-81600000D01*
X103650000Y-81900000D01*
G37*
%TO.C,JP3*%
G36*
X85750000Y-126200000D02*
G01*
X87250000Y-126200000D01*
X87250000Y-126500000D01*
X85750000Y-126500000D01*
X85750000Y-126200000D01*
G37*
%TO.C,JP4*%
G36*
X85750000Y-122200000D02*
G01*
X87250000Y-122200000D01*
X87250000Y-122500000D01*
X85750000Y-122500000D01*
X85750000Y-122200000D01*
G37*
%TO.C,JP1*%
G36*
X101250000Y-93200000D02*
G01*
X102750000Y-93200000D01*
X102750000Y-93500000D01*
X101250000Y-93500000D01*
X101250000Y-93200000D01*
G37*
%TD*%
D10*
%TO.C,J10*%
X127860000Y-64030000D03*
D11*
X127860000Y-66570000D03*
X127860000Y-69110000D03*
X127860000Y-71650000D03*
X127860000Y-74190000D03*
X127860000Y-76730000D03*
X127860000Y-79270000D03*
X127860000Y-81810000D03*
X127860000Y-84350000D03*
X127860000Y-86890000D03*
X127860000Y-89430000D03*
X127860000Y-91970000D03*
X127860000Y-94510000D03*
X127860000Y-97050000D03*
X127860000Y-99590000D03*
X127860000Y-102130000D03*
X127860000Y-104670000D03*
X127860000Y-107210000D03*
%TD*%
D10*
%TO.C,J3*%
X87218145Y-64031512D03*
D11*
X87218145Y-66571512D03*
X87218145Y-69111512D03*
X87218145Y-71651512D03*
X87218145Y-74191512D03*
X87218145Y-76731512D03*
X87218145Y-79271512D03*
X87218145Y-81811512D03*
X87218145Y-84351512D03*
X87218145Y-86891512D03*
X87218145Y-89431512D03*
X87218145Y-91971512D03*
X87218145Y-94511512D03*
X87218145Y-97051512D03*
X87218145Y-99591512D03*
X87218145Y-102131512D03*
X87218145Y-104671512D03*
X87218145Y-107211512D03*
%TD*%
D10*
%TO.C,J5*%
X92298145Y-48791512D03*
D11*
X92298145Y-51331512D03*
X92298145Y-53871512D03*
X92298145Y-56411512D03*
X92298145Y-58951512D03*
X92298145Y-61491512D03*
X92298145Y-64031512D03*
X92298145Y-66571512D03*
X92298145Y-69111512D03*
X92298145Y-71651512D03*
X92298145Y-74191512D03*
X92298145Y-76731512D03*
X92298145Y-79271512D03*
X92298145Y-81811512D03*
X92298145Y-84351512D03*
X92298145Y-86891512D03*
X92298145Y-89431512D03*
X92298145Y-91971512D03*
X92298145Y-94511512D03*
X92298145Y-97051512D03*
X92298145Y-99591512D03*
X92298145Y-102131512D03*
X92298145Y-104671512D03*
X92298145Y-107211512D03*
%TD*%
D12*
%TO.C,R25*%
X93000000Y-147000000D03*
D13*
X93000000Y-139380000D03*
%TD*%
D14*
%TO.C,H4*%
X127000000Y-134000000D03*
%TD*%
D10*
%TO.C,J4*%
X89758145Y-48791512D03*
D11*
X89758145Y-51331512D03*
X89758145Y-53871512D03*
X89758145Y-56411512D03*
X89758145Y-58951512D03*
X89758145Y-61491512D03*
X89758145Y-64031512D03*
X89758145Y-66571512D03*
X89758145Y-69111512D03*
X89758145Y-71651512D03*
X89758145Y-74191512D03*
X89758145Y-76731512D03*
X89758145Y-79271512D03*
X89758145Y-81811512D03*
X89758145Y-84351512D03*
X89758145Y-86891512D03*
X89758145Y-89431512D03*
X89758145Y-91971512D03*
X89758145Y-94511512D03*
X89758145Y-97051512D03*
X89758145Y-99591512D03*
X89758145Y-102131512D03*
X89758145Y-104671512D03*
X89758145Y-107211512D03*
%TD*%
D15*
%TO.C,J15*%
X83000000Y-111000000D03*
D16*
X88400000Y-111000000D03*
%TD*%
D10*
%TO.C,J2*%
X84678145Y-64031512D03*
D11*
X84678145Y-66571512D03*
X84678145Y-69111512D03*
X84678145Y-71651512D03*
X84678145Y-74191512D03*
X84678145Y-76731512D03*
X84678145Y-79271512D03*
X84678145Y-81811512D03*
X84678145Y-84351512D03*
X84678145Y-86891512D03*
X84678145Y-89431512D03*
X84678145Y-91971512D03*
X84678145Y-94511512D03*
X84678145Y-97051512D03*
X84678145Y-99591512D03*
X84678145Y-102131512D03*
X84678145Y-104671512D03*
X84678145Y-107211512D03*
%TD*%
D17*
%TO.C,J11*%
X108000000Y-110400000D03*
D16*
X102600000Y-110400000D03*
%TD*%
D10*
%TO.C,J9*%
X125320000Y-64030000D03*
D11*
X125320000Y-66570000D03*
X125320000Y-69110000D03*
X125320000Y-71650000D03*
X125320000Y-74190000D03*
X125320000Y-76730000D03*
X125320000Y-79270000D03*
X125320000Y-81810000D03*
X125320000Y-84350000D03*
X125320000Y-86890000D03*
X125320000Y-89430000D03*
X125320000Y-91970000D03*
X125320000Y-94510000D03*
X125320000Y-97050000D03*
X125320000Y-99590000D03*
X125320000Y-102130000D03*
X125320000Y-104670000D03*
X125320000Y-107210000D03*
%TD*%
D10*
%TO.C,J8*%
X122780000Y-64030000D03*
D11*
X122780000Y-66570000D03*
X122780000Y-69110000D03*
X122780000Y-71650000D03*
X122780000Y-74190000D03*
X122780000Y-76730000D03*
X122780000Y-79270000D03*
X122780000Y-81810000D03*
X122780000Y-84350000D03*
X122780000Y-86890000D03*
X122780000Y-89430000D03*
X122780000Y-91970000D03*
X122780000Y-94510000D03*
X122780000Y-97050000D03*
X122780000Y-99590000D03*
X122780000Y-102130000D03*
X122780000Y-104670000D03*
X122780000Y-107210000D03*
%TD*%
D10*
%TO.C,J7*%
X120240000Y-48790000D03*
D11*
X120240000Y-51330000D03*
X120240000Y-53870000D03*
X120240000Y-56410000D03*
X120240000Y-58950000D03*
X120240000Y-61490000D03*
X120240000Y-64030000D03*
X120240000Y-66570000D03*
X120240000Y-69110000D03*
X120240000Y-71650000D03*
X120240000Y-74190000D03*
X120240000Y-76730000D03*
X120240000Y-79270000D03*
X120240000Y-81810000D03*
X120240000Y-84350000D03*
X120240000Y-86890000D03*
X120240000Y-89430000D03*
X120240000Y-91970000D03*
X120240000Y-94510000D03*
X120240000Y-97050000D03*
X120240000Y-99590000D03*
X120240000Y-102130000D03*
X120240000Y-104670000D03*
X120240000Y-107210000D03*
%TD*%
D18*
%TO.C,J13*%
X88160000Y-136440000D03*
D11*
X88160000Y-133900000D03*
X88160000Y-131360000D03*
X90700000Y-136440000D03*
X90700000Y-133900000D03*
X90700000Y-131360000D03*
X93240000Y-136440000D03*
X93240000Y-133900000D03*
X93240000Y-131360000D03*
%TD*%
D10*
%TO.C,J6*%
X117700000Y-48790000D03*
D11*
X117700000Y-51330000D03*
X117700000Y-53870000D03*
X117700000Y-56410000D03*
X117700000Y-58950000D03*
X117700000Y-61490000D03*
X117700000Y-64030000D03*
X117700000Y-66570000D03*
X117700000Y-69110000D03*
X117700000Y-71650000D03*
X117700000Y-74190000D03*
X117700000Y-76730000D03*
X117700000Y-79270000D03*
X117700000Y-81810000D03*
X117700000Y-84350000D03*
X117700000Y-86890000D03*
X117700000Y-89430000D03*
X117700000Y-91970000D03*
X117700000Y-94510000D03*
X117700000Y-97050000D03*
X117700000Y-99590000D03*
X117700000Y-102130000D03*
X117700000Y-104670000D03*
X117700000Y-107210000D03*
%TD*%
D14*
%TO.C,H2*%
X127000000Y-59000000D03*
%TD*%
D15*
%TO.C,J14*%
X121600000Y-111000000D03*
D16*
X127000000Y-111000000D03*
%TD*%
D14*
%TO.C,H1*%
X83000000Y-59000000D03*
%TD*%
D10*
%TO.C,U1*%
X97380000Y-48790000D03*
X94840000Y-48790000D03*
X97380000Y-51330000D03*
X94840000Y-51330000D03*
X97380000Y-53870000D03*
X94840000Y-53870000D03*
X97380000Y-56410000D03*
X94840000Y-56410000D03*
X97380000Y-58950000D03*
X94840000Y-58950000D03*
X97380000Y-61490000D03*
X94840000Y-61490000D03*
X97380000Y-64030000D03*
X94840000Y-64030000D03*
X97380000Y-66570000D03*
X94840000Y-66570000D03*
X97380000Y-69110000D03*
X94840000Y-69110000D03*
X97380000Y-71650000D03*
X94840000Y-71650000D03*
X97380000Y-74190000D03*
X94840000Y-74190000D03*
X97380000Y-76730000D03*
X94840000Y-76730000D03*
X97380000Y-79270000D03*
X94840000Y-79270000D03*
X97380000Y-81810000D03*
X94840000Y-81810000D03*
X97380000Y-84350000D03*
X94840000Y-84350000D03*
X97380000Y-86890000D03*
X94840000Y-86890000D03*
X97380000Y-89430000D03*
X94840000Y-89430000D03*
X97380000Y-91970000D03*
X94840000Y-91970000D03*
X97380000Y-94510000D03*
X94840000Y-94510000D03*
X97380000Y-97050000D03*
X94840000Y-97050000D03*
X97380000Y-99590000D03*
X94840000Y-99590000D03*
X97380000Y-102130000D03*
X94840000Y-102130000D03*
X97380000Y-104670000D03*
X94840000Y-104670000D03*
X97380000Y-107210000D03*
X94840000Y-107210000D03*
X115160000Y-107210000D03*
X112620000Y-107210000D03*
X115160000Y-104670000D03*
X112620000Y-104670000D03*
X115160000Y-102130000D03*
X112620000Y-102130000D03*
X115160000Y-99590000D03*
X112620000Y-99590000D03*
X115160000Y-97050000D03*
X112620000Y-97050000D03*
X115160000Y-94510000D03*
X112620000Y-94510000D03*
X115160000Y-91970000D03*
X112620000Y-91970000D03*
X115160000Y-89430000D03*
X112620000Y-89430000D03*
X115160000Y-86890000D03*
X112620000Y-86890000D03*
X115160000Y-84350000D03*
X112620000Y-84350000D03*
X115160000Y-81810000D03*
X112620000Y-81810000D03*
X115160000Y-79270000D03*
X112620000Y-79270000D03*
X115160000Y-76730000D03*
X112620000Y-76730000D03*
X115160000Y-74190000D03*
X112620000Y-74190000D03*
X115160000Y-71650000D03*
X112620000Y-71650000D03*
X115160000Y-69110000D03*
X112620000Y-69110000D03*
X115160000Y-66570000D03*
X112620000Y-66570000D03*
X115160000Y-64030000D03*
X112620000Y-64030000D03*
X115160000Y-61490000D03*
X112620000Y-61490000D03*
X115160000Y-58950000D03*
X112620000Y-58950000D03*
X115160000Y-56410000D03*
X112620000Y-56410000D03*
X115160000Y-53870000D03*
X112620000Y-53870000D03*
X115160000Y-51330000D03*
X112620000Y-51330000D03*
X115160000Y-48790000D03*
X112620000Y-48790000D03*
%TD*%
D19*
%TO.C,D1*%
X112550000Y-112500000D03*
D20*
X112550000Y-122660000D03*
%TD*%
D21*
%TO.C,D5*%
X87000000Y-141000000D03*
D22*
X89540000Y-141000000D03*
%TD*%
D23*
%TO.C,SW1*%
X99700000Y-143800000D03*
X99700000Y-139000000D03*
X99700000Y-134200000D03*
X105000000Y-143800000D03*
X105000000Y-139000000D03*
X105000000Y-134200000D03*
X110300000Y-143800000D03*
X110300000Y-139000000D03*
X110300000Y-134200000D03*
%TD*%
D14*
%TO.C,H3*%
X83000000Y-134000000D03*
%TD*%
D10*
%TO.C,J1*%
X82138145Y-64031512D03*
D11*
X82138145Y-66571512D03*
X82138145Y-69111512D03*
X82138145Y-71651512D03*
X82138145Y-74191512D03*
X82138145Y-76731512D03*
X82138145Y-79271512D03*
X82138145Y-81811512D03*
X82138145Y-84351512D03*
X82138145Y-86891512D03*
X82138145Y-89431512D03*
X82138145Y-91971512D03*
X82138145Y-94511512D03*
X82138145Y-97051512D03*
X82138145Y-99591512D03*
X82138145Y-102131512D03*
X82138145Y-104671512D03*
X82138145Y-107211512D03*
%TD*%
D24*
%TO.C,JP6*%
X90500000Y-121700000D03*
D25*
X90500000Y-123000000D03*
%TD*%
D24*
%TO.C,JP7*%
X90500000Y-117700000D03*
D25*
X90500000Y-119000000D03*
%TD*%
D26*
%TO.C,JP11*%
X126700000Y-116750000D03*
D27*
X128000000Y-116750000D03*
%TD*%
D28*
%TO.C,JP9*%
X94500000Y-123000000D03*
D29*
X94500000Y-121700000D03*
%TD*%
D28*
%TO.C,JP10*%
X94500000Y-119000000D03*
D29*
X94500000Y-117700000D03*
%TD*%
D24*
%TO.C,JP5*%
X86500000Y-117700000D03*
D25*
X86500000Y-119000000D03*
%TD*%
D28*
%TO.C,JP8*%
X94500000Y-127000000D03*
D29*
X94500000Y-125700000D03*
%TD*%
D28*
%TO.C,JP2*%
X102900000Y-82400000D03*
D29*
X102900000Y-81100000D03*
%TD*%
D24*
%TO.C,JP3*%
X86500000Y-125700000D03*
D25*
X86500000Y-127000000D03*
%TD*%
D12*
%TO.C,R14*%
X108600000Y-78400000D03*
D13*
X100980000Y-78400000D03*
%TD*%
D24*
%TO.C,JP4*%
X86500000Y-121700000D03*
D25*
X86500000Y-123000000D03*
%TD*%
D24*
%TO.C,JP1*%
X102000000Y-92700000D03*
D25*
X102000000Y-94000000D03*
%TD*%
D12*
%TO.C,R12*%
X108110000Y-97100000D03*
D13*
X100490000Y-97100000D03*
%TD*%
M02*
