%TF.GenerationSoftware,KiCad,Pcbnew,9.0.1*%
%TF.CreationDate,2025-05-21T23:19:58+01:00*%
%TF.ProjectId,stomp_01,73746f6d-705f-4303-912e-6b696361645f,rev?*%
%TF.SameCoordinates,Original*%
%TF.FileFunction,Copper,L4,Bot*%
%TF.FilePolarity,Positive*%
%FSLAX46Y46*%
G04 Gerber Fmt 4.6, Leading zero omitted, Abs format (unit mm)*
G04 Created by KiCad (PCBNEW 9.0.1) date 2025-05-21 23:19:58*
%MOMM*%
%LPD*%
G01*
G04 APERTURE LIST*
G04 Aperture macros list*
%AMRoundRect*
0 Rectangle with rounded corners*
0 $1 Rounding radius*
0 $2 $3 $4 $5 $6 $7 $8 $9 X,Y pos of 4 corners*
0 Add a 4 corners polygon primitive as box body*
4,1,4,$2,$3,$4,$5,$6,$7,$8,$9,$2,$3,0*
0 Add four circle primitives for the rounded corners*
1,1,$1+$1,$2,$3*
1,1,$1+$1,$4,$5*
1,1,$1+$1,$6,$7*
1,1,$1+$1,$8,$9*
0 Add four rect primitives between the rounded corners*
20,1,$1+$1,$2,$3,$4,$5,0*
20,1,$1+$1,$4,$5,$6,$7,0*
20,1,$1+$1,$6,$7,$8,$9,0*
20,1,$1+$1,$8,$9,$2,$3,0*%
%AMFreePoly0*
4,1,23,0.500000,-0.750000,0.000000,-0.750000,0.000000,-0.745722,-0.065263,-0.745722,-0.191342,-0.711940,-0.304381,-0.646677,-0.396677,-0.554381,-0.461940,-0.441342,-0.495722,-0.315263,-0.495722,-0.250000,-0.500000,-0.250000,-0.500000,0.250000,-0.495722,0.250000,-0.495722,0.315263,-0.461940,0.441342,-0.396677,0.554381,-0.304381,0.646677,-0.191342,0.711940,-0.065263,0.745722,0.000000,0.745722,
0.000000,0.750000,0.500000,0.750000,0.500000,-0.750000,0.500000,-0.750000,$1*%
%AMFreePoly1*
4,1,23,0.000000,0.745722,0.065263,0.745722,0.191342,0.711940,0.304381,0.646677,0.396677,0.554381,0.461940,0.441342,0.495722,0.315263,0.495722,0.250000,0.500000,0.250000,0.500000,-0.250000,0.495722,-0.250000,0.495722,-0.315263,0.461940,-0.441342,0.396677,-0.554381,0.304381,-0.646677,0.191342,-0.711940,0.065263,-0.745722,0.000000,-0.745722,0.000000,-0.750000,-0.500000,-0.750000,
-0.500000,0.750000,0.000000,0.750000,0.000000,0.745722,0.000000,0.745722,$1*%
G04 Aperture macros list end*
%TA.AperFunction,EtchedComponent*%
%ADD10C,0.000000*%
%TD*%
%TA.AperFunction,ComponentPad*%
%ADD11C,1.700000*%
%TD*%
%TA.AperFunction,ComponentPad*%
%ADD12O,1.700000X1.700000*%
%TD*%
%TA.AperFunction,ComponentPad*%
%ADD13C,1.600000*%
%TD*%
%TA.AperFunction,ComponentPad*%
%ADD14O,1.600000X1.600000*%
%TD*%
%TA.AperFunction,ComponentPad*%
%ADD15RoundRect,0.250000X-1.125000X-1.125000X1.125000X-1.125000X1.125000X1.125000X-1.125000X1.125000X0*%
%TD*%
%TA.AperFunction,ComponentPad*%
%ADD16C,2.750000*%
%TD*%
%TA.AperFunction,ComponentPad*%
%ADD17RoundRect,0.250000X1.125000X1.125000X-1.125000X1.125000X-1.125000X-1.125000X1.125000X-1.125000X0*%
%TD*%
%TA.AperFunction,ComponentPad*%
%ADD18R,1.700000X1.700000*%
%TD*%
%TA.AperFunction,ComponentPad*%
%ADD19R,2.200000X2.200000*%
%TD*%
%TA.AperFunction,ComponentPad*%
%ADD20O,2.200000X2.200000*%
%TD*%
%TA.AperFunction,ComponentPad*%
%ADD21R,1.800000X1.800000*%
%TD*%
%TA.AperFunction,ComponentPad*%
%ADD22C,1.800000*%
%TD*%
%TA.AperFunction,ComponentPad*%
%ADD23O,4.500000X2.800000*%
%TD*%
%TA.AperFunction,SMDPad,CuDef*%
%ADD24FreePoly0,270.000000*%
%TD*%
%TA.AperFunction,SMDPad,CuDef*%
%ADD25FreePoly1,270.000000*%
%TD*%
%TA.AperFunction,SMDPad,CuDef*%
%ADD26FreePoly0,0.000000*%
%TD*%
%TA.AperFunction,SMDPad,CuDef*%
%ADD27FreePoly1,0.000000*%
%TD*%
%TA.AperFunction,SMDPad,CuDef*%
%ADD28FreePoly0,90.000000*%
%TD*%
%TA.AperFunction,SMDPad,CuDef*%
%ADD29FreePoly1,90.000000*%
%TD*%
%TA.AperFunction,ViaPad*%
%ADD30C,0.800000*%
%TD*%
%TA.AperFunction,Conductor*%
%ADD31C,0.250000*%
%TD*%
%TA.AperFunction,Conductor*%
%ADD32C,0.500000*%
%TD*%
%TA.AperFunction,Conductor*%
%ADD33C,0.200000*%
%TD*%
G04 APERTURE END LIST*
D10*
%TA.AperFunction,EtchedComponent*%
%TO.C,JP6*%
G36*
X90300000Y-122600000D02*
G01*
X89900000Y-122600000D01*
X89900000Y-122100000D01*
X90300000Y-122100000D01*
X90300000Y-122600000D01*
G37*
%TD.AperFunction*%
%TA.AperFunction,EtchedComponent*%
G36*
X91100000Y-122600000D02*
G01*
X90700000Y-122600000D01*
X90700000Y-122100000D01*
X91100000Y-122100000D01*
X91100000Y-122600000D01*
G37*
%TD.AperFunction*%
%TA.AperFunction,EtchedComponent*%
%TO.C,JP7*%
G36*
X90300000Y-118600000D02*
G01*
X89900000Y-118600000D01*
X89900000Y-118100000D01*
X90300000Y-118100000D01*
X90300000Y-118600000D01*
G37*
%TD.AperFunction*%
%TA.AperFunction,EtchedComponent*%
G36*
X91100000Y-118600000D02*
G01*
X90700000Y-118600000D01*
X90700000Y-118100000D01*
X91100000Y-118100000D01*
X91100000Y-118600000D01*
G37*
%TD.AperFunction*%
%TA.AperFunction,EtchedComponent*%
%TO.C,JP9*%
G36*
X94300000Y-122600000D02*
G01*
X93900000Y-122600000D01*
X93900000Y-122100000D01*
X94300000Y-122100000D01*
X94300000Y-122600000D01*
G37*
%TD.AperFunction*%
%TA.AperFunction,EtchedComponent*%
G36*
X95100000Y-122600000D02*
G01*
X94700000Y-122600000D01*
X94700000Y-122100000D01*
X95100000Y-122100000D01*
X95100000Y-122600000D01*
G37*
%TD.AperFunction*%
%TA.AperFunction,EtchedComponent*%
%TO.C,JP10*%
G36*
X94300000Y-118600000D02*
G01*
X93900000Y-118600000D01*
X93900000Y-118100000D01*
X94300000Y-118100000D01*
X94300000Y-118600000D01*
G37*
%TD.AperFunction*%
%TA.AperFunction,EtchedComponent*%
G36*
X95100000Y-118600000D02*
G01*
X94700000Y-118600000D01*
X94700000Y-118100000D01*
X95100000Y-118100000D01*
X95100000Y-118600000D01*
G37*
%TD.AperFunction*%
%TA.AperFunction,EtchedComponent*%
%TO.C,JP5*%
G36*
X86300000Y-118600000D02*
G01*
X85900000Y-118600000D01*
X85900000Y-118100000D01*
X86300000Y-118100000D01*
X86300000Y-118600000D01*
G37*
%TD.AperFunction*%
%TA.AperFunction,EtchedComponent*%
G36*
X87100000Y-118600000D02*
G01*
X86700000Y-118600000D01*
X86700000Y-118100000D01*
X87100000Y-118100000D01*
X87100000Y-118600000D01*
G37*
%TD.AperFunction*%
%TA.AperFunction,EtchedComponent*%
%TO.C,JP8*%
G36*
X94300000Y-126600000D02*
G01*
X93900000Y-126600000D01*
X93900000Y-126100000D01*
X94300000Y-126100000D01*
X94300000Y-126600000D01*
G37*
%TD.AperFunction*%
%TA.AperFunction,EtchedComponent*%
G36*
X95100000Y-126600000D02*
G01*
X94700000Y-126600000D01*
X94700000Y-126100000D01*
X95100000Y-126100000D01*
X95100000Y-126600000D01*
G37*
%TD.AperFunction*%
%TA.AperFunction,EtchedComponent*%
%TO.C,JP2*%
G36*
X102700000Y-82000000D02*
G01*
X102300000Y-82000000D01*
X102300000Y-81500000D01*
X102700000Y-81500000D01*
X102700000Y-82000000D01*
G37*
%TD.AperFunction*%
%TA.AperFunction,EtchedComponent*%
G36*
X103500000Y-82000000D02*
G01*
X103100000Y-82000000D01*
X103100000Y-81500000D01*
X103500000Y-81500000D01*
X103500000Y-82000000D01*
G37*
%TD.AperFunction*%
%TA.AperFunction,EtchedComponent*%
%TO.C,JP3*%
G36*
X86300000Y-126600000D02*
G01*
X85900000Y-126600000D01*
X85900000Y-126100000D01*
X86300000Y-126100000D01*
X86300000Y-126600000D01*
G37*
%TD.AperFunction*%
%TA.AperFunction,EtchedComponent*%
G36*
X87100000Y-126600000D02*
G01*
X86700000Y-126600000D01*
X86700000Y-126100000D01*
X87100000Y-126100000D01*
X87100000Y-126600000D01*
G37*
%TD.AperFunction*%
%TA.AperFunction,EtchedComponent*%
%TO.C,JP4*%
G36*
X86300000Y-122600000D02*
G01*
X85900000Y-122600000D01*
X85900000Y-122100000D01*
X86300000Y-122100000D01*
X86300000Y-122600000D01*
G37*
%TD.AperFunction*%
%TA.AperFunction,EtchedComponent*%
G36*
X87100000Y-122600000D02*
G01*
X86700000Y-122600000D01*
X86700000Y-122100000D01*
X87100000Y-122100000D01*
X87100000Y-122600000D01*
G37*
%TD.AperFunction*%
%TA.AperFunction,EtchedComponent*%
%TO.C,JP1*%
G36*
X101800000Y-93600000D02*
G01*
X101400000Y-93600000D01*
X101400000Y-93100000D01*
X101800000Y-93100000D01*
X101800000Y-93600000D01*
G37*
%TD.AperFunction*%
%TA.AperFunction,EtchedComponent*%
G36*
X102600000Y-93600000D02*
G01*
X102200000Y-93600000D01*
X102200000Y-93100000D01*
X102600000Y-93100000D01*
X102600000Y-93600000D01*
G37*
%TD.AperFunction*%
%TD*%
D11*
%TO.P,J10,1,Pin_1*%
%TO.N,unconnected-(J10-Pin_1-Pad1)*%
X127860000Y-64030000D03*
D12*
%TO.P,J10,2,Pin_2*%
%TO.N,unconnected-(J10-Pin_2-Pad2)*%
X127860000Y-66570000D03*
%TO.P,J10,3,Pin_3*%
%TO.N,unconnected-(J10-Pin_3-Pad3)*%
X127860000Y-69110000D03*
%TO.P,J10,4,Pin_4*%
%TO.N,unconnected-(J10-Pin_4-Pad4)*%
X127860000Y-71650000D03*
%TO.P,J10,5,Pin_5*%
%TO.N,unconnected-(J10-Pin_5-Pad5)*%
X127860000Y-74190000D03*
%TO.P,J10,6,Pin_6*%
%TO.N,unconnected-(J10-Pin_6-Pad6)*%
X127860000Y-76730000D03*
%TO.P,J10,7,Pin_7*%
%TO.N,unconnected-(J10-Pin_7-Pad7)*%
X127860000Y-79270000D03*
%TO.P,J10,8,Pin_8*%
%TO.N,unconnected-(J10-Pin_8-Pad8)*%
X127860000Y-81810000D03*
%TO.P,J10,9,Pin_9*%
%TO.N,unconnected-(J10-Pin_9-Pad9)*%
X127860000Y-84350000D03*
%TO.P,J10,10,Pin_10*%
%TO.N,unconnected-(J10-Pin_10-Pad10)*%
X127860000Y-86890000D03*
%TO.P,J10,11,Pin_11*%
%TO.N,unconnected-(J10-Pin_11-Pad11)*%
X127860000Y-89430000D03*
%TO.P,J10,12,Pin_12*%
%TO.N,unconnected-(J10-Pin_12-Pad12)*%
X127860000Y-91970000D03*
%TO.P,J10,13,Pin_13*%
%TO.N,unconnected-(J10-Pin_13-Pad13)*%
X127860000Y-94510000D03*
%TO.P,J10,14,Pin_14*%
%TO.N,unconnected-(J10-Pin_14-Pad14)*%
X127860000Y-97050000D03*
%TO.P,J10,15,Pin_15*%
%TO.N,unconnected-(J10-Pin_15-Pad15)*%
X127860000Y-99590000D03*
%TO.P,J10,16,Pin_16*%
%TO.N,unconnected-(J10-Pin_16-Pad16)*%
X127860000Y-102130000D03*
%TO.P,J10,17,Pin_17*%
%TO.N,unconnected-(J10-Pin_17-Pad17)*%
X127860000Y-104670000D03*
%TO.P,J10,18,Pin_18*%
%TO.N,unconnected-(J10-Pin_18-Pad18)*%
X127860000Y-107210000D03*
%TD*%
D11*
%TO.P,J3,1,Pin_1*%
%TO.N,unconnected-(J3-Pin_1-Pad1)*%
X87218145Y-64031512D03*
D12*
%TO.P,J3,2,Pin_2*%
%TO.N,unconnected-(J3-Pin_2-Pad2)*%
X87218145Y-66571512D03*
%TO.P,J3,3,Pin_3*%
%TO.N,unconnected-(J3-Pin_3-Pad3)*%
X87218145Y-69111512D03*
%TO.P,J3,4,Pin_4*%
%TO.N,unconnected-(J3-Pin_4-Pad4)*%
X87218145Y-71651512D03*
%TO.P,J3,5,Pin_5*%
%TO.N,unconnected-(J3-Pin_5-Pad5)*%
X87218145Y-74191512D03*
%TO.P,J3,6,Pin_6*%
%TO.N,unconnected-(J3-Pin_6-Pad6)*%
X87218145Y-76731512D03*
%TO.P,J3,7,Pin_7*%
%TO.N,unconnected-(J3-Pin_7-Pad7)*%
X87218145Y-79271512D03*
%TO.P,J3,8,Pin_8*%
%TO.N,unconnected-(J3-Pin_8-Pad8)*%
X87218145Y-81811512D03*
%TO.P,J3,9,Pin_9*%
%TO.N,unconnected-(J3-Pin_9-Pad9)*%
X87218145Y-84351512D03*
%TO.P,J3,10,Pin_10*%
%TO.N,unconnected-(J3-Pin_10-Pad10)*%
X87218145Y-86891512D03*
%TO.P,J3,11,Pin_11*%
%TO.N,unconnected-(J3-Pin_11-Pad11)*%
X87218145Y-89431512D03*
%TO.P,J3,12,Pin_12*%
%TO.N,unconnected-(J3-Pin_12-Pad12)*%
X87218145Y-91971512D03*
%TO.P,J3,13,Pin_13*%
%TO.N,unconnected-(J3-Pin_13-Pad13)*%
X87218145Y-94511512D03*
%TO.P,J3,14,Pin_14*%
%TO.N,unconnected-(J3-Pin_14-Pad14)*%
X87218145Y-97051512D03*
%TO.P,J3,15,Pin_15*%
%TO.N,unconnected-(J3-Pin_15-Pad15)*%
X87218145Y-99591512D03*
%TO.P,J3,16,Pin_16*%
%TO.N,unconnected-(J3-Pin_16-Pad16)*%
X87218145Y-102131512D03*
%TO.P,J3,17,Pin_17*%
%TO.N,unconnected-(J3-Pin_17-Pad17)*%
X87218145Y-104671512D03*
%TO.P,J3,18,Pin_18*%
%TO.N,unconnected-(J3-Pin_18-Pad18)*%
X87218145Y-107211512D03*
%TD*%
D11*
%TO.P,J5,1,Pin_1*%
%TO.N,unconnected-(J5-Pin_1-Pad1)*%
X92298145Y-48791512D03*
D12*
%TO.P,J5,2,Pin_2*%
%TO.N,unconnected-(J5-Pin_2-Pad2)*%
X92298145Y-51331512D03*
%TO.P,J5,3,Pin_3*%
%TO.N,unconnected-(J5-Pin_3-Pad3)*%
X92298145Y-53871512D03*
%TO.P,J5,4,Pin_4*%
%TO.N,unconnected-(J5-Pin_4-Pad4)*%
X92298145Y-56411512D03*
%TO.P,J5,5,Pin_5*%
%TO.N,unconnected-(J5-Pin_5-Pad5)*%
X92298145Y-58951512D03*
%TO.P,J5,6,Pin_6*%
%TO.N,unconnected-(J5-Pin_6-Pad6)*%
X92298145Y-61491512D03*
%TO.P,J5,7,Pin_7*%
%TO.N,unconnected-(J5-Pin_7-Pad7)*%
X92298145Y-64031512D03*
%TO.P,J5,8,Pin_8*%
%TO.N,unconnected-(J5-Pin_8-Pad8)*%
X92298145Y-66571512D03*
%TO.P,J5,9,Pin_9*%
%TO.N,unconnected-(J5-Pin_9-Pad9)*%
X92298145Y-69111512D03*
%TO.P,J5,10,Pin_10*%
%TO.N,unconnected-(J5-Pin_10-Pad10)*%
X92298145Y-71651512D03*
%TO.P,J5,11,Pin_11*%
%TO.N,unconnected-(J5-Pin_11-Pad11)*%
X92298145Y-74191512D03*
%TO.P,J5,12,Pin_12*%
%TO.N,unconnected-(J5-Pin_12-Pad12)*%
X92298145Y-76731512D03*
%TO.P,J5,13,Pin_13*%
%TO.N,unconnected-(J5-Pin_13-Pad13)*%
X92298145Y-79271512D03*
%TO.P,J5,14,Pin_14*%
%TO.N,unconnected-(J5-Pin_14-Pad14)*%
X92298145Y-81811512D03*
%TO.P,J5,15,Pin_15*%
%TO.N,unconnected-(J5-Pin_15-Pad15)*%
X92298145Y-84351512D03*
%TO.P,J5,16,Pin_16*%
%TO.N,unconnected-(J5-Pin_16-Pad16)*%
X92298145Y-86891512D03*
%TO.P,J5,17,Pin_17*%
%TO.N,unconnected-(J5-Pin_17-Pad17)*%
X92298145Y-89431512D03*
%TO.P,J5,18,Pin_18*%
%TO.N,unconnected-(J5-Pin_18-Pad18)*%
X92298145Y-91971512D03*
%TO.P,J5,19,Pin_19*%
%TO.N,unconnected-(J5-Pin_19-Pad19)*%
X92298145Y-94511512D03*
%TO.P,J5,20,Pin_20*%
%TO.N,unconnected-(J5-Pin_20-Pad20)*%
X92298145Y-97051512D03*
%TO.P,J5,21,Pin_21*%
%TO.N,unconnected-(J5-Pin_21-Pad21)*%
X92298145Y-99591512D03*
%TO.P,J5,22,Pin_22*%
%TO.N,unconnected-(J5-Pin_22-Pad22)*%
X92298145Y-102131512D03*
%TO.P,J5,23,Pin_23*%
%TO.N,unconnected-(J5-Pin_23-Pad23)*%
X92298145Y-104671512D03*
%TO.P,J5,24,Pin_24*%
%TO.N,unconnected-(J5-Pin_24-Pad24)*%
X92298145Y-107211512D03*
%TD*%
D13*
%TO.P,R25,1*%
%TO.N,Net-(D5-A)*%
X93000000Y-147000000D03*
D14*
%TO.P,R25,2*%
%TO.N,+3.3V*%
X93000000Y-139380000D03*
%TD*%
D11*
%TO.P,J4,1,Pin_1*%
%TO.N,HEADPHONES_LEFT*%
X89758145Y-48791512D03*
D12*
%TO.P,J4,2,Pin_2*%
%TO.N,HEADPHONES_GND*%
X89758145Y-51331512D03*
%TO.P,J4,3,Pin_3*%
%TO.N,HEADPHONES_RIGHT*%
X89758145Y-53871512D03*
%TO.P,J4,4,Pin_4*%
%TO.N,unconnected-(J4-Pin_4-Pad4)*%
X89758145Y-56411512D03*
%TO.P,J4,5,Pin_5*%
%TO.N,unconnected-(J4-Pin_5-Pad5)*%
X89758145Y-58951512D03*
%TO.P,J4,6,Pin_6*%
%TO.N,unconnected-(J4-Pin_6-Pad6)*%
X89758145Y-61491512D03*
%TO.P,J4,7,Pin_7*%
%TO.N,unconnected-(J4-Pin_7-Pad7)*%
X89758145Y-64031512D03*
%TO.P,J4,8,Pin_8*%
%TO.N,unconnected-(J4-Pin_8-Pad8)*%
X89758145Y-66571512D03*
%TO.P,J4,9,Pin_9*%
%TO.N,unconnected-(J4-Pin_9-Pad9)*%
X89758145Y-69111512D03*
%TO.P,J4,10,Pin_10*%
%TO.N,unconnected-(J4-Pin_10-Pad10)*%
X89758145Y-71651512D03*
%TO.P,J4,11,Pin_11*%
%TO.N,unconnected-(J4-Pin_11-Pad11)*%
X89758145Y-74191512D03*
%TO.P,J4,12,Pin_12*%
%TO.N,unconnected-(J4-Pin_12-Pad12)*%
X89758145Y-76731512D03*
%TO.P,J4,13,Pin_13*%
%TO.N,unconnected-(J4-Pin_13-Pad13)*%
X89758145Y-79271512D03*
%TO.P,J4,14,Pin_14*%
%TO.N,unconnected-(J4-Pin_14-Pad14)*%
X89758145Y-81811512D03*
%TO.P,J4,15,Pin_15*%
%TO.N,unconnected-(J4-Pin_15-Pad15)*%
X89758145Y-84351512D03*
%TO.P,J4,16,Pin_16*%
%TO.N,unconnected-(J4-Pin_16-Pad16)*%
X89758145Y-86891512D03*
%TO.P,J4,17,Pin_17*%
%TO.N,unconnected-(J4-Pin_17-Pad17)*%
X89758145Y-89431512D03*
%TO.P,J4,18,Pin_18*%
%TO.N,unconnected-(J4-Pin_18-Pad18)*%
X89758145Y-91971512D03*
%TO.P,J4,19,Pin_19*%
%TO.N,unconnected-(J4-Pin_19-Pad19)*%
X89758145Y-94511512D03*
%TO.P,J4,20,Pin_20*%
%TO.N,unconnected-(J4-Pin_20-Pad20)*%
X89758145Y-97051512D03*
%TO.P,J4,21,Pin_21*%
%TO.N,unconnected-(J4-Pin_21-Pad21)*%
X89758145Y-99591512D03*
%TO.P,J4,22,Pin_22*%
%TO.N,unconnected-(J4-Pin_22-Pad22)*%
X89758145Y-102131512D03*
%TO.P,J4,23,Pin_23*%
%TO.N,unconnected-(J4-Pin_23-Pad23)*%
X89758145Y-104671512D03*
%TO.P,J4,24,Pin_24*%
%TO.N,unconnected-(J4-Pin_24-Pad24)*%
X89758145Y-107211512D03*
%TD*%
D15*
%TO.P,J15,1,Pin_1*%
%TO.N,JACK_OUT*%
X83000000Y-111000000D03*
D16*
%TO.P,J15,2,Pin_2*%
%TO.N,GND*%
X88400000Y-111000000D03*
%TD*%
D11*
%TO.P,J2,1,Pin_1*%
%TO.N,unconnected-(J2-Pin_1-Pad1)*%
X84678145Y-64031512D03*
D12*
%TO.P,J2,2,Pin_2*%
%TO.N,unconnected-(J2-Pin_2-Pad2)*%
X84678145Y-66571512D03*
%TO.P,J2,3,Pin_3*%
%TO.N,unconnected-(J2-Pin_3-Pad3)*%
X84678145Y-69111512D03*
%TO.P,J2,4,Pin_4*%
%TO.N,unconnected-(J2-Pin_4-Pad4)*%
X84678145Y-71651512D03*
%TO.P,J2,5,Pin_5*%
%TO.N,unconnected-(J2-Pin_5-Pad5)*%
X84678145Y-74191512D03*
%TO.P,J2,6,Pin_6*%
%TO.N,unconnected-(J2-Pin_6-Pad6)*%
X84678145Y-76731512D03*
%TO.P,J2,7,Pin_7*%
%TO.N,unconnected-(J2-Pin_7-Pad7)*%
X84678145Y-79271512D03*
%TO.P,J2,8,Pin_8*%
%TO.N,unconnected-(J2-Pin_8-Pad8)*%
X84678145Y-81811512D03*
%TO.P,J2,9,Pin_9*%
%TO.N,unconnected-(J2-Pin_9-Pad9)*%
X84678145Y-84351512D03*
%TO.P,J2,10,Pin_10*%
%TO.N,unconnected-(J2-Pin_10-Pad10)*%
X84678145Y-86891512D03*
%TO.P,J2,11,Pin_11*%
%TO.N,unconnected-(J2-Pin_11-Pad11)*%
X84678145Y-89431512D03*
%TO.P,J2,12,Pin_12*%
%TO.N,unconnected-(J2-Pin_12-Pad12)*%
X84678145Y-91971512D03*
%TO.P,J2,13,Pin_13*%
%TO.N,unconnected-(J2-Pin_13-Pad13)*%
X84678145Y-94511512D03*
%TO.P,J2,14,Pin_14*%
%TO.N,unconnected-(J2-Pin_14-Pad14)*%
X84678145Y-97051512D03*
%TO.P,J2,15,Pin_15*%
%TO.N,unconnected-(J2-Pin_15-Pad15)*%
X84678145Y-99591512D03*
%TO.P,J2,16,Pin_16*%
%TO.N,unconnected-(J2-Pin_16-Pad16)*%
X84678145Y-102131512D03*
%TO.P,J2,17,Pin_17*%
%TO.N,unconnected-(J2-Pin_17-Pad17)*%
X84678145Y-104671512D03*
%TO.P,J2,18,Pin_18*%
%TO.N,unconnected-(J2-Pin_18-Pad18)*%
X84678145Y-107211512D03*
%TD*%
D17*
%TO.P,J11,1*%
%TO.N,GND*%
X108000000Y-110400000D03*
D16*
%TO.P,J11,2*%
%TO.N,Net-(D1-A)*%
X102600000Y-110400000D03*
%TD*%
D11*
%TO.P,J9,1,Pin_1*%
%TO.N,unconnected-(J9-Pin_1-Pad1)*%
X125320000Y-64030000D03*
D12*
%TO.P,J9,2,Pin_2*%
%TO.N,unconnected-(J9-Pin_2-Pad2)*%
X125320000Y-66570000D03*
%TO.P,J9,3,Pin_3*%
%TO.N,unconnected-(J9-Pin_3-Pad3)*%
X125320000Y-69110000D03*
%TO.P,J9,4,Pin_4*%
%TO.N,unconnected-(J9-Pin_4-Pad4)*%
X125320000Y-71650000D03*
%TO.P,J9,5,Pin_5*%
%TO.N,unconnected-(J9-Pin_5-Pad5)*%
X125320000Y-74190000D03*
%TO.P,J9,6,Pin_6*%
%TO.N,unconnected-(J9-Pin_6-Pad6)*%
X125320000Y-76730000D03*
%TO.P,J9,7,Pin_7*%
%TO.N,unconnected-(J9-Pin_7-Pad7)*%
X125320000Y-79270000D03*
%TO.P,J9,8,Pin_8*%
%TO.N,unconnected-(J9-Pin_8-Pad8)*%
X125320000Y-81810000D03*
%TO.P,J9,9,Pin_9*%
%TO.N,unconnected-(J9-Pin_9-Pad9)*%
X125320000Y-84350000D03*
%TO.P,J9,10,Pin_10*%
%TO.N,unconnected-(J9-Pin_10-Pad10)*%
X125320000Y-86890000D03*
%TO.P,J9,11,Pin_11*%
%TO.N,unconnected-(J9-Pin_11-Pad11)*%
X125320000Y-89430000D03*
%TO.P,J9,12,Pin_12*%
%TO.N,unconnected-(J9-Pin_12-Pad12)*%
X125320000Y-91970000D03*
%TO.P,J9,13,Pin_13*%
%TO.N,unconnected-(J9-Pin_13-Pad13)*%
X125320000Y-94510000D03*
%TO.P,J9,14,Pin_14*%
%TO.N,unconnected-(J9-Pin_14-Pad14)*%
X125320000Y-97050000D03*
%TO.P,J9,15,Pin_15*%
%TO.N,unconnected-(J9-Pin_15-Pad15)*%
X125320000Y-99590000D03*
%TO.P,J9,16,Pin_16*%
%TO.N,unconnected-(J9-Pin_16-Pad16)*%
X125320000Y-102130000D03*
%TO.P,J9,17,Pin_17*%
%TO.N,unconnected-(J9-Pin_17-Pad17)*%
X125320000Y-104670000D03*
%TO.P,J9,18,Pin_18*%
%TO.N,unconnected-(J9-Pin_18-Pad18)*%
X125320000Y-107210000D03*
%TD*%
D11*
%TO.P,J8,1,Pin_1*%
%TO.N,unconnected-(J8-Pin_1-Pad1)*%
X122780000Y-64030000D03*
D12*
%TO.P,J8,2,Pin_2*%
%TO.N,unconnected-(J8-Pin_2-Pad2)*%
X122780000Y-66570000D03*
%TO.P,J8,3,Pin_3*%
%TO.N,unconnected-(J8-Pin_3-Pad3)*%
X122780000Y-69110000D03*
%TO.P,J8,4,Pin_4*%
%TO.N,unconnected-(J8-Pin_4-Pad4)*%
X122780000Y-71650000D03*
%TO.P,J8,5,Pin_5*%
%TO.N,unconnected-(J8-Pin_5-Pad5)*%
X122780000Y-74190000D03*
%TO.P,J8,6,Pin_6*%
%TO.N,unconnected-(J8-Pin_6-Pad6)*%
X122780000Y-76730000D03*
%TO.P,J8,7,Pin_7*%
%TO.N,unconnected-(J8-Pin_7-Pad7)*%
X122780000Y-79270000D03*
%TO.P,J8,8,Pin_8*%
%TO.N,unconnected-(J8-Pin_8-Pad8)*%
X122780000Y-81810000D03*
%TO.P,J8,9,Pin_9*%
%TO.N,unconnected-(J8-Pin_9-Pad9)*%
X122780000Y-84350000D03*
%TO.P,J8,10,Pin_10*%
%TO.N,unconnected-(J8-Pin_10-Pad10)*%
X122780000Y-86890000D03*
%TO.P,J8,11,Pin_11*%
%TO.N,unconnected-(J8-Pin_11-Pad11)*%
X122780000Y-89430000D03*
%TO.P,J8,12,Pin_12*%
%TO.N,unconnected-(J8-Pin_12-Pad12)*%
X122780000Y-91970000D03*
%TO.P,J8,13,Pin_13*%
%TO.N,unconnected-(J8-Pin_13-Pad13)*%
X122780000Y-94510000D03*
%TO.P,J8,14,Pin_14*%
%TO.N,unconnected-(J8-Pin_14-Pad14)*%
X122780000Y-97050000D03*
%TO.P,J8,15,Pin_15*%
%TO.N,unconnected-(J8-Pin_15-Pad15)*%
X122780000Y-99590000D03*
%TO.P,J8,16,Pin_16*%
%TO.N,unconnected-(J8-Pin_16-Pad16)*%
X122780000Y-102130000D03*
%TO.P,J8,17,Pin_17*%
%TO.N,unconnected-(J8-Pin_17-Pad17)*%
X122780000Y-104670000D03*
%TO.P,J8,18,Pin_18*%
%TO.N,unconnected-(J8-Pin_18-Pad18)*%
X122780000Y-107210000D03*
%TD*%
D11*
%TO.P,J7,1,Pin_1*%
%TO.N,unconnected-(J7-Pin_1-Pad1)*%
X120240000Y-48790000D03*
D12*
%TO.P,J7,2,Pin_2*%
%TO.N,unconnected-(J7-Pin_2-Pad2)*%
X120240000Y-51330000D03*
%TO.P,J7,3,Pin_3*%
%TO.N,unconnected-(J7-Pin_3-Pad3)*%
X120240000Y-53870000D03*
%TO.P,J7,4,Pin_4*%
%TO.N,unconnected-(J7-Pin_4-Pad4)*%
X120240000Y-56410000D03*
%TO.P,J7,5,Pin_5*%
%TO.N,unconnected-(J7-Pin_5-Pad5)*%
X120240000Y-58950000D03*
%TO.P,J7,6,Pin_6*%
%TO.N,unconnected-(J7-Pin_6-Pad6)*%
X120240000Y-61490000D03*
%TO.P,J7,7,Pin_7*%
%TO.N,unconnected-(J7-Pin_7-Pad7)*%
X120240000Y-64030000D03*
%TO.P,J7,8,Pin_8*%
%TO.N,unconnected-(J7-Pin_8-Pad8)*%
X120240000Y-66570000D03*
%TO.P,J7,9,Pin_9*%
%TO.N,unconnected-(J7-Pin_9-Pad9)*%
X120240000Y-69110000D03*
%TO.P,J7,10,Pin_10*%
%TO.N,unconnected-(J7-Pin_10-Pad10)*%
X120240000Y-71650000D03*
%TO.P,J7,11,Pin_11*%
%TO.N,unconnected-(J7-Pin_11-Pad11)*%
X120240000Y-74190000D03*
%TO.P,J7,12,Pin_12*%
%TO.N,unconnected-(J7-Pin_12-Pad12)*%
X120240000Y-76730000D03*
%TO.P,J7,13,Pin_13*%
%TO.N,unconnected-(J7-Pin_13-Pad13)*%
X120240000Y-79270000D03*
%TO.P,J7,14,Pin_14*%
%TO.N,unconnected-(J7-Pin_14-Pad14)*%
X120240000Y-81810000D03*
%TO.P,J7,15,Pin_15*%
%TO.N,unconnected-(J7-Pin_15-Pad15)*%
X120240000Y-84350000D03*
%TO.P,J7,16,Pin_16*%
%TO.N,unconnected-(J7-Pin_16-Pad16)*%
X120240000Y-86890000D03*
%TO.P,J7,17,Pin_17*%
%TO.N,unconnected-(J7-Pin_17-Pad17)*%
X120240000Y-89430000D03*
%TO.P,J7,18,Pin_18*%
%TO.N,unconnected-(J7-Pin_18-Pad18)*%
X120240000Y-91970000D03*
%TO.P,J7,19,Pin_19*%
%TO.N,unconnected-(J7-Pin_19-Pad19)*%
X120240000Y-94510000D03*
%TO.P,J7,20,Pin_20*%
%TO.N,unconnected-(J7-Pin_20-Pad20)*%
X120240000Y-97050000D03*
%TO.P,J7,21,Pin_21*%
%TO.N,unconnected-(J7-Pin_21-Pad21)*%
X120240000Y-99590000D03*
%TO.P,J7,22,Pin_22*%
%TO.N,unconnected-(J7-Pin_22-Pad22)*%
X120240000Y-102130000D03*
%TO.P,J7,23,Pin_23*%
%TO.N,unconnected-(J7-Pin_23-Pad23)*%
X120240000Y-104670000D03*
%TO.P,J7,24,Pin_24*%
%TO.N,unconnected-(J7-Pin_24-Pad24)*%
X120240000Y-107210000D03*
%TD*%
D18*
%TO.P,J13,1,Pin_1*%
%TO.N,FOOTSWITCH_1*%
X88160000Y-136440000D03*
D12*
%TO.P,J13,2,Pin_2*%
%TO.N,FOOTSWITCH_2*%
X88160000Y-133900000D03*
%TO.P,J13,3,Pin_3*%
%TO.N,FOOTSWITCH_3*%
X88160000Y-131360000D03*
%TO.P,J13,4,Pin_4*%
%TO.N,FOOTSWITCH_4*%
X90700000Y-136440000D03*
%TO.P,J13,5,Pin_5*%
%TO.N,FOOTSWITCH_5*%
X90700000Y-133900000D03*
%TO.P,J13,6,Pin_6*%
%TO.N,FOOTSWITCH_6*%
X90700000Y-131360000D03*
%TO.P,J13,7,Pin_7*%
%TO.N,FOOTSWITCH_7*%
X93240000Y-136440000D03*
%TO.P,J13,8,Pin_8*%
%TO.N,FOOTSWITCH_8*%
X93240000Y-133900000D03*
%TO.P,J13,9,Pin_9*%
%TO.N,FOOTSWITCH_9*%
X93240000Y-131360000D03*
%TD*%
D11*
%TO.P,J6,1,Pin_1*%
%TO.N,unconnected-(J6-Pin_1-Pad1)*%
X117700000Y-48790000D03*
D12*
%TO.P,J6,2,Pin_2*%
%TO.N,unconnected-(J6-Pin_2-Pad2)*%
X117700000Y-51330000D03*
%TO.P,J6,3,Pin_3*%
%TO.N,unconnected-(J6-Pin_3-Pad3)*%
X117700000Y-53870000D03*
%TO.P,J6,4,Pin_4*%
%TO.N,unconnected-(J6-Pin_4-Pad4)*%
X117700000Y-56410000D03*
%TO.P,J6,5,Pin_5*%
%TO.N,unconnected-(J6-Pin_5-Pad5)*%
X117700000Y-58950000D03*
%TO.P,J6,6,Pin_6*%
%TO.N,unconnected-(J6-Pin_6-Pad6)*%
X117700000Y-61490000D03*
%TO.P,J6,7,Pin_7*%
%TO.N,unconnected-(J6-Pin_7-Pad7)*%
X117700000Y-64030000D03*
%TO.P,J6,8,Pin_8*%
%TO.N,unconnected-(J6-Pin_8-Pad8)*%
X117700000Y-66570000D03*
%TO.P,J6,9,Pin_9*%
%TO.N,unconnected-(J6-Pin_9-Pad9)*%
X117700000Y-69110000D03*
%TO.P,J6,10,Pin_10*%
%TO.N,unconnected-(J6-Pin_10-Pad10)*%
X117700000Y-71650000D03*
%TO.P,J6,11,Pin_11*%
%TO.N,unconnected-(J6-Pin_11-Pad11)*%
X117700000Y-74190000D03*
%TO.P,J6,12,Pin_12*%
%TO.N,unconnected-(J6-Pin_12-Pad12)*%
X117700000Y-76730000D03*
%TO.P,J6,13,Pin_13*%
%TO.N,unconnected-(J6-Pin_13-Pad13)*%
X117700000Y-79270000D03*
%TO.P,J6,14,Pin_14*%
%TO.N,unconnected-(J6-Pin_14-Pad14)*%
X117700000Y-81810000D03*
%TO.P,J6,15,Pin_15*%
%TO.N,unconnected-(J6-Pin_15-Pad15)*%
X117700000Y-84350000D03*
%TO.P,J6,16,Pin_16*%
%TO.N,unconnected-(J6-Pin_16-Pad16)*%
X117700000Y-86890000D03*
%TO.P,J6,17,Pin_17*%
%TO.N,unconnected-(J6-Pin_17-Pad17)*%
X117700000Y-89430000D03*
%TO.P,J6,18,Pin_18*%
%TO.N,unconnected-(J6-Pin_18-Pad18)*%
X117700000Y-91970000D03*
%TO.P,J6,19,Pin_19*%
%TO.N,unconnected-(J6-Pin_19-Pad19)*%
X117700000Y-94510000D03*
%TO.P,J6,20,Pin_20*%
%TO.N,unconnected-(J6-Pin_20-Pad20)*%
X117700000Y-97050000D03*
%TO.P,J6,21,Pin_21*%
%TO.N,unconnected-(J6-Pin_21-Pad21)*%
X117700000Y-99590000D03*
%TO.P,J6,22,Pin_22*%
%TO.N,unconnected-(J6-Pin_22-Pad22)*%
X117700000Y-102130000D03*
%TO.P,J6,23,Pin_23*%
%TO.N,unconnected-(J6-Pin_23-Pad23)*%
X117700000Y-104670000D03*
%TO.P,J6,24,Pin_24*%
%TO.N,unconnected-(J6-Pin_24-Pad24)*%
X117700000Y-107210000D03*
%TD*%
D15*
%TO.P,J14,1,Pin_1*%
%TO.N,JACK_IN*%
X121600000Y-111000000D03*
D16*
%TO.P,J14,2,Pin_2*%
%TO.N,GND*%
X127000000Y-111000000D03*
%TD*%
D11*
%TO.P,U1,1,GND*%
%TO.N,GND*%
X97380000Y-48790000D03*
X94840000Y-48790000D03*
%TO.P,U1,2,0_RX1_CRX2_CS1*%
%TO.N,unconnected-(U1-0_RX1_CRX2_CS1-Pad2)_1*%
X97380000Y-51330000D03*
X94840000Y-51330000D03*
%TO.P,U1,3,1_TX1_CTX2_MISO1*%
%TO.N,unconnected-(U1-1_TX1_CTX2_MISO1-Pad3)*%
X97380000Y-53870000D03*
X94840000Y-53870000D03*
%TO.P,U1,4,2_OUT2*%
%TO.N,unconnected-(U1-2_OUT2-Pad4)*%
X97380000Y-56410000D03*
X94840000Y-56410000D03*
%TO.P,U1,5,3_LRCLK2*%
%TO.N,unconnected-(U1-3_LRCLK2-Pad5)_1*%
X97380000Y-58950000D03*
X94840000Y-58950000D03*
%TO.P,U1,6,4_BCLK2*%
%TO.N,unconnected-(U1-4_BCLK2-Pad6)_1*%
X97380000Y-61490000D03*
X94840000Y-61490000D03*
%TO.P,U1,7,5_IN2*%
%TO.N,unconnected-(U1-5_IN2-Pad7)*%
X97380000Y-64030000D03*
X94840000Y-64030000D03*
%TO.P,U1,8,6_OUT1D*%
%TO.N,unconnected-(U1-6_OUT1D-Pad8)_1*%
X97380000Y-66570000D03*
X94840000Y-66570000D03*
%TO.P,U1,9,7_RX2_OUT1A*%
%TO.N,DAC_DIN*%
X97380000Y-69110000D03*
X94840000Y-69110000D03*
%TO.P,U1,10,8_TX2_IN1*%
%TO.N,DAC_DOUT*%
X97380000Y-71650000D03*
X94840000Y-71650000D03*
%TO.P,U1,11,9_OUT1C*%
%TO.N,unconnected-(U1-9_OUT1C-Pad11)_1*%
X97380000Y-74190000D03*
X94840000Y-74190000D03*
%TO.P,U1,12,10_CS_MQSR*%
%TO.N,unconnected-(U1-10_CS_MQSR-Pad12)_1*%
X97380000Y-76730000D03*
X94840000Y-76730000D03*
%TO.P,U1,13,11_MOSI_CTX1*%
%TO.N,unconnected-(U1-11_MOSI_CTX1-Pad13)*%
X97380000Y-79270000D03*
X94840000Y-79270000D03*
%TO.P,U1,14,12_MISO_MQSL*%
%TO.N,unconnected-(U1-12_MISO_MQSL-Pad14)*%
X97380000Y-81810000D03*
X94840000Y-81810000D03*
%TO.P,U1,15,3V3*%
%TO.N,+3.3V*%
X97380000Y-84350000D03*
X94840000Y-84350000D03*
%TO.P,U1,16,24_A10_TX6_SCL2*%
%TO.N,unconnected-(U1-24_A10_TX6_SCL2-Pad16)*%
X97380000Y-86890000D03*
X94840000Y-86890000D03*
%TO.P,U1,17,25_A11_RX6_SDA2*%
%TO.N,unconnected-(U1-25_A11_RX6_SDA2-Pad17)_1*%
X97380000Y-89430000D03*
X94840000Y-89430000D03*
%TO.P,U1,18,26_A12_MOSI1*%
%TO.N,unconnected-(U1-26_A12_MOSI1-Pad18)_1*%
X97380000Y-91970000D03*
X94840000Y-91970000D03*
%TO.P,U1,19,27_A13_SCK1*%
%TO.N,unconnected-(U1-27_A13_SCK1-Pad19)_1*%
X97380000Y-94510000D03*
X94840000Y-94510000D03*
%TO.P,U1,20,28_RX7*%
%TO.N,unconnected-(U1-28_RX7-Pad20)_1*%
X97380000Y-97050000D03*
X94840000Y-97050000D03*
%TO.P,U1,21,29_TX7*%
%TO.N,unconnected-(U1-29_TX7-Pad21)*%
X97380000Y-99590000D03*
X94840000Y-99590000D03*
%TO.P,U1,22,30_CRX3*%
%TO.N,unconnected-(U1-30_CRX3-Pad22)_1*%
X97380000Y-102130000D03*
X94840000Y-102130000D03*
%TO.P,U1,23,31_CTX3*%
%TO.N,unconnected-(U1-31_CTX3-Pad23)*%
X97380000Y-104670000D03*
X94840000Y-104670000D03*
%TO.P,U1,24,32_OUT1B*%
%TO.N,unconnected-(U1-32_OUT1B-Pad24)*%
X97380000Y-107210000D03*
X94840000Y-107210000D03*
%TO.P,U1,25,33_MCLK2*%
%TO.N,unconnected-(U1-33_MCLK2-Pad25)_1*%
X115160000Y-107210000D03*
X112620000Y-107210000D03*
%TO.P,U1,26,34_RX8*%
%TO.N,unconnected-(U1-34_RX8-Pad26)*%
X115160000Y-104670000D03*
X112620000Y-104670000D03*
%TO.P,U1,27,35_TX8*%
%TO.N,unconnected-(U1-35_TX8-Pad27)*%
X115160000Y-102130000D03*
X112620000Y-102130000D03*
%TO.P,U1,28,36_CS*%
%TO.N,unconnected-(U1-36_CS-Pad28)_1*%
X115160000Y-99590000D03*
X112620000Y-99590000D03*
%TO.P,U1,29,37_CS*%
%TO.N,unconnected-(U1-37_CS-Pad29)_1*%
X115160000Y-97050000D03*
X112620000Y-97050000D03*
%TO.P,U1,30,38_CS1_IN1*%
%TO.N,unconnected-(U1-38_CS1_IN1-Pad30)_1*%
X115160000Y-94510000D03*
X112620000Y-94510000D03*
%TO.P,U1,31,39_MISO1_OUT1A*%
%TO.N,unconnected-(U1-39_MISO1_OUT1A-Pad31)_1*%
X115160000Y-91970000D03*
X112620000Y-91970000D03*
%TO.P,U1,32,40_A16*%
%TO.N,unconnected-(U1-40_A16-Pad32)*%
X115160000Y-89430000D03*
X112620000Y-89430000D03*
%TO.P,U1,33,41_A17*%
%TO.N,unconnected-(U1-41_A17-Pad33)_1*%
X115160000Y-86890000D03*
X112620000Y-86890000D03*
%TO.P,U1,34,GND*%
%TO.N,unconnected-(U1-GND-Pad34)*%
X115160000Y-84350000D03*
X112620000Y-84350000D03*
%TO.P,U1,35,13_SCK_LED*%
%TO.N,unconnected-(U1-13_SCK_LED-Pad35)_1*%
X115160000Y-81810000D03*
X112620000Y-81810000D03*
%TO.P,U1,36,14_A0_TX3_SPDIF_OUT*%
%TO.N,unconnected-(U1-14_A0_TX3_SPDIF_OUT-Pad36)*%
X115160000Y-79270000D03*
X112620000Y-79270000D03*
%TO.P,U1,37,15_A1_RX3_SPDIF_IN*%
%TO.N,unconnected-(U1-15_A1_RX3_SPDIF_IN-Pad37)*%
X115160000Y-76730000D03*
X112620000Y-76730000D03*
%TO.P,U1,38,16_A2_RX4_SCL1*%
%TO.N,unconnected-(U1-16_A2_RX4_SCL1-Pad38)_1*%
X115160000Y-74190000D03*
X112620000Y-74190000D03*
%TO.P,U1,39,17_A3_TX4_SDA1*%
%TO.N,unconnected-(U1-17_A3_TX4_SDA1-Pad39)*%
X115160000Y-71650000D03*
X112620000Y-71650000D03*
%TO.P,U1,40,18_A4_SDA*%
%TO.N,DAC_SDA*%
X115160000Y-69110000D03*
X112620000Y-69110000D03*
%TO.P,U1,41,19_A5_SCL*%
%TO.N,DAC_SCL*%
X115160000Y-66570000D03*
X112620000Y-66570000D03*
%TO.P,U1,42,20_A6_TX5_LRCLK1*%
%TO.N,DAC_LRCLK*%
X115160000Y-64030000D03*
X112620000Y-64030000D03*
%TO.P,U1,43,21_A7_RX5_BCLK1*%
%TO.N,DAC_BCLK*%
X115160000Y-61490000D03*
X112620000Y-61490000D03*
%TO.P,U1,44,22_A8_CTX1*%
%TO.N,unconnected-(U1-22_A8_CTX1-Pad44)_1*%
X115160000Y-58950000D03*
X112620000Y-58950000D03*
%TO.P,U1,45,23_A9_CRX1_MCLK1*%
%TO.N,DAC_MCLK*%
X115160000Y-56410000D03*
X112620000Y-56410000D03*
%TO.P,U1,46,3V3*%
%TO.N,+3.3V*%
X115160000Y-53870000D03*
X112620000Y-53870000D03*
%TO.P,U1,47,GND*%
%TO.N,GND*%
X115160000Y-51330000D03*
X112620000Y-51330000D03*
%TO.P,U1,48,VIN*%
%TO.N,+5V*%
X115160000Y-48790000D03*
X112620000Y-48790000D03*
%TD*%
D19*
%TO.P,D1,1,K*%
%TO.N,+9V*%
X112550000Y-112500000D03*
D20*
%TO.P,D1,2,A*%
%TO.N,Net-(D1-A)*%
X112550000Y-122660000D03*
%TD*%
D21*
%TO.P,D5,1,K*%
%TO.N,LED_NEG*%
X87000000Y-141000000D03*
D22*
%TO.P,D5,2,A*%
%TO.N,Net-(D5-A)*%
X89540000Y-141000000D03*
%TD*%
D23*
%TO.P,SW1,1,A*%
%TO.N,FOOTSWITCH_1*%
X99700000Y-143800000D03*
%TO.P,SW1,2,B*%
%TO.N,FOOTSWITCH_2*%
X99700000Y-139000000D03*
%TO.P,SW1,3,C*%
%TO.N,FOOTSWITCH_3*%
X99700000Y-134200000D03*
%TO.P,SW1,4,A*%
%TO.N,FOOTSWITCH_4*%
X105000000Y-143800000D03*
%TO.P,SW1,5,B*%
%TO.N,FOOTSWITCH_5*%
X105000000Y-139000000D03*
%TO.P,SW1,6,C*%
%TO.N,FOOTSWITCH_6*%
X105000000Y-134200000D03*
%TO.P,SW1,7,A*%
%TO.N,FOOTSWITCH_7*%
X110300000Y-143800000D03*
%TO.P,SW1,8,B*%
%TO.N,FOOTSWITCH_8*%
X110300000Y-139000000D03*
%TO.P,SW1,9,C*%
%TO.N,FOOTSWITCH_9*%
X110300000Y-134200000D03*
%TD*%
D11*
%TO.P,J1,1,Pin_1*%
%TO.N,+9V*%
X82138145Y-64031512D03*
D12*
%TO.P,J1,2,Pin_2*%
X82138145Y-66571512D03*
%TO.P,J1,3,Pin_3*%
%TO.N,+5V*%
X82138145Y-69111512D03*
%TO.P,J1,4,Pin_4*%
X82138145Y-71651512D03*
%TO.P,J1,5,Pin_5*%
%TO.N,+3.3V*%
X82138145Y-74191512D03*
%TO.P,J1,6,Pin_6*%
X82138145Y-76731512D03*
%TO.P,J1,7,Pin_7*%
%TO.N,JACK_IN*%
X82138145Y-79271512D03*
%TO.P,J1,8,Pin_8*%
%TO.N,JACK_OUT*%
X82138145Y-81811512D03*
%TO.P,J1,9,Pin_9*%
%TO.N,PREAMP_IN_L*%
X82138145Y-84351512D03*
%TO.P,J1,10,Pin_10*%
%TO.N,PREAMP_IN_R*%
X82138145Y-86891512D03*
%TO.P,J1,11,Pin_11*%
%TO.N,LINE_IN_L*%
X82138145Y-89431512D03*
%TO.P,J1,12,Pin_12*%
%TO.N,LINE_IN_R*%
X82138145Y-91971512D03*
%TO.P,J1,13,Pin_13*%
%TO.N,LINE_OUT_L*%
X82138145Y-94511512D03*
%TO.P,J1,14,Pin_14*%
%TO.N,LINE_OUT_R*%
X82138145Y-97051512D03*
%TO.P,J1,15,Pin_15*%
%TO.N,LED_NEG*%
X82138145Y-99591512D03*
%TO.P,J1,16,Pin_16*%
%TO.N,GND*%
X82138145Y-102131512D03*
%TO.P,J1,17,Pin_17*%
X82138145Y-104671512D03*
%TO.P,J1,18,Pin_18*%
X82138145Y-107211512D03*
%TD*%
D24*
%TO.P,JP6,1,A*%
%TO.N,FOOTSWITCH_5*%
X90500000Y-121700000D03*
D25*
%TO.P,JP6,2,B*%
%TO.N,GND*%
X90500000Y-123000000D03*
%TD*%
D24*
%TO.P,JP7,1,A*%
%TO.N,FOOTSWITCH_6*%
X90500000Y-117700000D03*
D25*
%TO.P,JP7,2,B*%
%TO.N,LED_NEG*%
X90500000Y-119000000D03*
%TD*%
D26*
%TO.P,JP11,1,A*%
%TO.N,PREAMP_IN_L*%
X126700000Y-116750000D03*
D27*
%TO.P,JP11,2,B*%
%TO.N,JACK_IN*%
X128000000Y-116750000D03*
%TD*%
D28*
%TO.P,JP9,1,A*%
%TO.N,JACK_OUT*%
X94500000Y-123000000D03*
D29*
%TO.P,JP9,2,B*%
%TO.N,FOOTSWITCH_8*%
X94500000Y-121700000D03*
%TD*%
D28*
%TO.P,JP10,1,A*%
%TO.N,LINE_OUT_L*%
X94500000Y-119000000D03*
D29*
%TO.P,JP10,2,B*%
%TO.N,FOOTSWITCH_9*%
X94500000Y-117700000D03*
%TD*%
D24*
%TO.P,JP5,1,A*%
%TO.N,FOOTSWITCH_3*%
X86500000Y-117700000D03*
D25*
%TO.P,JP5,2,B*%
%TO.N,PREAMP_IN_L*%
X86500000Y-119000000D03*
%TD*%
D28*
%TO.P,JP8,1,A*%
%TO.N,Net-(JP3-B)*%
X94500000Y-127000000D03*
D29*
%TO.P,JP8,2,B*%
%TO.N,FOOTSWITCH_7*%
X94500000Y-125700000D03*
%TD*%
D28*
%TO.P,JP2,1,A*%
%TO.N,Net-(JP2-A)*%
X102900000Y-82400000D03*
D29*
%TO.P,JP2,2,B*%
%TO.N,Net-(JP2-B)*%
X102900000Y-81100000D03*
%TD*%
D24*
%TO.P,JP3,1,A*%
%TO.N,FOOTSWITCH_1*%
X86500000Y-125700000D03*
D25*
%TO.P,JP3,2,B*%
%TO.N,Net-(JP3-B)*%
X86500000Y-127000000D03*
%TD*%
D13*
%TO.P,R14,1*%
%TO.N,Net-(U3B--)*%
X108600000Y-78400000D03*
D14*
%TO.P,R14,2*%
%TO.N,Net-(JP2-B)*%
X100980000Y-78400000D03*
%TD*%
D24*
%TO.P,JP4,1,A*%
%TO.N,FOOTSWITCH_2*%
X86500000Y-121700000D03*
D25*
%TO.P,JP4,2,B*%
%TO.N,JACK_IN*%
X86500000Y-123000000D03*
%TD*%
D24*
%TO.P,JP1,1,A*%
%TO.N,Net-(JP1-A)*%
X102000000Y-92700000D03*
D25*
%TO.P,JP1,2,B*%
%TO.N,Net-(JP1-B)*%
X102000000Y-94000000D03*
%TD*%
D13*
%TO.P,R12,1*%
%TO.N,Net-(U3A--)*%
X108110000Y-97100000D03*
D14*
%TO.P,R12,2*%
%TO.N,Net-(JP1-B)*%
X100490000Y-97100000D03*
%TD*%
D30*
%TO.N,+3.3V*%
X103700000Y-67800000D03*
%TO.N,Net-(JP2-A)*%
X104794999Y-83236913D03*
%TO.N,LINE_OUT_R*%
X83125000Y-127400000D03*
X81300000Y-119800000D03*
X87500000Y-115599000D03*
X89100000Y-114600000D03*
X93700000Y-106200000D03*
%TO.N,JACK_OUT*%
X92100000Y-109700000D03*
%TO.N,+9V*%
X105200000Y-109800000D03*
%TO.N,GND*%
X103000000Y-118700000D03*
X100400000Y-129500000D03*
%TO.N,+9V*%
X84900000Y-117400000D03*
%TO.N,GND*%
X81800000Y-122300000D03*
X90302861Y-125524000D03*
X93757056Y-124057056D03*
X94000000Y-120400000D03*
X99600000Y-122300000D03*
X114200000Y-124600000D03*
X109200000Y-114800000D03*
%TO.N,+9V*%
X102700000Y-87100000D03*
%TO.N,GND*%
X101300000Y-88800000D03*
X109200000Y-87600000D03*
X101400000Y-68000000D03*
X104900000Y-68000000D03*
X104375702Y-73998824D03*
%TO.N,+3.3V*%
X107700000Y-63800000D03*
X108600000Y-67600000D03*
%TO.N,GND*%
X100000000Y-61500000D03*
X107100001Y-52318687D03*
%TO.N,Net-(U5-VDDA)*%
X100500000Y-57700000D03*
X106221397Y-51736775D03*
%TO.N,+3.3V*%
X108766623Y-58625000D03*
%TO.N,+5V*%
X110200000Y-69200000D03*
%TO.N,PREAMP_IN_R*%
X96700000Y-116600000D03*
X90900000Y-111700000D03*
%TO.N,JACK_IN*%
X86000000Y-124400000D03*
%TO.N,PREAMP_IN_L*%
X87200000Y-124500000D03*
%TO.N,LED_NEG*%
X85800000Y-114000000D03*
%TO.N,LINE_IN_R*%
X100187347Y-71887347D03*
%TO.N,LINE_IN_L*%
X100200000Y-90600000D03*
%TO.N,GND*%
X106700000Y-59400000D03*
X103500000Y-48700000D03*
X99800000Y-54700000D03*
%TO.N,DAC_DOUT*%
X107000000Y-53900000D03*
%TO.N,DAC_DIN*%
X106122027Y-53421285D03*
%TO.N,DAC_SDA*%
X105217735Y-53848199D03*
X106501000Y-65899000D03*
%TO.N,DAC_SCL*%
X105800000Y-63800000D03*
X104225000Y-53727860D03*
%TO.N,Net-(U3B-+)*%
X106700000Y-99400000D03*
X106600000Y-86300000D03*
%TO.N,FOOTSWITCH_3*%
X83900000Y-131400000D03*
%TO.N,FOOTSWITCH_5*%
X94727347Y-133927347D03*
%TO.N,FOOTSWITCH_9*%
X96900000Y-131975000D03*
%TO.N,Net-(JP1-B)*%
X105600000Y-87700000D03*
X107000000Y-77000000D03*
%TO.N,LINE_OUT_L*%
X96757000Y-129000000D03*
X93387796Y-113270735D03*
%TO.N,Net-(U5-SYS_MCLK)*%
X108200000Y-56800000D03*
X107800000Y-54700000D03*
%TO.N,Net-(JP1-A)*%
X104099847Y-91400153D03*
%TO.N,Net-(JP3-B)*%
X94300000Y-128100000D03*
X87300000Y-128200000D03*
%TO.N,PREAMP_IN_L*%
X80100000Y-109400000D03*
X127000000Y-127100000D03*
%TO.N,JACK_IN*%
X127300000Y-128400000D03*
%TO.N,LED_NEG*%
X87600000Y-129725000D03*
%TD*%
D31*
%TO.N,Net-(JP2-A)*%
X104794999Y-83236913D02*
X103736913Y-83236913D01*
X103736913Y-83236913D02*
X102900000Y-82400000D01*
D32*
%TO.N,+9V*%
X114101000Y-114051000D02*
X112550000Y-112500000D01*
X114101000Y-123302446D02*
X114101000Y-114051000D01*
X113349000Y-134618709D02*
X113349000Y-124054446D01*
X99181291Y-136051000D02*
X111916709Y-136051000D01*
X92701818Y-140851000D02*
X94381291Y-140851000D01*
X91499818Y-139649000D02*
X92701818Y-140851000D01*
X85649000Y-139649000D02*
X91499818Y-139649000D01*
X94381291Y-140851000D02*
X99181291Y-136051000D01*
X79751000Y-119749000D02*
X79751000Y-133751000D01*
X111916709Y-136051000D02*
X113349000Y-134618709D01*
X79751000Y-133751000D02*
X85649000Y-139649000D01*
X82100000Y-117400000D02*
X79751000Y-119749000D01*
X113349000Y-124054446D02*
X114101000Y-123302446D01*
X84900000Y-117400000D02*
X82100000Y-117400000D01*
D31*
%TO.N,LINE_OUT_R*%
X80800000Y-126700000D02*
X81500000Y-127400000D01*
X81500000Y-127400000D02*
X83125000Y-127400000D01*
X80800000Y-121297919D02*
X80800000Y-126700000D01*
X81300000Y-119800000D02*
X81300000Y-120797919D01*
X81300000Y-120797919D02*
X80800000Y-121297919D01*
X88499000Y-114600000D02*
X87500000Y-115599000D01*
X89100000Y-114600000D02*
X88499000Y-114600000D01*
%TO.N,PREAMP_IN_L*%
X82400000Y-115200000D02*
X80100000Y-112900000D01*
X87581000Y-118674000D02*
X87581000Y-117355788D01*
X86500000Y-119000000D02*
X87255000Y-119000000D01*
X87255000Y-119000000D02*
X87581000Y-118674000D01*
X87581000Y-117355788D02*
X85425212Y-115200000D01*
X85425212Y-115200000D02*
X82400000Y-115200000D01*
X80100000Y-112900000D02*
X80100000Y-109400000D01*
%TO.N,LINE_OUT_R*%
X93535512Y-106035512D02*
X93700000Y-106200000D01*
X83502145Y-105302145D02*
X84235512Y-106035512D01*
X83502145Y-98415512D02*
X83502145Y-105302145D01*
X82138145Y-97051512D02*
X83502145Y-98415512D01*
X84235512Y-106035512D02*
X93535512Y-106035512D01*
%TO.N,JACK_OUT*%
X84800000Y-109200000D02*
X83000000Y-111000000D01*
X91600000Y-109200000D02*
X84800000Y-109200000D01*
X92100000Y-109700000D02*
X91600000Y-109200000D01*
D32*
%TO.N,+9V*%
X105200000Y-109800000D02*
X105200000Y-109074000D01*
X105700000Y-108574000D02*
X80874000Y-108574000D01*
X105200000Y-109074000D02*
X105700000Y-108574000D01*
%TO.N,GND*%
X90500000Y-125326861D02*
X90302861Y-125524000D01*
X90500000Y-123000000D02*
X90500000Y-125326861D01*
%TO.N,+9V*%
X110745818Y-109125000D02*
X110775000Y-109125000D01*
X99239000Y-97618182D02*
X110745818Y-109125000D01*
X99239000Y-93859012D02*
X99239000Y-97618182D01*
X102700000Y-90398012D02*
X99239000Y-93859012D01*
X102700000Y-87100000D02*
X102700000Y-90398012D01*
X112550000Y-110900000D02*
X110775000Y-109125000D01*
D33*
%TO.N,DAC_DIN*%
X103500000Y-62990000D02*
X97380000Y-69110000D01*
X103500000Y-53461496D02*
X103500000Y-62990000D01*
X105826860Y-53026860D02*
X103934636Y-53026860D01*
X106122027Y-53421285D02*
X106122027Y-53322027D01*
X103934636Y-53026860D02*
X103500000Y-53461496D01*
X106122027Y-53322027D02*
X105826860Y-53026860D01*
D31*
%TO.N,Net-(U5-VDDA)*%
X100500000Y-55291942D02*
X100500000Y-57700000D01*
X106221397Y-51736775D02*
X106059172Y-51899000D01*
X106059172Y-51899000D02*
X103892942Y-51899000D01*
X103892942Y-51899000D02*
X100500000Y-55291942D01*
D32*
%TO.N,+5V*%
X110200000Y-51210000D02*
X112620000Y-48790000D01*
X110200000Y-69200000D02*
X110200000Y-51210000D01*
D31*
%TO.N,PREAMP_IN_R*%
X92900000Y-111700000D02*
X90900000Y-111700000D01*
X96700000Y-115500000D02*
X92900000Y-111700000D01*
X96700000Y-116600000D02*
X96700000Y-115500000D01*
%TO.N,LED_NEG*%
X85800000Y-114936978D02*
X85800000Y-114000000D01*
X89863022Y-119000000D02*
X85800000Y-114936978D01*
X90500000Y-119000000D02*
X89863022Y-119000000D01*
%TO.N,LINE_IN_R*%
X80962145Y-90795512D02*
X82138145Y-91971512D01*
X80962145Y-73704396D02*
X80962145Y-90795512D01*
X81652541Y-73014000D02*
X80962145Y-73704396D01*
X99060694Y-73014000D02*
X81652541Y-73014000D01*
X100187347Y-71887347D02*
X99060694Y-73014000D01*
%TO.N,LINE_IN_L*%
X83314145Y-90607512D02*
X82138145Y-89431512D01*
X100192488Y-90607512D02*
X83314145Y-90607512D01*
X100200000Y-90600000D02*
X100192488Y-90607512D01*
D32*
%TO.N,+9V*%
X80871512Y-66571512D02*
X82138145Y-66571512D01*
X79751000Y-107451000D02*
X79751000Y-67549000D01*
X79751000Y-67549000D02*
X80800000Y-66500000D01*
X110775000Y-109125000D02*
X110224000Y-108574000D01*
X80800000Y-66500000D02*
X80871512Y-66571512D01*
X112550000Y-112500000D02*
X112550000Y-110900000D01*
X110224000Y-108574000D02*
X105700000Y-108574000D01*
X80874000Y-108574000D02*
X79751000Y-107451000D01*
D33*
%TO.N,DAC_DOUT*%
X103100000Y-62700000D02*
X97841000Y-67959000D01*
X107000000Y-53900000D02*
X107000000Y-53208636D01*
X96229000Y-70499000D02*
X97380000Y-71650000D01*
X103795396Y-52599000D02*
X103100000Y-53294396D01*
X96903240Y-67959000D02*
X96229000Y-68633240D01*
X106390364Y-52599000D02*
X103795396Y-52599000D01*
X103100000Y-53294396D02*
X103100000Y-62700000D01*
X96229000Y-68633240D02*
X96229000Y-70499000D01*
X107000000Y-53208636D02*
X106390364Y-52599000D01*
X97841000Y-67959000D02*
X96903240Y-67959000D01*
%TO.N,DAC_SDA*%
X105217735Y-61817735D02*
X106501000Y-63101000D01*
X105217735Y-53848199D02*
X105217735Y-61817735D01*
X106501000Y-63101000D02*
X106501000Y-65899000D01*
%TO.N,DAC_SCL*%
X104225000Y-62225000D02*
X105800000Y-63800000D01*
X104225000Y-53727860D02*
X104225000Y-62225000D01*
D31*
%TO.N,Net-(JP2-B)*%
X102900000Y-81100000D02*
X102900000Y-80320000D01*
X102900000Y-80320000D02*
X100980000Y-78400000D01*
D32*
%TO.N,Net-(D1-A)*%
X102600000Y-110400000D02*
X112550000Y-120350000D01*
X112550000Y-120350000D02*
X112550000Y-122660000D01*
D31*
%TO.N,FOOTSWITCH_1*%
X85745000Y-125700000D02*
X85300000Y-126145000D01*
X86610000Y-134890000D02*
X88160000Y-136440000D01*
X86610000Y-129110000D02*
X86610000Y-134890000D01*
X85300000Y-127800000D02*
X86610000Y-129110000D01*
X85300000Y-126145000D02*
X85300000Y-127800000D01*
X86500000Y-125700000D02*
X85745000Y-125700000D01*
%TO.N,Net-(U3B-+)*%
X106600000Y-99300000D02*
X106700000Y-99400000D01*
X106600000Y-86300000D02*
X106600000Y-99300000D01*
%TO.N,FOOTSWITCH_2*%
X85745000Y-121700000D02*
X84849000Y-122596000D01*
X86500000Y-121700000D02*
X85745000Y-121700000D01*
X86159000Y-129400000D02*
X86159000Y-136791000D01*
X86159000Y-136791000D02*
X86984000Y-137616000D01*
X86984000Y-137616000D02*
X89336000Y-137616000D01*
X89336000Y-135076000D02*
X88160000Y-133900000D01*
X89336000Y-137616000D02*
X89336000Y-135076000D01*
X84849000Y-122596000D02*
X84849000Y-128090000D01*
X84849000Y-128090000D02*
X86159000Y-129400000D01*
%TO.N,FOOTSWITCH_3*%
X86081894Y-117700000D02*
X86500000Y-117700000D01*
X83900000Y-119881894D02*
X86081894Y-117700000D01*
X83900000Y-131400000D02*
X83900000Y-119881894D01*
%TO.N,FOOTSWITCH_5*%
X91876000Y-132724000D02*
X90700000Y-133900000D01*
X94727347Y-133927347D02*
X94727347Y-133724231D01*
X90500000Y-121700000D02*
X90081894Y-121700000D01*
X90081894Y-121700000D02*
X89419000Y-122362894D01*
X94727347Y-133724231D02*
X93727116Y-132724000D01*
X93727116Y-132724000D02*
X91876000Y-132724000D01*
X89419000Y-122362894D02*
X89419000Y-132619000D01*
X89419000Y-132619000D02*
X90700000Y-133900000D01*
%TO.N,FOOTSWITCH_6*%
X91581000Y-130479000D02*
X90700000Y-131360000D01*
X91255000Y-117700000D02*
X91581000Y-118026000D01*
X90500000Y-117700000D02*
X91255000Y-117700000D01*
X91581000Y-118026000D02*
X91581000Y-130479000D01*
%TO.N,FOOTSWITCH_7*%
X95581000Y-134099000D02*
X93240000Y-136440000D01*
X95581000Y-126362894D02*
X95581000Y-134099000D01*
X94918106Y-125700000D02*
X95581000Y-126362894D01*
X94500000Y-125700000D02*
X94918106Y-125700000D01*
%TO.N,FOOTSWITCH_8*%
X92064000Y-136927116D02*
X92064000Y-135076000D01*
X94500000Y-121700000D02*
X95255000Y-121700000D01*
X96032000Y-122477000D02*
X96032000Y-135311116D01*
X92752884Y-137616000D02*
X92064000Y-136927116D01*
X96032000Y-135311116D02*
X93727116Y-137616000D01*
X95255000Y-121700000D02*
X96032000Y-122477000D01*
X92064000Y-135076000D02*
X93240000Y-133900000D01*
X93727116Y-137616000D02*
X92752884Y-137616000D01*
%TO.N,FOOTSWITCH_9*%
X96900000Y-131200000D02*
X97483000Y-130617000D01*
X94918106Y-117700000D02*
X94500000Y-117700000D01*
X96900000Y-131975000D02*
X108075000Y-131975000D01*
X97483000Y-130617000D02*
X97483000Y-120264894D01*
X97483000Y-120264894D02*
X94918106Y-117700000D01*
X96900000Y-131975000D02*
X96900000Y-131200000D01*
X108075000Y-131975000D02*
X110300000Y-134200000D01*
%TO.N,Net-(JP1-B)*%
X100490000Y-95510000D02*
X100490000Y-97100000D01*
X105600000Y-87700000D02*
X105600000Y-78400000D01*
X102000000Y-94000000D02*
X100490000Y-95510000D01*
X105600000Y-78400000D02*
X107000000Y-77000000D01*
%TO.N,LINE_OUT_L*%
X93600000Y-119000000D02*
X93387796Y-118787796D01*
X93387796Y-118787796D02*
X93387796Y-113270735D01*
X94500000Y-119000000D02*
X96757000Y-121257000D01*
X96757000Y-121257000D02*
X96757000Y-129000000D01*
X94500000Y-119000000D02*
X93600000Y-119000000D01*
D33*
%TO.N,Net-(U5-SYS_MCLK)*%
X108200000Y-55100000D02*
X107800000Y-54700000D01*
X108200000Y-56800000D02*
X108200000Y-55100000D01*
D31*
%TO.N,Net-(JP1-A)*%
X102900000Y-91800000D02*
X102000000Y-92700000D01*
X104099847Y-91400153D02*
X103700000Y-91800000D01*
X103700000Y-91800000D02*
X102900000Y-91800000D01*
%TO.N,Net-(JP3-B)*%
X86500000Y-127400000D02*
X87300000Y-128200000D01*
X94300000Y-128100000D02*
X94300000Y-127200000D01*
X94300000Y-127200000D02*
X94500000Y-127000000D01*
X86500000Y-127000000D02*
X86500000Y-127400000D01*
%TO.N,PREAMP_IN_L*%
X127000000Y-126200000D02*
X126700000Y-125900000D01*
X127000000Y-127100000D02*
X127000000Y-126200000D01*
X126700000Y-125900000D02*
X126700000Y-116750000D01*
%TO.N,JACK_IN*%
X128000000Y-127700000D02*
X128000000Y-116750000D01*
X122975000Y-111000000D02*
X128000000Y-116025000D01*
X121600000Y-111000000D02*
X122975000Y-111000000D01*
X127300000Y-128400000D02*
X128000000Y-127700000D01*
X128000000Y-116025000D02*
X128000000Y-116750000D01*
%TO.N,JACK_OUT*%
X92700000Y-121955000D02*
X92700000Y-113500000D01*
X92300000Y-113100000D02*
X85100000Y-113100000D01*
X93745000Y-123000000D02*
X92700000Y-121955000D01*
X92700000Y-113500000D02*
X92300000Y-113100000D01*
X85100000Y-113100000D02*
X83000000Y-111000000D01*
X94500000Y-123000000D02*
X93745000Y-123000000D01*
%TO.N,LED_NEG*%
X90500000Y-119000000D02*
X88032000Y-121468000D01*
X88032000Y-121468000D02*
X88032000Y-129293000D01*
X88032000Y-129293000D02*
X87600000Y-129725000D01*
%TO.N,PREAMP_IN_L*%
X87581000Y-124119000D02*
X87200000Y-124500000D01*
X87581000Y-120081000D02*
X87581000Y-124119000D01*
X86500000Y-119000000D02*
X87581000Y-120081000D01*
%TO.N,JACK_IN*%
X86500000Y-123000000D02*
X86500000Y-123900000D01*
X86500000Y-123900000D02*
X86000000Y-124400000D01*
%TD*%
M02*
