%TF.GenerationSoftware,KiCad,Pcbnew,7.0.2*%
%TF.CreationDate,2025-02-17T11:53:52+00:00*%
%TF.ProjectId,stomp_00,73746f6d-705f-4303-902e-6b696361645f,rev?*%
%TF.SameCoordinates,Original*%
%TF.FileFunction,Copper,L1,Top*%
%TF.FilePolarity,Positive*%
%FSLAX46Y46*%
G04 Gerber Fmt 4.6, Leading zero omitted, Abs format (unit mm)*
G04 Created by KiCad (PCBNEW 7.0.2) date 2025-02-17 11:53:52*
%MOMM*%
%LPD*%
G01*
G04 APERTURE LIST*
G04 Aperture macros list*
%AMRoundRect*
0 Rectangle with rounded corners*
0 $1 Rounding radius*
0 $2 $3 $4 $5 $6 $7 $8 $9 X,Y pos of 4 corners*
0 Add a 4 corners polygon primitive as box body*
4,1,4,$2,$3,$4,$5,$6,$7,$8,$9,$2,$3,0*
0 Add four circle primitives for the rounded corners*
1,1,$1+$1,$2,$3*
1,1,$1+$1,$4,$5*
1,1,$1+$1,$6,$7*
1,1,$1+$1,$8,$9*
0 Add four rect primitives between the rounded corners*
20,1,$1+$1,$2,$3,$4,$5,0*
20,1,$1+$1,$4,$5,$6,$7,0*
20,1,$1+$1,$6,$7,$8,$9,0*
20,1,$1+$1,$8,$9,$2,$3,0*%
G04 Aperture macros list end*
%TA.AperFunction,SMDPad,CuDef*%
%ADD10R,5.700000X1.700000*%
%TD*%
%TA.AperFunction,SMDPad,CuDef*%
%ADD11RoundRect,0.225000X-0.225000X-0.250000X0.225000X-0.250000X0.225000X0.250000X-0.225000X0.250000X0*%
%TD*%
%TA.AperFunction,SMDPad,CuDef*%
%ADD12RoundRect,0.200000X0.200000X0.275000X-0.200000X0.275000X-0.200000X-0.275000X0.200000X-0.275000X0*%
%TD*%
%TA.AperFunction,SMDPad,CuDef*%
%ADD13RoundRect,0.200000X-0.275000X0.200000X-0.275000X-0.200000X0.275000X-0.200000X0.275000X0.200000X0*%
%TD*%
%TA.AperFunction,SMDPad,CuDef*%
%ADD14RoundRect,0.200000X0.275000X-0.200000X0.275000X0.200000X-0.275000X0.200000X-0.275000X-0.200000X0*%
%TD*%
%TA.AperFunction,ComponentPad*%
%ADD15C,3.000000*%
%TD*%
%TA.AperFunction,ComponentPad*%
%ADD16C,1.700000*%
%TD*%
%TA.AperFunction,ComponentPad*%
%ADD17O,1.700000X1.700000*%
%TD*%
%TA.AperFunction,SMDPad,CuDef*%
%ADD18RoundRect,0.225000X0.225000X0.250000X-0.225000X0.250000X-0.225000X-0.250000X0.225000X-0.250000X0*%
%TD*%
%TA.AperFunction,SMDPad,CuDef*%
%ADD19RoundRect,0.250000X1.000000X0.650000X-1.000000X0.650000X-1.000000X-0.650000X1.000000X-0.650000X0*%
%TD*%
%TA.AperFunction,ComponentPad*%
%ADD20C,1.600000*%
%TD*%
%TA.AperFunction,ComponentPad*%
%ADD21O,1.600000X1.600000*%
%TD*%
%TA.AperFunction,SMDPad,CuDef*%
%ADD22RoundRect,0.150000X0.150000X-0.825000X0.150000X0.825000X-0.150000X0.825000X-0.150000X-0.825000X0*%
%TD*%
%TA.AperFunction,SMDPad,CuDef*%
%ADD23RoundRect,0.050000X-0.375000X-0.050000X0.375000X-0.050000X0.375000X0.050000X-0.375000X0.050000X0*%
%TD*%
%TA.AperFunction,SMDPad,CuDef*%
%ADD24RoundRect,0.050000X-0.050000X-0.375000X0.050000X-0.375000X0.050000X0.375000X-0.050000X0.375000X0*%
%TD*%
%TA.AperFunction,SMDPad,CuDef*%
%ADD25R,1.650000X1.650000*%
%TD*%
%TA.AperFunction,SMDPad,CuDef*%
%ADD26RoundRect,0.200000X-0.200000X-0.275000X0.200000X-0.275000X0.200000X0.275000X-0.200000X0.275000X0*%
%TD*%
%TA.AperFunction,SMDPad,CuDef*%
%ADD27RoundRect,0.218750X0.218750X0.256250X-0.218750X0.256250X-0.218750X-0.256250X0.218750X-0.256250X0*%
%TD*%
%TA.AperFunction,SMDPad,CuDef*%
%ADD28RoundRect,0.150000X-0.825000X-0.150000X0.825000X-0.150000X0.825000X0.150000X-0.825000X0.150000X0*%
%TD*%
%TA.AperFunction,ComponentPad*%
%ADD29R,1.700000X1.700000*%
%TD*%
%TA.AperFunction,SMDPad,CuDef*%
%ADD30RoundRect,0.250000X0.475000X-0.250000X0.475000X0.250000X-0.475000X0.250000X-0.475000X-0.250000X0*%
%TD*%
%TA.AperFunction,SMDPad,CuDef*%
%ADD31RoundRect,0.225000X-0.250000X0.225000X-0.250000X-0.225000X0.250000X-0.225000X0.250000X0.225000X0*%
%TD*%
%TA.AperFunction,SMDPad,CuDef*%
%ADD32RoundRect,0.150000X0.150000X-0.587500X0.150000X0.587500X-0.150000X0.587500X-0.150000X-0.587500X0*%
%TD*%
%TA.AperFunction,SMDPad,CuDef*%
%ADD33RoundRect,0.225000X0.250000X-0.225000X0.250000X0.225000X-0.250000X0.225000X-0.250000X-0.225000X0*%
%TD*%
%TA.AperFunction,SMDPad,CuDef*%
%ADD34RoundRect,0.250000X0.325000X1.100000X-0.325000X1.100000X-0.325000X-1.100000X0.325000X-1.100000X0*%
%TD*%
%TA.AperFunction,ComponentPad*%
%ADD35R,1.600000X1.600000*%
%TD*%
%TA.AperFunction,ComponentPad*%
%ADD36R,2.200000X2.200000*%
%TD*%
%TA.AperFunction,ComponentPad*%
%ADD37O,2.200000X2.200000*%
%TD*%
%TA.AperFunction,ComponentPad*%
%ADD38R,1.800000X1.800000*%
%TD*%
%TA.AperFunction,ComponentPad*%
%ADD39C,1.800000*%
%TD*%
%TA.AperFunction,ComponentPad*%
%ADD40O,4.000000X2.800000*%
%TD*%
%TA.AperFunction,ViaPad*%
%ADD41C,0.800000*%
%TD*%
%TA.AperFunction,Conductor*%
%ADD42C,0.500000*%
%TD*%
%TA.AperFunction,Conductor*%
%ADD43C,0.250000*%
%TD*%
%TA.AperFunction,Conductor*%
%ADD44C,0.200000*%
%TD*%
G04 APERTURE END LIST*
D10*
%TO.P,L1,2,2*%
%TO.N,+5V*%
X23000000Y-5550000D03*
%TO.P,L1,1,1*%
%TO.N,Net-(D2-K)*%
X23000000Y-10050000D03*
%TD*%
D11*
%TO.P,C21,1*%
%TO.N,+1V8*%
X37275000Y-8600000D03*
%TO.P,C21,2*%
%TO.N,GND*%
X38825000Y-8600000D03*
%TD*%
D12*
%TO.P,R19,1*%
%TO.N,DAC_SCL*%
X44000000Y-19600000D03*
%TO.P,R19,2*%
%TO.N,+3.3V*%
X42350000Y-19600000D03*
%TD*%
D11*
%TO.P,C7,1*%
%TO.N,PREAMP_IN_L*%
X44350000Y-89200000D03*
%TO.P,C7,2*%
%TO.N,Net-(U3A-+)*%
X45900000Y-89200000D03*
%TD*%
D13*
%TO.P,R10,1*%
%TO.N,Net-(C9-Pad2)*%
X41900000Y-48275000D03*
%TO.P,R10,2*%
%TO.N,Net-(U3A--)*%
X41900000Y-49925000D03*
%TD*%
D14*
%TO.P,R23,1*%
%TO.N,LINE_OUT_R*%
X41700000Y-93700000D03*
%TO.P,R23,2*%
%TO.N,Net-(C25-Pad2)*%
X41700000Y-92050000D03*
%TD*%
D15*
%TO.P,J14,S*%
%TO.N,GND*%
X47700000Y-65770000D03*
%TO.P,J14,SN*%
X47700000Y-82000000D03*
%TO.P,J14,T*%
%TO.N,JACK_IN*%
X35000000Y-65770000D03*
%TO.P,J14,TN*%
%TO.N,GND*%
X35000000Y-82000000D03*
%TD*%
D16*
%TO.P,J4,1,Pin_1*%
%TO.N,unconnected-(J4-Pin_1-Pad1)*%
X12700000Y-17780000D03*
D17*
%TO.P,J4,2,Pin_2*%
%TO.N,unconnected-(J4-Pin_2-Pad2)*%
X12700000Y-20320000D03*
%TO.P,J4,3,Pin_3*%
%TO.N,unconnected-(J4-Pin_3-Pad3)*%
X12700000Y-22860000D03*
%TO.P,J4,4,Pin_4*%
%TO.N,unconnected-(J4-Pin_4-Pad4)*%
X12700000Y-25400000D03*
%TO.P,J4,5,Pin_5*%
%TO.N,unconnected-(J4-Pin_5-Pad5)*%
X12700000Y-27940000D03*
%TO.P,J4,6,Pin_6*%
%TO.N,unconnected-(J4-Pin_6-Pad6)*%
X12700000Y-30480000D03*
%TO.P,J4,7,Pin_7*%
%TO.N,unconnected-(J4-Pin_7-Pad7)*%
X12700000Y-33020000D03*
%TO.P,J4,8,Pin_8*%
%TO.N,unconnected-(J4-Pin_8-Pad8)*%
X12700000Y-35560000D03*
%TO.P,J4,9,Pin_9*%
%TO.N,unconnected-(J4-Pin_9-Pad9)*%
X12700000Y-38100000D03*
%TO.P,J4,10,Pin_10*%
%TO.N,unconnected-(J4-Pin_10-Pad10)*%
X12700000Y-40640000D03*
%TO.P,J4,11,Pin_11*%
%TO.N,unconnected-(J4-Pin_11-Pad11)*%
X12700000Y-43180000D03*
%TO.P,J4,12,Pin_12*%
%TO.N,unconnected-(J4-Pin_12-Pad12)*%
X12700000Y-45720000D03*
%TO.P,J4,13,Pin_13*%
%TO.N,unconnected-(J4-Pin_13-Pad13)*%
X12700000Y-48260000D03*
%TO.P,J4,14,Pin_14*%
%TO.N,unconnected-(J4-Pin_14-Pad14)*%
X12700000Y-50800000D03*
%TO.P,J4,15,Pin_15*%
%TO.N,unconnected-(J4-Pin_15-Pad15)*%
X12700000Y-53340000D03*
%TO.P,J4,16,Pin_16*%
%TO.N,unconnected-(J4-Pin_16-Pad16)*%
X12700000Y-55880000D03*
%TO.P,J4,17,Pin_17*%
%TO.N,unconnected-(J4-Pin_17-Pad17)*%
X12700000Y-58420000D03*
%TO.P,J4,18,Pin_18*%
%TO.N,unconnected-(J4-Pin_18-Pad18)*%
X12700000Y-60960000D03*
%TD*%
D18*
%TO.P,C22,1*%
%TO.N,Net-(U5-VAG)*%
X34750000Y-16100000D03*
%TO.P,C22,2*%
%TO.N,GND*%
X33200000Y-16100000D03*
%TD*%
D19*
%TO.P,D2,2,A*%
%TO.N,GND*%
X12000000Y-6000000D03*
%TO.P,D2,1,K*%
%TO.N,Net-(D2-K)*%
X16000000Y-6000000D03*
%TD*%
D14*
%TO.P,R17,1*%
%TO.N,Net-(JP2-B)*%
X35250000Y-31675000D03*
%TO.P,R17,2*%
%TO.N,Net-(C15-Pad1)*%
X35250000Y-30025000D03*
%TD*%
D20*
%TO.P,R25,1*%
%TO.N,Net-(D5-A)*%
X5000000Y-101600000D03*
D21*
%TO.P,R25,2*%
%TO.N,+3.3V*%
X5000000Y-93980000D03*
%TD*%
D22*
%TO.P,U3,1*%
%TO.N,Net-(JP1-B)*%
X36500000Y-45450000D03*
%TO.P,U3,2,-*%
%TO.N,Net-(U3A--)*%
X37770000Y-45450000D03*
%TO.P,U3,3,+*%
%TO.N,Net-(U3A-+)*%
X39040000Y-45450000D03*
%TO.P,U3,4,V-*%
%TO.N,GND*%
X40310000Y-45450000D03*
%TO.P,U3,5,+*%
%TO.N,Net-(U3B-+)*%
X40310000Y-40500000D03*
%TO.P,U3,6,-*%
%TO.N,Net-(U3B--)*%
X39040000Y-40500000D03*
%TO.P,U3,7*%
%TO.N,Net-(JP2-B)*%
X37770000Y-40500000D03*
%TO.P,U3,8,V+*%
%TO.N,+9V*%
X36500000Y-40500000D03*
%TD*%
D23*
%TO.P,U5,1,HP_R*%
%TO.N,Net-(J12-Pin_1)*%
X36850000Y-11850000D03*
%TO.P,U5,2,HP_VGND*%
%TO.N,Net-(J12-Pin_2)*%
X36850000Y-12250000D03*
%TO.P,U5,3,VDDA*%
%TO.N,Net-(U5-VDDA)*%
X36850000Y-12650000D03*
%TO.P,U5,4,HP_L*%
%TO.N,Net-(J12-Pin_3)*%
X36850000Y-13050000D03*
%TO.P,U5,5,VAG*%
%TO.N,Net-(U5-VAG)*%
X36850000Y-13450000D03*
D24*
%TO.P,U5,6,LINEOUT_R*%
%TO.N,Net-(U5-LINEOUT_R)*%
X37500000Y-14100000D03*
%TO.P,U5,7,LINEOUT_L*%
%TO.N,Net-(U5-LINEOUT_L)*%
X37900000Y-14100000D03*
%TO.P,U5,8,LINEIN_R*%
%TO.N,LINE_IN_R*%
X38300000Y-14100000D03*
%TO.P,U5,9,LINEIN_L*%
%TO.N,LINE_IN_L*%
X38700000Y-14100000D03*
%TO.P,U5,10,MIC*%
%TO.N,GND*%
X39100000Y-14100000D03*
D23*
%TO.P,U5,11,MIC_BIAS*%
X39750000Y-13450000D03*
%TO.P,U5,12,VDDIO*%
%TO.N,+3.3V*%
X39750000Y-13050000D03*
%TO.P,U5,13,SYS_MCLK*%
%TO.N,Net-(U5-SYS_MCLK)*%
X39750000Y-12650000D03*
%TO.P,U5,14,I2S_LRCLK*%
%TO.N,DAC_LRCLK*%
X39750000Y-12250000D03*
%TO.P,U5,15,I2S_SCLK*%
%TO.N,DAC_BCLK*%
X39750000Y-11850000D03*
D24*
%TO.P,U5,16,I2S_DOUT*%
%TO.N,DAC_DOUT*%
X39100000Y-11200000D03*
%TO.P,U5,17,I2S_DIN*%
%TO.N,DAC_DIN*%
X38700000Y-11200000D03*
%TO.P,U5,18,CTRL_DATA*%
%TO.N,DAC_SDA*%
X38300000Y-11200000D03*
%TO.P,U5,19,CTRL_CLK*%
%TO.N,DAC_SCL*%
X37900000Y-11200000D03*
%TO.P,U5,20,VDDD*%
%TO.N,+1V8*%
X37500000Y-11200000D03*
D25*
%TO.P,U5,21,GND*%
%TO.N,GND*%
X38300000Y-12650000D03*
%TD*%
D26*
%TO.P,R20,1*%
%TO.N,Net-(U5-SYS_MCLK)*%
X42000000Y-8200000D03*
%TO.P,R20,2*%
%TO.N,DAC_MCLK*%
X43650000Y-8200000D03*
%TD*%
D14*
%TO.P,R16,1*%
%TO.N,Net-(JP1-B)*%
X40750000Y-31675000D03*
%TO.P,R16,2*%
%TO.N,Net-(C14-Pad1)*%
X40750000Y-30025000D03*
%TD*%
D27*
%TO.P,FB1,1*%
%TO.N,+3.3V*%
X42775000Y-6100000D03*
%TO.P,FB1,2*%
%TO.N,Net-(U5-VDDA)*%
X41200000Y-6100000D03*
%TD*%
D18*
%TO.P,C4,2*%
%TO.N,GND*%
X18225000Y-15575000D03*
%TO.P,C4,1*%
%TO.N,Net-(C4-Pad1)*%
X19775000Y-15575000D03*
%TD*%
D16*
%TO.P,J5,1,Pin_1*%
%TO.N,unconnected-(J5-Pin_1-Pad1)*%
X15240000Y-17780000D03*
D17*
%TO.P,J5,2,Pin_2*%
%TO.N,unconnected-(J5-Pin_2-Pad2)*%
X15240000Y-20320000D03*
%TO.P,J5,3,Pin_3*%
%TO.N,unconnected-(J5-Pin_3-Pad3)*%
X15240000Y-22860000D03*
%TO.P,J5,4,Pin_4*%
%TO.N,unconnected-(J5-Pin_4-Pad4)*%
X15240000Y-25400000D03*
%TO.P,J5,5,Pin_5*%
%TO.N,unconnected-(J5-Pin_5-Pad5)*%
X15240000Y-27940000D03*
%TO.P,J5,6,Pin_6*%
%TO.N,unconnected-(J5-Pin_6-Pad6)*%
X15240000Y-30480000D03*
%TO.P,J5,7,Pin_7*%
%TO.N,unconnected-(J5-Pin_7-Pad7)*%
X15240000Y-33020000D03*
%TO.P,J5,8,Pin_8*%
%TO.N,unconnected-(J5-Pin_8-Pad8)*%
X15240000Y-35560000D03*
%TO.P,J5,9,Pin_9*%
%TO.N,unconnected-(J5-Pin_9-Pad9)*%
X15240000Y-38100000D03*
%TO.P,J5,10,Pin_10*%
%TO.N,unconnected-(J5-Pin_10-Pad10)*%
X15240000Y-40640000D03*
%TO.P,J5,11,Pin_11*%
%TO.N,unconnected-(J5-Pin_11-Pad11)*%
X15240000Y-43180000D03*
%TO.P,J5,12,Pin_12*%
%TO.N,unconnected-(J5-Pin_12-Pad12)*%
X15240000Y-45720000D03*
%TO.P,J5,13,Pin_13*%
%TO.N,unconnected-(J5-Pin_13-Pad13)*%
X15240000Y-48260000D03*
%TO.P,J5,14,Pin_14*%
%TO.N,unconnected-(J5-Pin_14-Pad14)*%
X15240000Y-50800000D03*
%TO.P,J5,15,Pin_15*%
%TO.N,unconnected-(J5-Pin_15-Pad15)*%
X15240000Y-53340000D03*
%TO.P,J5,16,Pin_16*%
%TO.N,unconnected-(J5-Pin_16-Pad16)*%
X15240000Y-55880000D03*
%TO.P,J5,17,Pin_17*%
%TO.N,unconnected-(J5-Pin_17-Pad17)*%
X15240000Y-58420000D03*
%TO.P,J5,18,Pin_18*%
%TO.N,unconnected-(J5-Pin_18-Pad18)*%
X15240000Y-60960000D03*
%TD*%
D28*
%TO.P,U2,1,BOOT*%
%TO.N,Net-(U2-BOOT)*%
X10525000Y-11095000D03*
%TO.P,U2,2,VIN*%
%TO.N,+9V*%
X10525000Y-12365000D03*
%TO.P,U2,3,EN*%
%TO.N,unconnected-(U2-EN-Pad3)*%
X10525000Y-13635000D03*
%TO.P,U2,4,SS*%
%TO.N,Net-(U2-SS)*%
X10525000Y-14905000D03*
%TO.P,U2,5,VSENSE*%
%TO.N,Net-(U2-VSENSE)*%
X15475000Y-14905000D03*
%TO.P,U2,6,COMP*%
%TO.N,Net-(U2-COMP)*%
X15475000Y-13635000D03*
%TO.P,U2,7,GND*%
%TO.N,GND*%
X15475000Y-12365000D03*
%TO.P,U2,8,PH*%
%TO.N,Net-(D2-K)*%
X15475000Y-11095000D03*
%TD*%
D11*
%TO.P,C8,1*%
%TO.N,PREAMP_IN_R*%
X47450000Y-89200000D03*
%TO.P,C8,2*%
%TO.N,Net-(U3B-+)*%
X49000000Y-89200000D03*
%TD*%
D12*
%TO.P,R15,1*%
%TO.N,Net-(U3B--)*%
X40400000Y-38400000D03*
%TO.P,R15,2*%
%TO.N,Net-(JP2-A)*%
X38750000Y-38400000D03*
%TD*%
%TO.P,R18,1*%
%TO.N,DAC_SDA*%
X44000000Y-22200000D03*
%TO.P,R18,2*%
%TO.N,+3.3V*%
X42350000Y-22200000D03*
%TD*%
D26*
%TO.P,R3,2*%
%TO.N,GND*%
X24300000Y-15575000D03*
%TO.P,R3,1*%
%TO.N,Net-(U2-VSENSE)*%
X22650000Y-15575000D03*
%TD*%
D29*
%TO.P,J12,1,Pin_1*%
%TO.N,Net-(J12-Pin_1)*%
X50800000Y-12700000D03*
D17*
%TO.P,J12,2,Pin_2*%
%TO.N,Net-(J12-Pin_2)*%
X50800000Y-10160000D03*
%TO.P,J12,3,Pin_3*%
%TO.N,Net-(J12-Pin_3)*%
X50800000Y-7620000D03*
%TD*%
D30*
%TO.P,C1,2*%
%TO.N,GND*%
X8775000Y-7050000D03*
%TO.P,C1,1*%
%TO.N,+9V*%
X8775000Y-8950000D03*
%TD*%
D16*
%TO.P,J9,1,Pin_1*%
%TO.N,unconnected-(J9-Pin_1-Pad1)*%
X25400000Y-17780000D03*
D17*
%TO.P,J9,2,Pin_2*%
%TO.N,unconnected-(J9-Pin_2-Pad2)*%
X25400000Y-20320000D03*
%TO.P,J9,3,Pin_3*%
%TO.N,unconnected-(J9-Pin_3-Pad3)*%
X25400000Y-22860000D03*
%TO.P,J9,4,Pin_4*%
%TO.N,unconnected-(J9-Pin_4-Pad4)*%
X25400000Y-25400000D03*
%TO.P,J9,5,Pin_5*%
%TO.N,unconnected-(J9-Pin_5-Pad5)*%
X25400000Y-27940000D03*
%TO.P,J9,6,Pin_6*%
%TO.N,unconnected-(J9-Pin_6-Pad6)*%
X25400000Y-30480000D03*
%TO.P,J9,7,Pin_7*%
%TO.N,unconnected-(J9-Pin_7-Pad7)*%
X25400000Y-33020000D03*
%TO.P,J9,8,Pin_8*%
%TO.N,unconnected-(J9-Pin_8-Pad8)*%
X25400000Y-35560000D03*
%TO.P,J9,9,Pin_9*%
%TO.N,unconnected-(J9-Pin_9-Pad9)*%
X25400000Y-38100000D03*
%TO.P,J9,10,Pin_10*%
%TO.N,unconnected-(J9-Pin_10-Pad10)*%
X25400000Y-40640000D03*
%TO.P,J9,11,Pin_11*%
%TO.N,unconnected-(J9-Pin_11-Pad11)*%
X25400000Y-43180000D03*
%TO.P,J9,12,Pin_12*%
%TO.N,unconnected-(J9-Pin_12-Pad12)*%
X25400000Y-45720000D03*
%TO.P,J9,13,Pin_13*%
%TO.N,unconnected-(J9-Pin_13-Pad13)*%
X25400000Y-48260000D03*
%TO.P,J9,14,Pin_14*%
%TO.N,unconnected-(J9-Pin_14-Pad14)*%
X25400000Y-50800000D03*
%TO.P,J9,15,Pin_15*%
%TO.N,unconnected-(J9-Pin_15-Pad15)*%
X25400000Y-53340000D03*
%TO.P,J9,16,Pin_16*%
%TO.N,unconnected-(J9-Pin_16-Pad16)*%
X25400000Y-55880000D03*
%TO.P,J9,17,Pin_17*%
%TO.N,unconnected-(J9-Pin_17-Pad17)*%
X25400000Y-58420000D03*
%TO.P,J9,18,Pin_18*%
%TO.N,unconnected-(J9-Pin_18-Pad18)*%
X25400000Y-60960000D03*
%TD*%
D16*
%TO.P,J8,1,Pin_1*%
%TO.N,unconnected-(J8-Pin_1-Pad1)*%
X22860000Y-17780000D03*
D17*
%TO.P,J8,2,Pin_2*%
%TO.N,unconnected-(J8-Pin_2-Pad2)*%
X22860000Y-20320000D03*
%TO.P,J8,3,Pin_3*%
%TO.N,unconnected-(J8-Pin_3-Pad3)*%
X22860000Y-22860000D03*
%TO.P,J8,4,Pin_4*%
%TO.N,unconnected-(J8-Pin_4-Pad4)*%
X22860000Y-25400000D03*
%TO.P,J8,5,Pin_5*%
%TO.N,unconnected-(J8-Pin_5-Pad5)*%
X22860000Y-27940000D03*
%TO.P,J8,6,Pin_6*%
%TO.N,unconnected-(J8-Pin_6-Pad6)*%
X22860000Y-30480000D03*
%TO.P,J8,7,Pin_7*%
%TO.N,unconnected-(J8-Pin_7-Pad7)*%
X22860000Y-33020000D03*
%TO.P,J8,8,Pin_8*%
%TO.N,unconnected-(J8-Pin_8-Pad8)*%
X22860000Y-35560000D03*
%TO.P,J8,9,Pin_9*%
%TO.N,unconnected-(J8-Pin_9-Pad9)*%
X22860000Y-38100000D03*
%TO.P,J8,10,Pin_10*%
%TO.N,unconnected-(J8-Pin_10-Pad10)*%
X22860000Y-40640000D03*
%TO.P,J8,11,Pin_11*%
%TO.N,unconnected-(J8-Pin_11-Pad11)*%
X22860000Y-43180000D03*
%TO.P,J8,12,Pin_12*%
%TO.N,unconnected-(J8-Pin_12-Pad12)*%
X22860000Y-45720000D03*
%TO.P,J8,13,Pin_13*%
%TO.N,unconnected-(J8-Pin_13-Pad13)*%
X22860000Y-48260000D03*
%TO.P,J8,14,Pin_14*%
%TO.N,unconnected-(J8-Pin_14-Pad14)*%
X22860000Y-50800000D03*
%TO.P,J8,15,Pin_15*%
%TO.N,unconnected-(J8-Pin_15-Pad15)*%
X22860000Y-53340000D03*
%TO.P,J8,16,Pin_16*%
%TO.N,unconnected-(J8-Pin_16-Pad16)*%
X22860000Y-55880000D03*
%TO.P,J8,17,Pin_17*%
%TO.N,unconnected-(J8-Pin_17-Pad17)*%
X22860000Y-58420000D03*
%TO.P,J8,18,Pin_18*%
%TO.N,unconnected-(J8-Pin_18-Pad18)*%
X22860000Y-60960000D03*
%TD*%
D16*
%TO.P,J3,1,Pin_1*%
%TO.N,unconnected-(J3-Pin_1-Pad1)*%
X10160000Y-17780000D03*
D17*
%TO.P,J3,2,Pin_2*%
%TO.N,unconnected-(J3-Pin_2-Pad2)*%
X10160000Y-20320000D03*
%TO.P,J3,3,Pin_3*%
%TO.N,unconnected-(J3-Pin_3-Pad3)*%
X10160000Y-22860000D03*
%TO.P,J3,4,Pin_4*%
%TO.N,unconnected-(J3-Pin_4-Pad4)*%
X10160000Y-25400000D03*
%TO.P,J3,5,Pin_5*%
%TO.N,unconnected-(J3-Pin_5-Pad5)*%
X10160000Y-27940000D03*
%TO.P,J3,6,Pin_6*%
%TO.N,unconnected-(J3-Pin_6-Pad6)*%
X10160000Y-30480000D03*
%TO.P,J3,7,Pin_7*%
%TO.N,unconnected-(J3-Pin_7-Pad7)*%
X10160000Y-33020000D03*
%TO.P,J3,8,Pin_8*%
%TO.N,unconnected-(J3-Pin_8-Pad8)*%
X10160000Y-35560000D03*
%TO.P,J3,9,Pin_9*%
%TO.N,unconnected-(J3-Pin_9-Pad9)*%
X10160000Y-38100000D03*
%TO.P,J3,10,Pin_10*%
%TO.N,unconnected-(J3-Pin_10-Pad10)*%
X10160000Y-40640000D03*
%TO.P,J3,11,Pin_11*%
%TO.N,unconnected-(J3-Pin_11-Pad11)*%
X10160000Y-43180000D03*
%TO.P,J3,12,Pin_12*%
%TO.N,unconnected-(J3-Pin_12-Pad12)*%
X10160000Y-45720000D03*
%TO.P,J3,13,Pin_13*%
%TO.N,unconnected-(J3-Pin_13-Pad13)*%
X10160000Y-48260000D03*
%TO.P,J3,14,Pin_14*%
%TO.N,unconnected-(J3-Pin_14-Pad14)*%
X10160000Y-50800000D03*
%TO.P,J3,15,Pin_15*%
%TO.N,unconnected-(J3-Pin_15-Pad15)*%
X10160000Y-53340000D03*
%TO.P,J3,16,Pin_16*%
%TO.N,unconnected-(J3-Pin_16-Pad16)*%
X10160000Y-55880000D03*
%TO.P,J3,17,Pin_17*%
%TO.N,unconnected-(J3-Pin_17-Pad17)*%
X10160000Y-58420000D03*
%TO.P,J3,18,Pin_18*%
%TO.N,unconnected-(J3-Pin_18-Pad18)*%
X10160000Y-60960000D03*
%TD*%
D16*
%TO.P,J2,1,Pin_1*%
%TO.N,unconnected-(J2-Pin_1-Pad1)*%
X7620000Y-17780000D03*
D17*
%TO.P,J2,2,Pin_2*%
%TO.N,unconnected-(J2-Pin_2-Pad2)*%
X7620000Y-20320000D03*
%TO.P,J2,3,Pin_3*%
%TO.N,unconnected-(J2-Pin_3-Pad3)*%
X7620000Y-22860000D03*
%TO.P,J2,4,Pin_4*%
%TO.N,unconnected-(J2-Pin_4-Pad4)*%
X7620000Y-25400000D03*
%TO.P,J2,5,Pin_5*%
%TO.N,unconnected-(J2-Pin_5-Pad5)*%
X7620000Y-27940000D03*
%TO.P,J2,6,Pin_6*%
%TO.N,unconnected-(J2-Pin_6-Pad6)*%
X7620000Y-30480000D03*
%TO.P,J2,7,Pin_7*%
%TO.N,unconnected-(J2-Pin_7-Pad7)*%
X7620000Y-33020000D03*
%TO.P,J2,8,Pin_8*%
%TO.N,unconnected-(J2-Pin_8-Pad8)*%
X7620000Y-35560000D03*
%TO.P,J2,9,Pin_9*%
%TO.N,unconnected-(J2-Pin_9-Pad9)*%
X7620000Y-38100000D03*
%TO.P,J2,10,Pin_10*%
%TO.N,unconnected-(J2-Pin_10-Pad10)*%
X7620000Y-40640000D03*
%TO.P,J2,11,Pin_11*%
%TO.N,unconnected-(J2-Pin_11-Pad11)*%
X7620000Y-43180000D03*
%TO.P,J2,12,Pin_12*%
%TO.N,unconnected-(J2-Pin_12-Pad12)*%
X7620000Y-45720000D03*
%TO.P,J2,13,Pin_13*%
%TO.N,unconnected-(J2-Pin_13-Pad13)*%
X7620000Y-48260000D03*
%TO.P,J2,14,Pin_14*%
%TO.N,unconnected-(J2-Pin_14-Pad14)*%
X7620000Y-50800000D03*
%TO.P,J2,15,Pin_15*%
%TO.N,unconnected-(J2-Pin_15-Pad15)*%
X7620000Y-53340000D03*
%TO.P,J2,16,Pin_16*%
%TO.N,unconnected-(J2-Pin_16-Pad16)*%
X7620000Y-55880000D03*
%TO.P,J2,17,Pin_17*%
%TO.N,unconnected-(J2-Pin_17-Pad17)*%
X7620000Y-58420000D03*
%TO.P,J2,18,Pin_18*%
%TO.N,unconnected-(J2-Pin_18-Pad18)*%
X7620000Y-60960000D03*
%TD*%
D29*
%TO.P,J11,1*%
%TO.N,GND*%
X5080000Y-13970000D03*
D17*
%TO.P,J11,2*%
%TO.N,Net-(D1-A)*%
X2540000Y-13970000D03*
%TD*%
D31*
%TO.P,C16,1*%
%TO.N,LINE_IN_L*%
X39150000Y-27000000D03*
%TO.P,C16,2*%
%TO.N,Net-(C14-Pad1)*%
X39150000Y-28550000D03*
%TD*%
D32*
%TO.P,U4,1,VI*%
%TO.N,+3.3V*%
X37075000Y-6600000D03*
%TO.P,U4,2,VO*%
%TO.N,+1V8*%
X38975000Y-6600000D03*
%TO.P,U4,3,GND*%
%TO.N,GND*%
X38025000Y-4725000D03*
%TD*%
D14*
%TO.P,R11,1*%
%TO.N,Net-(C10-Pad2)*%
X42000000Y-40000000D03*
%TO.P,R11,2*%
%TO.N,Net-(U3B--)*%
X42000000Y-38350000D03*
%TD*%
D12*
%TO.P,R13,1*%
%TO.N,Net-(U3A--)*%
X39825000Y-48200000D03*
%TO.P,R13,2*%
%TO.N,Net-(JP1-A)*%
X38175000Y-48200000D03*
%TD*%
D32*
%TO.P,D4,1,A*%
%TO.N,GND*%
X35250000Y-25175000D03*
%TO.P,D4,2,K*%
%TO.N,+3.3V*%
X37150000Y-25175000D03*
%TO.P,D4,3,COM*%
%TO.N,LINE_IN_R*%
X36200000Y-23300000D03*
%TD*%
D16*
%TO.P,J10,1,Pin_1*%
%TO.N,unconnected-(J10-Pin_1-Pad1)*%
X50800000Y-17780000D03*
D17*
%TO.P,J10,2,Pin_2*%
%TO.N,unconnected-(J10-Pin_2-Pad2)*%
X50800000Y-20320000D03*
%TO.P,J10,3,Pin_3*%
%TO.N,unconnected-(J10-Pin_3-Pad3)*%
X50800000Y-22860000D03*
%TO.P,J10,4,Pin_4*%
%TO.N,unconnected-(J10-Pin_4-Pad4)*%
X50800000Y-25400000D03*
%TO.P,J10,5,Pin_5*%
%TO.N,unconnected-(J10-Pin_5-Pad5)*%
X50800000Y-27940000D03*
%TO.P,J10,6,Pin_6*%
%TO.N,unconnected-(J10-Pin_6-Pad6)*%
X50800000Y-30480000D03*
%TO.P,J10,7,Pin_7*%
%TO.N,unconnected-(J10-Pin_7-Pad7)*%
X50800000Y-33020000D03*
%TO.P,J10,8,Pin_8*%
%TO.N,unconnected-(J10-Pin_8-Pad8)*%
X50800000Y-35560000D03*
%TO.P,J10,9,Pin_9*%
%TO.N,unconnected-(J10-Pin_9-Pad9)*%
X50800000Y-38100000D03*
%TO.P,J10,10,Pin_10*%
%TO.N,unconnected-(J10-Pin_10-Pad10)*%
X50800000Y-40640000D03*
%TO.P,J10,11,Pin_11*%
%TO.N,unconnected-(J10-Pin_11-Pad11)*%
X50800000Y-43180000D03*
%TO.P,J10,12,Pin_12*%
%TO.N,unconnected-(J10-Pin_12-Pad12)*%
X50800000Y-45720000D03*
%TO.P,J10,13,Pin_13*%
%TO.N,unconnected-(J10-Pin_13-Pad13)*%
X50800000Y-48260000D03*
%TO.P,J10,14,Pin_14*%
%TO.N,unconnected-(J10-Pin_14-Pad14)*%
X50800000Y-50800000D03*
%TO.P,J10,15,Pin_15*%
%TO.N,unconnected-(J10-Pin_15-Pad15)*%
X50800000Y-53340000D03*
%TO.P,J10,16,Pin_16*%
%TO.N,unconnected-(J10-Pin_16-Pad16)*%
X50800000Y-55880000D03*
%TO.P,J10,17,Pin_17*%
%TO.N,unconnected-(J10-Pin_17-Pad17)*%
X50800000Y-58420000D03*
%TO.P,J10,18,Pin_18*%
%TO.N,unconnected-(J10-Pin_18-Pad18)*%
X50800000Y-60960000D03*
%TD*%
D14*
%TO.P,R22,1*%
%TO.N,GND*%
X41700000Y-90600000D03*
%TO.P,R22,2*%
%TO.N,Net-(C25-Pad2)*%
X41700000Y-88950000D03*
%TD*%
D31*
%TO.P,C26,1*%
%TO.N,Net-(U5-LINEOUT_L)*%
X40100000Y-85950000D03*
%TO.P,C26,2*%
%TO.N,Net-(C26-Pad2)*%
X40100000Y-87500000D03*
%TD*%
D26*
%TO.P,R7,1*%
%TO.N,Net-(U3A-+)*%
X47400000Y-86000000D03*
%TO.P,R7,2*%
%TO.N,GND*%
X49050000Y-86000000D03*
%TD*%
D31*
%TO.P,C3,2*%
%TO.N,GND*%
X8000000Y-14775000D03*
%TO.P,C3,1*%
%TO.N,Net-(U2-SS)*%
X8000000Y-13225000D03*
%TD*%
D29*
%TO.P,J13,1,Pin_1*%
%TO.N,FOOTSWITCH_1*%
X10160000Y-91440000D03*
D17*
%TO.P,J13,2,Pin_2*%
%TO.N,FOOTSWITCH_2*%
X10160000Y-88900000D03*
%TO.P,J13,3,Pin_3*%
%TO.N,FOOTSWITCH_3*%
X10160000Y-86360000D03*
%TO.P,J13,4,Pin_4*%
%TO.N,FOOTSWITCH_4*%
X12700000Y-91440000D03*
%TO.P,J13,5,Pin_5*%
%TO.N,FOOTSWITCH_5*%
X12700000Y-88900000D03*
%TO.P,J13,6,Pin_6*%
%TO.N,FOOTSWITCH_6*%
X12700000Y-86360000D03*
%TO.P,J13,7,Pin_7*%
%TO.N,FOOTSWITCH_7*%
X15240000Y-91440000D03*
%TO.P,J13,8,Pin_8*%
%TO.N,FOOTSWITCH_8*%
X15240000Y-88900000D03*
%TO.P,J13,9,Pin_9*%
%TO.N,FOOTSWITCH_9*%
X15240000Y-86360000D03*
%TD*%
D32*
%TO.P,D3,1,A*%
%TO.N,GND*%
X38850000Y-25175000D03*
%TO.P,D3,2,K*%
%TO.N,+3.3V*%
X40750000Y-25175000D03*
%TO.P,D3,3,COM*%
%TO.N,LINE_IN_L*%
X39800000Y-23300000D03*
%TD*%
D33*
%TO.P,C23,1*%
%TO.N,Net-(U5-VDDA)*%
X32800000Y-13375000D03*
%TO.P,C23,2*%
%TO.N,GND*%
X32800000Y-11825000D03*
%TD*%
%TO.P,C24,1*%
%TO.N,Net-(U5-VDDA)*%
X34500000Y-13775000D03*
%TO.P,C24,2*%
%TO.N,GND*%
X34500000Y-12225000D03*
%TD*%
D26*
%TO.P,R8,1*%
%TO.N,+9V*%
X44300000Y-87600000D03*
%TO.P,R8,2*%
%TO.N,Net-(U3B-+)*%
X45950000Y-87600000D03*
%TD*%
D31*
%TO.P,C19,1*%
%TO.N,+3.3V*%
X43300000Y-13725000D03*
%TO.P,C19,2*%
%TO.N,GND*%
X43300000Y-15275000D03*
%TD*%
D26*
%TO.P,R6,1*%
%TO.N,+9V*%
X44300000Y-86000000D03*
%TO.P,R6,2*%
%TO.N,Net-(U3A-+)*%
X45950000Y-86000000D03*
%TD*%
D33*
%TO.P,C13,1*%
%TO.N,GND*%
X34800000Y-43350000D03*
%TO.P,C13,2*%
%TO.N,+9V*%
X34800000Y-41800000D03*
%TD*%
D14*
%TO.P,R21,1*%
%TO.N,GND*%
X40100000Y-90600000D03*
%TO.P,R21,2*%
%TO.N,Net-(C26-Pad2)*%
X40100000Y-88950000D03*
%TD*%
D15*
%TO.P,J15,S*%
%TO.N,GND*%
X6300000Y-82000000D03*
%TO.P,J15,SN*%
X6300000Y-65770000D03*
%TO.P,J15,T*%
%TO.N,JACK_OUT*%
X19000000Y-82000000D03*
%TO.P,J15,TN*%
%TO.N,GND*%
X19000000Y-65770000D03*
%TD*%
D31*
%TO.P,C17,1*%
%TO.N,LINE_IN_R*%
X36850000Y-27025000D03*
%TO.P,C17,2*%
%TO.N,Net-(C15-Pad1)*%
X36850000Y-28575000D03*
%TD*%
D16*
%TO.P,J7,1,Pin_1*%
%TO.N,unconnected-(J7-Pin_1-Pad1)*%
X20320000Y-17780000D03*
D17*
%TO.P,J7,2,Pin_2*%
%TO.N,unconnected-(J7-Pin_2-Pad2)*%
X20320000Y-20320000D03*
%TO.P,J7,3,Pin_3*%
%TO.N,unconnected-(J7-Pin_3-Pad3)*%
X20320000Y-22860000D03*
%TO.P,J7,4,Pin_4*%
%TO.N,unconnected-(J7-Pin_4-Pad4)*%
X20320000Y-25400000D03*
%TO.P,J7,5,Pin_5*%
%TO.N,unconnected-(J7-Pin_5-Pad5)*%
X20320000Y-27940000D03*
%TO.P,J7,6,Pin_6*%
%TO.N,unconnected-(J7-Pin_6-Pad6)*%
X20320000Y-30480000D03*
%TO.P,J7,7,Pin_7*%
%TO.N,unconnected-(J7-Pin_7-Pad7)*%
X20320000Y-33020000D03*
%TO.P,J7,8,Pin_8*%
%TO.N,unconnected-(J7-Pin_8-Pad8)*%
X20320000Y-35560000D03*
%TO.P,J7,9,Pin_9*%
%TO.N,unconnected-(J7-Pin_9-Pad9)*%
X20320000Y-38100000D03*
%TO.P,J7,10,Pin_10*%
%TO.N,unconnected-(J7-Pin_10-Pad10)*%
X20320000Y-40640000D03*
%TO.P,J7,11,Pin_11*%
%TO.N,unconnected-(J7-Pin_11-Pad11)*%
X20320000Y-43180000D03*
%TO.P,J7,12,Pin_12*%
%TO.N,unconnected-(J7-Pin_12-Pad12)*%
X20320000Y-45720000D03*
%TO.P,J7,13,Pin_13*%
%TO.N,unconnected-(J7-Pin_13-Pad13)*%
X20320000Y-48260000D03*
%TO.P,J7,14,Pin_14*%
%TO.N,unconnected-(J7-Pin_14-Pad14)*%
X20320000Y-50800000D03*
%TO.P,J7,15,Pin_15*%
%TO.N,unconnected-(J7-Pin_15-Pad15)*%
X20320000Y-53340000D03*
%TO.P,J7,16,Pin_16*%
%TO.N,unconnected-(J7-Pin_16-Pad16)*%
X20320000Y-55880000D03*
%TO.P,J7,17,Pin_17*%
%TO.N,unconnected-(J7-Pin_17-Pad17)*%
X20320000Y-58420000D03*
%TO.P,J7,18,Pin_18*%
%TO.N,unconnected-(J7-Pin_18-Pad18)*%
X20320000Y-60960000D03*
%TD*%
D31*
%TO.P,C14,1*%
%TO.N,Net-(C14-Pad1)*%
X39150000Y-30075000D03*
%TO.P,C14,2*%
%TO.N,GND*%
X39150000Y-31625000D03*
%TD*%
D13*
%TO.P,R1,2*%
%TO.N,Net-(C4-Pad1)*%
X20225000Y-13825000D03*
%TO.P,R1,1*%
%TO.N,Net-(U2-COMP)*%
X20225000Y-12175000D03*
%TD*%
D26*
%TO.P,R9,1*%
%TO.N,Net-(U3B-+)*%
X47400000Y-87600000D03*
%TO.P,R9,2*%
%TO.N,GND*%
X49050000Y-87600000D03*
%TD*%
D16*
%TO.P,J6,1,Pin_1*%
%TO.N,unconnected-(J6-Pin_1-Pad1)*%
X17780000Y-17780000D03*
D17*
%TO.P,J6,2,Pin_2*%
%TO.N,unconnected-(J6-Pin_2-Pad2)*%
X17780000Y-20320000D03*
%TO.P,J6,3,Pin_3*%
%TO.N,unconnected-(J6-Pin_3-Pad3)*%
X17780000Y-22860000D03*
%TO.P,J6,4,Pin_4*%
%TO.N,unconnected-(J6-Pin_4-Pad4)*%
X17780000Y-25400000D03*
%TO.P,J6,5,Pin_5*%
%TO.N,unconnected-(J6-Pin_5-Pad5)*%
X17780000Y-27940000D03*
%TO.P,J6,6,Pin_6*%
%TO.N,unconnected-(J6-Pin_6-Pad6)*%
X17780000Y-30480000D03*
%TO.P,J6,7,Pin_7*%
%TO.N,unconnected-(J6-Pin_7-Pad7)*%
X17780000Y-33020000D03*
%TO.P,J6,8,Pin_8*%
%TO.N,unconnected-(J6-Pin_8-Pad8)*%
X17780000Y-35560000D03*
%TO.P,J6,9,Pin_9*%
%TO.N,unconnected-(J6-Pin_9-Pad9)*%
X17780000Y-38100000D03*
%TO.P,J6,10,Pin_10*%
%TO.N,unconnected-(J6-Pin_10-Pad10)*%
X17780000Y-40640000D03*
%TO.P,J6,11,Pin_11*%
%TO.N,unconnected-(J6-Pin_11-Pad11)*%
X17780000Y-43180000D03*
%TO.P,J6,12,Pin_12*%
%TO.N,unconnected-(J6-Pin_12-Pad12)*%
X17780000Y-45720000D03*
%TO.P,J6,13,Pin_13*%
%TO.N,unconnected-(J6-Pin_13-Pad13)*%
X17780000Y-48260000D03*
%TO.P,J6,14,Pin_14*%
%TO.N,unconnected-(J6-Pin_14-Pad14)*%
X17780000Y-50800000D03*
%TO.P,J6,15,Pin_15*%
%TO.N,unconnected-(J6-Pin_15-Pad15)*%
X17780000Y-53340000D03*
%TO.P,J6,16,Pin_16*%
%TO.N,unconnected-(J6-Pin_16-Pad16)*%
X17780000Y-55880000D03*
%TO.P,J6,17,Pin_17*%
%TO.N,unconnected-(J6-Pin_17-Pad17)*%
X17780000Y-58420000D03*
%TO.P,J6,18,Pin_18*%
%TO.N,unconnected-(J6-Pin_18-Pad18)*%
X17780000Y-60960000D03*
%TD*%
D18*
%TO.P,C11,1*%
%TO.N,Net-(U3A--)*%
X39775000Y-50000000D03*
%TO.P,C11,2*%
%TO.N,Net-(JP1-B)*%
X38225000Y-50000000D03*
%TD*%
D31*
%TO.P,C25,1*%
%TO.N,Net-(U5-LINEOUT_R)*%
X41700000Y-85950000D03*
%TO.P,C25,2*%
%TO.N,Net-(C25-Pad2)*%
X41700000Y-87500000D03*
%TD*%
D34*
%TO.P,C6,2*%
%TO.N,GND*%
X20625000Y-2500000D03*
%TO.P,C6,1*%
%TO.N,+5V*%
X23575000Y-2500000D03*
%TD*%
D33*
%TO.P,C18,1*%
%TO.N,+3.3V*%
X35575000Y-6800000D03*
%TO.P,C18,2*%
%TO.N,GND*%
X35575000Y-5250000D03*
%TD*%
D31*
%TO.P,C9,1*%
%TO.N,GND*%
X42000000Y-44600000D03*
%TO.P,C9,2*%
%TO.N,Net-(C9-Pad2)*%
X42000000Y-46150000D03*
%TD*%
D35*
%TO.P,U1,1,GND*%
%TO.N,GND*%
X30480000Y-2540000D03*
X27940000Y-2540000D03*
D20*
%TO.P,U1,2,0_RX1_CRX2_CS1*%
%TO.N,unconnected-(U1-0_RX1_CRX2_CS1-Pad2)*%
X30480000Y-5080000D03*
X27940000Y-5080000D03*
%TO.P,U1,3,1_TX1_CTX2_MISO1*%
%TO.N,unconnected-(U1-1_TX1_CTX2_MISO1-Pad3)*%
X30480000Y-7620000D03*
X27940000Y-7620000D03*
%TO.P,U1,4,2_OUT2*%
%TO.N,unconnected-(U1-2_OUT2-Pad4)*%
X30480000Y-10160000D03*
X27940000Y-10160000D03*
%TO.P,U1,5,3_LRCLK2*%
%TO.N,unconnected-(U1-3_LRCLK2-Pad5)*%
X30480000Y-12700000D03*
X27940000Y-12700000D03*
%TO.P,U1,6,4_BCLK2*%
%TO.N,unconnected-(U1-4_BCLK2-Pad6)*%
X30480000Y-15240000D03*
X27940000Y-15240000D03*
%TO.P,U1,7,5_IN2*%
%TO.N,unconnected-(U1-5_IN2-Pad7)*%
X30480000Y-17780000D03*
X27940000Y-17780000D03*
%TO.P,U1,8,6_OUT1D*%
%TO.N,unconnected-(U1-6_OUT1D-Pad8)*%
X30480000Y-20320000D03*
X27940000Y-20320000D03*
%TO.P,U1,9,7_RX2_OUT1A*%
%TO.N,DAC_DIN*%
X30480000Y-22860000D03*
X27940000Y-22860000D03*
%TO.P,U1,10,8_TX2_IN1*%
%TO.N,DAC_DOUT*%
X30480000Y-25400000D03*
X27940000Y-25400000D03*
%TO.P,U1,11,9_OUT1C*%
%TO.N,unconnected-(U1-9_OUT1C-Pad11)*%
X30480000Y-27940000D03*
X27940000Y-27940000D03*
%TO.P,U1,12,10_CS_MQSR*%
%TO.N,unconnected-(U1-10_CS_MQSR-Pad12)*%
X30480000Y-30480000D03*
X27940000Y-30480000D03*
%TO.P,U1,13,11_MOSI_CTX1*%
%TO.N,unconnected-(U1-11_MOSI_CTX1-Pad13)*%
X30480000Y-33020000D03*
X27940000Y-33020000D03*
%TO.P,U1,14,12_MISO_MQSL*%
%TO.N,unconnected-(U1-12_MISO_MQSL-Pad14)*%
X30480000Y-35560000D03*
X27940000Y-35560000D03*
%TO.P,U1,15,3V3*%
%TO.N,+3.3V*%
X30480000Y-38100000D03*
X27940000Y-38100000D03*
%TO.P,U1,16,24_A10_TX6_SCL2*%
%TO.N,unconnected-(U1-24_A10_TX6_SCL2-Pad16)*%
X30480000Y-40640000D03*
X27940000Y-40640000D03*
%TO.P,U1,17,25_A11_RX6_SDA2*%
%TO.N,unconnected-(U1-25_A11_RX6_SDA2-Pad17)*%
X30480000Y-43180000D03*
X27940000Y-43180000D03*
%TO.P,U1,18,26_A12_MOSI1*%
%TO.N,unconnected-(U1-26_A12_MOSI1-Pad18)*%
X30480000Y-45720000D03*
X27940000Y-45720000D03*
%TO.P,U1,19,27_A13_SCK1*%
%TO.N,unconnected-(U1-27_A13_SCK1-Pad19)*%
X30480000Y-48260000D03*
X27940000Y-48260000D03*
%TO.P,U1,20,28_RX7*%
%TO.N,unconnected-(U1-28_RX7-Pad20)*%
X30480000Y-50800000D03*
X27940000Y-50800000D03*
%TO.P,U1,21,29_TX7*%
%TO.N,unconnected-(U1-29_TX7-Pad21)*%
X30480000Y-53340000D03*
X27940000Y-53340000D03*
%TO.P,U1,22,30_CRX3*%
%TO.N,unconnected-(U1-30_CRX3-Pad22)*%
X30480000Y-55880000D03*
X27940000Y-55880000D03*
%TO.P,U1,23,31_CTX3*%
%TO.N,unconnected-(U1-31_CTX3-Pad23)*%
X30480000Y-58420000D03*
X27940000Y-58420000D03*
%TO.P,U1,24,32_OUT1B*%
%TO.N,unconnected-(U1-32_OUT1B-Pad24)*%
X30480000Y-60960000D03*
X27940000Y-60960000D03*
%TO.P,U1,25,33_MCLK2*%
%TO.N,unconnected-(U1-33_MCLK2-Pad25)*%
X48260000Y-60960000D03*
X45720000Y-60960000D03*
%TO.P,U1,26,34_RX8*%
%TO.N,unconnected-(U1-34_RX8-Pad26)*%
X48260000Y-58420000D03*
X45720000Y-58420000D03*
%TO.P,U1,27,35_TX8*%
%TO.N,unconnected-(U1-35_TX8-Pad27)*%
X48260000Y-55880000D03*
X45720000Y-55880000D03*
%TO.P,U1,28,36_CS*%
%TO.N,unconnected-(U1-36_CS-Pad28)*%
X48260000Y-53340000D03*
X45720000Y-53340000D03*
%TO.P,U1,29,37_CS*%
%TO.N,unconnected-(U1-37_CS-Pad29)*%
X48260000Y-50800000D03*
X45720000Y-50800000D03*
%TO.P,U1,30,38_CS1_IN1*%
%TO.N,unconnected-(U1-38_CS1_IN1-Pad30)*%
X48260000Y-48260000D03*
X45720000Y-48260000D03*
%TO.P,U1,31,39_MISO1_OUT1A*%
%TO.N,unconnected-(U1-39_MISO1_OUT1A-Pad31)*%
X48260000Y-45720000D03*
X45720000Y-45720000D03*
%TO.P,U1,32,40_A16*%
%TO.N,unconnected-(U1-40_A16-Pad32)*%
X48260000Y-43180000D03*
X45720000Y-43180000D03*
%TO.P,U1,33,41_A17*%
%TO.N,unconnected-(U1-41_A17-Pad33)*%
X48260000Y-40640000D03*
X45720000Y-40640000D03*
%TO.P,U1,34,GND*%
%TO.N,unconnected-(U1-GND-Pad34)*%
X48260000Y-38100000D03*
X45720000Y-38100000D03*
%TO.P,U1,35,13_SCK_LED*%
%TO.N,unconnected-(U1-13_SCK_LED-Pad35)*%
X48260000Y-35560000D03*
X45720000Y-35560000D03*
%TO.P,U1,36,14_A0_TX3_SPDIF_OUT*%
%TO.N,unconnected-(U1-14_A0_TX3_SPDIF_OUT-Pad36)*%
X48260000Y-33020000D03*
X45720000Y-33020000D03*
%TO.P,U1,37,15_A1_RX3_SPDIF_IN*%
%TO.N,unconnected-(U1-15_A1_RX3_SPDIF_IN-Pad37)*%
X48260000Y-30480000D03*
X45720000Y-30480000D03*
%TO.P,U1,38,16_A2_RX4_SCL1*%
%TO.N,unconnected-(U1-16_A2_RX4_SCL1-Pad38)*%
X48260000Y-27940000D03*
X45720000Y-27940000D03*
%TO.P,U1,39,17_A3_TX4_SDA1*%
%TO.N,unconnected-(U1-17_A3_TX4_SDA1-Pad39)*%
X48260000Y-25400000D03*
X45720000Y-25400000D03*
%TO.P,U1,40,18_A4_SDA*%
%TO.N,DAC_SDA*%
X48260000Y-22860000D03*
X45720000Y-22860000D03*
%TO.P,U1,41,19_A5_SCL*%
%TO.N,DAC_SCL*%
X48260000Y-20320000D03*
X45720000Y-20320000D03*
%TO.P,U1,42,20_A6_TX5_LRCLK1*%
%TO.N,DAC_LRCLK*%
X48260000Y-17780000D03*
X45720000Y-17780000D03*
%TO.P,U1,43,21_A7_RX5_BCLK1*%
%TO.N,DAC_BCLK*%
X48260000Y-15240000D03*
X45720000Y-15240000D03*
%TO.P,U1,44,22_A8_CTX1*%
%TO.N,unconnected-(U1-22_A8_CTX1-Pad44)*%
X48260000Y-12700000D03*
X45720000Y-12700000D03*
%TO.P,U1,45,23_A9_CRX1_MCLK1*%
%TO.N,DAC_MCLK*%
X48260000Y-10160000D03*
X45720000Y-10160000D03*
%TO.P,U1,46,3V3*%
%TO.N,+3.3V*%
X48260000Y-7620000D03*
X45720000Y-7620000D03*
%TO.P,U1,47,GND*%
%TO.N,GND*%
X48260000Y-5080000D03*
X45720000Y-5080000D03*
%TO.P,U1,48,VIN*%
%TO.N,+5V*%
X48260000Y-2540000D03*
X45720000Y-2540000D03*
%TD*%
D36*
%TO.P,D1,1,K*%
%TO.N,+9V*%
X7500000Y-2250000D03*
D37*
%TO.P,D1,2,A*%
%TO.N,Net-(D1-A)*%
X17660000Y-2250000D03*
%TD*%
D13*
%TO.P,R2,2*%
%TO.N,Net-(U2-VSENSE)*%
X22725000Y-13900000D03*
%TO.P,R2,1*%
%TO.N,+5V*%
X22725000Y-12250000D03*
%TD*%
D38*
%TO.P,D5,1,K*%
%TO.N,LED_NEG*%
X9000000Y-96000000D03*
D39*
%TO.P,D5,2,A*%
%TO.N,Net-(D5-A)*%
X11540000Y-96000000D03*
%TD*%
D40*
%TO.P,SW1,1,A*%
%TO.N,FOOTSWITCH_1*%
X21700000Y-100800000D03*
%TO.P,SW1,2,B*%
%TO.N,FOOTSWITCH_2*%
X21700000Y-96000000D03*
%TO.P,SW1,3,C*%
%TO.N,FOOTSWITCH_3*%
X21700000Y-91200000D03*
%TO.P,SW1,4,A*%
%TO.N,FOOTSWITCH_4*%
X27000000Y-100800000D03*
%TO.P,SW1,5,B*%
%TO.N,FOOTSWITCH_5*%
X27000000Y-96000000D03*
%TO.P,SW1,6,C*%
%TO.N,FOOTSWITCH_6*%
X27000000Y-91200000D03*
%TO.P,SW1,7,A*%
%TO.N,FOOTSWITCH_7*%
X32300000Y-100800000D03*
%TO.P,SW1,8,B*%
%TO.N,FOOTSWITCH_8*%
X32300000Y-96000000D03*
%TO.P,SW1,9,C*%
%TO.N,FOOTSWITCH_9*%
X32300000Y-91200000D03*
%TD*%
D18*
%TO.P,C2,2*%
%TO.N,Net-(U2-BOOT)*%
X12225000Y-9000000D03*
%TO.P,C2,1*%
%TO.N,Net-(D2-K)*%
X13775000Y-9000000D03*
%TD*%
D26*
%TO.P,R5,1*%
%TO.N,PREAMP_IN_R*%
X47390000Y-90800000D03*
%TO.P,R5,2*%
%TO.N,GND*%
X49040000Y-90800000D03*
%TD*%
D16*
%TO.P,J1,1,Pin_1*%
%TO.N,+9V*%
X5080000Y-17780000D03*
D17*
%TO.P,J1,2,Pin_2*%
X5080000Y-20320000D03*
%TO.P,J1,3,Pin_3*%
%TO.N,+5V*%
X5080000Y-22860000D03*
%TO.P,J1,4,Pin_4*%
X5080000Y-25400000D03*
%TO.P,J1,5,Pin_5*%
%TO.N,+3.3V*%
X5080000Y-27940000D03*
%TO.P,J1,6,Pin_6*%
X5080000Y-30480000D03*
%TO.P,J1,7,Pin_7*%
%TO.N,JACK_IN*%
X5080000Y-33020000D03*
%TO.P,J1,8,Pin_8*%
%TO.N,JACK_OUT*%
X5080000Y-35560000D03*
%TO.P,J1,9,Pin_9*%
%TO.N,PREAMP_IN_L*%
X5080000Y-38100000D03*
%TO.P,J1,10,Pin_10*%
%TO.N,PREAMP_IN_R*%
X5080000Y-40640000D03*
%TO.P,J1,11,Pin_11*%
%TO.N,LINE_IN_L*%
X5080000Y-43180000D03*
%TO.P,J1,12,Pin_12*%
%TO.N,LINE_IN_R*%
X5080000Y-45720000D03*
%TO.P,J1,13,Pin_13*%
%TO.N,LINE_OUT_L*%
X5080000Y-48260000D03*
%TO.P,J1,14,Pin_14*%
%TO.N,LINE_OUT_R*%
X5080000Y-50800000D03*
%TO.P,J1,15,Pin_15*%
%TO.N,LED_NEG*%
X5080000Y-53340000D03*
%TO.P,J1,16,Pin_16*%
%TO.N,GND*%
X5080000Y-55880000D03*
%TO.P,J1,17,Pin_17*%
X5080000Y-58420000D03*
%TO.P,J1,18,Pin_18*%
X5080000Y-60960000D03*
%TD*%
D33*
%TO.P,C15,1*%
%TO.N,Net-(C15-Pad1)*%
X36850000Y-31625000D03*
%TO.P,C15,2*%
%TO.N,GND*%
X36850000Y-30075000D03*
%TD*%
D26*
%TO.P,R4,1*%
%TO.N,PREAMP_IN_L*%
X44300000Y-90800000D03*
%TO.P,R4,2*%
%TO.N,GND*%
X45950000Y-90800000D03*
%TD*%
D18*
%TO.P,C12,1*%
%TO.N,Net-(U3B--)*%
X40350000Y-36800000D03*
%TO.P,C12,2*%
%TO.N,Net-(JP2-B)*%
X38800000Y-36800000D03*
%TD*%
D31*
%TO.P,C20,1*%
%TO.N,+3.3V*%
X41500000Y-13725000D03*
%TO.P,C20,2*%
%TO.N,GND*%
X41500000Y-15275000D03*
%TD*%
D14*
%TO.P,R24,1*%
%TO.N,LINE_OUT_L*%
X40100000Y-93700000D03*
%TO.P,R24,2*%
%TO.N,Net-(C26-Pad2)*%
X40100000Y-92050000D03*
%TD*%
D33*
%TO.P,C10,1*%
%TO.N,GND*%
X42000000Y-43100000D03*
%TO.P,C10,2*%
%TO.N,Net-(C10-Pad2)*%
X42000000Y-41550000D03*
%TD*%
%TO.P,C5,2*%
%TO.N,GND*%
X17975000Y-12325000D03*
%TO.P,C5,1*%
%TO.N,Net-(U2-COMP)*%
X17975000Y-13875000D03*
%TD*%
D20*
%TO.P,R14,1*%
%TO.N,Net-(U3B--)*%
X42300000Y-34200000D03*
D21*
%TO.P,R14,2*%
%TO.N,Net-(JP2-B)*%
X34680000Y-34200000D03*
%TD*%
D20*
%TO.P,R12,1*%
%TO.N,Net-(U3A--)*%
X41810000Y-52900000D03*
D21*
%TO.P,R12,2*%
%TO.N,Net-(JP1-B)*%
X34190000Y-52900000D03*
%TD*%
D41*
%TO.N,GND*%
X19200000Y-4200000D03*
X12800000Y-4000000D03*
X18400000Y-11300000D03*
X23900000Y-14800000D03*
X17200000Y-15200000D03*
%TO.N,+5V*%
X21800000Y-13000000D03*
%TO.N,GND*%
X9800000Y-75600000D03*
X40987473Y-89819158D03*
X33575000Y-17200000D03*
X12587701Y-80712299D03*
X24300000Y-82600000D03*
X39900000Y-43800000D03*
X38000000Y-30900000D03*
X49900000Y-87600000D03*
X36400000Y-42600000D03*
X35400000Y-26400000D03*
X39300845Y-9399802D03*
X40000000Y-14800000D03*
X49900000Y-90800000D03*
X37000000Y-5200000D03*
X38200000Y-26200000D03*
X33800000Y-11000000D03*
%TO.N,+9V*%
X33600000Y-44700000D03*
X38625500Y-81600000D03*
X43300000Y-84700000D03*
X31900000Y-65100000D03*
X34300000Y-40200000D03*
X31800500Y-26700000D03*
%TO.N,+3.3V*%
X42016295Y-6915244D03*
X31500000Y-24100000D03*
X44800000Y-16500000D03*
X38075500Y-6200000D03*
X40800000Y-20300000D03*
X38000000Y-23100000D03*
X36800000Y-19500000D03*
%TO.N,LINE_IN_R*%
X31800500Y-41280500D03*
X33599500Y-29433440D03*
%TO.N,LINE_IN_L*%
X33599500Y-41000000D03*
%TO.N,DAC_DIN*%
X40000000Y-7900000D03*
X36100000Y-8500000D03*
%TO.N,DAC_SDA*%
X38327806Y-9628275D03*
X39810377Y-15906611D03*
%TO.N,DAC_SCL*%
X37400000Y-10000000D03*
X39700000Y-16900000D03*
%TO.N,Net-(U3B-+)*%
X35700000Y-54000000D03*
X33849326Y-50626076D03*
%TO.N,Net-(U5-VDDA)*%
X33200000Y-14400000D03*
X32000000Y-6300000D03*
%TO.N,FOOTSWITCH_8*%
X20825000Y-87500500D03*
%TO.N,LINE_OUT_L*%
X16499149Y-71500851D03*
%TO.N,Net-(J12-Pin_1)*%
X36200000Y-1977755D03*
X44300000Y-3280500D03*
X35500000Y-9400000D03*
%TO.N,Net-(J12-Pin_2)*%
X35112278Y-2377755D03*
X34520814Y-9199500D03*
%TO.N,Net-(J12-Pin_3)*%
X34210430Y-3077255D03*
X33700000Y-9900000D03*
%TO.N,Net-(U5-SYS_MCLK)*%
X42363800Y-12949500D03*
X42100000Y-10700000D03*
%TO.N,Net-(JP1-A)*%
X36000000Y-47500000D03*
%TO.N,Net-(JP2-A)*%
X39000000Y-35500000D03*
%TO.N,PREAMP_IN_L*%
X4000000Y-73400000D03*
X43500000Y-88600000D03*
X9200000Y-71400000D03*
%TO.N,PREAMP_IN_R*%
X48179181Y-90019913D03*
%TO.N,JACK_IN*%
X38200000Y-74400000D03*
X16600000Y-42000000D03*
X16600000Y-47100000D03*
X14900000Y-66600000D03*
%TO.N,JACK_OUT*%
X6400000Y-73500000D03*
X13700000Y-65100000D03*
%TO.N,LED_NEG*%
X11000000Y-71300000D03*
%TD*%
D42*
%TO.N,+5V*%
X26300000Y-11350000D02*
X25400000Y-12250000D01*
X26300000Y-8850000D02*
X26300000Y-11350000D01*
X23000000Y-5550000D02*
X26300000Y-8850000D01*
X25400000Y-12250000D02*
X22725000Y-12250000D01*
D43*
%TO.N,+9V*%
X13061701Y-16480000D02*
X10773528Y-16480000D01*
X13875000Y-17293299D02*
X13061701Y-16480000D01*
X13875000Y-25696701D02*
X13875000Y-17300000D01*
X13875000Y-17300000D02*
X13875000Y-17293299D01*
D42*
X11665000Y-12365000D02*
X10525000Y-12365000D01*
X11950000Y-12650000D02*
X11665000Y-12365000D01*
X11950000Y-15303528D02*
X11950000Y-12650000D01*
X10773528Y-16480000D02*
X11950000Y-15303528D01*
X6380000Y-16480000D02*
X10773528Y-16480000D01*
%TO.N,GND*%
X20625000Y-2775000D02*
X19200000Y-4200000D01*
X20625000Y-2500000D02*
X20625000Y-2775000D01*
X12000000Y-4800000D02*
X12800000Y-4000000D01*
X12000000Y-6000000D02*
X12000000Y-4800000D01*
%TO.N,Net-(D2-K)*%
X15475000Y-10700000D02*
X13775000Y-9000000D01*
X15475000Y-11095000D02*
X15475000Y-10700000D01*
%TO.N,Net-(U2-BOOT)*%
X12225000Y-9395000D02*
X10525000Y-11095000D01*
X12225000Y-9000000D02*
X12225000Y-9395000D01*
%TO.N,Net-(D2-K)*%
X16000000Y-6775000D02*
X13775000Y-9000000D01*
X16000000Y-6000000D02*
X16000000Y-6775000D01*
%TO.N,GND*%
X17975000Y-11725000D02*
X18400000Y-11300000D01*
X17975000Y-12325000D02*
X17975000Y-11725000D01*
X24300000Y-15200000D02*
X23900000Y-14800000D01*
X24300000Y-15575000D02*
X24300000Y-15200000D01*
X17575000Y-15575000D02*
X17200000Y-15200000D01*
X18225000Y-15575000D02*
X17575000Y-15575000D01*
D43*
%TO.N,Net-(U2-VSENSE)*%
X21850000Y-16375000D02*
X22650000Y-15575000D01*
X16945000Y-16375000D02*
X21850000Y-16375000D01*
X15475000Y-14905000D02*
X16945000Y-16375000D01*
D42*
%TO.N,GND*%
X17935000Y-12365000D02*
X17975000Y-12325000D01*
X15475000Y-12365000D02*
X17935000Y-12365000D01*
D43*
%TO.N,Net-(U2-COMP)*%
X17735000Y-13635000D02*
X17975000Y-13875000D01*
X15475000Y-13635000D02*
X17735000Y-13635000D01*
%TO.N,Net-(U2-VSENSE)*%
X22725000Y-15500000D02*
X22650000Y-15575000D01*
X22725000Y-13900000D02*
X22725000Y-15500000D01*
%TO.N,Net-(C4-Pad1)*%
X19775000Y-14275000D02*
X20225000Y-13825000D01*
X19775000Y-15575000D02*
X19775000Y-14275000D01*
%TO.N,Net-(U2-COMP)*%
X18525000Y-13875000D02*
X20225000Y-12175000D01*
X17975000Y-13875000D02*
X18525000Y-13875000D01*
%TO.N,+5V*%
X21975000Y-13000000D02*
X22725000Y-12250000D01*
X21800000Y-13000000D02*
X21975000Y-13000000D01*
D42*
%TO.N,Net-(U2-SS)*%
X9680000Y-14905000D02*
X10525000Y-14905000D01*
X8000000Y-13225000D02*
X9680000Y-14905000D01*
%TO.N,GND*%
X5885000Y-14775000D02*
X5080000Y-13970000D01*
X8000000Y-14775000D02*
X5885000Y-14775000D01*
%TO.N,+9V*%
X8775000Y-11168528D02*
X9971472Y-12365000D01*
X8775000Y-8950000D02*
X8775000Y-11168528D01*
X9971472Y-12365000D02*
X10525000Y-12365000D01*
%TO.N,GND*%
X10950000Y-7050000D02*
X12000000Y-6000000D01*
X8775000Y-7050000D02*
X10950000Y-7050000D01*
%TO.N,Net-(D1-A)*%
X6100000Y-10410000D02*
X6100000Y-6800000D01*
X6100000Y-6800000D02*
X10650000Y-2250000D01*
X2540000Y-13970000D02*
X6100000Y-10410000D01*
X10650000Y-2250000D02*
X17660000Y-2250000D01*
%TO.N,Net-(D2-K)*%
X16520000Y-10050000D02*
X15475000Y-11095000D01*
X23000000Y-10050000D02*
X16520000Y-10050000D01*
%TO.N,+5V*%
X23000000Y-3075000D02*
X23575000Y-2500000D01*
X23000000Y-5550000D02*
X23000000Y-3075000D01*
X44307755Y-1127755D02*
X45720000Y-2540000D01*
X24947245Y-1127755D02*
X44307755Y-1127755D01*
X23575000Y-2500000D02*
X24947245Y-1127755D01*
X5080000Y-22860000D02*
X5080000Y-25400000D01*
%TO.N,GND*%
X32975000Y-11825000D02*
X33800000Y-11000000D01*
X41700000Y-90600000D02*
X41700000Y-90531685D01*
X36950000Y-5250000D02*
X37000000Y-5200000D01*
X40310000Y-45450000D02*
X41150000Y-45450000D01*
X40310000Y-44210000D02*
X39900000Y-43800000D01*
X9800000Y-75600000D02*
X17300000Y-75600000D01*
X35250000Y-25175000D02*
X35250000Y-26250000D01*
X48115000Y-91725000D02*
X49040000Y-90800000D01*
X41500000Y-15275000D02*
X43300000Y-15275000D01*
X40475000Y-15275000D02*
X40000000Y-14800000D01*
X35650000Y-43350000D02*
X36400000Y-42600000D01*
X45950000Y-90800000D02*
X46875000Y-91725000D01*
D44*
X38825000Y-8600000D02*
X38825000Y-8923957D01*
D42*
X33200000Y-16100000D02*
X33200000Y-16825000D01*
X49050000Y-86000000D02*
X49050000Y-83350000D01*
D44*
X39100000Y-14100000D02*
X39100000Y-13450000D01*
D42*
X37175000Y-30075000D02*
X38000000Y-30900000D01*
X38850000Y-25175000D02*
X38850000Y-25550000D01*
X35575000Y-5250000D02*
X36950000Y-5250000D01*
X34800000Y-43350000D02*
X35650000Y-43350000D01*
X35250000Y-26250000D02*
X35400000Y-26400000D01*
X49050000Y-83350000D02*
X47700000Y-82000000D01*
D44*
X38825000Y-8923957D02*
X39300845Y-9399802D01*
D42*
X41150000Y-45450000D02*
X42000000Y-44600000D01*
X40310000Y-45450000D02*
X40310000Y-44210000D01*
X41700000Y-90531685D02*
X40987473Y-89819158D01*
D44*
X41500000Y-15275000D02*
X39675000Y-13450000D01*
D42*
X49050000Y-87600000D02*
X49900000Y-87600000D01*
D44*
X39750000Y-13450000D02*
X39300000Y-13450000D01*
D42*
X32800000Y-11825000D02*
X32975000Y-11825000D01*
D44*
X39300000Y-13450000D02*
X39100000Y-13450000D01*
D42*
X12587701Y-80712299D02*
X15825402Y-83950000D01*
X17300000Y-75600000D02*
X24300000Y-82600000D01*
X38725000Y-31625000D02*
X38000000Y-30900000D01*
X32800000Y-11825000D02*
X34100000Y-11825000D01*
X49050000Y-87600000D02*
X49050000Y-86000000D01*
X34100000Y-11825000D02*
X34500000Y-12225000D01*
X49040000Y-90800000D02*
X49900000Y-90800000D01*
D44*
X39100000Y-13450000D02*
X38300000Y-12650000D01*
D42*
X15825402Y-83950000D02*
X22950000Y-83950000D01*
X46875000Y-91725000D02*
X48115000Y-91725000D01*
X39150000Y-31625000D02*
X38725000Y-31625000D01*
X22950000Y-83950000D02*
X24300000Y-82600000D01*
X36850000Y-30075000D02*
X37175000Y-30075000D01*
D44*
X39675000Y-13450000D02*
X39300000Y-13450000D01*
D42*
X38850000Y-25550000D02*
X38200000Y-26200000D01*
X40100000Y-90600000D02*
X41700000Y-90600000D01*
X41500000Y-15275000D02*
X40475000Y-15275000D01*
X37550000Y-5200000D02*
X38025000Y-4725000D01*
X33200000Y-16825000D02*
X33575000Y-17200000D01*
X37000000Y-5200000D02*
X37550000Y-5200000D01*
X42000000Y-44600000D02*
X42000000Y-43100000D01*
D44*
%TO.N,+1V8*%
X37500000Y-11200000D02*
X37000000Y-11200000D01*
X36700000Y-9175000D02*
X37275000Y-8600000D01*
D42*
X37275000Y-8300000D02*
X38975000Y-6600000D01*
D44*
X36700000Y-10900000D02*
X36700000Y-9175000D01*
X37000000Y-11200000D02*
X36700000Y-10900000D01*
D42*
X37275000Y-8600000D02*
X37275000Y-8300000D01*
%TO.N,+9V*%
X35200000Y-41800000D02*
X36500000Y-40500000D01*
X44300000Y-86000000D02*
X44300000Y-85700000D01*
X7500000Y-2250000D02*
X5900000Y-2250000D01*
X34800000Y-41800000D02*
X35200000Y-41800000D01*
X5900000Y-2250000D02*
X1240000Y-6910000D01*
X5080000Y-17780000D02*
X5080000Y-20320000D01*
X33600000Y-43000000D02*
X33600000Y-44700000D01*
X31300000Y-65700000D02*
X31900000Y-65100000D01*
X4080000Y-17780000D02*
X5080000Y-17780000D01*
D43*
X14878299Y-26700000D02*
X13875000Y-25696701D01*
D42*
X38625500Y-81600000D02*
X31300000Y-74274500D01*
X44300000Y-85700000D02*
X43300000Y-84700000D01*
X34800000Y-40700000D02*
X34300000Y-40200000D01*
X34800000Y-41800000D02*
X34800000Y-40700000D01*
X34800000Y-41800000D02*
X33600000Y-43000000D01*
X1240000Y-6910000D02*
X1240000Y-14940000D01*
X44300000Y-87600000D02*
X44300000Y-86000000D01*
X6380000Y-16480000D02*
X5080000Y-17780000D01*
X31300000Y-74274500D02*
X31300000Y-65700000D01*
D43*
X31800500Y-26700000D02*
X14878299Y-26700000D01*
D42*
X1240000Y-14940000D02*
X4080000Y-17780000D01*
D43*
%TO.N,DAC_MCLK*%
X43650000Y-8200000D02*
X43760000Y-8200000D01*
X43760000Y-8200000D02*
X45720000Y-10160000D01*
D42*
%TO.N,+3.3V*%
X2425000Y-33135000D02*
X5080000Y-30480000D01*
X41574500Y-13799500D02*
X43225500Y-13799500D01*
X40750000Y-23800000D02*
X42350000Y-22200000D01*
D44*
X40825000Y-13050000D02*
X41500000Y-13725000D01*
D42*
X42016295Y-6915244D02*
X42016295Y-6858705D01*
X40750000Y-25175000D02*
X40750000Y-23800000D01*
X42350000Y-19600000D02*
X41500000Y-19600000D01*
X42016295Y-6858705D02*
X42775000Y-6100000D01*
D43*
X36100000Y-19500000D02*
X31500000Y-24100000D01*
D44*
X39750000Y-13050000D02*
X40825000Y-13050000D01*
D42*
X43300000Y-13725000D02*
X44225000Y-14650000D01*
X2425000Y-91405000D02*
X2425000Y-33135000D01*
X44225000Y-14650000D02*
X44225000Y-15925000D01*
X37075000Y-6600000D02*
X37675500Y-6600000D01*
X37150000Y-23950000D02*
X38000000Y-23100000D01*
X44200000Y-6100000D02*
X45720000Y-7620000D01*
X37675500Y-6600000D02*
X38075500Y-6200000D01*
X37150000Y-25175000D02*
X37150000Y-23950000D01*
X43225500Y-13799500D02*
X43300000Y-13725000D01*
X35575000Y-6800000D02*
X36875000Y-6800000D01*
X41500000Y-19600000D02*
X40800000Y-20300000D01*
X42350000Y-19600000D02*
X42350000Y-22200000D01*
X42775000Y-6100000D02*
X44200000Y-6100000D01*
D43*
X36800000Y-19500000D02*
X36100000Y-19500000D01*
D42*
X5000000Y-93980000D02*
X2425000Y-91405000D01*
X41500000Y-13725000D02*
X41574500Y-13799500D01*
X44225000Y-15925000D02*
X44800000Y-16500000D01*
X5080000Y-27940000D02*
X5080000Y-30480000D01*
X36875000Y-6800000D02*
X37075000Y-6600000D01*
D43*
%TO.N,Net-(D5-A)*%
X5940000Y-101600000D02*
X11540000Y-96000000D01*
X5000000Y-101600000D02*
X5940000Y-101600000D01*
%TO.N,LINE_IN_R*%
X36007940Y-27025000D02*
X33599500Y-29433440D01*
X31800500Y-43450491D02*
X30705991Y-44545000D01*
X6255000Y-44545000D02*
X5080000Y-45720000D01*
D44*
X38300000Y-14100000D02*
X38300000Y-21200000D01*
D43*
X30705991Y-44545000D02*
X6255000Y-44545000D01*
D44*
X38300000Y-21200000D02*
X36200000Y-23300000D01*
D43*
X36200000Y-26375000D02*
X36850000Y-27025000D01*
X31800500Y-41280500D02*
X31800500Y-43450491D01*
X36200000Y-23300000D02*
X36200000Y-26375000D01*
X36850000Y-27025000D02*
X36007940Y-27025000D01*
D44*
%TO.N,LINE_IN_L*%
X38700000Y-22200000D02*
X39800000Y-23300000D01*
D43*
X39800000Y-23300000D02*
X39800000Y-26350000D01*
X33599500Y-41000000D02*
X33555000Y-40955500D01*
D44*
X38700000Y-14100000D02*
X38700000Y-22200000D01*
D43*
X36257538Y-27800000D02*
X33555000Y-30502538D01*
X33555000Y-40955500D02*
X33555000Y-30502538D01*
X39800000Y-26350000D02*
X39150000Y-27000000D01*
X38350000Y-27800000D02*
X36257538Y-27800000D01*
X39150000Y-27000000D02*
X38350000Y-27800000D01*
D44*
%TO.N,DAC_LRCLK*%
X46820000Y-14784365D02*
X46820000Y-16680000D01*
X39750000Y-12250000D02*
X44170000Y-12250000D01*
X46820000Y-16680000D02*
X45720000Y-17780000D01*
X44170000Y-12250000D02*
X44620000Y-12700000D01*
X45564365Y-14100000D02*
X46135635Y-14100000D01*
X46135635Y-14100000D02*
X46820000Y-14784365D01*
X44620000Y-12700000D02*
X44620000Y-13155635D01*
X44620000Y-13155635D02*
X45564365Y-14100000D01*
%TO.N,DAC_BCLK*%
X46175635Y-11600000D02*
X47000000Y-12424365D01*
X40000000Y-11600000D02*
X46175635Y-11600000D01*
X47000000Y-13980000D02*
X48260000Y-15240000D01*
X39750000Y-11850000D02*
X40000000Y-11600000D01*
X47000000Y-12424365D02*
X47000000Y-13980000D01*
%TO.N,DAC_DOUT*%
X40700000Y-6951104D02*
X39311396Y-5562500D01*
X29300000Y-24220000D02*
X30480000Y-25400000D01*
D43*
X38371751Y-3662500D02*
X37637500Y-3662500D01*
D44*
X31580000Y-8075635D02*
X30655635Y-9000000D01*
X30084365Y-9000000D02*
X29300000Y-9784365D01*
X30655635Y-9000000D02*
X30084365Y-9000000D01*
X40700000Y-9600000D02*
X40700000Y-6951104D01*
D43*
X39311396Y-5562500D02*
X39311396Y-4602145D01*
D44*
X29300000Y-9784365D02*
X29300000Y-24220000D01*
X39100000Y-11200000D02*
X40700000Y-9600000D01*
X31580000Y-8020000D02*
X31580000Y-8075635D01*
X35100000Y-4500000D02*
X31580000Y-8020000D01*
X36400000Y-4500000D02*
X35100000Y-4500000D01*
D43*
X39311396Y-4602145D02*
X38371751Y-3662500D01*
X36800000Y-4500000D02*
X36400000Y-4500000D01*
X37637500Y-3662500D02*
X36800000Y-4500000D01*
D44*
%TO.N,DAC_DIN*%
X40000000Y-8946031D02*
X40000000Y-7900000D01*
X40000845Y-8946876D02*
X40000000Y-8946031D01*
X38700000Y-10680025D02*
X39133994Y-10246031D01*
X39444566Y-10246031D02*
X40000845Y-9689752D01*
X31600000Y-10841852D02*
X32641852Y-9800000D01*
X40000845Y-9689752D02*
X40000845Y-8946876D01*
X36100000Y-8500000D02*
X33941852Y-8500000D01*
X39133994Y-10246031D02*
X39444566Y-10246031D01*
X33941852Y-8500000D02*
X32641852Y-9800000D01*
X38700000Y-11200000D02*
X38700000Y-10680025D01*
X31600000Y-21740000D02*
X31600000Y-10841852D01*
X30480000Y-22860000D02*
X31600000Y-21740000D01*
%TO.N,DAC_SDA*%
X38300000Y-9656081D02*
X38327806Y-9628275D01*
X38300000Y-11200000D02*
X38300000Y-10099503D01*
X39810377Y-15906611D02*
X40403766Y-16500000D01*
D43*
X45060000Y-22200000D02*
X45720000Y-22860000D01*
D44*
X46820000Y-21760000D02*
X45720000Y-22860000D01*
X45604365Y-19220000D02*
X46220000Y-19220000D01*
D43*
X44000000Y-22200000D02*
X45060000Y-22200000D01*
D44*
X46820000Y-19820000D02*
X46820000Y-21760000D01*
X46220000Y-19220000D02*
X46820000Y-19820000D01*
X40403766Y-16500000D02*
X42884365Y-16500000D01*
X38300000Y-10099503D02*
X38300000Y-9656081D01*
X42884365Y-16500000D02*
X45604365Y-19220000D01*
%TO.N,DAC_SCL*%
X39700000Y-16900000D02*
X41300000Y-16900000D01*
D43*
X45000000Y-19600000D02*
X45720000Y-20320000D01*
X44000000Y-19600000D02*
X45000000Y-19600000D01*
D44*
X41300000Y-16900000D02*
X44000000Y-19600000D01*
X37900000Y-11200000D02*
X37900000Y-10500000D01*
X37900000Y-10500000D02*
X37400000Y-10000000D01*
D43*
%TO.N,Net-(JP2-B)*%
X34680000Y-32245000D02*
X35250000Y-31675000D01*
X34680000Y-34200000D02*
X34680000Y-32245000D01*
X37770000Y-37830000D02*
X38800000Y-36800000D01*
X37770000Y-40500000D02*
X37770000Y-37830000D01*
X34680000Y-34200000D02*
X36200000Y-34200000D01*
X36200000Y-34200000D02*
X38800000Y-36800000D01*
%TO.N,FOOTSWITCH_1*%
X10160000Y-92411396D02*
X11948604Y-94200000D01*
X15100000Y-94200000D02*
X21700000Y-100800000D01*
X11948604Y-94200000D02*
X15100000Y-94200000D01*
X10160000Y-91440000D02*
X10160000Y-92411396D01*
%TO.N,Net-(C10-Pad2)*%
X42000000Y-41550000D02*
X42000000Y-40000000D01*
%TO.N,Net-(U3A-+)*%
X45950000Y-86000000D02*
X47400000Y-86000000D01*
X39040000Y-46197538D02*
X41100000Y-48257538D01*
X41100000Y-48700000D02*
X41600000Y-49200000D01*
X45900000Y-89200000D02*
X45225000Y-88525000D01*
X45225000Y-86725000D02*
X45950000Y-86000000D01*
X43100000Y-49900000D02*
X43100000Y-83150000D01*
X41100000Y-48257538D02*
X41100000Y-48700000D01*
X42400000Y-49200000D02*
X43100000Y-49900000D01*
X45225000Y-88525000D02*
X45225000Y-86725000D01*
X41600000Y-49200000D02*
X42400000Y-49200000D01*
X39040000Y-45450000D02*
X39040000Y-46197538D01*
X43100000Y-83150000D02*
X45950000Y-86000000D01*
%TO.N,Net-(U3B-+)*%
X33800000Y-50576750D02*
X33849326Y-50626076D01*
X35700000Y-54000000D02*
X42500000Y-60800000D01*
X45100000Y-90432538D02*
X45532538Y-90000000D01*
X47400000Y-87600000D02*
X49000000Y-89200000D01*
X45532538Y-90000000D02*
X46352817Y-90000000D01*
X40310000Y-40500000D02*
X40310000Y-40890000D01*
X45100000Y-91600000D02*
X45100000Y-90432538D01*
X43500000Y-90113604D02*
X43500000Y-91217462D01*
X33800000Y-46503249D02*
X33800000Y-50100000D01*
X46675000Y-89677817D02*
X46675000Y-88325000D01*
X42500000Y-60800000D02*
X42500000Y-89113604D01*
X33800000Y-50100000D02*
X33800000Y-50576750D01*
X46352817Y-90000000D02*
X46675000Y-89677817D01*
X38428249Y-41875000D02*
X33800000Y-46503249D01*
X42500000Y-89113604D02*
X43500000Y-90113604D01*
X39325000Y-41875000D02*
X38428249Y-41875000D01*
X43500000Y-91217462D02*
X43882538Y-91600000D01*
X40310000Y-40890000D02*
X39325000Y-41875000D01*
X45950000Y-87600000D02*
X47400000Y-87600000D01*
X46675000Y-88325000D02*
X45950000Y-87600000D01*
X43882538Y-91600000D02*
X45100000Y-91600000D01*
%TO.N,Net-(C9-Pad2)*%
X41900000Y-46250000D02*
X42000000Y-46150000D01*
X41900000Y-48275000D02*
X41900000Y-46250000D01*
%TO.N,Net-(U3A--)*%
X41825000Y-50000000D02*
X41900000Y-49925000D01*
X37770000Y-45450000D02*
X37770000Y-45826751D01*
X37770000Y-45826751D02*
X39825000Y-47881751D01*
X39775000Y-50000000D02*
X41825000Y-50000000D01*
X39825000Y-48200000D02*
X39825000Y-49950000D01*
X39825000Y-49950000D02*
X39775000Y-50000000D01*
X41810000Y-50015000D02*
X41810000Y-52900000D01*
X39825000Y-47881751D02*
X39825000Y-48200000D01*
X41900000Y-49925000D02*
X41810000Y-50015000D01*
%TO.N,Net-(U3B--)*%
X40400000Y-38400000D02*
X41950000Y-38400000D01*
X40350000Y-36800000D02*
X40350000Y-36150000D01*
X40350000Y-36150000D02*
X42300000Y-34200000D01*
X39040000Y-39760000D02*
X40400000Y-38400000D01*
X39040000Y-40500000D02*
X39040000Y-39760000D01*
X40400000Y-36850000D02*
X40350000Y-36800000D01*
X41950000Y-38400000D02*
X42000000Y-38350000D01*
X40400000Y-38400000D02*
X40400000Y-36850000D01*
%TO.N,Net-(C14-Pad1)*%
X39150000Y-30075000D02*
X40700000Y-30075000D01*
X40700000Y-30075000D02*
X40750000Y-30025000D01*
X39150000Y-28550000D02*
X39150000Y-30075000D01*
%TO.N,Net-(C15-Pad1)*%
X35250000Y-30025000D02*
X36850000Y-31625000D01*
X36850000Y-28575000D02*
X36700000Y-28575000D01*
X36700000Y-28575000D02*
X35250000Y-30025000D01*
D44*
%TO.N,Net-(U5-VAG)*%
X34750000Y-16100000D02*
X34750000Y-15550000D01*
X34750000Y-15550000D02*
X36850000Y-13450000D01*
D43*
%TO.N,Net-(U5-VDDA)*%
X41200000Y-5854353D02*
X38558147Y-3212500D01*
X36631802Y-4031802D02*
X34268198Y-4031802D01*
D44*
X32800000Y-14000000D02*
X33200000Y-14400000D01*
D43*
X34268198Y-4031802D02*
X32000000Y-6300000D01*
D44*
X32800000Y-13375000D02*
X32800000Y-14000000D01*
D43*
X38558147Y-3212500D02*
X37451104Y-3212500D01*
D44*
X36850000Y-12650000D02*
X35625000Y-12650000D01*
D43*
X34100000Y-13375000D02*
X34500000Y-13775000D01*
X37451104Y-3212500D02*
X36631802Y-4031802D01*
D44*
X35625000Y-12650000D02*
X34500000Y-13775000D01*
D43*
X32800000Y-13375000D02*
X34100000Y-13375000D01*
X41200000Y-6100000D02*
X41200000Y-5854353D01*
D44*
%TO.N,Net-(U5-LINEOUT_R)*%
X39325000Y-63190686D02*
X32500000Y-56365685D01*
X37500000Y-20060418D02*
X37500000Y-14100000D01*
X39632538Y-86700000D02*
X39325000Y-86392462D01*
X40950000Y-86700000D02*
X39632538Y-86700000D01*
X39325000Y-86392462D02*
X39325000Y-63190686D01*
X32500000Y-56365685D02*
X32500000Y-25060418D01*
X41700000Y-85950000D02*
X40950000Y-86700000D01*
X32500000Y-25060418D02*
X37500000Y-20060418D01*
D43*
%TO.N,Net-(C25-Pad2)*%
X41700000Y-92050000D02*
X42500000Y-91250000D01*
X41700000Y-87500000D02*
X41700000Y-88950000D01*
X42500000Y-91250000D02*
X42500000Y-89750000D01*
X42500000Y-89750000D02*
X41700000Y-88950000D01*
D44*
%TO.N,Net-(U5-LINEOUT_L)*%
X40100000Y-63400000D02*
X32900000Y-56200000D01*
X37900000Y-20226104D02*
X37900000Y-14100000D01*
X40100000Y-85950000D02*
X40100000Y-63400000D01*
X32900000Y-56200000D02*
X32900000Y-25226104D01*
X32900000Y-25226104D02*
X37900000Y-20226104D01*
D43*
%TO.N,Net-(C26-Pad2)*%
X39300000Y-91250000D02*
X39300000Y-89750000D01*
X39300000Y-89750000D02*
X40100000Y-88950000D01*
X40100000Y-88950000D02*
X40100000Y-87500000D01*
X40100000Y-92050000D02*
X39300000Y-91250000D01*
%TO.N,FOOTSWITCH_2*%
X17881802Y-97618198D02*
X14913604Y-94650000D01*
X20400000Y-102800000D02*
X17881802Y-100281802D01*
X23775000Y-98075000D02*
X23775000Y-98211396D01*
X21700000Y-96000000D02*
X23775000Y-98075000D01*
X24025000Y-101514518D02*
X22739518Y-102800000D01*
X11020000Y-94650000D02*
X8985000Y-92615000D01*
X24025000Y-98461396D02*
X24025000Y-101514518D01*
X22739518Y-102800000D02*
X20400000Y-102800000D01*
X17881802Y-100281802D02*
X17881802Y-97618198D01*
X8985000Y-92615000D02*
X8985000Y-90075000D01*
X23775000Y-98211396D02*
X24025000Y-98461396D01*
X8985000Y-90075000D02*
X10160000Y-88900000D01*
X14913604Y-94650000D02*
X11020000Y-94650000D01*
%TO.N,FOOTSWITCH_3*%
X11375000Y-87575000D02*
X10160000Y-86360000D01*
X19385000Y-93515000D02*
X11900000Y-93515000D01*
X11525000Y-93140000D02*
X11525000Y-87575000D01*
X21700000Y-91200000D02*
X19385000Y-93515000D01*
X11525000Y-87575000D02*
X11375000Y-87575000D01*
X11900000Y-93515000D02*
X11525000Y-93140000D01*
%TO.N,FOOTSWITCH_4*%
X19853097Y-89125000D02*
X22664518Y-89125000D01*
X24025000Y-90485482D02*
X24025000Y-97275000D01*
X22664518Y-89125000D02*
X24025000Y-90485482D01*
X15913097Y-93065000D02*
X19853097Y-89125000D01*
X12700000Y-91440000D02*
X14325000Y-93065000D01*
X24475000Y-97725000D02*
X24475000Y-98275000D01*
X24025000Y-97275000D02*
X24475000Y-97725000D01*
X14325000Y-93065000D02*
X15913097Y-93065000D01*
X24475000Y-98275000D02*
X27000000Y-100800000D01*
%TO.N,FOOTSWITCH_5*%
X13900000Y-90100000D02*
X12700000Y-88900000D01*
X19666701Y-88675000D02*
X15726701Y-92615000D01*
X14753299Y-92615000D02*
X13900000Y-91761701D01*
X24675000Y-93675000D02*
X24675000Y-90499086D01*
X22850914Y-88675000D02*
X19666701Y-88675000D01*
X27000000Y-96000000D02*
X24675000Y-93675000D01*
X13900000Y-91761701D02*
X13900000Y-90100000D01*
X15726701Y-92615000D02*
X14753299Y-92615000D01*
X24675000Y-90499086D02*
X22850914Y-88675000D01*
%TO.N,FOOTSWITCH_6*%
X34625000Y-90485482D02*
X29324518Y-85185000D01*
X33264518Y-102875000D02*
X34625000Y-101514518D01*
X29325000Y-100864518D02*
X31335482Y-102875000D01*
X27000000Y-91200000D02*
X29325000Y-93525000D01*
X31335482Y-102875000D02*
X33264518Y-102875000D01*
X13875000Y-85185000D02*
X12700000Y-86360000D01*
X29325000Y-93525000D02*
X29325000Y-100864518D01*
X34625000Y-101514518D02*
X34625000Y-90485482D01*
X29324518Y-85185000D02*
X13875000Y-85185000D01*
%TO.N,FOOTSWITCH_7*%
X18455000Y-88225000D02*
X28052208Y-88225000D01*
X28052208Y-88225000D02*
X29525000Y-89697792D01*
X29525000Y-93050000D02*
X29775000Y-93300000D01*
X29525000Y-89697792D02*
X29525000Y-93050000D01*
X29775000Y-98275000D02*
X32300000Y-100800000D01*
X29775000Y-93300000D02*
X29775000Y-98275000D01*
X15240000Y-91440000D02*
X18455000Y-88225000D01*
%TO.N,FOOTSWITCH_8*%
X30225000Y-92164518D02*
X29975000Y-91914518D01*
X27964104Y-87500500D02*
X20825000Y-87500500D01*
X29975000Y-91914518D02*
X29975000Y-89511396D01*
X32300000Y-96000000D02*
X30225000Y-93925000D01*
X29975000Y-89511396D02*
X27964104Y-87500500D01*
X30225000Y-93925000D02*
X30225000Y-92164518D01*
%TO.N,FOOTSWITCH_9*%
X32300000Y-91200000D02*
X27460000Y-86360000D01*
X27460000Y-86360000D02*
X15240000Y-86360000D01*
%TO.N,Net-(JP1-B)*%
X35325000Y-52900000D02*
X34190000Y-52900000D01*
X42494009Y-31675000D02*
X43425000Y-32605991D01*
X43425000Y-32605991D02*
X43425000Y-41377817D01*
X42477817Y-42325000D02*
X39248249Y-42325000D01*
X34625000Y-52465000D02*
X34625000Y-47325000D01*
X34190000Y-52900000D02*
X34625000Y-52465000D01*
X36500000Y-45073249D02*
X36500000Y-45450000D01*
X39248249Y-42325000D02*
X36500000Y-45073249D01*
X43425000Y-41377817D02*
X42477817Y-42325000D01*
X38225000Y-50000000D02*
X35325000Y-52900000D01*
X40750000Y-31675000D02*
X42494009Y-31675000D01*
X36500000Y-45450000D02*
X34625000Y-47325000D01*
%TO.N,LINE_OUT_L*%
X6255000Y-52853299D02*
X5376701Y-51975000D01*
X38698299Y-93700000D02*
X16499149Y-71500851D01*
X16499149Y-71500851D02*
X6255000Y-61256701D01*
X6255000Y-61256701D02*
X6255000Y-52853299D01*
X3905000Y-49435000D02*
X5080000Y-48260000D01*
X40100000Y-93700000D02*
X38698299Y-93700000D01*
X3905000Y-51286701D02*
X3905000Y-49435000D01*
X4593299Y-51975000D02*
X3905000Y-51286701D01*
X5376701Y-51975000D02*
X4593299Y-51975000D01*
D44*
%TO.N,Net-(J12-Pin_1)*%
X36660050Y-11850000D02*
X35500000Y-10689950D01*
D43*
X36200000Y-1977755D02*
X36315255Y-1862500D01*
X42882000Y-1862500D02*
X44300000Y-3280500D01*
D44*
X35500000Y-10689950D02*
X35500000Y-9400000D01*
X36850000Y-11850000D02*
X36660050Y-11850000D01*
D43*
X36315255Y-1862500D02*
X42882000Y-1862500D01*
%TO.N,Net-(J12-Pin_2)*%
X51975000Y-7075000D02*
X51975000Y-8985000D01*
X42212500Y-2312500D02*
X42650000Y-2750000D01*
X44694500Y-4005500D02*
X44745000Y-3955000D01*
X37078312Y-2312500D02*
X42212500Y-2312500D01*
X48855000Y-3955000D02*
X51975000Y-7075000D01*
X42650000Y-2750000D02*
X43905500Y-4005500D01*
D44*
X34520814Y-10440789D02*
X34520814Y-9199500D01*
D43*
X36688057Y-2702755D02*
X37078312Y-2312500D01*
X43905500Y-4005500D02*
X44694500Y-4005500D01*
X35437278Y-2702755D02*
X36688057Y-2702755D01*
X35112278Y-2377755D02*
X35437278Y-2702755D01*
X51975000Y-8985000D02*
X50800000Y-10160000D01*
D44*
X36850000Y-12250000D02*
X36330025Y-12250000D01*
X36330025Y-12250000D02*
X34520814Y-10440789D01*
D43*
X44745000Y-3955000D02*
X48855000Y-3955000D01*
D44*
%TO.N,Net-(J12-Pin_3)*%
X35275000Y-14105025D02*
X36330025Y-13050000D01*
D43*
X34235930Y-3102755D02*
X34235930Y-3135930D01*
D44*
X32500000Y-15100000D02*
X34392462Y-15100000D01*
D43*
X34235930Y-3135930D02*
X34681802Y-3581802D01*
X36445406Y-3581802D02*
X37264708Y-2762500D01*
D44*
X34392462Y-15100000D02*
X35275000Y-14217462D01*
D43*
X34681802Y-3581802D02*
X36445406Y-3581802D01*
X37264708Y-2762500D02*
X41662500Y-2762500D01*
X49675000Y-6495000D02*
X50800000Y-7620000D01*
X41662500Y-2762500D02*
X41977255Y-3077255D01*
D44*
X32000000Y-11407538D02*
X32000000Y-14600000D01*
X33507538Y-9900000D02*
X32000000Y-11407538D01*
D43*
X34210430Y-3077255D02*
X34235930Y-3102755D01*
D44*
X36330025Y-13050000D02*
X36850000Y-13050000D01*
D43*
X42126264Y-3077255D02*
X45544009Y-6495000D01*
X41977255Y-3077255D02*
X42126264Y-3077255D01*
X45544009Y-6495000D02*
X49675000Y-6495000D01*
D44*
X32000000Y-14600000D02*
X32500000Y-15100000D01*
X35275000Y-14217462D02*
X35275000Y-14105025D01*
X33700000Y-9900000D02*
X33507538Y-9900000D01*
%TO.N,Net-(U5-SYS_MCLK)*%
X39750000Y-12650000D02*
X42064300Y-12650000D01*
X42064300Y-12650000D02*
X42363800Y-12949500D01*
X42100000Y-10700000D02*
X42100000Y-8300000D01*
X42100000Y-8300000D02*
X42000000Y-8200000D01*
D43*
%TO.N,LINE_OUT_R*%
X8795000Y-61962462D02*
X8795000Y-52853299D01*
X41700000Y-93700000D02*
X40775000Y-92775000D01*
X6255000Y-51975000D02*
X5080000Y-50800000D01*
X39607538Y-92775000D02*
X8795000Y-61962462D01*
X7916701Y-51975000D02*
X6255000Y-51975000D01*
X8795000Y-52853299D02*
X7916701Y-51975000D01*
X40775000Y-92775000D02*
X39607538Y-92775000D01*
%TO.N,Net-(JP1-A)*%
X36700000Y-48200000D02*
X36000000Y-47500000D01*
X38175000Y-48200000D02*
X36700000Y-48200000D01*
%TO.N,Net-(JP2-A)*%
X39575000Y-36075000D02*
X39000000Y-35500000D01*
X39575000Y-37575000D02*
X39575000Y-36075000D01*
X38750000Y-38400000D02*
X39575000Y-37575000D01*
%TO.N,PREAMP_IN_L*%
X44300000Y-90800000D02*
X44300000Y-89250000D01*
X43500000Y-88600000D02*
X43750000Y-88600000D01*
X44300000Y-89250000D02*
X44350000Y-89200000D01*
X6000000Y-71400000D02*
X4000000Y-73400000D01*
X9200000Y-71400000D02*
X6000000Y-71400000D01*
X43750000Y-88600000D02*
X44350000Y-89200000D01*
%TO.N,PREAMP_IN_R*%
X48170087Y-90019913D02*
X47390000Y-90800000D01*
X47390000Y-90800000D02*
X47390000Y-89260000D01*
X47390000Y-89260000D02*
X47450000Y-89200000D01*
X48179181Y-90019913D02*
X48170087Y-90019913D01*
%TO.N,JACK_IN*%
X15536701Y-34195000D02*
X6255000Y-34195000D01*
X6255000Y-34195000D02*
X5080000Y-33020000D01*
X16600000Y-42000000D02*
X16600000Y-35258299D01*
X17555000Y-63945000D02*
X14900000Y-66600000D01*
X35000000Y-71200000D02*
X35000000Y-65770000D01*
X16600000Y-35258299D02*
X15536701Y-34195000D01*
X33175000Y-63945000D02*
X17555000Y-63945000D01*
X17555000Y-63945000D02*
X16600000Y-62990000D01*
X35000000Y-65770000D02*
X33175000Y-63945000D01*
X16600000Y-62990000D02*
X16600000Y-47100000D01*
X38200000Y-74400000D02*
X35000000Y-71200000D01*
%TO.N,JACK_OUT*%
X6445000Y-40955000D02*
X5395000Y-42005000D01*
X5080000Y-35560000D02*
X6445000Y-36925000D01*
X14900000Y-82000000D02*
X19000000Y-82000000D01*
X6445000Y-36925000D02*
X6445000Y-40955000D01*
X4698299Y-47000000D02*
X13101701Y-47000000D01*
X3905000Y-42693299D02*
X3905000Y-46206701D01*
X5395000Y-42005000D02*
X4593299Y-42005000D01*
X13875000Y-64925000D02*
X13700000Y-65100000D01*
X4593299Y-42005000D02*
X3905000Y-42693299D01*
X6400000Y-73500000D02*
X14900000Y-82000000D01*
X13101701Y-47000000D02*
X13875000Y-47773299D01*
X13875000Y-47773299D02*
X13875000Y-64925000D01*
X3905000Y-46206701D02*
X4698299Y-47000000D01*
%TO.N,LED_NEG*%
X9000000Y-96000000D02*
X3000000Y-90000000D01*
X6674695Y-72200000D02*
X10100000Y-72200000D01*
X10100000Y-72200000D02*
X11000000Y-71300000D01*
X9000000Y-96000000D02*
X8535000Y-95535000D01*
X3000000Y-55420000D02*
X5080000Y-53340000D01*
X8535000Y-95535000D02*
X8535000Y-81465000D01*
X8535000Y-81465000D02*
X5675000Y-78605000D01*
X5675000Y-78605000D02*
X5675000Y-73199695D01*
X5675000Y-73199695D02*
X6674695Y-72200000D01*
X3000000Y-90000000D02*
X3000000Y-55420000D01*
%TD*%
M02*
