%TF.GenerationSoftware,KiCad,Pcbnew,9.0.1*%
%TF.CreationDate,2025-05-21T23:19:58+01:00*%
%TF.ProjectId,stomp_01,73746f6d-705f-4303-912e-6b696361645f,rev?*%
%TF.SameCoordinates,Original*%
%TF.FileFunction,Copper,L1,Top*%
%TF.FilePolarity,Positive*%
%FSLAX46Y46*%
G04 Gerber Fmt 4.6, Leading zero omitted, Abs format (unit mm)*
G04 Created by KiCad (PCBNEW 9.0.1) date 2025-05-21 23:19:58*
%MOMM*%
%LPD*%
G01*
G04 APERTURE LIST*
G04 Aperture macros list*
%AMRoundRect*
0 Rectangle with rounded corners*
0 $1 Rounding radius*
0 $2 $3 $4 $5 $6 $7 $8 $9 X,Y pos of 4 corners*
0 Add a 4 corners polygon primitive as box body*
4,1,4,$2,$3,$4,$5,$6,$7,$8,$9,$2,$3,0*
0 Add four circle primitives for the rounded corners*
1,1,$1+$1,$2,$3*
1,1,$1+$1,$4,$5*
1,1,$1+$1,$6,$7*
1,1,$1+$1,$8,$9*
0 Add four rect primitives between the rounded corners*
20,1,$1+$1,$2,$3,$4,$5,0*
20,1,$1+$1,$4,$5,$6,$7,0*
20,1,$1+$1,$6,$7,$8,$9,0*
20,1,$1+$1,$8,$9,$2,$3,0*%
G04 Aperture macros list end*
%TA.AperFunction,SMDPad,CuDef*%
%ADD10RoundRect,0.225000X-0.225000X-0.250000X0.225000X-0.250000X0.225000X0.250000X-0.225000X0.250000X0*%
%TD*%
%TA.AperFunction,SMDPad,CuDef*%
%ADD11RoundRect,0.200000X0.200000X0.275000X-0.200000X0.275000X-0.200000X-0.275000X0.200000X-0.275000X0*%
%TD*%
%TA.AperFunction,ComponentPad*%
%ADD12C,1.700000*%
%TD*%
%TA.AperFunction,ComponentPad*%
%ADD13O,1.700000X1.700000*%
%TD*%
%TA.AperFunction,SMDPad,CuDef*%
%ADD14RoundRect,0.250000X-0.600000X-2.600000X0.600000X-2.600000X0.600000X2.600000X-0.600000X2.600000X0*%
%TD*%
%TA.AperFunction,SMDPad,CuDef*%
%ADD15RoundRect,0.200000X-0.275000X0.200000X-0.275000X-0.200000X0.275000X-0.200000X0.275000X0.200000X0*%
%TD*%
%TA.AperFunction,SMDPad,CuDef*%
%ADD16RoundRect,0.200000X0.275000X-0.200000X0.275000X0.200000X-0.275000X0.200000X-0.275000X-0.200000X0*%
%TD*%
%TA.AperFunction,SMDPad,CuDef*%
%ADD17RoundRect,0.225000X0.225000X0.250000X-0.225000X0.250000X-0.225000X-0.250000X0.225000X-0.250000X0*%
%TD*%
%TA.AperFunction,SMDPad,CuDef*%
%ADD18RoundRect,0.250000X0.650000X-1.000000X0.650000X1.000000X-0.650000X1.000000X-0.650000X-1.000000X0*%
%TD*%
%TA.AperFunction,ComponentPad*%
%ADD19C,1.600000*%
%TD*%
%TA.AperFunction,ComponentPad*%
%ADD20O,1.600000X1.600000*%
%TD*%
%TA.AperFunction,SMDPad,CuDef*%
%ADD21RoundRect,0.150000X0.150000X-0.825000X0.150000X0.825000X-0.150000X0.825000X-0.150000X-0.825000X0*%
%TD*%
%TA.AperFunction,SMDPad,CuDef*%
%ADD22RoundRect,0.050000X-0.375000X-0.050000X0.375000X-0.050000X0.375000X0.050000X-0.375000X0.050000X0*%
%TD*%
%TA.AperFunction,SMDPad,CuDef*%
%ADD23RoundRect,0.050000X-0.050000X-0.375000X0.050000X-0.375000X0.050000X0.375000X-0.050000X0.375000X0*%
%TD*%
%TA.AperFunction,HeatsinkPad*%
%ADD24R,1.650000X1.650000*%
%TD*%
%TA.AperFunction,SMDPad,CuDef*%
%ADD25RoundRect,0.200000X-0.200000X-0.275000X0.200000X-0.275000X0.200000X0.275000X-0.200000X0.275000X0*%
%TD*%
%TA.AperFunction,SMDPad,CuDef*%
%ADD26RoundRect,0.218750X0.218750X0.256250X-0.218750X0.256250X-0.218750X-0.256250X0.218750X-0.256250X0*%
%TD*%
%TA.AperFunction,SMDPad,CuDef*%
%ADD27RoundRect,0.225000X0.250000X-0.225000X0.250000X0.225000X-0.250000X0.225000X-0.250000X-0.225000X0*%
%TD*%
%TA.AperFunction,SMDPad,CuDef*%
%ADD28RoundRect,0.150000X-0.150000X0.825000X-0.150000X-0.825000X0.150000X-0.825000X0.150000X0.825000X0*%
%TD*%
%TA.AperFunction,SMDPad,CuDef*%
%ADD29RoundRect,0.250000X-0.250000X-0.475000X0.250000X-0.475000X0.250000X0.475000X-0.250000X0.475000X0*%
%TD*%
%TA.AperFunction,ComponentPad*%
%ADD30RoundRect,0.250000X-1.125000X-1.125000X1.125000X-1.125000X1.125000X1.125000X-1.125000X1.125000X0*%
%TD*%
%TA.AperFunction,ComponentPad*%
%ADD31C,2.750000*%
%TD*%
%TA.AperFunction,ComponentPad*%
%ADD32RoundRect,0.250000X1.125000X1.125000X-1.125000X1.125000X-1.125000X-1.125000X1.125000X-1.125000X0*%
%TD*%
%TA.AperFunction,SMDPad,CuDef*%
%ADD33RoundRect,0.225000X-0.250000X0.225000X-0.250000X-0.225000X0.250000X-0.225000X0.250000X0.225000X0*%
%TD*%
%TA.AperFunction,SMDPad,CuDef*%
%ADD34RoundRect,0.150000X0.150000X-0.587500X0.150000X0.587500X-0.150000X0.587500X-0.150000X-0.587500X0*%
%TD*%
%TA.AperFunction,ComponentPad*%
%ADD35R,1.700000X1.700000*%
%TD*%
%TA.AperFunction,SMDPad,CuDef*%
%ADD36RoundRect,0.250000X1.100000X-0.325000X1.100000X0.325000X-1.100000X0.325000X-1.100000X-0.325000X0*%
%TD*%
%TA.AperFunction,ComponentPad*%
%ADD37R,2.200000X2.200000*%
%TD*%
%TA.AperFunction,ComponentPad*%
%ADD38O,2.200000X2.200000*%
%TD*%
%TA.AperFunction,ComponentPad*%
%ADD39R,1.800000X1.800000*%
%TD*%
%TA.AperFunction,ComponentPad*%
%ADD40C,1.800000*%
%TD*%
%TA.AperFunction,ComponentPad*%
%ADD41O,4.500000X2.800000*%
%TD*%
%TA.AperFunction,ViaPad*%
%ADD42C,0.800000*%
%TD*%
%TA.AperFunction,Conductor*%
%ADD43C,0.500000*%
%TD*%
%TA.AperFunction,Conductor*%
%ADD44C,0.250000*%
%TD*%
%TA.AperFunction,Conductor*%
%ADD45C,0.200000*%
%TD*%
G04 APERTURE END LIST*
D10*
%TO.P,C21,1*%
%TO.N,+1V8*%
X103525000Y-52750000D03*
%TO.P,C21,2*%
%TO.N,GND*%
X105075000Y-52750000D03*
%TD*%
D11*
%TO.P,R19,1*%
%TO.N,DAC_SCL*%
X110300000Y-63800000D03*
%TO.P,R19,2*%
%TO.N,+3.3V*%
X108650000Y-63800000D03*
%TD*%
D12*
%TO.P,J10,1,Pin_1*%
%TO.N,unconnected-(J10-Pin_1-Pad1)*%
X127860000Y-64030000D03*
D13*
%TO.P,J10,2,Pin_2*%
%TO.N,unconnected-(J10-Pin_2-Pad2)*%
X127860000Y-66570000D03*
%TO.P,J10,3,Pin_3*%
%TO.N,unconnected-(J10-Pin_3-Pad3)*%
X127860000Y-69110000D03*
%TO.P,J10,4,Pin_4*%
%TO.N,unconnected-(J10-Pin_4-Pad4)*%
X127860000Y-71650000D03*
%TO.P,J10,5,Pin_5*%
%TO.N,unconnected-(J10-Pin_5-Pad5)*%
X127860000Y-74190000D03*
%TO.P,J10,6,Pin_6*%
%TO.N,unconnected-(J10-Pin_6-Pad6)*%
X127860000Y-76730000D03*
%TO.P,J10,7,Pin_7*%
%TO.N,unconnected-(J10-Pin_7-Pad7)*%
X127860000Y-79270000D03*
%TO.P,J10,8,Pin_8*%
%TO.N,unconnected-(J10-Pin_8-Pad8)*%
X127860000Y-81810000D03*
%TO.P,J10,9,Pin_9*%
%TO.N,unconnected-(J10-Pin_9-Pad9)*%
X127860000Y-84350000D03*
%TO.P,J10,10,Pin_10*%
%TO.N,unconnected-(J10-Pin_10-Pad10)*%
X127860000Y-86890000D03*
%TO.P,J10,11,Pin_11*%
%TO.N,unconnected-(J10-Pin_11-Pad11)*%
X127860000Y-89430000D03*
%TO.P,J10,12,Pin_12*%
%TO.N,unconnected-(J10-Pin_12-Pad12)*%
X127860000Y-91970000D03*
%TO.P,J10,13,Pin_13*%
%TO.N,unconnected-(J10-Pin_13-Pad13)*%
X127860000Y-94510000D03*
%TO.P,J10,14,Pin_14*%
%TO.N,unconnected-(J10-Pin_14-Pad14)*%
X127860000Y-97050000D03*
%TO.P,J10,15,Pin_15*%
%TO.N,unconnected-(J10-Pin_15-Pad15)*%
X127860000Y-99590000D03*
%TO.P,J10,16,Pin_16*%
%TO.N,unconnected-(J10-Pin_16-Pad16)*%
X127860000Y-102130000D03*
%TO.P,J10,17,Pin_17*%
%TO.N,unconnected-(J10-Pin_17-Pad17)*%
X127860000Y-104670000D03*
%TO.P,J10,18,Pin_18*%
%TO.N,unconnected-(J10-Pin_18-Pad18)*%
X127860000Y-107210000D03*
%TD*%
D14*
%TO.P,L1,1,1*%
%TO.N,Net-(D2-K)*%
X104750000Y-126000000D03*
%TO.P,L1,2,2*%
%TO.N,+5V*%
X109250000Y-126000000D03*
%TD*%
D10*
%TO.P,C7,1*%
%TO.N,PREAMP_IN_L*%
X88125000Y-123200000D03*
%TO.P,C7,2*%
%TO.N,Net-(U3A-+)*%
X89675000Y-123200000D03*
%TD*%
D15*
%TO.P,R10,1*%
%TO.N,Net-(C9-Pad2)*%
X108200000Y-92475000D03*
%TO.P,R10,2*%
%TO.N,Net-(U3A--)*%
X108200000Y-94125000D03*
%TD*%
D16*
%TO.P,R23,1*%
%TO.N,LINE_OUT_R*%
X84000000Y-125975000D03*
%TO.P,R23,2*%
%TO.N,Net-(C25-Pad2)*%
X84000000Y-124325000D03*
%TD*%
D12*
%TO.P,J3,1,Pin_1*%
%TO.N,unconnected-(J3-Pin_1-Pad1)*%
X87218145Y-64031512D03*
D13*
%TO.P,J3,2,Pin_2*%
%TO.N,unconnected-(J3-Pin_2-Pad2)*%
X87218145Y-66571512D03*
%TO.P,J3,3,Pin_3*%
%TO.N,unconnected-(J3-Pin_3-Pad3)*%
X87218145Y-69111512D03*
%TO.P,J3,4,Pin_4*%
%TO.N,unconnected-(J3-Pin_4-Pad4)*%
X87218145Y-71651512D03*
%TO.P,J3,5,Pin_5*%
%TO.N,unconnected-(J3-Pin_5-Pad5)*%
X87218145Y-74191512D03*
%TO.P,J3,6,Pin_6*%
%TO.N,unconnected-(J3-Pin_6-Pad6)*%
X87218145Y-76731512D03*
%TO.P,J3,7,Pin_7*%
%TO.N,unconnected-(J3-Pin_7-Pad7)*%
X87218145Y-79271512D03*
%TO.P,J3,8,Pin_8*%
%TO.N,unconnected-(J3-Pin_8-Pad8)*%
X87218145Y-81811512D03*
%TO.P,J3,9,Pin_9*%
%TO.N,unconnected-(J3-Pin_9-Pad9)*%
X87218145Y-84351512D03*
%TO.P,J3,10,Pin_10*%
%TO.N,unconnected-(J3-Pin_10-Pad10)*%
X87218145Y-86891512D03*
%TO.P,J3,11,Pin_11*%
%TO.N,unconnected-(J3-Pin_11-Pad11)*%
X87218145Y-89431512D03*
%TO.P,J3,12,Pin_12*%
%TO.N,unconnected-(J3-Pin_12-Pad12)*%
X87218145Y-91971512D03*
%TO.P,J3,13,Pin_13*%
%TO.N,unconnected-(J3-Pin_13-Pad13)*%
X87218145Y-94511512D03*
%TO.P,J3,14,Pin_14*%
%TO.N,unconnected-(J3-Pin_14-Pad14)*%
X87218145Y-97051512D03*
%TO.P,J3,15,Pin_15*%
%TO.N,unconnected-(J3-Pin_15-Pad15)*%
X87218145Y-99591512D03*
%TO.P,J3,16,Pin_16*%
%TO.N,unconnected-(J3-Pin_16-Pad16)*%
X87218145Y-102131512D03*
%TO.P,J3,17,Pin_17*%
%TO.N,unconnected-(J3-Pin_17-Pad17)*%
X87218145Y-104671512D03*
%TO.P,J3,18,Pin_18*%
%TO.N,unconnected-(J3-Pin_18-Pad18)*%
X87218145Y-107211512D03*
%TD*%
D17*
%TO.P,C22,1*%
%TO.N,Net-(U5-VAG)*%
X101050000Y-60300000D03*
%TO.P,C22,2*%
%TO.N,GND*%
X99500000Y-60300000D03*
%TD*%
D12*
%TO.P,J5,1,Pin_1*%
%TO.N,unconnected-(J5-Pin_1-Pad1)*%
X92298145Y-48791512D03*
D13*
%TO.P,J5,2,Pin_2*%
%TO.N,unconnected-(J5-Pin_2-Pad2)*%
X92298145Y-51331512D03*
%TO.P,J5,3,Pin_3*%
%TO.N,unconnected-(J5-Pin_3-Pad3)*%
X92298145Y-53871512D03*
%TO.P,J5,4,Pin_4*%
%TO.N,unconnected-(J5-Pin_4-Pad4)*%
X92298145Y-56411512D03*
%TO.P,J5,5,Pin_5*%
%TO.N,unconnected-(J5-Pin_5-Pad5)*%
X92298145Y-58951512D03*
%TO.P,J5,6,Pin_6*%
%TO.N,unconnected-(J5-Pin_6-Pad6)*%
X92298145Y-61491512D03*
%TO.P,J5,7,Pin_7*%
%TO.N,unconnected-(J5-Pin_7-Pad7)*%
X92298145Y-64031512D03*
%TO.P,J5,8,Pin_8*%
%TO.N,unconnected-(J5-Pin_8-Pad8)*%
X92298145Y-66571512D03*
%TO.P,J5,9,Pin_9*%
%TO.N,unconnected-(J5-Pin_9-Pad9)*%
X92298145Y-69111512D03*
%TO.P,J5,10,Pin_10*%
%TO.N,unconnected-(J5-Pin_10-Pad10)*%
X92298145Y-71651512D03*
%TO.P,J5,11,Pin_11*%
%TO.N,unconnected-(J5-Pin_11-Pad11)*%
X92298145Y-74191512D03*
%TO.P,J5,12,Pin_12*%
%TO.N,unconnected-(J5-Pin_12-Pad12)*%
X92298145Y-76731512D03*
%TO.P,J5,13,Pin_13*%
%TO.N,unconnected-(J5-Pin_13-Pad13)*%
X92298145Y-79271512D03*
%TO.P,J5,14,Pin_14*%
%TO.N,unconnected-(J5-Pin_14-Pad14)*%
X92298145Y-81811512D03*
%TO.P,J5,15,Pin_15*%
%TO.N,unconnected-(J5-Pin_15-Pad15)*%
X92298145Y-84351512D03*
%TO.P,J5,16,Pin_16*%
%TO.N,unconnected-(J5-Pin_16-Pad16)*%
X92298145Y-86891512D03*
%TO.P,J5,17,Pin_17*%
%TO.N,unconnected-(J5-Pin_17-Pad17)*%
X92298145Y-89431512D03*
%TO.P,J5,18,Pin_18*%
%TO.N,unconnected-(J5-Pin_18-Pad18)*%
X92298145Y-91971512D03*
%TO.P,J5,19,Pin_19*%
%TO.N,unconnected-(J5-Pin_19-Pad19)*%
X92298145Y-94511512D03*
%TO.P,J5,20,Pin_20*%
%TO.N,unconnected-(J5-Pin_20-Pad20)*%
X92298145Y-97051512D03*
%TO.P,J5,21,Pin_21*%
%TO.N,unconnected-(J5-Pin_21-Pad21)*%
X92298145Y-99591512D03*
%TO.P,J5,22,Pin_22*%
%TO.N,unconnected-(J5-Pin_22-Pad22)*%
X92298145Y-102131512D03*
%TO.P,J5,23,Pin_23*%
%TO.N,unconnected-(J5-Pin_23-Pad23)*%
X92298145Y-104671512D03*
%TO.P,J5,24,Pin_24*%
%TO.N,unconnected-(J5-Pin_24-Pad24)*%
X92298145Y-107211512D03*
%TD*%
D18*
%TO.P,D2,1,K*%
%TO.N,Net-(D2-K)*%
X108800000Y-121000000D03*
%TO.P,D2,2,A*%
%TO.N,GND*%
X108800000Y-117000000D03*
%TD*%
D16*
%TO.P,R17,1*%
%TO.N,Net-(JP2-B)*%
X101550000Y-75875000D03*
%TO.P,R17,2*%
%TO.N,Net-(C15-Pad1)*%
X101550000Y-74225000D03*
%TD*%
D19*
%TO.P,R25,1*%
%TO.N,Net-(D5-A)*%
X93000000Y-147000000D03*
D20*
%TO.P,R25,2*%
%TO.N,+3.3V*%
X93000000Y-139380000D03*
%TD*%
D21*
%TO.P,U3,1*%
%TO.N,Net-(JP1-B)*%
X102800000Y-89650000D03*
%TO.P,U3,2,-*%
%TO.N,Net-(U3A--)*%
X104070000Y-89650000D03*
%TO.P,U3,3,+*%
%TO.N,Net-(U3A-+)*%
X105340000Y-89650000D03*
%TO.P,U3,4,V-*%
%TO.N,GND*%
X106610000Y-89650000D03*
%TO.P,U3,5,+*%
%TO.N,Net-(U3B-+)*%
X106610000Y-84700000D03*
%TO.P,U3,6,-*%
%TO.N,Net-(U3B--)*%
X105340000Y-84700000D03*
%TO.P,U3,7*%
%TO.N,Net-(JP2-B)*%
X104070000Y-84700000D03*
%TO.P,U3,8,V+*%
%TO.N,+9V*%
X102800000Y-84700000D03*
%TD*%
D22*
%TO.P,U5,1,HP_R*%
%TO.N,HEADPHONES_RIGHT*%
X103150000Y-56050000D03*
%TO.P,U5,2,HP_VGND*%
%TO.N,HEADPHONES_GND*%
X103150000Y-56450000D03*
%TO.P,U5,3,VDDA*%
%TO.N,Net-(U5-VDDA)*%
X103150000Y-56850000D03*
%TO.P,U5,4,HP_L*%
%TO.N,HEADPHONES_LEFT*%
X103150000Y-57250000D03*
%TO.P,U5,5,VAG*%
%TO.N,Net-(U5-VAG)*%
X103150000Y-57650000D03*
D23*
%TO.P,U5,6,LINEOUT_R*%
%TO.N,Net-(U5-LINEOUT_R)*%
X103800000Y-58300000D03*
%TO.P,U5,7,LINEOUT_L*%
%TO.N,Net-(U5-LINEOUT_L)*%
X104200000Y-58300000D03*
%TO.P,U5,8,LINEIN_R*%
%TO.N,LINE_IN_R*%
X104600000Y-58300000D03*
%TO.P,U5,9,LINEIN_L*%
%TO.N,LINE_IN_L*%
X105000000Y-58300000D03*
%TO.P,U5,10,MIC*%
%TO.N,GND*%
X105400000Y-58300000D03*
D22*
%TO.P,U5,11,MIC_BIAS*%
X106050000Y-57650000D03*
%TO.P,U5,12,VDDIO*%
%TO.N,+3.3V*%
X106050000Y-57250000D03*
%TO.P,U5,13,SYS_MCLK*%
%TO.N,Net-(U5-SYS_MCLK)*%
X106050000Y-56850000D03*
%TO.P,U5,14,I2S_LRCLK*%
%TO.N,DAC_LRCLK*%
X106050000Y-56450000D03*
%TO.P,U5,15,I2S_SCLK*%
%TO.N,DAC_BCLK*%
X106050000Y-56050000D03*
D23*
%TO.P,U5,16,I2S_DOUT*%
%TO.N,DAC_DOUT*%
X105400000Y-55400000D03*
%TO.P,U5,17,I2S_DIN*%
%TO.N,DAC_DIN*%
X105000000Y-55400000D03*
%TO.P,U5,18,CTRL_DATA*%
%TO.N,DAC_SDA*%
X104600000Y-55400000D03*
%TO.P,U5,19,CTRL_CLK*%
%TO.N,DAC_SCL*%
X104200000Y-55400000D03*
%TO.P,U5,20,VDDD*%
%TO.N,+1V8*%
X103800000Y-55400000D03*
D24*
%TO.P,U5,21,GND*%
%TO.N,GND*%
X104600000Y-56850000D03*
%TD*%
D25*
%TO.P,R20,1*%
%TO.N,Net-(U5-SYS_MCLK)*%
X107075000Y-51000000D03*
%TO.P,R20,2*%
%TO.N,DAC_MCLK*%
X108725000Y-51000000D03*
%TD*%
D16*
%TO.P,R16,1*%
%TO.N,Net-(JP1-B)*%
X107050000Y-75875000D03*
%TO.P,R16,2*%
%TO.N,Net-(C14-Pad1)*%
X107050000Y-74225000D03*
%TD*%
D26*
%TO.P,FB1,1*%
%TO.N,+3.3V*%
X108687500Y-49250000D03*
%TO.P,FB1,2*%
%TO.N,Net-(U5-VDDA)*%
X107112500Y-49250000D03*
%TD*%
D27*
%TO.P,C4,1*%
%TO.N,Net-(C4-Pad1)*%
X99225000Y-124775000D03*
%TO.P,C4,2*%
%TO.N,GND*%
X99225000Y-123225000D03*
%TD*%
D28*
%TO.P,U2,1,BOOT*%
%TO.N,Net-(U2-BOOT)*%
X103705000Y-115525000D03*
%TO.P,U2,2,VIN*%
%TO.N,+9V*%
X102435000Y-115525000D03*
%TO.P,U2,3,EN*%
%TO.N,unconnected-(U2-EN-Pad3)*%
X101165000Y-115525000D03*
%TO.P,U2,4,SS*%
%TO.N,Net-(U2-SS)*%
X99895000Y-115525000D03*
%TO.P,U2,5,VSENSE*%
%TO.N,Net-(U2-VSENSE)*%
X99895000Y-120475000D03*
%TO.P,U2,6,COMP*%
%TO.N,Net-(U2-COMP)*%
X101165000Y-120475000D03*
%TO.P,U2,7,GND*%
%TO.N,GND*%
X102435000Y-120475000D03*
%TO.P,U2,8,PH*%
%TO.N,Net-(D2-K)*%
X103705000Y-120475000D03*
%TD*%
D10*
%TO.P,C8,1*%
%TO.N,PREAMP_IN_R*%
X91225000Y-123200000D03*
%TO.P,C8,2*%
%TO.N,Net-(U3B-+)*%
X92775000Y-123200000D03*
%TD*%
D11*
%TO.P,R15,1*%
%TO.N,Net-(U3B--)*%
X106700000Y-82600000D03*
%TO.P,R15,2*%
%TO.N,Net-(JP2-A)*%
X105050000Y-82600000D03*
%TD*%
%TO.P,R18,1*%
%TO.N,DAC_SDA*%
X110300000Y-66400000D03*
%TO.P,R18,2*%
%TO.N,+3.3V*%
X108650000Y-66400000D03*
%TD*%
D15*
%TO.P,R3,1*%
%TO.N,Net-(U2-VSENSE)*%
X99225000Y-127650000D03*
%TO.P,R3,2*%
%TO.N,GND*%
X99225000Y-129300000D03*
%TD*%
D29*
%TO.P,C1,1*%
%TO.N,+9V*%
X105850000Y-113775000D03*
%TO.P,C1,2*%
%TO.N,GND*%
X107750000Y-113775000D03*
%TD*%
D12*
%TO.P,J4,1,Pin_1*%
%TO.N,HEADPHONES_LEFT*%
X89758145Y-48791512D03*
D13*
%TO.P,J4,2,Pin_2*%
%TO.N,HEADPHONES_GND*%
X89758145Y-51331512D03*
%TO.P,J4,3,Pin_3*%
%TO.N,HEADPHONES_RIGHT*%
X89758145Y-53871512D03*
%TO.P,J4,4,Pin_4*%
%TO.N,unconnected-(J4-Pin_4-Pad4)*%
X89758145Y-56411512D03*
%TO.P,J4,5,Pin_5*%
%TO.N,unconnected-(J4-Pin_5-Pad5)*%
X89758145Y-58951512D03*
%TO.P,J4,6,Pin_6*%
%TO.N,unconnected-(J4-Pin_6-Pad6)*%
X89758145Y-61491512D03*
%TO.P,J4,7,Pin_7*%
%TO.N,unconnected-(J4-Pin_7-Pad7)*%
X89758145Y-64031512D03*
%TO.P,J4,8,Pin_8*%
%TO.N,unconnected-(J4-Pin_8-Pad8)*%
X89758145Y-66571512D03*
%TO.P,J4,9,Pin_9*%
%TO.N,unconnected-(J4-Pin_9-Pad9)*%
X89758145Y-69111512D03*
%TO.P,J4,10,Pin_10*%
%TO.N,unconnected-(J4-Pin_10-Pad10)*%
X89758145Y-71651512D03*
%TO.P,J4,11,Pin_11*%
%TO.N,unconnected-(J4-Pin_11-Pad11)*%
X89758145Y-74191512D03*
%TO.P,J4,12,Pin_12*%
%TO.N,unconnected-(J4-Pin_12-Pad12)*%
X89758145Y-76731512D03*
%TO.P,J4,13,Pin_13*%
%TO.N,unconnected-(J4-Pin_13-Pad13)*%
X89758145Y-79271512D03*
%TO.P,J4,14,Pin_14*%
%TO.N,unconnected-(J4-Pin_14-Pad14)*%
X89758145Y-81811512D03*
%TO.P,J4,15,Pin_15*%
%TO.N,unconnected-(J4-Pin_15-Pad15)*%
X89758145Y-84351512D03*
%TO.P,J4,16,Pin_16*%
%TO.N,unconnected-(J4-Pin_16-Pad16)*%
X89758145Y-86891512D03*
%TO.P,J4,17,Pin_17*%
%TO.N,unconnected-(J4-Pin_17-Pad17)*%
X89758145Y-89431512D03*
%TO.P,J4,18,Pin_18*%
%TO.N,unconnected-(J4-Pin_18-Pad18)*%
X89758145Y-91971512D03*
%TO.P,J4,19,Pin_19*%
%TO.N,unconnected-(J4-Pin_19-Pad19)*%
X89758145Y-94511512D03*
%TO.P,J4,20,Pin_20*%
%TO.N,unconnected-(J4-Pin_20-Pad20)*%
X89758145Y-97051512D03*
%TO.P,J4,21,Pin_21*%
%TO.N,unconnected-(J4-Pin_21-Pad21)*%
X89758145Y-99591512D03*
%TO.P,J4,22,Pin_22*%
%TO.N,unconnected-(J4-Pin_22-Pad22)*%
X89758145Y-102131512D03*
%TO.P,J4,23,Pin_23*%
%TO.N,unconnected-(J4-Pin_23-Pad23)*%
X89758145Y-104671512D03*
%TO.P,J4,24,Pin_24*%
%TO.N,unconnected-(J4-Pin_24-Pad24)*%
X89758145Y-107211512D03*
%TD*%
D30*
%TO.P,J15,1,Pin_1*%
%TO.N,JACK_OUT*%
X83000000Y-111000000D03*
D31*
%TO.P,J15,2,Pin_2*%
%TO.N,GND*%
X88400000Y-111000000D03*
%TD*%
D12*
%TO.P,J2,1,Pin_1*%
%TO.N,unconnected-(J2-Pin_1-Pad1)*%
X84678145Y-64031512D03*
D13*
%TO.P,J2,2,Pin_2*%
%TO.N,unconnected-(J2-Pin_2-Pad2)*%
X84678145Y-66571512D03*
%TO.P,J2,3,Pin_3*%
%TO.N,unconnected-(J2-Pin_3-Pad3)*%
X84678145Y-69111512D03*
%TO.P,J2,4,Pin_4*%
%TO.N,unconnected-(J2-Pin_4-Pad4)*%
X84678145Y-71651512D03*
%TO.P,J2,5,Pin_5*%
%TO.N,unconnected-(J2-Pin_5-Pad5)*%
X84678145Y-74191512D03*
%TO.P,J2,6,Pin_6*%
%TO.N,unconnected-(J2-Pin_6-Pad6)*%
X84678145Y-76731512D03*
%TO.P,J2,7,Pin_7*%
%TO.N,unconnected-(J2-Pin_7-Pad7)*%
X84678145Y-79271512D03*
%TO.P,J2,8,Pin_8*%
%TO.N,unconnected-(J2-Pin_8-Pad8)*%
X84678145Y-81811512D03*
%TO.P,J2,9,Pin_9*%
%TO.N,unconnected-(J2-Pin_9-Pad9)*%
X84678145Y-84351512D03*
%TO.P,J2,10,Pin_10*%
%TO.N,unconnected-(J2-Pin_10-Pad10)*%
X84678145Y-86891512D03*
%TO.P,J2,11,Pin_11*%
%TO.N,unconnected-(J2-Pin_11-Pad11)*%
X84678145Y-89431512D03*
%TO.P,J2,12,Pin_12*%
%TO.N,unconnected-(J2-Pin_12-Pad12)*%
X84678145Y-91971512D03*
%TO.P,J2,13,Pin_13*%
%TO.N,unconnected-(J2-Pin_13-Pad13)*%
X84678145Y-94511512D03*
%TO.P,J2,14,Pin_14*%
%TO.N,unconnected-(J2-Pin_14-Pad14)*%
X84678145Y-97051512D03*
%TO.P,J2,15,Pin_15*%
%TO.N,unconnected-(J2-Pin_15-Pad15)*%
X84678145Y-99591512D03*
%TO.P,J2,16,Pin_16*%
%TO.N,unconnected-(J2-Pin_16-Pad16)*%
X84678145Y-102131512D03*
%TO.P,J2,17,Pin_17*%
%TO.N,unconnected-(J2-Pin_17-Pad17)*%
X84678145Y-104671512D03*
%TO.P,J2,18,Pin_18*%
%TO.N,unconnected-(J2-Pin_18-Pad18)*%
X84678145Y-107211512D03*
%TD*%
D32*
%TO.P,J11,1*%
%TO.N,GND*%
X108000000Y-110400000D03*
D31*
%TO.P,J11,2*%
%TO.N,Net-(D1-A)*%
X102600000Y-110400000D03*
%TD*%
D33*
%TO.P,C16,1*%
%TO.N,LINE_IN_L*%
X105450000Y-71200000D03*
%TO.P,C16,2*%
%TO.N,Net-(C14-Pad1)*%
X105450000Y-72750000D03*
%TD*%
D34*
%TO.P,U4,1,VI*%
%TO.N,+3.3V*%
X103450000Y-50937500D03*
%TO.P,U4,2,VO*%
%TO.N,+1V8*%
X105350000Y-50937500D03*
%TO.P,U4,3,GND*%
%TO.N,GND*%
X104400000Y-49062500D03*
%TD*%
D16*
%TO.P,R11,1*%
%TO.N,Net-(C10-Pad2)*%
X108300000Y-84200000D03*
%TO.P,R11,2*%
%TO.N,Net-(U3B--)*%
X108300000Y-82550000D03*
%TD*%
D11*
%TO.P,R13,1*%
%TO.N,Net-(U3A--)*%
X106125000Y-92400000D03*
%TO.P,R13,2*%
%TO.N,Net-(JP1-A)*%
X104475000Y-92400000D03*
%TD*%
D34*
%TO.P,D4,1,A*%
%TO.N,GND*%
X101550000Y-69375000D03*
%TO.P,D4,2,K*%
%TO.N,+3.3V*%
X103450000Y-69375000D03*
%TO.P,D4,3,COM*%
%TO.N,LINE_IN_R*%
X102500000Y-67500000D03*
%TD*%
D12*
%TO.P,J9,1,Pin_1*%
%TO.N,unconnected-(J9-Pin_1-Pad1)*%
X125320000Y-64030000D03*
D13*
%TO.P,J9,2,Pin_2*%
%TO.N,unconnected-(J9-Pin_2-Pad2)*%
X125320000Y-66570000D03*
%TO.P,J9,3,Pin_3*%
%TO.N,unconnected-(J9-Pin_3-Pad3)*%
X125320000Y-69110000D03*
%TO.P,J9,4,Pin_4*%
%TO.N,unconnected-(J9-Pin_4-Pad4)*%
X125320000Y-71650000D03*
%TO.P,J9,5,Pin_5*%
%TO.N,unconnected-(J9-Pin_5-Pad5)*%
X125320000Y-74190000D03*
%TO.P,J9,6,Pin_6*%
%TO.N,unconnected-(J9-Pin_6-Pad6)*%
X125320000Y-76730000D03*
%TO.P,J9,7,Pin_7*%
%TO.N,unconnected-(J9-Pin_7-Pad7)*%
X125320000Y-79270000D03*
%TO.P,J9,8,Pin_8*%
%TO.N,unconnected-(J9-Pin_8-Pad8)*%
X125320000Y-81810000D03*
%TO.P,J9,9,Pin_9*%
%TO.N,unconnected-(J9-Pin_9-Pad9)*%
X125320000Y-84350000D03*
%TO.P,J9,10,Pin_10*%
%TO.N,unconnected-(J9-Pin_10-Pad10)*%
X125320000Y-86890000D03*
%TO.P,J9,11,Pin_11*%
%TO.N,unconnected-(J9-Pin_11-Pad11)*%
X125320000Y-89430000D03*
%TO.P,J9,12,Pin_12*%
%TO.N,unconnected-(J9-Pin_12-Pad12)*%
X125320000Y-91970000D03*
%TO.P,J9,13,Pin_13*%
%TO.N,unconnected-(J9-Pin_13-Pad13)*%
X125320000Y-94510000D03*
%TO.P,J9,14,Pin_14*%
%TO.N,unconnected-(J9-Pin_14-Pad14)*%
X125320000Y-97050000D03*
%TO.P,J9,15,Pin_15*%
%TO.N,unconnected-(J9-Pin_15-Pad15)*%
X125320000Y-99590000D03*
%TO.P,J9,16,Pin_16*%
%TO.N,unconnected-(J9-Pin_16-Pad16)*%
X125320000Y-102130000D03*
%TO.P,J9,17,Pin_17*%
%TO.N,unconnected-(J9-Pin_17-Pad17)*%
X125320000Y-104670000D03*
%TO.P,J9,18,Pin_18*%
%TO.N,unconnected-(J9-Pin_18-Pad18)*%
X125320000Y-107210000D03*
%TD*%
D12*
%TO.P,J8,1,Pin_1*%
%TO.N,unconnected-(J8-Pin_1-Pad1)*%
X122780000Y-64030000D03*
D13*
%TO.P,J8,2,Pin_2*%
%TO.N,unconnected-(J8-Pin_2-Pad2)*%
X122780000Y-66570000D03*
%TO.P,J8,3,Pin_3*%
%TO.N,unconnected-(J8-Pin_3-Pad3)*%
X122780000Y-69110000D03*
%TO.P,J8,4,Pin_4*%
%TO.N,unconnected-(J8-Pin_4-Pad4)*%
X122780000Y-71650000D03*
%TO.P,J8,5,Pin_5*%
%TO.N,unconnected-(J8-Pin_5-Pad5)*%
X122780000Y-74190000D03*
%TO.P,J8,6,Pin_6*%
%TO.N,unconnected-(J8-Pin_6-Pad6)*%
X122780000Y-76730000D03*
%TO.P,J8,7,Pin_7*%
%TO.N,unconnected-(J8-Pin_7-Pad7)*%
X122780000Y-79270000D03*
%TO.P,J8,8,Pin_8*%
%TO.N,unconnected-(J8-Pin_8-Pad8)*%
X122780000Y-81810000D03*
%TO.P,J8,9,Pin_9*%
%TO.N,unconnected-(J8-Pin_9-Pad9)*%
X122780000Y-84350000D03*
%TO.P,J8,10,Pin_10*%
%TO.N,unconnected-(J8-Pin_10-Pad10)*%
X122780000Y-86890000D03*
%TO.P,J8,11,Pin_11*%
%TO.N,unconnected-(J8-Pin_11-Pad11)*%
X122780000Y-89430000D03*
%TO.P,J8,12,Pin_12*%
%TO.N,unconnected-(J8-Pin_12-Pad12)*%
X122780000Y-91970000D03*
%TO.P,J8,13,Pin_13*%
%TO.N,unconnected-(J8-Pin_13-Pad13)*%
X122780000Y-94510000D03*
%TO.P,J8,14,Pin_14*%
%TO.N,unconnected-(J8-Pin_14-Pad14)*%
X122780000Y-97050000D03*
%TO.P,J8,15,Pin_15*%
%TO.N,unconnected-(J8-Pin_15-Pad15)*%
X122780000Y-99590000D03*
%TO.P,J8,16,Pin_16*%
%TO.N,unconnected-(J8-Pin_16-Pad16)*%
X122780000Y-102130000D03*
%TO.P,J8,17,Pin_17*%
%TO.N,unconnected-(J8-Pin_17-Pad17)*%
X122780000Y-104670000D03*
%TO.P,J8,18,Pin_18*%
%TO.N,unconnected-(J8-Pin_18-Pad18)*%
X122780000Y-107210000D03*
%TD*%
D16*
%TO.P,R22,1*%
%TO.N,GND*%
X84000000Y-122875000D03*
%TO.P,R22,2*%
%TO.N,Net-(C25-Pad2)*%
X84000000Y-121225000D03*
%TD*%
D12*
%TO.P,J7,1,Pin_1*%
%TO.N,unconnected-(J7-Pin_1-Pad1)*%
X120240000Y-48790000D03*
D13*
%TO.P,J7,2,Pin_2*%
%TO.N,unconnected-(J7-Pin_2-Pad2)*%
X120240000Y-51330000D03*
%TO.P,J7,3,Pin_3*%
%TO.N,unconnected-(J7-Pin_3-Pad3)*%
X120240000Y-53870000D03*
%TO.P,J7,4,Pin_4*%
%TO.N,unconnected-(J7-Pin_4-Pad4)*%
X120240000Y-56410000D03*
%TO.P,J7,5,Pin_5*%
%TO.N,unconnected-(J7-Pin_5-Pad5)*%
X120240000Y-58950000D03*
%TO.P,J7,6,Pin_6*%
%TO.N,unconnected-(J7-Pin_6-Pad6)*%
X120240000Y-61490000D03*
%TO.P,J7,7,Pin_7*%
%TO.N,unconnected-(J7-Pin_7-Pad7)*%
X120240000Y-64030000D03*
%TO.P,J7,8,Pin_8*%
%TO.N,unconnected-(J7-Pin_8-Pad8)*%
X120240000Y-66570000D03*
%TO.P,J7,9,Pin_9*%
%TO.N,unconnected-(J7-Pin_9-Pad9)*%
X120240000Y-69110000D03*
%TO.P,J7,10,Pin_10*%
%TO.N,unconnected-(J7-Pin_10-Pad10)*%
X120240000Y-71650000D03*
%TO.P,J7,11,Pin_11*%
%TO.N,unconnected-(J7-Pin_11-Pad11)*%
X120240000Y-74190000D03*
%TO.P,J7,12,Pin_12*%
%TO.N,unconnected-(J7-Pin_12-Pad12)*%
X120240000Y-76730000D03*
%TO.P,J7,13,Pin_13*%
%TO.N,unconnected-(J7-Pin_13-Pad13)*%
X120240000Y-79270000D03*
%TO.P,J7,14,Pin_14*%
%TO.N,unconnected-(J7-Pin_14-Pad14)*%
X120240000Y-81810000D03*
%TO.P,J7,15,Pin_15*%
%TO.N,unconnected-(J7-Pin_15-Pad15)*%
X120240000Y-84350000D03*
%TO.P,J7,16,Pin_16*%
%TO.N,unconnected-(J7-Pin_16-Pad16)*%
X120240000Y-86890000D03*
%TO.P,J7,17,Pin_17*%
%TO.N,unconnected-(J7-Pin_17-Pad17)*%
X120240000Y-89430000D03*
%TO.P,J7,18,Pin_18*%
%TO.N,unconnected-(J7-Pin_18-Pad18)*%
X120240000Y-91970000D03*
%TO.P,J7,19,Pin_19*%
%TO.N,unconnected-(J7-Pin_19-Pad19)*%
X120240000Y-94510000D03*
%TO.P,J7,20,Pin_20*%
%TO.N,unconnected-(J7-Pin_20-Pad20)*%
X120240000Y-97050000D03*
%TO.P,J7,21,Pin_21*%
%TO.N,unconnected-(J7-Pin_21-Pad21)*%
X120240000Y-99590000D03*
%TO.P,J7,22,Pin_22*%
%TO.N,unconnected-(J7-Pin_22-Pad22)*%
X120240000Y-102130000D03*
%TO.P,J7,23,Pin_23*%
%TO.N,unconnected-(J7-Pin_23-Pad23)*%
X120240000Y-104670000D03*
%TO.P,J7,24,Pin_24*%
%TO.N,unconnected-(J7-Pin_24-Pad24)*%
X120240000Y-107210000D03*
%TD*%
D33*
%TO.P,C26,1*%
%TO.N,Net-(U5-LINEOUT_L)*%
X82400000Y-118225000D03*
%TO.P,C26,2*%
%TO.N,Net-(C26-Pad2)*%
X82400000Y-119775000D03*
%TD*%
D25*
%TO.P,R7,1*%
%TO.N,Net-(U3A-+)*%
X91175000Y-120000000D03*
%TO.P,R7,2*%
%TO.N,GND*%
X92825000Y-120000000D03*
%TD*%
D17*
%TO.P,C3,1*%
%TO.N,Net-(U2-SS)*%
X102267549Y-113286448D03*
%TO.P,C3,2*%
%TO.N,GND*%
X100717549Y-113286448D03*
%TD*%
D35*
%TO.P,J13,1,Pin_1*%
%TO.N,FOOTSWITCH_1*%
X88160000Y-136440000D03*
D13*
%TO.P,J13,2,Pin_2*%
%TO.N,FOOTSWITCH_2*%
X88160000Y-133900000D03*
%TO.P,J13,3,Pin_3*%
%TO.N,FOOTSWITCH_3*%
X88160000Y-131360000D03*
%TO.P,J13,4,Pin_4*%
%TO.N,FOOTSWITCH_4*%
X90700000Y-136440000D03*
%TO.P,J13,5,Pin_5*%
%TO.N,FOOTSWITCH_5*%
X90700000Y-133900000D03*
%TO.P,J13,6,Pin_6*%
%TO.N,FOOTSWITCH_6*%
X90700000Y-131360000D03*
%TO.P,J13,7,Pin_7*%
%TO.N,FOOTSWITCH_7*%
X93240000Y-136440000D03*
%TO.P,J13,8,Pin_8*%
%TO.N,FOOTSWITCH_8*%
X93240000Y-133900000D03*
%TO.P,J13,9,Pin_9*%
%TO.N,FOOTSWITCH_9*%
X93240000Y-131360000D03*
%TD*%
D34*
%TO.P,D3,1,A*%
%TO.N,GND*%
X105150000Y-69375000D03*
%TO.P,D3,2,K*%
%TO.N,+3.3V*%
X107050000Y-69375000D03*
%TO.P,D3,3,COM*%
%TO.N,LINE_IN_L*%
X106100000Y-67500000D03*
%TD*%
D27*
%TO.P,C23,1*%
%TO.N,Net-(U5-VDDA)*%
X99473289Y-57330660D03*
%TO.P,C23,2*%
%TO.N,GND*%
X99473289Y-55780660D03*
%TD*%
D12*
%TO.P,J6,1,Pin_1*%
%TO.N,unconnected-(J6-Pin_1-Pad1)*%
X117700000Y-48790000D03*
D13*
%TO.P,J6,2,Pin_2*%
%TO.N,unconnected-(J6-Pin_2-Pad2)*%
X117700000Y-51330000D03*
%TO.P,J6,3,Pin_3*%
%TO.N,unconnected-(J6-Pin_3-Pad3)*%
X117700000Y-53870000D03*
%TO.P,J6,4,Pin_4*%
%TO.N,unconnected-(J6-Pin_4-Pad4)*%
X117700000Y-56410000D03*
%TO.P,J6,5,Pin_5*%
%TO.N,unconnected-(J6-Pin_5-Pad5)*%
X117700000Y-58950000D03*
%TO.P,J6,6,Pin_6*%
%TO.N,unconnected-(J6-Pin_6-Pad6)*%
X117700000Y-61490000D03*
%TO.P,J6,7,Pin_7*%
%TO.N,unconnected-(J6-Pin_7-Pad7)*%
X117700000Y-64030000D03*
%TO.P,J6,8,Pin_8*%
%TO.N,unconnected-(J6-Pin_8-Pad8)*%
X117700000Y-66570000D03*
%TO.P,J6,9,Pin_9*%
%TO.N,unconnected-(J6-Pin_9-Pad9)*%
X117700000Y-69110000D03*
%TO.P,J6,10,Pin_10*%
%TO.N,unconnected-(J6-Pin_10-Pad10)*%
X117700000Y-71650000D03*
%TO.P,J6,11,Pin_11*%
%TO.N,unconnected-(J6-Pin_11-Pad11)*%
X117700000Y-74190000D03*
%TO.P,J6,12,Pin_12*%
%TO.N,unconnected-(J6-Pin_12-Pad12)*%
X117700000Y-76730000D03*
%TO.P,J6,13,Pin_13*%
%TO.N,unconnected-(J6-Pin_13-Pad13)*%
X117700000Y-79270000D03*
%TO.P,J6,14,Pin_14*%
%TO.N,unconnected-(J6-Pin_14-Pad14)*%
X117700000Y-81810000D03*
%TO.P,J6,15,Pin_15*%
%TO.N,unconnected-(J6-Pin_15-Pad15)*%
X117700000Y-84350000D03*
%TO.P,J6,16,Pin_16*%
%TO.N,unconnected-(J6-Pin_16-Pad16)*%
X117700000Y-86890000D03*
%TO.P,J6,17,Pin_17*%
%TO.N,unconnected-(J6-Pin_17-Pad17)*%
X117700000Y-89430000D03*
%TO.P,J6,18,Pin_18*%
%TO.N,unconnected-(J6-Pin_18-Pad18)*%
X117700000Y-91970000D03*
%TO.P,J6,19,Pin_19*%
%TO.N,unconnected-(J6-Pin_19-Pad19)*%
X117700000Y-94510000D03*
%TO.P,J6,20,Pin_20*%
%TO.N,unconnected-(J6-Pin_20-Pad20)*%
X117700000Y-97050000D03*
%TO.P,J6,21,Pin_21*%
%TO.N,unconnected-(J6-Pin_21-Pad21)*%
X117700000Y-99590000D03*
%TO.P,J6,22,Pin_22*%
%TO.N,unconnected-(J6-Pin_22-Pad22)*%
X117700000Y-102130000D03*
%TO.P,J6,23,Pin_23*%
%TO.N,unconnected-(J6-Pin_23-Pad23)*%
X117700000Y-104670000D03*
%TO.P,J6,24,Pin_24*%
%TO.N,unconnected-(J6-Pin_24-Pad24)*%
X117700000Y-107210000D03*
%TD*%
D27*
%TO.P,C24,1*%
%TO.N,Net-(U5-VDDA)*%
X101403050Y-57903558D03*
%TO.P,C24,2*%
%TO.N,GND*%
X101403050Y-56353558D03*
%TD*%
D25*
%TO.P,R8,1*%
%TO.N,+9V*%
X88075000Y-121600000D03*
%TO.P,R8,2*%
%TO.N,Net-(U3B-+)*%
X89725000Y-121600000D03*
%TD*%
D33*
%TO.P,C19,1*%
%TO.N,+3.3V*%
X109600000Y-57925000D03*
%TO.P,C19,2*%
%TO.N,GND*%
X109600000Y-59475000D03*
%TD*%
D25*
%TO.P,R6,1*%
%TO.N,+9V*%
X88075000Y-120000000D03*
%TO.P,R6,2*%
%TO.N,Net-(U3A-+)*%
X89725000Y-120000000D03*
%TD*%
D27*
%TO.P,C13,1*%
%TO.N,GND*%
X101100000Y-87550000D03*
%TO.P,C13,2*%
%TO.N,+9V*%
X101100000Y-86000000D03*
%TD*%
D16*
%TO.P,R21,1*%
%TO.N,GND*%
X82400000Y-122875000D03*
%TO.P,R21,2*%
%TO.N,Net-(C26-Pad2)*%
X82400000Y-121225000D03*
%TD*%
D33*
%TO.P,C17,1*%
%TO.N,LINE_IN_R*%
X103150000Y-71225000D03*
%TO.P,C17,2*%
%TO.N,Net-(C15-Pad1)*%
X103150000Y-72775000D03*
%TD*%
D30*
%TO.P,J14,1,Pin_1*%
%TO.N,JACK_IN*%
X121600000Y-111000000D03*
D31*
%TO.P,J14,2,Pin_2*%
%TO.N,GND*%
X127000000Y-111000000D03*
%TD*%
D33*
%TO.P,C14,1*%
%TO.N,Net-(C14-Pad1)*%
X105450000Y-74275000D03*
%TO.P,C14,2*%
%TO.N,GND*%
X105450000Y-75825000D03*
%TD*%
D11*
%TO.P,R1,1*%
%TO.N,Net-(U2-COMP)*%
X102625000Y-125225000D03*
%TO.P,R1,2*%
%TO.N,Net-(C4-Pad1)*%
X100975000Y-125225000D03*
%TD*%
D25*
%TO.P,R9,1*%
%TO.N,Net-(U3B-+)*%
X91175000Y-121600000D03*
%TO.P,R9,2*%
%TO.N,GND*%
X92825000Y-121600000D03*
%TD*%
D17*
%TO.P,C11,1*%
%TO.N,Net-(U3A--)*%
X106075000Y-94200000D03*
%TO.P,C11,2*%
%TO.N,Net-(JP1-B)*%
X104525000Y-94200000D03*
%TD*%
D33*
%TO.P,C25,1*%
%TO.N,Net-(U5-LINEOUT_R)*%
X84000000Y-118225000D03*
%TO.P,C25,2*%
%TO.N,Net-(C25-Pad2)*%
X84000000Y-119775000D03*
%TD*%
D36*
%TO.P,C6,1*%
%TO.N,+5V*%
X112300000Y-128575000D03*
%TO.P,C6,2*%
%TO.N,GND*%
X112300000Y-125625000D03*
%TD*%
D27*
%TO.P,C18,1*%
%TO.N,+3.3V*%
X101650000Y-51025000D03*
%TO.P,C18,2*%
%TO.N,GND*%
X101650000Y-49475000D03*
%TD*%
D33*
%TO.P,C9,1*%
%TO.N,GND*%
X108300000Y-88800000D03*
%TO.P,C9,2*%
%TO.N,Net-(C9-Pad2)*%
X108300000Y-90350000D03*
%TD*%
D12*
%TO.P,U1,1,GND*%
%TO.N,GND*%
X97380000Y-48790000D03*
X94840000Y-48790000D03*
%TO.P,U1,2,0_RX1_CRX2_CS1*%
%TO.N,unconnected-(U1-0_RX1_CRX2_CS1-Pad2)_1*%
X97380000Y-51330000D03*
X94840000Y-51330000D03*
%TO.P,U1,3,1_TX1_CTX2_MISO1*%
%TO.N,unconnected-(U1-1_TX1_CTX2_MISO1-Pad3)*%
X97380000Y-53870000D03*
X94840000Y-53870000D03*
%TO.P,U1,4,2_OUT2*%
%TO.N,unconnected-(U1-2_OUT2-Pad4)*%
X97380000Y-56410000D03*
X94840000Y-56410000D03*
%TO.P,U1,5,3_LRCLK2*%
%TO.N,unconnected-(U1-3_LRCLK2-Pad5)_1*%
X97380000Y-58950000D03*
X94840000Y-58950000D03*
%TO.P,U1,6,4_BCLK2*%
%TO.N,unconnected-(U1-4_BCLK2-Pad6)_1*%
X97380000Y-61490000D03*
X94840000Y-61490000D03*
%TO.P,U1,7,5_IN2*%
%TO.N,unconnected-(U1-5_IN2-Pad7)*%
X97380000Y-64030000D03*
X94840000Y-64030000D03*
%TO.P,U1,8,6_OUT1D*%
%TO.N,unconnected-(U1-6_OUT1D-Pad8)_1*%
X97380000Y-66570000D03*
X94840000Y-66570000D03*
%TO.P,U1,9,7_RX2_OUT1A*%
%TO.N,DAC_DIN*%
X97380000Y-69110000D03*
X94840000Y-69110000D03*
%TO.P,U1,10,8_TX2_IN1*%
%TO.N,DAC_DOUT*%
X97380000Y-71650000D03*
X94840000Y-71650000D03*
%TO.P,U1,11,9_OUT1C*%
%TO.N,unconnected-(U1-9_OUT1C-Pad11)_1*%
X97380000Y-74190000D03*
X94840000Y-74190000D03*
%TO.P,U1,12,10_CS_MQSR*%
%TO.N,unconnected-(U1-10_CS_MQSR-Pad12)_1*%
X97380000Y-76730000D03*
X94840000Y-76730000D03*
%TO.P,U1,13,11_MOSI_CTX1*%
%TO.N,unconnected-(U1-11_MOSI_CTX1-Pad13)*%
X97380000Y-79270000D03*
X94840000Y-79270000D03*
%TO.P,U1,14,12_MISO_MQSL*%
%TO.N,unconnected-(U1-12_MISO_MQSL-Pad14)*%
X97380000Y-81810000D03*
X94840000Y-81810000D03*
%TO.P,U1,15,3V3*%
%TO.N,+3.3V*%
X97380000Y-84350000D03*
X94840000Y-84350000D03*
%TO.P,U1,16,24_A10_TX6_SCL2*%
%TO.N,unconnected-(U1-24_A10_TX6_SCL2-Pad16)*%
X97380000Y-86890000D03*
X94840000Y-86890000D03*
%TO.P,U1,17,25_A11_RX6_SDA2*%
%TO.N,unconnected-(U1-25_A11_RX6_SDA2-Pad17)_1*%
X97380000Y-89430000D03*
X94840000Y-89430000D03*
%TO.P,U1,18,26_A12_MOSI1*%
%TO.N,unconnected-(U1-26_A12_MOSI1-Pad18)_1*%
X97380000Y-91970000D03*
X94840000Y-91970000D03*
%TO.P,U1,19,27_A13_SCK1*%
%TO.N,unconnected-(U1-27_A13_SCK1-Pad19)_1*%
X97380000Y-94510000D03*
X94840000Y-94510000D03*
%TO.P,U1,20,28_RX7*%
%TO.N,unconnected-(U1-28_RX7-Pad20)_1*%
X97380000Y-97050000D03*
X94840000Y-97050000D03*
%TO.P,U1,21,29_TX7*%
%TO.N,unconnected-(U1-29_TX7-Pad21)*%
X97380000Y-99590000D03*
X94840000Y-99590000D03*
%TO.P,U1,22,30_CRX3*%
%TO.N,unconnected-(U1-30_CRX3-Pad22)_1*%
X97380000Y-102130000D03*
X94840000Y-102130000D03*
%TO.P,U1,23,31_CTX3*%
%TO.N,unconnected-(U1-31_CTX3-Pad23)*%
X97380000Y-104670000D03*
X94840000Y-104670000D03*
%TO.P,U1,24,32_OUT1B*%
%TO.N,unconnected-(U1-32_OUT1B-Pad24)*%
X97380000Y-107210000D03*
X94840000Y-107210000D03*
%TO.P,U1,25,33_MCLK2*%
%TO.N,unconnected-(U1-33_MCLK2-Pad25)_1*%
X115160000Y-107210000D03*
X112620000Y-107210000D03*
%TO.P,U1,26,34_RX8*%
%TO.N,unconnected-(U1-34_RX8-Pad26)*%
X115160000Y-104670000D03*
X112620000Y-104670000D03*
%TO.P,U1,27,35_TX8*%
%TO.N,unconnected-(U1-35_TX8-Pad27)*%
X115160000Y-102130000D03*
X112620000Y-102130000D03*
%TO.P,U1,28,36_CS*%
%TO.N,unconnected-(U1-36_CS-Pad28)_1*%
X115160000Y-99590000D03*
X112620000Y-99590000D03*
%TO.P,U1,29,37_CS*%
%TO.N,unconnected-(U1-37_CS-Pad29)_1*%
X115160000Y-97050000D03*
X112620000Y-97050000D03*
%TO.P,U1,30,38_CS1_IN1*%
%TO.N,unconnected-(U1-38_CS1_IN1-Pad30)_1*%
X115160000Y-94510000D03*
X112620000Y-94510000D03*
%TO.P,U1,31,39_MISO1_OUT1A*%
%TO.N,unconnected-(U1-39_MISO1_OUT1A-Pad31)_1*%
X115160000Y-91970000D03*
X112620000Y-91970000D03*
%TO.P,U1,32,40_A16*%
%TO.N,unconnected-(U1-40_A16-Pad32)*%
X115160000Y-89430000D03*
X112620000Y-89430000D03*
%TO.P,U1,33,41_A17*%
%TO.N,unconnected-(U1-41_A17-Pad33)_1*%
X115160000Y-86890000D03*
X112620000Y-86890000D03*
%TO.P,U1,34,GND*%
%TO.N,unconnected-(U1-GND-Pad34)*%
X115160000Y-84350000D03*
X112620000Y-84350000D03*
%TO.P,U1,35,13_SCK_LED*%
%TO.N,unconnected-(U1-13_SCK_LED-Pad35)_1*%
X115160000Y-81810000D03*
X112620000Y-81810000D03*
%TO.P,U1,36,14_A0_TX3_SPDIF_OUT*%
%TO.N,unconnected-(U1-14_A0_TX3_SPDIF_OUT-Pad36)*%
X115160000Y-79270000D03*
X112620000Y-79270000D03*
%TO.P,U1,37,15_A1_RX3_SPDIF_IN*%
%TO.N,unconnected-(U1-15_A1_RX3_SPDIF_IN-Pad37)*%
X115160000Y-76730000D03*
X112620000Y-76730000D03*
%TO.P,U1,38,16_A2_RX4_SCL1*%
%TO.N,unconnected-(U1-16_A2_RX4_SCL1-Pad38)_1*%
X115160000Y-74190000D03*
X112620000Y-74190000D03*
%TO.P,U1,39,17_A3_TX4_SDA1*%
%TO.N,unconnected-(U1-17_A3_TX4_SDA1-Pad39)*%
X115160000Y-71650000D03*
X112620000Y-71650000D03*
%TO.P,U1,40,18_A4_SDA*%
%TO.N,DAC_SDA*%
X115160000Y-69110000D03*
X112620000Y-69110000D03*
%TO.P,U1,41,19_A5_SCL*%
%TO.N,DAC_SCL*%
X115160000Y-66570000D03*
X112620000Y-66570000D03*
%TO.P,U1,42,20_A6_TX5_LRCLK1*%
%TO.N,DAC_LRCLK*%
X115160000Y-64030000D03*
X112620000Y-64030000D03*
%TO.P,U1,43,21_A7_RX5_BCLK1*%
%TO.N,DAC_BCLK*%
X115160000Y-61490000D03*
X112620000Y-61490000D03*
%TO.P,U1,44,22_A8_CTX1*%
%TO.N,unconnected-(U1-22_A8_CTX1-Pad44)_1*%
X115160000Y-58950000D03*
X112620000Y-58950000D03*
%TO.P,U1,45,23_A9_CRX1_MCLK1*%
%TO.N,DAC_MCLK*%
X115160000Y-56410000D03*
X112620000Y-56410000D03*
%TO.P,U1,46,3V3*%
%TO.N,+3.3V*%
X115160000Y-53870000D03*
X112620000Y-53870000D03*
%TO.P,U1,47,GND*%
%TO.N,GND*%
X115160000Y-51330000D03*
X112620000Y-51330000D03*
%TO.P,U1,48,VIN*%
%TO.N,+5V*%
X115160000Y-48790000D03*
X112620000Y-48790000D03*
%TD*%
D37*
%TO.P,D1,1,K*%
%TO.N,+9V*%
X112550000Y-112500000D03*
D38*
%TO.P,D1,2,A*%
%TO.N,Net-(D1-A)*%
X112550000Y-122660000D03*
%TD*%
D11*
%TO.P,R2,1*%
%TO.N,+5V*%
X102550000Y-127725000D03*
%TO.P,R2,2*%
%TO.N,Net-(U2-VSENSE)*%
X100900000Y-127725000D03*
%TD*%
D39*
%TO.P,D5,1,K*%
%TO.N,LED_NEG*%
X87000000Y-141000000D03*
D40*
%TO.P,D5,2,A*%
%TO.N,Net-(D5-A)*%
X89540000Y-141000000D03*
%TD*%
D41*
%TO.P,SW1,1,A*%
%TO.N,FOOTSWITCH_1*%
X99700000Y-143800000D03*
%TO.P,SW1,2,B*%
%TO.N,FOOTSWITCH_2*%
X99700000Y-139000000D03*
%TO.P,SW1,3,C*%
%TO.N,FOOTSWITCH_3*%
X99700000Y-134200000D03*
%TO.P,SW1,4,A*%
%TO.N,FOOTSWITCH_4*%
X105000000Y-143800000D03*
%TO.P,SW1,5,B*%
%TO.N,FOOTSWITCH_5*%
X105000000Y-139000000D03*
%TO.P,SW1,6,C*%
%TO.N,FOOTSWITCH_6*%
X105000000Y-134200000D03*
%TO.P,SW1,7,A*%
%TO.N,FOOTSWITCH_7*%
X110300000Y-143800000D03*
%TO.P,SW1,8,B*%
%TO.N,FOOTSWITCH_8*%
X110300000Y-139000000D03*
%TO.P,SW1,9,C*%
%TO.N,FOOTSWITCH_9*%
X110300000Y-134200000D03*
%TD*%
D27*
%TO.P,C2,1*%
%TO.N,Net-(D2-K)*%
X105800000Y-118775000D03*
%TO.P,C2,2*%
%TO.N,Net-(U2-BOOT)*%
X105800000Y-117225000D03*
%TD*%
D25*
%TO.P,R5,1*%
%TO.N,PREAMP_IN_R*%
X91165000Y-124800000D03*
%TO.P,R5,2*%
%TO.N,GND*%
X92815000Y-124800000D03*
%TD*%
D12*
%TO.P,J1,1,Pin_1*%
%TO.N,+9V*%
X82138145Y-64031512D03*
D13*
%TO.P,J1,2,Pin_2*%
X82138145Y-66571512D03*
%TO.P,J1,3,Pin_3*%
%TO.N,+5V*%
X82138145Y-69111512D03*
%TO.P,J1,4,Pin_4*%
X82138145Y-71651512D03*
%TO.P,J1,5,Pin_5*%
%TO.N,+3.3V*%
X82138145Y-74191512D03*
%TO.P,J1,6,Pin_6*%
X82138145Y-76731512D03*
%TO.P,J1,7,Pin_7*%
%TO.N,JACK_IN*%
X82138145Y-79271512D03*
%TO.P,J1,8,Pin_8*%
%TO.N,JACK_OUT*%
X82138145Y-81811512D03*
%TO.P,J1,9,Pin_9*%
%TO.N,PREAMP_IN_L*%
X82138145Y-84351512D03*
%TO.P,J1,10,Pin_10*%
%TO.N,PREAMP_IN_R*%
X82138145Y-86891512D03*
%TO.P,J1,11,Pin_11*%
%TO.N,LINE_IN_L*%
X82138145Y-89431512D03*
%TO.P,J1,12,Pin_12*%
%TO.N,LINE_IN_R*%
X82138145Y-91971512D03*
%TO.P,J1,13,Pin_13*%
%TO.N,LINE_OUT_L*%
X82138145Y-94511512D03*
%TO.P,J1,14,Pin_14*%
%TO.N,LINE_OUT_R*%
X82138145Y-97051512D03*
%TO.P,J1,15,Pin_15*%
%TO.N,LED_NEG*%
X82138145Y-99591512D03*
%TO.P,J1,16,Pin_16*%
%TO.N,GND*%
X82138145Y-102131512D03*
%TO.P,J1,17,Pin_17*%
X82138145Y-104671512D03*
%TO.P,J1,18,Pin_18*%
X82138145Y-107211512D03*
%TD*%
D27*
%TO.P,C15,1*%
%TO.N,Net-(C15-Pad1)*%
X103150000Y-75825000D03*
%TO.P,C15,2*%
%TO.N,GND*%
X103150000Y-74275000D03*
%TD*%
D25*
%TO.P,R4,1*%
%TO.N,PREAMP_IN_L*%
X88075000Y-124800000D03*
%TO.P,R4,2*%
%TO.N,GND*%
X89725000Y-124800000D03*
%TD*%
D17*
%TO.P,C12,1*%
%TO.N,Net-(U3B--)*%
X106650000Y-81000000D03*
%TO.P,C12,2*%
%TO.N,Net-(JP2-B)*%
X105100000Y-81000000D03*
%TD*%
D33*
%TO.P,C20,1*%
%TO.N,+3.3V*%
X107800000Y-57925000D03*
%TO.P,C20,2*%
%TO.N,GND*%
X107800000Y-59475000D03*
%TD*%
D16*
%TO.P,R24,1*%
%TO.N,LINE_OUT_L*%
X82400000Y-125975000D03*
%TO.P,R24,2*%
%TO.N,Net-(C26-Pad2)*%
X82400000Y-124325000D03*
%TD*%
D27*
%TO.P,C10,1*%
%TO.N,GND*%
X108300000Y-87300000D03*
%TO.P,C10,2*%
%TO.N,Net-(C10-Pad2)*%
X108300000Y-85750000D03*
%TD*%
D10*
%TO.P,C5,1*%
%TO.N,Net-(U2-COMP)*%
X100925000Y-122975000D03*
%TO.P,C5,2*%
%TO.N,GND*%
X102475000Y-122975000D03*
%TD*%
D19*
%TO.P,R14,1*%
%TO.N,Net-(U3B--)*%
X108600000Y-78400000D03*
D20*
%TO.P,R14,2*%
%TO.N,Net-(JP2-B)*%
X100980000Y-78400000D03*
%TD*%
D19*
%TO.P,R12,1*%
%TO.N,Net-(U3A--)*%
X108110000Y-97100000D03*
D20*
%TO.P,R12,2*%
%TO.N,Net-(JP1-B)*%
X100490000Y-97100000D03*
%TD*%
D42*
%TO.N,+3.3V*%
X103700000Y-67800000D03*
%TO.N,Net-(JP2-A)*%
X104794999Y-83236913D03*
%TO.N,LINE_OUT_R*%
X83125000Y-127400000D03*
X81300000Y-119800000D03*
X87500000Y-115599000D03*
X89100000Y-114600000D03*
X93700000Y-106200000D03*
%TO.N,JACK_OUT*%
X92100000Y-109700000D03*
%TO.N,+9V*%
X105200000Y-109800000D03*
%TO.N,GND*%
X103000000Y-118700000D03*
X100400000Y-129500000D03*
%TO.N,+9V*%
X84900000Y-117400000D03*
%TO.N,GND*%
X81800000Y-122300000D03*
X90302861Y-125524000D03*
X93757056Y-124057056D03*
X94000000Y-120400000D03*
X99600000Y-122300000D03*
X114200000Y-124600000D03*
X109200000Y-114800000D03*
%TO.N,+9V*%
X102700000Y-87100000D03*
%TO.N,GND*%
X101300000Y-88800000D03*
X109200000Y-87600000D03*
X101400000Y-68000000D03*
X104900000Y-68000000D03*
X104375702Y-73998824D03*
%TO.N,+3.3V*%
X107700000Y-63800000D03*
X108600000Y-67600000D03*
%TO.N,GND*%
X100000000Y-61500000D03*
X107100001Y-52318687D03*
%TO.N,Net-(U5-VDDA)*%
X100500000Y-57700000D03*
X106221397Y-51736775D03*
%TO.N,+3.3V*%
X108766623Y-58625000D03*
%TO.N,+5V*%
X110200000Y-69200000D03*
%TO.N,PREAMP_IN_R*%
X96700000Y-116600000D03*
X90900000Y-111700000D03*
%TO.N,JACK_IN*%
X86000000Y-124400000D03*
%TO.N,PREAMP_IN_L*%
X87200000Y-124500000D03*
%TO.N,LED_NEG*%
X85800000Y-114000000D03*
%TO.N,LINE_IN_R*%
X100187347Y-71887347D03*
%TO.N,LINE_IN_L*%
X100200000Y-90600000D03*
%TO.N,GND*%
X106700000Y-59400000D03*
X103500000Y-48700000D03*
X99800000Y-54700000D03*
%TO.N,DAC_DOUT*%
X107000000Y-53900000D03*
%TO.N,DAC_DIN*%
X106122027Y-53421285D03*
%TO.N,DAC_SDA*%
X105217735Y-53848199D03*
X106501000Y-65899000D03*
%TO.N,DAC_SCL*%
X105800000Y-63800000D03*
X104225000Y-53727860D03*
%TO.N,Net-(U3B-+)*%
X106700000Y-99400000D03*
X106600000Y-86300000D03*
%TO.N,FOOTSWITCH_3*%
X83900000Y-131400000D03*
%TO.N,FOOTSWITCH_5*%
X94727347Y-133927347D03*
%TO.N,FOOTSWITCH_9*%
X96900000Y-131975000D03*
%TO.N,Net-(JP1-B)*%
X105600000Y-87700000D03*
X107000000Y-77000000D03*
%TO.N,LINE_OUT_L*%
X96757000Y-129000000D03*
X93387796Y-113270735D03*
%TO.N,Net-(U5-SYS_MCLK)*%
X108200000Y-56800000D03*
X107800000Y-54700000D03*
%TO.N,Net-(JP1-A)*%
X104099847Y-91400153D03*
%TO.N,Net-(JP3-B)*%
X94300000Y-128100000D03*
X87300000Y-128200000D03*
%TO.N,PREAMP_IN_L*%
X80100000Y-109400000D03*
X127000000Y-127100000D03*
%TO.N,JACK_IN*%
X127300000Y-128400000D03*
%TO.N,LED_NEG*%
X87600000Y-129725000D03*
%TD*%
D43*
%TO.N,+3.3V*%
X103450000Y-68050000D02*
X103700000Y-67800000D01*
X103450000Y-69375000D02*
X103450000Y-68050000D01*
D44*
%TO.N,Net-(C25-Pad2)*%
X84000000Y-121225000D02*
X84000000Y-119775000D01*
X84801000Y-122026000D02*
X84000000Y-121225000D01*
X84801000Y-123524000D02*
X84801000Y-122026000D01*
X84000000Y-124325000D02*
X84801000Y-123524000D01*
%TO.N,Net-(JP2-A)*%
X105050000Y-82981912D02*
X104794999Y-83236913D01*
X105050000Y-82600000D02*
X105050000Y-82981912D01*
%TO.N,LINE_OUT_R*%
X81000000Y-117797436D02*
X83198436Y-115599000D01*
X83198436Y-115599000D02*
X87500000Y-115599000D01*
X81000000Y-119500000D02*
X81000000Y-117797436D01*
X81300000Y-119800000D02*
X81000000Y-119500000D01*
X83125000Y-127400000D02*
X83125000Y-126850000D01*
X83125000Y-126850000D02*
X84000000Y-125975000D01*
%TO.N,JACK_IN*%
X81228488Y-79271512D02*
X82138145Y-79271512D01*
X79374000Y-81126000D02*
X81228488Y-79271512D01*
X79374000Y-122811810D02*
X79374000Y-81126000D01*
X81562190Y-125000000D02*
X79374000Y-122811810D01*
X81850582Y-125000000D02*
X81562190Y-125000000D01*
X81901582Y-125051000D02*
X81850582Y-125000000D01*
X83501582Y-125051000D02*
X83450582Y-125000000D01*
X83450582Y-125000000D02*
X82949418Y-125000000D01*
X84498418Y-125051000D02*
X83501582Y-125051000D01*
X85400000Y-125000000D02*
X84549418Y-125000000D01*
X84549418Y-125000000D02*
X84498418Y-125051000D01*
X82898418Y-125051000D02*
X81901582Y-125051000D01*
X86000000Y-124400000D02*
X85400000Y-125000000D01*
X82949418Y-125000000D02*
X82898418Y-125051000D01*
%TO.N,LINE_OUT_R*%
X89200000Y-114600000D02*
X89100000Y-114600000D01*
X89500000Y-114300000D02*
X89200000Y-114600000D01*
%TO.N,LINE_OUT_L*%
X81299000Y-110599000D02*
X80962145Y-110262145D01*
X81299000Y-112370514D02*
X81299000Y-110599000D01*
X85326000Y-114726000D02*
X83301000Y-112701000D01*
X87474000Y-114726000D02*
X85326000Y-114726000D01*
X81629486Y-112701000D02*
X81299000Y-112370514D01*
X87600000Y-114600000D02*
X87474000Y-114726000D01*
X88873000Y-115873000D02*
X87600000Y-114600000D01*
X80962145Y-95687512D02*
X82138145Y-94511512D01*
X83301000Y-112701000D02*
X81629486Y-112701000D01*
X80962145Y-110262145D02*
X80962145Y-95687512D01*
X93387796Y-113270735D02*
X90785531Y-115873000D01*
X90785531Y-115873000D02*
X88873000Y-115873000D01*
%TO.N,LINE_OUT_R*%
X93600000Y-110200000D02*
X89500000Y-114300000D01*
X93600000Y-106300000D02*
X93600000Y-110200000D01*
X93700000Y-106200000D02*
X93600000Y-106300000D01*
%TO.N,JACK_OUT*%
X91122145Y-108722145D02*
X92100000Y-109700000D01*
X91122145Y-84052396D02*
X91122145Y-108722145D01*
X90069749Y-83000000D02*
X91122145Y-84052396D01*
X83326633Y-83000000D02*
X90069749Y-83000000D01*
X82138145Y-81811512D02*
X83326633Y-83000000D01*
D43*
%TO.N,+9V*%
X105850000Y-110450000D02*
X105200000Y-109800000D01*
X105850000Y-113775000D02*
X105850000Y-110450000D01*
%TO.N,GND*%
X101240900Y-118700000D02*
X103000000Y-118700000D01*
X99144000Y-116603100D02*
X101240900Y-118700000D01*
X99144000Y-114446900D02*
X99144000Y-116603100D01*
X100304452Y-113286448D02*
X99144000Y-114446900D01*
X100717549Y-113286448D02*
X100304452Y-113286448D01*
X102435000Y-119265000D02*
X103000000Y-118700000D01*
X102435000Y-120475000D02*
X102435000Y-119265000D01*
D44*
%TO.N,Net-(D2-K)*%
X104100000Y-120475000D02*
X105800000Y-118775000D01*
X103705000Y-120475000D02*
X104100000Y-120475000D01*
%TO.N,Net-(U2-COMP)*%
X102625000Y-124675000D02*
X100925000Y-122975000D01*
X102625000Y-125225000D02*
X102625000Y-124675000D01*
D43*
%TO.N,GND*%
X100200000Y-129300000D02*
X100400000Y-129500000D01*
X100100000Y-129300000D02*
X100200000Y-129300000D01*
X99225000Y-129300000D02*
X100100000Y-129300000D01*
%TO.N,+9V*%
X87500000Y-120000000D02*
X84900000Y-117400000D01*
X88075000Y-120000000D02*
X87500000Y-120000000D01*
%TO.N,GND*%
X82375000Y-122875000D02*
X81800000Y-122300000D01*
X82400000Y-122875000D02*
X82375000Y-122875000D01*
X84000000Y-122875000D02*
X82400000Y-122875000D01*
X89725000Y-124946139D02*
X90302861Y-125524000D01*
X89725000Y-124800000D02*
X89725000Y-124946139D01*
X93014112Y-124800000D02*
X93757056Y-124057056D01*
X92815000Y-124800000D02*
X93014112Y-124800000D01*
X93600000Y-120000000D02*
X94000000Y-120400000D01*
X92825000Y-120000000D02*
X93600000Y-120000000D01*
X99225000Y-122675000D02*
X99600000Y-122300000D01*
X99225000Y-123225000D02*
X99225000Y-122675000D01*
X113175000Y-125625000D02*
X114200000Y-124600000D01*
X112300000Y-125625000D02*
X113175000Y-125625000D01*
X108800000Y-114825000D02*
X107750000Y-113775000D01*
X108800000Y-117000000D02*
X108800000Y-114825000D01*
X108800000Y-115200000D02*
X109200000Y-114800000D01*
X108800000Y-117000000D02*
X108800000Y-115200000D01*
%TO.N,+9V*%
X101600000Y-86000000D02*
X102700000Y-87100000D01*
X101100000Y-86000000D02*
X101600000Y-86000000D01*
%TO.N,GND*%
X101100000Y-88600000D02*
X101300000Y-88800000D01*
X101100000Y-87550000D02*
X101100000Y-88600000D01*
X108900000Y-87300000D02*
X109200000Y-87600000D01*
X108300000Y-87300000D02*
X108900000Y-87300000D01*
X101550000Y-68150000D02*
X101400000Y-68000000D01*
X101550000Y-69375000D02*
X101550000Y-68150000D01*
X105150000Y-68250000D02*
X104900000Y-68000000D01*
X105150000Y-69375000D02*
X105150000Y-68250000D01*
X104099526Y-74275000D02*
X104375702Y-73998824D01*
X103150000Y-74275000D02*
X104099526Y-74275000D01*
%TO.N,+3.3V*%
X108650000Y-63800000D02*
X107700000Y-63800000D01*
X108650000Y-67550000D02*
X108600000Y-67600000D01*
X108650000Y-66400000D02*
X108650000Y-67550000D01*
%TO.N,GND*%
X99500000Y-61000000D02*
X100000000Y-61500000D01*
X99500000Y-60300000D02*
X99500000Y-61000000D01*
D44*
X106723403Y-52695285D02*
X107100001Y-52318687D01*
X105129715Y-52695285D02*
X106723403Y-52695285D01*
X105075000Y-52750000D02*
X105129715Y-52695285D01*
D45*
%TO.N,DAC_DIN*%
X106100000Y-54300000D02*
X105726000Y-54674000D01*
X106100000Y-53443312D02*
X106100000Y-54300000D01*
X105726000Y-54674000D02*
X105126000Y-54674000D01*
X106122027Y-53421285D02*
X106100000Y-53443312D01*
X105126000Y-54674000D02*
X105000000Y-54800000D01*
X105000000Y-54800000D02*
X105000000Y-55400000D01*
D44*
%TO.N,Net-(U5-VDDA)*%
X106200000Y-51715378D02*
X106200000Y-50162500D01*
X106221397Y-51736775D02*
X106200000Y-51715378D01*
X106200000Y-50162500D02*
X107112500Y-49250000D01*
D43*
%TO.N,+1V8*%
X103525000Y-52750000D02*
X103537500Y-52750000D01*
X103537500Y-52750000D02*
X105350000Y-50937500D01*
D44*
%TO.N,Net-(U5-VDDA)*%
X100830152Y-57330660D02*
X101403050Y-57903558D01*
X99473289Y-57330660D02*
X100830152Y-57330660D01*
X101199492Y-57700000D02*
X101403050Y-57903558D01*
X100500000Y-57700000D02*
X101199492Y-57700000D01*
D43*
%TO.N,+3.3V*%
X109466623Y-57925000D02*
X108766623Y-58625000D01*
X109600000Y-57925000D02*
X109466623Y-57925000D01*
%TO.N,+5V*%
X110200000Y-126475000D02*
X110200000Y-69200000D01*
X112300000Y-128575000D02*
X110200000Y-126475000D01*
%TO.N,+9V*%
X103625900Y-113775000D02*
X105850000Y-113775000D01*
X102435000Y-114965900D02*
X103625900Y-113775000D01*
X102435000Y-115525000D02*
X102435000Y-114965900D01*
D44*
%TO.N,Net-(U2-SS)*%
X101466549Y-114087448D02*
X102267549Y-113286448D01*
X100357553Y-114087448D02*
X101466549Y-114087448D01*
X99895000Y-114550001D02*
X100357553Y-114087448D01*
X99895000Y-115525000D02*
X99895000Y-114550001D01*
D43*
%TO.N,+5V*%
X109250000Y-126000000D02*
X109725000Y-126000000D01*
X109725000Y-126000000D02*
X112300000Y-128575000D01*
%TO.N,GND*%
X102475000Y-120515000D02*
X102435000Y-120475000D01*
X102475000Y-122975000D02*
X102475000Y-120515000D01*
D44*
%TO.N,Net-(U2-COMP)*%
X100925000Y-120715000D02*
X101165000Y-120475000D01*
X100925000Y-122975000D02*
X100925000Y-120715000D01*
%TO.N,Net-(U2-BOOT)*%
X105405000Y-117225000D02*
X103705000Y-115525000D01*
X105800000Y-117225000D02*
X105405000Y-117225000D01*
%TO.N,Net-(D2-K)*%
X106575000Y-118775000D02*
X105800000Y-118775000D01*
X108800000Y-121000000D02*
X106575000Y-118775000D01*
D43*
X103705000Y-124955000D02*
X104750000Y-126000000D01*
X103705000Y-120475000D02*
X103705000Y-124955000D01*
D44*
%TO.N,Net-(C4-Pad1)*%
X99675000Y-125225000D02*
X99225000Y-124775000D01*
X100975000Y-125225000D02*
X99675000Y-125225000D01*
%TO.N,Net-(U2-VSENSE)*%
X98424000Y-121946000D02*
X99895000Y-120475000D01*
X99225000Y-127650000D02*
X98424000Y-126849000D01*
X98424000Y-126849000D02*
X98424000Y-121946000D01*
X99300000Y-127725000D02*
X99225000Y-127650000D01*
X100900000Y-127725000D02*
X99300000Y-127725000D01*
D43*
%TO.N,+5V*%
X103852708Y-129301000D02*
X105949000Y-129301000D01*
X102550000Y-127998292D02*
X103852708Y-129301000D01*
X102550000Y-127725000D02*
X102550000Y-127998292D01*
X105949000Y-129301000D02*
X109250000Y-126000000D01*
D44*
%TO.N,PREAMP_IN_R*%
X87517261Y-88067512D02*
X83314145Y-88067512D01*
X88394145Y-88944396D02*
X87517261Y-88067512D01*
X88394145Y-107594145D02*
X88394145Y-88944396D01*
X90900000Y-110100000D02*
X88394145Y-107594145D01*
X90900000Y-111700000D02*
X90900000Y-110100000D01*
X93238418Y-125601000D02*
X96700000Y-122139418D01*
X96700000Y-122139418D02*
X96700000Y-116600000D01*
X91165000Y-124800000D02*
X91966000Y-125601000D01*
X91966000Y-125601000D02*
X93238418Y-125601000D01*
X83314145Y-88067512D02*
X82138145Y-86891512D01*
%TO.N,LED_NEG*%
X83314145Y-100767512D02*
X82138145Y-99591512D01*
X84977261Y-100767512D02*
X83314145Y-100767512D01*
X85854145Y-101644396D02*
X84977261Y-100767512D01*
X85854145Y-113945855D02*
X85854145Y-101644396D01*
X85800000Y-114000000D02*
X85854145Y-113945855D01*
%TO.N,LINE_IN_R*%
X100849694Y-71225000D02*
X100187347Y-71887347D01*
X103150000Y-71225000D02*
X100849694Y-71225000D01*
%TO.N,LINE_IN_L*%
X99815000Y-90215000D02*
X100200000Y-90600000D01*
X99815000Y-73285000D02*
X99815000Y-90215000D01*
X101100000Y-72000000D02*
X99815000Y-73285000D01*
X104650000Y-72000000D02*
X101100000Y-72000000D01*
X105450000Y-71200000D02*
X104650000Y-72000000D01*
D43*
%TO.N,+5V*%
X88457145Y-49142855D02*
X88457145Y-48252620D01*
X80837145Y-56762855D02*
X88457145Y-49142855D01*
X88457145Y-48252620D02*
X89561765Y-47148000D01*
X89561765Y-47148000D02*
X110978000Y-47148000D01*
X112620000Y-48790000D02*
X115160000Y-48790000D01*
X82138145Y-69111512D02*
X82138145Y-71651512D01*
X80837145Y-67810512D02*
X80837145Y-56762855D01*
X82138145Y-69111512D02*
X80837145Y-67810512D01*
X110978000Y-47148000D02*
X112620000Y-48790000D01*
%TO.N,GND*%
X103987500Y-49475000D02*
X104400000Y-49062500D01*
X104700000Y-75825000D02*
X103150000Y-74275000D01*
X107450000Y-89650000D02*
X108300000Y-88800000D01*
X99473289Y-55026711D02*
X99800000Y-54700000D01*
X103862500Y-49062500D02*
X103500000Y-48700000D01*
X107800000Y-59475000D02*
X109600000Y-59475000D01*
D45*
X107800000Y-59400000D02*
X107800000Y-59475000D01*
D43*
X94840000Y-48790000D02*
X97380000Y-48790000D01*
X105450000Y-75825000D02*
X104700000Y-75825000D01*
X106610000Y-89650000D02*
X107450000Y-89650000D01*
D45*
X106050000Y-57650000D02*
X107800000Y-59400000D01*
X104600000Y-56850000D02*
X105400000Y-57650000D01*
D43*
X99473289Y-55780660D02*
X100830152Y-55780660D01*
X92825000Y-120000000D02*
X92825000Y-121600000D01*
X101650000Y-49475000D02*
X103987500Y-49475000D01*
X115160000Y-51330000D02*
X112620000Y-51330000D01*
X99473289Y-55780660D02*
X99473289Y-55026711D01*
X104400000Y-49062500D02*
X103862500Y-49062500D01*
X107800000Y-59475000D02*
X106775000Y-59475000D01*
D45*
X105400000Y-57650000D02*
X106050000Y-57650000D01*
D43*
X108300000Y-88800000D02*
X108300000Y-87300000D01*
X106775000Y-59475000D02*
X106700000Y-59400000D01*
D45*
X105400000Y-58300000D02*
X106050000Y-57650000D01*
D43*
X100830152Y-55780660D02*
X101403050Y-56353558D01*
D45*
%TO.N,+1V8*%
X103800000Y-55400000D02*
X103800000Y-55300000D01*
X103525000Y-55025000D02*
X103525000Y-52750000D01*
X103800000Y-55300000D02*
X103525000Y-55025000D01*
D43*
%TO.N,+9V*%
X88075000Y-120000000D02*
X88075000Y-121600000D01*
X101100000Y-86000000D02*
X101500000Y-86000000D01*
X82138145Y-66571512D02*
X82138145Y-64031512D01*
X101500000Y-86000000D02*
X102800000Y-84700000D01*
D44*
%TO.N,DAC_MCLK*%
X115160000Y-56410000D02*
X112620000Y-56410000D01*
X108725000Y-52515000D02*
X112620000Y-56410000D01*
X108725000Y-51000000D02*
X108725000Y-52515000D01*
D43*
%TO.N,+3.3V*%
X94840000Y-84350000D02*
X97380000Y-84350000D01*
X82138145Y-74191512D02*
X82138145Y-76731512D01*
X107050000Y-68000000D02*
X108650000Y-66400000D01*
X112620000Y-53870000D02*
X115160000Y-53870000D01*
X101650000Y-51025000D02*
X103362500Y-51025000D01*
X100724000Y-48963758D02*
X101838758Y-47849000D01*
X100724000Y-50099000D02*
X100724000Y-48963758D01*
X107286500Y-47849000D02*
X108687500Y-49250000D01*
D45*
X106650000Y-57250000D02*
X107325000Y-57925000D01*
D43*
X107050000Y-69375000D02*
X107050000Y-68000000D01*
X112620000Y-53182500D02*
X112620000Y-53870000D01*
D45*
X107325000Y-57925000D02*
X107800000Y-57925000D01*
D43*
X108687500Y-49250000D02*
X112620000Y-53182500D01*
X103362500Y-51025000D02*
X103450000Y-50937500D01*
X107800000Y-57925000D02*
X109600000Y-57925000D01*
X101838758Y-47849000D02*
X107286500Y-47849000D01*
X101650000Y-51025000D02*
X100724000Y-50099000D01*
D45*
X106050000Y-57250000D02*
X106650000Y-57250000D01*
D44*
%TO.N,Net-(D5-A)*%
X89540000Y-141000000D02*
X89540000Y-143540000D01*
X89540000Y-143540000D02*
X93000000Y-147000000D01*
D45*
%TO.N,LINE_IN_R*%
X104600000Y-65400000D02*
X102500000Y-67500000D01*
D44*
X103150000Y-71225000D02*
X102500000Y-70575000D01*
D45*
X104600000Y-58300000D02*
X104600000Y-65400000D01*
D44*
X102500000Y-70575000D02*
X102500000Y-67500000D01*
D45*
%TO.N,LINE_IN_L*%
X105000000Y-58300000D02*
X105000000Y-66400000D01*
X105000000Y-66400000D02*
X106100000Y-67500000D01*
D44*
X106100000Y-70550000D02*
X106100000Y-67500000D01*
X105450000Y-71200000D02*
X106100000Y-70550000D01*
D45*
%TO.N,DAC_LRCLK*%
X110500000Y-57599890D02*
X110500000Y-61910000D01*
X106050000Y-56450000D02*
X106650000Y-56450000D01*
D44*
X112620000Y-64030000D02*
X115160000Y-64030000D01*
D45*
X108801110Y-55901000D02*
X110500000Y-57599890D01*
X110500000Y-61910000D02*
X112620000Y-64030000D01*
X106650000Y-56450000D02*
X107199000Y-55901000D01*
X107199000Y-55901000D02*
X108801110Y-55901000D01*
%TO.N,DAC_BCLK*%
X108967210Y-55500000D02*
X110901000Y-57433790D01*
X106050000Y-56050000D02*
X106600000Y-55500000D01*
X106600000Y-55500000D02*
X108967210Y-55500000D01*
X110901000Y-57433790D02*
X110901000Y-59771000D01*
D44*
X115160000Y-61490000D02*
X112620000Y-61490000D01*
D45*
X110901000Y-59771000D02*
X112620000Y-61490000D01*
%TO.N,DAC_DOUT*%
X105700000Y-55400000D02*
X107000000Y-54100000D01*
X105400000Y-55400000D02*
X105700000Y-55400000D01*
X107000000Y-54100000D02*
X107000000Y-53900000D01*
D44*
X97380000Y-71650000D02*
X94840000Y-71650000D01*
%TO.N,DAC_DIN*%
X94840000Y-69110000D02*
X97380000Y-69110000D01*
%TO.N,DAC_SDA*%
X112620000Y-69110000D02*
X115160000Y-69110000D01*
X110300000Y-66400000D02*
X110300000Y-66790000D01*
D45*
X104600000Y-55400000D02*
X104600000Y-54465934D01*
X104600000Y-54465934D02*
X105217735Y-53848199D01*
X106776000Y-65624000D02*
X109524000Y-65624000D01*
X106501000Y-65899000D02*
X106776000Y-65624000D01*
D44*
X110300000Y-66790000D02*
X112620000Y-69110000D01*
D45*
X109524000Y-65624000D02*
X110300000Y-66400000D01*
%TO.N,DAC_SCL*%
X104200000Y-53752860D02*
X104225000Y-53727860D01*
D44*
X115160000Y-66570000D02*
X112620000Y-66570000D01*
X110300000Y-64250000D02*
X112620000Y-66570000D01*
D45*
X109524000Y-64576000D02*
X110300000Y-63800000D01*
X105800000Y-63800000D02*
X106576000Y-64576000D01*
D44*
X110300000Y-63800000D02*
X110300000Y-64250000D01*
D45*
X106576000Y-64576000D02*
X109524000Y-64576000D01*
X104200000Y-55400000D02*
X104200000Y-53752860D01*
D44*
%TO.N,Net-(JP2-B)*%
X104070000Y-84700000D02*
X104070000Y-82030000D01*
X105100000Y-81000000D02*
X105000000Y-81000000D01*
X102400000Y-78400000D02*
X100980000Y-78400000D01*
X100980000Y-76445000D02*
X101550000Y-75875000D01*
X100980000Y-78400000D02*
X100980000Y-76445000D01*
X105000000Y-81000000D02*
X102400000Y-78400000D01*
X104070000Y-82030000D02*
X105100000Y-81000000D01*
%TO.N,FOOTSWITCH_1*%
X92800000Y-142526174D02*
X88160000Y-137886174D01*
X88160000Y-137886174D02*
X88160000Y-136440000D01*
X99700000Y-143800000D02*
X92800000Y-143800000D01*
X92800000Y-143800000D02*
X92800000Y-142526174D01*
%TO.N,Net-(C10-Pad2)*%
X108300000Y-85750000D02*
X108300000Y-84200000D01*
%TO.N,Net-(U3A-+)*%
X105340000Y-89650000D02*
X105340000Y-89267678D01*
X105199000Y-93399000D02*
X105300000Y-93500000D01*
X103718678Y-88349000D02*
X103444000Y-88623678D01*
X105300000Y-93500000D02*
X105300000Y-100100000D01*
X103799000Y-93399000D02*
X105199000Y-93399000D01*
X105300000Y-100100000D02*
X100448000Y-104952000D01*
X91175000Y-119787772D02*
X91175000Y-120000000D01*
X100448000Y-110514772D02*
X91175000Y-119787772D01*
X103444000Y-88623678D02*
X103444000Y-91029280D01*
X105340000Y-89267678D02*
X104421322Y-88349000D01*
X103300000Y-92900000D02*
X103799000Y-93399000D01*
X100448000Y-104952000D02*
X100448000Y-110514772D01*
X91175000Y-120000000D02*
X89725000Y-120000000D01*
X103444000Y-91029280D02*
X103300000Y-91173280D01*
X104421322Y-88349000D02*
X103718678Y-88349000D01*
X103300000Y-91173280D02*
X103300000Y-92900000D01*
%TO.N,Net-(U3B-+)*%
X91901000Y-119699582D02*
X91901000Y-120874000D01*
X100401582Y-111199000D02*
X91901000Y-119699582D01*
X100899000Y-111199000D02*
X100401582Y-111199000D01*
X106700000Y-99400000D02*
X100899000Y-105201000D01*
X91901000Y-120874000D02*
X91175000Y-121600000D01*
X91175000Y-121600000D02*
X92775000Y-123200000D01*
X106610000Y-86290000D02*
X106600000Y-86300000D01*
X106610000Y-84700000D02*
X106610000Y-86290000D01*
X89725000Y-121600000D02*
X91175000Y-121600000D01*
X100899000Y-105201000D02*
X100899000Y-111199000D01*
%TO.N,Net-(C9-Pad2)*%
X108200000Y-92475000D02*
X108200000Y-90450000D01*
X108200000Y-90450000D02*
X108300000Y-90350000D01*
%TO.N,Net-(U3A--)*%
X108200000Y-97010000D02*
X108110000Y-97100000D01*
X108125000Y-94200000D02*
X108200000Y-94125000D01*
X108200000Y-94125000D02*
X108200000Y-97010000D01*
X104070000Y-90345000D02*
X104070000Y-89650000D01*
X106075000Y-94200000D02*
X108125000Y-94200000D01*
X106075000Y-94200000D02*
X106075000Y-92450000D01*
X106075000Y-92450000D02*
X106125000Y-92400000D01*
X106125000Y-92400000D02*
X104070000Y-90345000D01*
%TO.N,Net-(U3B--)*%
X108600000Y-78400000D02*
X106650000Y-80350000D01*
X106650000Y-80350000D02*
X106650000Y-81000000D01*
X106650000Y-82550000D02*
X106700000Y-82600000D01*
X105340000Y-84700000D02*
X105340000Y-83960000D01*
X106700000Y-82600000D02*
X108250000Y-82600000D01*
X106650000Y-81000000D02*
X106650000Y-82550000D01*
X105340000Y-83960000D02*
X106700000Y-82600000D01*
X108250000Y-82600000D02*
X108300000Y-82550000D01*
%TO.N,unconnected-(U1-1_TX1_CTX2_MISO1-Pad3)*%
X94840000Y-53870000D02*
X97380000Y-53870000D01*
%TO.N,Net-(C14-Pad1)*%
X105450000Y-74275000D02*
X105450000Y-72750000D01*
X107000000Y-74275000D02*
X107050000Y-74225000D01*
X105450000Y-74275000D02*
X107000000Y-74275000D01*
%TO.N,Net-(C15-Pad1)*%
X103000000Y-72775000D02*
X101550000Y-74225000D01*
X103150000Y-72775000D02*
X103000000Y-72775000D01*
X101550000Y-74225000D02*
X103150000Y-75825000D01*
D45*
%TO.N,Net-(U5-VAG)*%
X103150000Y-58200000D02*
X103150000Y-57651000D01*
X101050000Y-60300000D02*
X103150000Y-58200000D01*
%TO.N,Net-(U5-LINEOUT_R)*%
X103800000Y-58300000D02*
X103800000Y-63500000D01*
X81624000Y-117775890D02*
X81624000Y-118674110D01*
X81925890Y-118976000D02*
X83249000Y-118976000D01*
X103800000Y-63500000D02*
X98988000Y-68312000D01*
X98988000Y-109222900D02*
X91911900Y-116299000D01*
X83249000Y-118976000D02*
X84000000Y-118225000D01*
X83100890Y-116299000D02*
X81624000Y-117775890D01*
X91911900Y-116299000D02*
X83100890Y-116299000D01*
X98988000Y-68312000D02*
X98988000Y-109222900D01*
X81624000Y-118674110D02*
X81925890Y-118976000D01*
%TO.N,Net-(U5-LINEOUT_L)*%
X104200000Y-63700000D02*
X99389000Y-68511000D01*
X99389000Y-68511000D02*
X99389000Y-109389000D01*
X83925000Y-116700000D02*
X82400000Y-118225000D01*
X92078000Y-116700000D02*
X83925000Y-116700000D01*
X104200000Y-58300000D02*
X104200000Y-63700000D01*
X99389000Y-109389000D02*
X92078000Y-116700000D01*
D44*
%TO.N,Net-(C26-Pad2)*%
X81575000Y-121225000D02*
X82400000Y-121225000D01*
X80900000Y-121900000D02*
X81575000Y-121225000D01*
X82400000Y-124325000D02*
X81525000Y-124325000D01*
X80900000Y-123700000D02*
X80900000Y-121900000D01*
X82400000Y-119775000D02*
X82400000Y-121225000D01*
X81525000Y-124325000D02*
X80900000Y-123700000D01*
%TO.N,FOOTSWITCH_2*%
X88000000Y-134800000D02*
X88160000Y-134640000D01*
X99700000Y-139000000D02*
X96700000Y-139000000D01*
X96700000Y-139000000D02*
X94416000Y-136716000D01*
X93727116Y-135264000D02*
X88464000Y-135264000D01*
X94416000Y-136716000D02*
X94416000Y-135952884D01*
X88160000Y-134640000D02*
X88160000Y-133900000D01*
X88464000Y-135264000D02*
X88000000Y-134800000D01*
X94416000Y-135952884D02*
X93727116Y-135264000D01*
%TO.N,FOOTSWITCH_3*%
X84854000Y-131360000D02*
X88160000Y-131360000D01*
X99700000Y-134200000D02*
X98200000Y-132700000D01*
X98200000Y-132700000D02*
X89500000Y-132700000D01*
X83900000Y-131400000D02*
X84814000Y-131400000D01*
X84814000Y-131400000D02*
X84854000Y-131360000D01*
X89500000Y-132700000D02*
X88160000Y-131360000D01*
%TO.N,FOOTSWITCH_4*%
X90700000Y-136440000D02*
X90700000Y-139788364D01*
X103200000Y-142000000D02*
X105000000Y-143800000D01*
X90700000Y-139788364D02*
X92911636Y-142000000D01*
X92911636Y-142000000D02*
X103200000Y-142000000D01*
%TO.N,FOOTSWITCH_5*%
X98135067Y-137274000D02*
X98074000Y-137274000D01*
X103274000Y-137274000D02*
X98135067Y-137274000D01*
X105000000Y-139000000D02*
X103274000Y-137274000D01*
X98074000Y-137274000D02*
X94727347Y-133927347D01*
%TO.N,FOOTSWITCH_6*%
X91876000Y-130184000D02*
X96584000Y-130184000D01*
X96584000Y-130184000D02*
X98874000Y-132474000D01*
X98874000Y-132474000D02*
X103274000Y-132474000D01*
X90700000Y-131360000D02*
X91876000Y-130184000D01*
X103274000Y-132474000D02*
X105000000Y-134200000D01*
%TO.N,FOOTSWITCH_7*%
X93240000Y-136440000D02*
X94500000Y-137700000D01*
X108049000Y-141549000D02*
X110300000Y-143800000D01*
X94500000Y-140200000D02*
X95849000Y-141549000D01*
X94500000Y-137700000D02*
X94500000Y-140200000D01*
X95849000Y-141549000D02*
X108049000Y-141549000D01*
%TO.N,FOOTSWITCH_8*%
X95028067Y-133201347D02*
X93938653Y-133201347D01*
X108000000Y-136700000D02*
X98526720Y-136700000D01*
X110300000Y-139000000D02*
X108000000Y-136700000D01*
X93938653Y-133201347D02*
X93240000Y-133900000D01*
X98526720Y-136700000D02*
X95028067Y-133201347D01*
%TO.N,FOOTSWITCH_9*%
X96240000Y-131360000D02*
X93240000Y-131360000D01*
X96855000Y-131975000D02*
X96240000Y-131360000D01*
X96900000Y-131975000D02*
X96855000Y-131975000D01*
%TO.N,Net-(JP1-B)*%
X107000000Y-77000000D02*
X107000000Y-75925000D01*
X102645000Y-94945000D02*
X100490000Y-97100000D01*
X102800000Y-94790000D02*
X102645000Y-94945000D01*
X102800000Y-88629868D02*
X103729868Y-87700000D01*
X102800000Y-89650000D02*
X102800000Y-88629868D01*
X102800000Y-89650000D02*
X102800000Y-94790000D01*
X103729868Y-87700000D02*
X105600000Y-87700000D01*
X103390000Y-94200000D02*
X102645000Y-94945000D01*
X107000000Y-75925000D02*
X107050000Y-75875000D01*
X104525000Y-94200000D02*
X103390000Y-94200000D01*
%TO.N,LINE_OUT_L*%
X96757000Y-129000000D02*
X82600000Y-129000000D01*
X82400000Y-128800000D02*
X82400000Y-125975000D01*
X82600000Y-129000000D02*
X82400000Y-128800000D01*
D45*
%TO.N,HEADPHONES_GND*%
X98757114Y-52482512D02*
X90909145Y-52482512D01*
X102300000Y-56025398D02*
X98757114Y-52482512D01*
X90909145Y-52482512D02*
X89758145Y-51331512D01*
X102450000Y-56450000D02*
X102300000Y-56300000D01*
X103150000Y-56450000D02*
X102450000Y-56450000D01*
X102300000Y-56300000D02*
X102300000Y-56025398D01*
%TO.N,HEADPHONES_RIGHT*%
X102500000Y-55400000D02*
X102500000Y-54822240D01*
X97856760Y-50179000D02*
X89282897Y-50179000D01*
X89282897Y-50179000D02*
X88607145Y-50854752D01*
X103150000Y-56050000D02*
X102500000Y-55400000D01*
X102500000Y-54822240D02*
X97856760Y-50179000D01*
X88607145Y-52720512D02*
X89758145Y-53871512D01*
X88607145Y-50854752D02*
X88607145Y-52720512D01*
%TO.N,HEADPHONES_LEFT*%
X102550000Y-57250000D02*
X102400000Y-57400000D01*
X103150000Y-57250000D02*
X102550000Y-57250000D01*
X88206145Y-50343512D02*
X89758145Y-48791512D01*
X97797760Y-55200000D02*
X89458873Y-55200000D01*
X98600000Y-56002240D02*
X97797760Y-55200000D01*
X98600000Y-57682481D02*
X98600000Y-56002240D01*
X102045442Y-58654558D02*
X99572077Y-58654558D01*
X88206145Y-53947272D02*
X88206145Y-50343512D01*
X102400000Y-58300000D02*
X102045442Y-58654558D01*
X89458873Y-55200000D02*
X88206145Y-53947272D01*
X102400000Y-57400000D02*
X102400000Y-58300000D01*
X99572077Y-58654558D02*
X98600000Y-57682481D01*
%TO.N,Net-(U5-SYS_MCLK)*%
X107800000Y-51725000D02*
X107075000Y-51000000D01*
X108150000Y-56850000D02*
X108200000Y-56800000D01*
X106050000Y-56850000D02*
X108150000Y-56850000D01*
X107800000Y-54700000D02*
X107800000Y-51725000D01*
D44*
%TO.N,unconnected-(U1-2_OUT2-Pad4)*%
X97380000Y-56410000D02*
X94840000Y-56410000D01*
%TO.N,unconnected-(U1-5_IN2-Pad7)*%
X94840000Y-64030000D02*
X97380000Y-64030000D01*
%TO.N,unconnected-(U1-11_MOSI_CTX1-Pad13)*%
X94840000Y-79270000D02*
X97380000Y-79270000D01*
%TO.N,unconnected-(U1-12_MISO_MQSL-Pad14)*%
X97380000Y-81810000D02*
X94840000Y-81810000D01*
%TO.N,unconnected-(U1-24_A10_TX6_SCL2-Pad16)*%
X97380000Y-86890000D02*
X94840000Y-86890000D01*
%TO.N,unconnected-(U1-29_TX7-Pad21)*%
X94840000Y-99590000D02*
X97380000Y-99590000D01*
%TO.N,unconnected-(U1-31_CTX3-Pad23)*%
X94840000Y-104670000D02*
X97380000Y-104670000D01*
%TO.N,unconnected-(U1-32_OUT1B-Pad24)*%
X97380000Y-107210000D02*
X94840000Y-107210000D01*
%TO.N,unconnected-(U1-34_RX8-Pad26)*%
X112620000Y-104670000D02*
X115160000Y-104670000D01*
%TO.N,unconnected-(U1-35_TX8-Pad27)*%
X115160000Y-102130000D02*
X112620000Y-102130000D01*
%TO.N,unconnected-(U1-40_A16-Pad32)*%
X112620000Y-89430000D02*
X115160000Y-89430000D01*
%TO.N,unconnected-(U1-GND-Pad34)*%
X112620000Y-84350000D02*
X115160000Y-84350000D01*
%TO.N,unconnected-(U1-14_A0_TX3_SPDIF_OUT-Pad36)*%
X112620000Y-79270000D02*
X115160000Y-79270000D01*
%TO.N,unconnected-(U1-15_A1_RX3_SPDIF_IN-Pad37)*%
X115160000Y-76730000D02*
X112620000Y-76730000D01*
%TO.N,unconnected-(U1-17_A3_TX4_SDA1-Pad39)*%
X115160000Y-71650000D02*
X112620000Y-71650000D01*
%TO.N,Net-(JP1-A)*%
X104300000Y-92400000D02*
X104475000Y-92400000D01*
X104099847Y-92199847D02*
X104300000Y-92400000D01*
X104099847Y-91400153D02*
X104099847Y-92199847D01*
%TO.N,Net-(JP3-B)*%
X94200000Y-128200000D02*
X94300000Y-128100000D01*
X87300000Y-128200000D02*
X94200000Y-128200000D01*
%TO.N,PREAMP_IN_L*%
X88125000Y-124750000D02*
X88075000Y-124800000D01*
X97951000Y-129551000D02*
X99700000Y-131300000D01*
X99700000Y-131300000D02*
X122800000Y-131300000D01*
X88075000Y-124800000D02*
X89524000Y-126249000D01*
X80100000Y-109400000D02*
X80100000Y-86389657D01*
X80100000Y-86389657D02*
X82138145Y-84351512D01*
X122800000Y-131300000D02*
X127000000Y-127100000D01*
X97951000Y-128529470D02*
X97951000Y-129551000D01*
X88125000Y-123200000D02*
X88125000Y-124750000D01*
X95670530Y-126249000D02*
X97951000Y-128529470D01*
X89524000Y-126249000D02*
X95670530Y-126249000D01*
%TO.N,PREAMP_IN_R*%
X91165000Y-123260000D02*
X91225000Y-123200000D01*
X91165000Y-124800000D02*
X91165000Y-123260000D01*
%TO.N,LED_NEG*%
X81024000Y-133181514D02*
X81024000Y-135024000D01*
X87600000Y-129725000D02*
X84480514Y-129725000D01*
X84480514Y-129725000D02*
X81024000Y-133181514D01*
X81024000Y-135024000D02*
X87000000Y-141000000D01*
D45*
%TO.N,Net-(U5-VDDA)*%
X102131718Y-56850000D02*
X103150000Y-56850000D01*
X101403050Y-57396950D02*
X101695442Y-57104558D01*
X101403050Y-57903558D02*
X101403050Y-57396950D01*
X101877160Y-57104558D02*
X102131718Y-56850000D01*
X101695442Y-57104558D02*
X101877160Y-57104558D01*
D44*
%TO.N,unconnected-(U1-25_A11_RX6_SDA2-Pad17)_1*%
X94840000Y-89430000D02*
X97380000Y-89430000D01*
%TO.N,unconnected-(U1-13_SCK_LED-Pad35)_1*%
X115160000Y-81810000D02*
X112620000Y-81810000D01*
%TO.N,unconnected-(U1-10_CS_MQSR-Pad12)_1*%
X97380000Y-76730000D02*
X94840000Y-76730000D01*
%TO.N,unconnected-(U1-36_CS-Pad28)_1*%
X112620000Y-99590000D02*
X115160000Y-99590000D01*
%TO.N,unconnected-(U1-22_A8_CTX1-Pad44)_1*%
X112620000Y-58950000D02*
X115160000Y-58950000D01*
%TO.N,unconnected-(U1-38_CS1_IN1-Pad30)_1*%
X112620000Y-94510000D02*
X115160000Y-94510000D01*
%TO.N,unconnected-(U1-41_A17-Pad33)_1*%
X115160000Y-86890000D02*
X112620000Y-86890000D01*
%TO.N,unconnected-(U1-27_A13_SCK1-Pad19)_1*%
X94840000Y-94510000D02*
X97380000Y-94510000D01*
%TO.N,unconnected-(U1-0_RX1_CRX2_CS1-Pad2)_1*%
X97380000Y-51330000D02*
X94840000Y-51330000D01*
%TO.N,unconnected-(U1-4_BCLK2-Pad6)_1*%
X97380000Y-61490000D02*
X94840000Y-61490000D01*
%TO.N,unconnected-(U1-16_A2_RX4_SCL1-Pad38)_1*%
X112620000Y-74190000D02*
X115160000Y-74190000D01*
%TO.N,unconnected-(U1-30_CRX3-Pad22)_1*%
X97380000Y-102130000D02*
X94840000Y-102130000D01*
%TO.N,unconnected-(U1-37_CS-Pad29)_1*%
X115160000Y-97050000D02*
X112620000Y-97050000D01*
%TO.N,unconnected-(U1-26_A12_MOSI1-Pad18)_1*%
X97380000Y-91970000D02*
X94840000Y-91970000D01*
%TO.N,unconnected-(U1-33_MCLK2-Pad25)_1*%
X115160000Y-107210000D02*
X112620000Y-107210000D01*
%TO.N,unconnected-(U1-6_OUT1D-Pad8)_1*%
X97380000Y-66570000D02*
X94840000Y-66570000D01*
%TO.N,unconnected-(U1-39_MISO1_OUT1A-Pad31)_1*%
X115160000Y-91970000D02*
X112620000Y-91970000D01*
%TO.N,unconnected-(U1-28_RX7-Pad20)_1*%
X97380000Y-97050000D02*
X94840000Y-97050000D01*
%TO.N,unconnected-(U1-9_OUT1C-Pad11)_1*%
X94840000Y-74190000D02*
X97380000Y-74190000D01*
%TO.N,unconnected-(U1-3_LRCLK2-Pad5)_1*%
X94840000Y-58950000D02*
X97380000Y-58950000D01*
%TO.N,Net-(U3A-+)*%
X88999000Y-122524000D02*
X89675000Y-123200000D01*
X88999000Y-120726000D02*
X88999000Y-122524000D01*
X89725000Y-120000000D02*
X88999000Y-120726000D01*
%TO.N,PREAMP_IN_L*%
X87775000Y-124500000D02*
X88075000Y-124800000D01*
X87200000Y-124500000D02*
X87775000Y-124500000D01*
%TO.N,JACK_IN*%
X127300000Y-128700000D02*
X127300000Y-128400000D01*
X124100000Y-131900000D02*
X127300000Y-128700000D01*
X99500000Y-131900000D02*
X124100000Y-131900000D01*
X97500000Y-129900000D02*
X99500000Y-131900000D01*
X97500000Y-128716280D02*
X97500000Y-129900000D01*
X95483720Y-126700000D02*
X97500000Y-128716280D01*
X87600000Y-126700000D02*
X95483720Y-126700000D01*
X86000000Y-125100000D02*
X87600000Y-126700000D01*
X86000000Y-124400000D02*
X86000000Y-125100000D01*
%TD*%
M02*
