%TF.GenerationSoftware,KiCad,Pcbnew,9.0.1*%
%TF.CreationDate,2025-05-21T23:19:58+01:00*%
%TF.ProjectId,stomp_01,73746f6d-705f-4303-912e-6b696361645f,rev?*%
%TF.SameCoordinates,Original*%
%TF.FileFunction,Legend,Top*%
%TF.FilePolarity,Positive*%
%FSLAX46Y46*%
G04 Gerber Fmt 4.6, Leading zero omitted, Abs format (unit mm)*
G04 Created by KiCad (PCBNEW 9.0.1) date 2025-05-21 23:19:58*
%MOMM*%
%LPD*%
G01*
G04 APERTURE LIST*
G04 Aperture macros list*
%AMRoundRect*
0 Rectangle with rounded corners*
0 $1 Rounding radius*
0 $2 $3 $4 $5 $6 $7 $8 $9 X,Y pos of 4 corners*
0 Add a 4 corners polygon primitive as box body*
4,1,4,$2,$3,$4,$5,$6,$7,$8,$9,$2,$3,0*
0 Add four circle primitives for the rounded corners*
1,1,$1+$1,$2,$3*
1,1,$1+$1,$4,$5*
1,1,$1+$1,$6,$7*
1,1,$1+$1,$8,$9*
0 Add four rect primitives between the rounded corners*
20,1,$1+$1,$2,$3,$4,$5,0*
20,1,$1+$1,$4,$5,$6,$7,0*
20,1,$1+$1,$6,$7,$8,$9,0*
20,1,$1+$1,$8,$9,$2,$3,0*%
G04 Aperture macros list end*
%ADD10C,0.150000*%
%ADD11C,0.120000*%
%ADD12RoundRect,0.225000X-0.225000X-0.250000X0.225000X-0.250000X0.225000X0.250000X-0.225000X0.250000X0*%
%ADD13RoundRect,0.200000X0.200000X0.275000X-0.200000X0.275000X-0.200000X-0.275000X0.200000X-0.275000X0*%
%ADD14C,1.700000*%
%ADD15O,1.700000X1.700000*%
%ADD16RoundRect,0.250000X-0.600000X-2.600000X0.600000X-2.600000X0.600000X2.600000X-0.600000X2.600000X0*%
%ADD17RoundRect,0.200000X-0.275000X0.200000X-0.275000X-0.200000X0.275000X-0.200000X0.275000X0.200000X0*%
%ADD18RoundRect,0.200000X0.275000X-0.200000X0.275000X0.200000X-0.275000X0.200000X-0.275000X-0.200000X0*%
%ADD19RoundRect,0.225000X0.225000X0.250000X-0.225000X0.250000X-0.225000X-0.250000X0.225000X-0.250000X0*%
%ADD20RoundRect,0.250000X0.650000X-1.000000X0.650000X1.000000X-0.650000X1.000000X-0.650000X-1.000000X0*%
%ADD21C,1.600000*%
%ADD22O,1.600000X1.600000*%
%ADD23RoundRect,0.150000X0.150000X-0.825000X0.150000X0.825000X-0.150000X0.825000X-0.150000X-0.825000X0*%
%ADD24RoundRect,0.050000X-0.375000X-0.050000X0.375000X-0.050000X0.375000X0.050000X-0.375000X0.050000X0*%
%ADD25RoundRect,0.050000X-0.050000X-0.375000X0.050000X-0.375000X0.050000X0.375000X-0.050000X0.375000X0*%
%ADD26R,1.650000X1.650000*%
%ADD27C,3.200000*%
%ADD28RoundRect,0.200000X-0.200000X-0.275000X0.200000X-0.275000X0.200000X0.275000X-0.200000X0.275000X0*%
%ADD29RoundRect,0.218750X0.218750X0.256250X-0.218750X0.256250X-0.218750X-0.256250X0.218750X-0.256250X0*%
%ADD30RoundRect,0.225000X0.250000X-0.225000X0.250000X0.225000X-0.250000X0.225000X-0.250000X-0.225000X0*%
%ADD31RoundRect,0.150000X-0.150000X0.825000X-0.150000X-0.825000X0.150000X-0.825000X0.150000X0.825000X0*%
%ADD32RoundRect,0.250000X-0.250000X-0.475000X0.250000X-0.475000X0.250000X0.475000X-0.250000X0.475000X0*%
%ADD33RoundRect,0.250000X-1.125000X-1.125000X1.125000X-1.125000X1.125000X1.125000X-1.125000X1.125000X0*%
%ADD34C,2.750000*%
%ADD35RoundRect,0.250000X1.125000X1.125000X-1.125000X1.125000X-1.125000X-1.125000X1.125000X-1.125000X0*%
%ADD36RoundRect,0.225000X-0.250000X0.225000X-0.250000X-0.225000X0.250000X-0.225000X0.250000X0.225000X0*%
%ADD37RoundRect,0.150000X0.150000X-0.587500X0.150000X0.587500X-0.150000X0.587500X-0.150000X-0.587500X0*%
%ADD38R,1.700000X1.700000*%
%ADD39RoundRect,0.250000X1.100000X-0.325000X1.100000X0.325000X-1.100000X0.325000X-1.100000X-0.325000X0*%
%ADD40R,2.200000X2.200000*%
%ADD41O,2.200000X2.200000*%
%ADD42R,1.800000X1.800000*%
%ADD43C,1.800000*%
%ADD44O,4.500000X2.800000*%
G04 APERTURE END LIST*
D10*
X80868145Y-100821512D02*
X83408145Y-100821512D01*
X83408145Y-108481512D01*
X80868145Y-108481512D01*
X80868145Y-100821512D01*
X83408145Y-100821512D02*
X83408145Y-78001512D01*
X80868145Y-62761512D02*
X83408145Y-62761512D01*
X83408145Y-67841512D01*
X80868145Y-67841512D01*
X80868145Y-62761512D01*
X80868145Y-72921512D02*
X83408145Y-72921512D01*
X83408145Y-78001512D01*
X80868145Y-78001512D01*
X80868145Y-72921512D01*
X80868145Y-67841512D02*
X83408145Y-67841512D01*
X83408145Y-72921512D01*
X80868145Y-72921512D01*
X80868145Y-67841512D01*
X88489777Y-47498900D02*
X91029777Y-47498900D01*
X91029777Y-55158900D01*
X88489777Y-55158900D01*
X88489777Y-47498900D01*
X87860588Y-50752438D02*
X87765350Y-50704819D01*
X87765350Y-50704819D02*
X87622493Y-50704819D01*
X87622493Y-50704819D02*
X87479636Y-50752438D01*
X87479636Y-50752438D02*
X87384398Y-50847676D01*
X87384398Y-50847676D02*
X87336779Y-50942914D01*
X87336779Y-50942914D02*
X87289160Y-51133390D01*
X87289160Y-51133390D02*
X87289160Y-51276247D01*
X87289160Y-51276247D02*
X87336779Y-51466723D01*
X87336779Y-51466723D02*
X87384398Y-51561961D01*
X87384398Y-51561961D02*
X87479636Y-51657200D01*
X87479636Y-51657200D02*
X87622493Y-51704819D01*
X87622493Y-51704819D02*
X87717731Y-51704819D01*
X87717731Y-51704819D02*
X87860588Y-51657200D01*
X87860588Y-51657200D02*
X87908207Y-51609580D01*
X87908207Y-51609580D02*
X87908207Y-51276247D01*
X87908207Y-51276247D02*
X87717731Y-51276247D01*
X78304172Y-86609830D02*
X78304172Y-85809830D01*
X78304172Y-85809830D02*
X78555601Y-85809830D01*
X78555601Y-85809830D02*
X78618458Y-85847925D01*
X78618458Y-85847925D02*
X78649887Y-85886020D01*
X78649887Y-85886020D02*
X78681315Y-85962211D01*
X78681315Y-85962211D02*
X78681315Y-86076496D01*
X78681315Y-86076496D02*
X78649887Y-86152687D01*
X78649887Y-86152687D02*
X78618458Y-86190782D01*
X78618458Y-86190782D02*
X78555601Y-86228877D01*
X78555601Y-86228877D02*
X78304172Y-86228877D01*
X78995601Y-85809830D02*
X78932744Y-85962211D01*
X79247030Y-86381258D02*
X79561316Y-86381258D01*
X79184173Y-86609830D02*
X79404173Y-85809830D01*
X79404173Y-85809830D02*
X79624173Y-86609830D01*
X79844172Y-86609830D02*
X79844172Y-85809830D01*
X79844172Y-85809830D02*
X80064172Y-86381258D01*
X80064172Y-86381258D02*
X80284172Y-85809830D01*
X80284172Y-85809830D02*
X80284172Y-86609830D01*
X80598458Y-86609830D02*
X80598458Y-85809830D01*
X80598458Y-85809830D02*
X80849887Y-85809830D01*
X80849887Y-85809830D02*
X80912744Y-85847925D01*
X80912744Y-85847925D02*
X80944173Y-85886020D01*
X80944173Y-85886020D02*
X80975601Y-85962211D01*
X80975601Y-85962211D02*
X80975601Y-86076496D01*
X80975601Y-86076496D02*
X80944173Y-86152687D01*
X80944173Y-86152687D02*
X80912744Y-86190782D01*
X80912744Y-86190782D02*
X80849887Y-86228877D01*
X80849887Y-86228877D02*
X80598458Y-86228877D01*
X79089886Y-87897785D02*
X79089886Y-87097785D01*
X79404172Y-87897785D02*
X79404172Y-87097785D01*
X79404172Y-87097785D02*
X79781315Y-87897785D01*
X79781315Y-87897785D02*
X79781315Y-87097785D01*
X80975601Y-87897785D02*
X80755601Y-87516832D01*
X80598458Y-87897785D02*
X80598458Y-87097785D01*
X80598458Y-87097785D02*
X80849887Y-87097785D01*
X80849887Y-87097785D02*
X80912744Y-87135880D01*
X80912744Y-87135880D02*
X80944173Y-87173975D01*
X80944173Y-87173975D02*
X80975601Y-87250166D01*
X80975601Y-87250166D02*
X80975601Y-87364451D01*
X80975601Y-87364451D02*
X80944173Y-87440642D01*
X80944173Y-87440642D02*
X80912744Y-87478737D01*
X80912744Y-87478737D02*
X80849887Y-87516832D01*
X80849887Y-87516832D02*
X80598458Y-87516832D01*
X87689160Y-47162295D02*
X87689160Y-46362295D01*
X87689160Y-46362295D02*
X87993922Y-46362295D01*
X87993922Y-46362295D02*
X88070112Y-46400390D01*
X88070112Y-46400390D02*
X88108207Y-46438485D01*
X88108207Y-46438485D02*
X88146303Y-46514676D01*
X88146303Y-46514676D02*
X88146303Y-46628961D01*
X88146303Y-46628961D02*
X88108207Y-46705152D01*
X88108207Y-46705152D02*
X88070112Y-46743247D01*
X88070112Y-46743247D02*
X87993922Y-46781342D01*
X87993922Y-46781342D02*
X87689160Y-46781342D01*
X88489160Y-47162295D02*
X88489160Y-46362295D01*
X88489160Y-46743247D02*
X88946303Y-46743247D01*
X88946303Y-47162295D02*
X88946303Y-46362295D01*
X89479636Y-46362295D02*
X89632017Y-46362295D01*
X89632017Y-46362295D02*
X89708207Y-46400390D01*
X89708207Y-46400390D02*
X89784398Y-46476580D01*
X89784398Y-46476580D02*
X89822493Y-46628961D01*
X89822493Y-46628961D02*
X89822493Y-46895628D01*
X89822493Y-46895628D02*
X89784398Y-47048009D01*
X89784398Y-47048009D02*
X89708207Y-47124200D01*
X89708207Y-47124200D02*
X89632017Y-47162295D01*
X89632017Y-47162295D02*
X89479636Y-47162295D01*
X89479636Y-47162295D02*
X89403445Y-47124200D01*
X89403445Y-47124200D02*
X89327255Y-47048009D01*
X89327255Y-47048009D02*
X89289159Y-46895628D01*
X89289159Y-46895628D02*
X89289159Y-46628961D01*
X89289159Y-46628961D02*
X89327255Y-46476580D01*
X89327255Y-46476580D02*
X89403445Y-46400390D01*
X89403445Y-46400390D02*
X89479636Y-46362295D01*
X90165350Y-47162295D02*
X90165350Y-46362295D01*
X90165350Y-46362295D02*
X90622493Y-47162295D01*
X90622493Y-47162295D02*
X90622493Y-46362295D01*
X91003445Y-46743247D02*
X91270111Y-46743247D01*
X91384397Y-47162295D02*
X91003445Y-47162295D01*
X91003445Y-47162295D02*
X91003445Y-46362295D01*
X91003445Y-46362295D02*
X91384397Y-46362295D01*
X91689159Y-47124200D02*
X91803445Y-47162295D01*
X91803445Y-47162295D02*
X91993921Y-47162295D01*
X91993921Y-47162295D02*
X92070112Y-47124200D01*
X92070112Y-47124200D02*
X92108207Y-47086104D01*
X92108207Y-47086104D02*
X92146302Y-47009914D01*
X92146302Y-47009914D02*
X92146302Y-46933723D01*
X92146302Y-46933723D02*
X92108207Y-46857533D01*
X92108207Y-46857533D02*
X92070112Y-46819438D01*
X92070112Y-46819438D02*
X91993921Y-46781342D01*
X91993921Y-46781342D02*
X91841540Y-46743247D01*
X91841540Y-46743247D02*
X91765350Y-46705152D01*
X91765350Y-46705152D02*
X91727255Y-46667057D01*
X91727255Y-46667057D02*
X91689159Y-46590866D01*
X91689159Y-46590866D02*
X91689159Y-46514676D01*
X91689159Y-46514676D02*
X91727255Y-46438485D01*
X91727255Y-46438485D02*
X91765350Y-46400390D01*
X91765350Y-46400390D02*
X91841540Y-46362295D01*
X91841540Y-46362295D02*
X92032017Y-46362295D01*
X92032017Y-46362295D02*
X92146302Y-46400390D01*
X79617964Y-76947701D02*
X79617964Y-76328654D01*
X79617964Y-76328654D02*
X79998916Y-76661987D01*
X79998916Y-76661987D02*
X79998916Y-76519130D01*
X79998916Y-76519130D02*
X80046535Y-76423892D01*
X80046535Y-76423892D02*
X80094154Y-76376273D01*
X80094154Y-76376273D02*
X80189392Y-76328654D01*
X80189392Y-76328654D02*
X80427487Y-76328654D01*
X80427487Y-76328654D02*
X80522725Y-76376273D01*
X80522725Y-76376273D02*
X80570345Y-76423892D01*
X80570345Y-76423892D02*
X80617964Y-76519130D01*
X80617964Y-76519130D02*
X80617964Y-76804844D01*
X80617964Y-76804844D02*
X80570345Y-76900082D01*
X80570345Y-76900082D02*
X80522725Y-76947701D01*
X80522725Y-75900082D02*
X80570345Y-75852463D01*
X80570345Y-75852463D02*
X80617964Y-75900082D01*
X80617964Y-75900082D02*
X80570345Y-75947701D01*
X80570345Y-75947701D02*
X80522725Y-75900082D01*
X80522725Y-75900082D02*
X80617964Y-75900082D01*
X79617964Y-75519130D02*
X79617964Y-74900083D01*
X79617964Y-74900083D02*
X79998916Y-75233416D01*
X79998916Y-75233416D02*
X79998916Y-75090559D01*
X79998916Y-75090559D02*
X80046535Y-74995321D01*
X80046535Y-74995321D02*
X80094154Y-74947702D01*
X80094154Y-74947702D02*
X80189392Y-74900083D01*
X80189392Y-74900083D02*
X80427487Y-74900083D01*
X80427487Y-74900083D02*
X80522725Y-74947702D01*
X80522725Y-74947702D02*
X80570345Y-74995321D01*
X80570345Y-74995321D02*
X80617964Y-75090559D01*
X80617964Y-75090559D02*
X80617964Y-75376273D01*
X80617964Y-75376273D02*
X80570345Y-75471511D01*
X80570345Y-75471511D02*
X80522725Y-75519130D01*
X79617964Y-74614368D02*
X80617964Y-74281035D01*
X80617964Y-74281035D02*
X79617964Y-73947702D01*
X87908207Y-54304819D02*
X87574874Y-53828628D01*
X87336779Y-54304819D02*
X87336779Y-53304819D01*
X87336779Y-53304819D02*
X87717731Y-53304819D01*
X87717731Y-53304819D02*
X87812969Y-53352438D01*
X87812969Y-53352438D02*
X87860588Y-53400057D01*
X87860588Y-53400057D02*
X87908207Y-53495295D01*
X87908207Y-53495295D02*
X87908207Y-53638152D01*
X87908207Y-53638152D02*
X87860588Y-53733390D01*
X87860588Y-53733390D02*
X87812969Y-53781009D01*
X87812969Y-53781009D02*
X87717731Y-53828628D01*
X87717731Y-53828628D02*
X87336779Y-53828628D01*
X79435600Y-96769830D02*
X79121314Y-96769830D01*
X79121314Y-96769830D02*
X79121314Y-95969830D01*
X79655600Y-96769830D02*
X79655600Y-95969830D01*
X79969886Y-96769830D02*
X79969886Y-95969830D01*
X79969886Y-95969830D02*
X80347029Y-96769830D01*
X80347029Y-96769830D02*
X80347029Y-95969830D01*
X80661315Y-96350782D02*
X80881315Y-96350782D01*
X80975601Y-96769830D02*
X80661315Y-96769830D01*
X80661315Y-96769830D02*
X80661315Y-95969830D01*
X80661315Y-95969830D02*
X80975601Y-95969830D01*
X78335601Y-97257785D02*
X78461315Y-97257785D01*
X78461315Y-97257785D02*
X78524172Y-97295880D01*
X78524172Y-97295880D02*
X78587029Y-97372070D01*
X78587029Y-97372070D02*
X78618458Y-97524451D01*
X78618458Y-97524451D02*
X78618458Y-97791118D01*
X78618458Y-97791118D02*
X78587029Y-97943499D01*
X78587029Y-97943499D02*
X78524172Y-98019690D01*
X78524172Y-98019690D02*
X78461315Y-98057785D01*
X78461315Y-98057785D02*
X78335601Y-98057785D01*
X78335601Y-98057785D02*
X78272744Y-98019690D01*
X78272744Y-98019690D02*
X78209886Y-97943499D01*
X78209886Y-97943499D02*
X78178458Y-97791118D01*
X78178458Y-97791118D02*
X78178458Y-97524451D01*
X78178458Y-97524451D02*
X78209886Y-97372070D01*
X78209886Y-97372070D02*
X78272744Y-97295880D01*
X78272744Y-97295880D02*
X78335601Y-97257785D01*
X78901315Y-97257785D02*
X78901315Y-97905404D01*
X78901315Y-97905404D02*
X78932744Y-97981594D01*
X78932744Y-97981594D02*
X78964173Y-98019690D01*
X78964173Y-98019690D02*
X79027030Y-98057785D01*
X79027030Y-98057785D02*
X79152744Y-98057785D01*
X79152744Y-98057785D02*
X79215601Y-98019690D01*
X79215601Y-98019690D02*
X79247030Y-97981594D01*
X79247030Y-97981594D02*
X79278458Y-97905404D01*
X79278458Y-97905404D02*
X79278458Y-97257785D01*
X79498459Y-97257785D02*
X79875602Y-97257785D01*
X79687030Y-98057785D02*
X79687030Y-97257785D01*
X80975601Y-98057785D02*
X80755601Y-97676832D01*
X80598458Y-98057785D02*
X80598458Y-97257785D01*
X80598458Y-97257785D02*
X80849887Y-97257785D01*
X80849887Y-97257785D02*
X80912744Y-97295880D01*
X80912744Y-97295880D02*
X80944173Y-97333975D01*
X80944173Y-97333975D02*
X80975601Y-97410166D01*
X80975601Y-97410166D02*
X80975601Y-97524451D01*
X80975601Y-97524451D02*
X80944173Y-97600642D01*
X80944173Y-97600642D02*
X80912744Y-97638737D01*
X80912744Y-97638737D02*
X80849887Y-97676832D01*
X80849887Y-97676832D02*
X80598458Y-97676832D01*
X118704910Y-110006089D02*
X119847768Y-110006089D01*
X119276339Y-110577517D02*
X119276339Y-109434660D01*
X79435600Y-94229830D02*
X79121314Y-94229830D01*
X79121314Y-94229830D02*
X79121314Y-93429830D01*
X79655600Y-94229830D02*
X79655600Y-93429830D01*
X79969886Y-94229830D02*
X79969886Y-93429830D01*
X79969886Y-93429830D02*
X80347029Y-94229830D01*
X80347029Y-94229830D02*
X80347029Y-93429830D01*
X80661315Y-93810782D02*
X80881315Y-93810782D01*
X80975601Y-94229830D02*
X80661315Y-94229830D01*
X80661315Y-94229830D02*
X80661315Y-93429830D01*
X80661315Y-93429830D02*
X80975601Y-93429830D01*
X78461315Y-94717785D02*
X78587029Y-94717785D01*
X78587029Y-94717785D02*
X78649886Y-94755880D01*
X78649886Y-94755880D02*
X78712743Y-94832070D01*
X78712743Y-94832070D02*
X78744172Y-94984451D01*
X78744172Y-94984451D02*
X78744172Y-95251118D01*
X78744172Y-95251118D02*
X78712743Y-95403499D01*
X78712743Y-95403499D02*
X78649886Y-95479690D01*
X78649886Y-95479690D02*
X78587029Y-95517785D01*
X78587029Y-95517785D02*
X78461315Y-95517785D01*
X78461315Y-95517785D02*
X78398458Y-95479690D01*
X78398458Y-95479690D02*
X78335600Y-95403499D01*
X78335600Y-95403499D02*
X78304172Y-95251118D01*
X78304172Y-95251118D02*
X78304172Y-94984451D01*
X78304172Y-94984451D02*
X78335600Y-94832070D01*
X78335600Y-94832070D02*
X78398458Y-94755880D01*
X78398458Y-94755880D02*
X78461315Y-94717785D01*
X79027029Y-94717785D02*
X79027029Y-95365404D01*
X79027029Y-95365404D02*
X79058458Y-95441594D01*
X79058458Y-95441594D02*
X79089887Y-95479690D01*
X79089887Y-95479690D02*
X79152744Y-95517785D01*
X79152744Y-95517785D02*
X79278458Y-95517785D01*
X79278458Y-95517785D02*
X79341315Y-95479690D01*
X79341315Y-95479690D02*
X79372744Y-95441594D01*
X79372744Y-95441594D02*
X79404172Y-95365404D01*
X79404172Y-95365404D02*
X79404172Y-94717785D01*
X79624173Y-94717785D02*
X80001316Y-94717785D01*
X79812744Y-95517785D02*
X79812744Y-94717785D01*
X81038458Y-95517785D02*
X80724172Y-95517785D01*
X80724172Y-95517785D02*
X80724172Y-94717785D01*
X80617964Y-65930559D02*
X80617964Y-65740083D01*
X80617964Y-65740083D02*
X80570345Y-65644845D01*
X80570345Y-65644845D02*
X80522725Y-65597226D01*
X80522725Y-65597226D02*
X80379868Y-65501988D01*
X80379868Y-65501988D02*
X80189392Y-65454369D01*
X80189392Y-65454369D02*
X79808440Y-65454369D01*
X79808440Y-65454369D02*
X79713202Y-65501988D01*
X79713202Y-65501988D02*
X79665583Y-65549607D01*
X79665583Y-65549607D02*
X79617964Y-65644845D01*
X79617964Y-65644845D02*
X79617964Y-65835321D01*
X79617964Y-65835321D02*
X79665583Y-65930559D01*
X79665583Y-65930559D02*
X79713202Y-65978178D01*
X79713202Y-65978178D02*
X79808440Y-66025797D01*
X79808440Y-66025797D02*
X80046535Y-66025797D01*
X80046535Y-66025797D02*
X80141773Y-65978178D01*
X80141773Y-65978178D02*
X80189392Y-65930559D01*
X80189392Y-65930559D02*
X80237011Y-65835321D01*
X80237011Y-65835321D02*
X80237011Y-65644845D01*
X80237011Y-65644845D02*
X80189392Y-65549607D01*
X80189392Y-65549607D02*
X80141773Y-65501988D01*
X80141773Y-65501988D02*
X80046535Y-65454369D01*
X79617964Y-65168654D02*
X80617964Y-64835321D01*
X80617964Y-64835321D02*
X79617964Y-64501988D01*
X79617964Y-70581988D02*
X79617964Y-71058178D01*
X79617964Y-71058178D02*
X80094154Y-71105797D01*
X80094154Y-71105797D02*
X80046535Y-71058178D01*
X80046535Y-71058178D02*
X79998916Y-70962940D01*
X79998916Y-70962940D02*
X79998916Y-70724845D01*
X79998916Y-70724845D02*
X80046535Y-70629607D01*
X80046535Y-70629607D02*
X80094154Y-70581988D01*
X80094154Y-70581988D02*
X80189392Y-70534369D01*
X80189392Y-70534369D02*
X80427487Y-70534369D01*
X80427487Y-70534369D02*
X80522725Y-70581988D01*
X80522725Y-70581988D02*
X80570345Y-70629607D01*
X80570345Y-70629607D02*
X80617964Y-70724845D01*
X80617964Y-70724845D02*
X80617964Y-70962940D01*
X80617964Y-70962940D02*
X80570345Y-71058178D01*
X80570345Y-71058178D02*
X80522725Y-71105797D01*
X79617964Y-70248654D02*
X80617964Y-69915321D01*
X80617964Y-69915321D02*
X79617964Y-69581988D01*
X79435600Y-89149830D02*
X79121314Y-89149830D01*
X79121314Y-89149830D02*
X79121314Y-88349830D01*
X79655600Y-89149830D02*
X79655600Y-88349830D01*
X79969886Y-89149830D02*
X79969886Y-88349830D01*
X79969886Y-88349830D02*
X80347029Y-89149830D01*
X80347029Y-89149830D02*
X80347029Y-88349830D01*
X80661315Y-88730782D02*
X80881315Y-88730782D01*
X80975601Y-89149830D02*
X80661315Y-89149830D01*
X80661315Y-89149830D02*
X80661315Y-88349830D01*
X80661315Y-88349830D02*
X80975601Y-88349830D01*
X79215600Y-90437785D02*
X79215600Y-89637785D01*
X79529886Y-90437785D02*
X79529886Y-89637785D01*
X79529886Y-89637785D02*
X79907029Y-90437785D01*
X79907029Y-90437785D02*
X79907029Y-89637785D01*
X81038458Y-90437785D02*
X80724172Y-90437785D01*
X80724172Y-90437785D02*
X80724172Y-89637785D01*
X109728571Y-109337200D02*
X110871429Y-109337200D01*
X83595238Y-113454819D02*
X83785714Y-113454819D01*
X83785714Y-113454819D02*
X83880952Y-113502438D01*
X83880952Y-113502438D02*
X83976190Y-113597676D01*
X83976190Y-113597676D02*
X84023809Y-113788152D01*
X84023809Y-113788152D02*
X84023809Y-114121485D01*
X84023809Y-114121485D02*
X83976190Y-114311961D01*
X83976190Y-114311961D02*
X83880952Y-114407200D01*
X83880952Y-114407200D02*
X83785714Y-114454819D01*
X83785714Y-114454819D02*
X83595238Y-114454819D01*
X83595238Y-114454819D02*
X83500000Y-114407200D01*
X83500000Y-114407200D02*
X83404762Y-114311961D01*
X83404762Y-114311961D02*
X83357143Y-114121485D01*
X83357143Y-114121485D02*
X83357143Y-113788152D01*
X83357143Y-113788152D02*
X83404762Y-113597676D01*
X83404762Y-113597676D02*
X83500000Y-113502438D01*
X83500000Y-113502438D02*
X83595238Y-113454819D01*
X84452381Y-113454819D02*
X84452381Y-114264342D01*
X84452381Y-114264342D02*
X84500000Y-114359580D01*
X84500000Y-114359580D02*
X84547619Y-114407200D01*
X84547619Y-114407200D02*
X84642857Y-114454819D01*
X84642857Y-114454819D02*
X84833333Y-114454819D01*
X84833333Y-114454819D02*
X84928571Y-114407200D01*
X84928571Y-114407200D02*
X84976190Y-114359580D01*
X84976190Y-114359580D02*
X85023809Y-114264342D01*
X85023809Y-114264342D02*
X85023809Y-113454819D01*
X85357143Y-113454819D02*
X85928571Y-113454819D01*
X85642857Y-114454819D02*
X85642857Y-113454819D01*
X86261905Y-114454819D02*
X86261905Y-113454819D01*
X86261905Y-113454819D02*
X86642857Y-113454819D01*
X86642857Y-113454819D02*
X86738095Y-113502438D01*
X86738095Y-113502438D02*
X86785714Y-113550057D01*
X86785714Y-113550057D02*
X86833333Y-113645295D01*
X86833333Y-113645295D02*
X86833333Y-113788152D01*
X86833333Y-113788152D02*
X86785714Y-113883390D01*
X86785714Y-113883390D02*
X86738095Y-113931009D01*
X86738095Y-113931009D02*
X86642857Y-113978628D01*
X86642857Y-113978628D02*
X86261905Y-113978628D01*
X87261905Y-113454819D02*
X87261905Y-114264342D01*
X87261905Y-114264342D02*
X87309524Y-114359580D01*
X87309524Y-114359580D02*
X87357143Y-114407200D01*
X87357143Y-114407200D02*
X87452381Y-114454819D01*
X87452381Y-114454819D02*
X87642857Y-114454819D01*
X87642857Y-114454819D02*
X87738095Y-114407200D01*
X87738095Y-114407200D02*
X87785714Y-114359580D01*
X87785714Y-114359580D02*
X87833333Y-114264342D01*
X87833333Y-114264342D02*
X87833333Y-113454819D01*
X88166667Y-113454819D02*
X88738095Y-113454819D01*
X88452381Y-114454819D02*
X88452381Y-113454819D01*
X116112969Y-122512728D02*
X116241541Y-122555585D01*
X116241541Y-122555585D02*
X116284398Y-122598442D01*
X116284398Y-122598442D02*
X116327255Y-122684157D01*
X116327255Y-122684157D02*
X116327255Y-122812728D01*
X116327255Y-122812728D02*
X116284398Y-122898442D01*
X116284398Y-122898442D02*
X116241541Y-122941300D01*
X116241541Y-122941300D02*
X116155826Y-122984157D01*
X116155826Y-122984157D02*
X115812969Y-122984157D01*
X115812969Y-122984157D02*
X115812969Y-122084157D01*
X115812969Y-122084157D02*
X116112969Y-122084157D01*
X116112969Y-122084157D02*
X116198684Y-122127014D01*
X116198684Y-122127014D02*
X116241541Y-122169871D01*
X116241541Y-122169871D02*
X116284398Y-122255585D01*
X116284398Y-122255585D02*
X116284398Y-122341300D01*
X116284398Y-122341300D02*
X116241541Y-122427014D01*
X116241541Y-122427014D02*
X116198684Y-122469871D01*
X116198684Y-122469871D02*
X116112969Y-122512728D01*
X116112969Y-122512728D02*
X115812969Y-122512728D01*
X116712969Y-122984157D02*
X116712969Y-122384157D01*
X116712969Y-122555585D02*
X116755826Y-122469871D01*
X116755826Y-122469871D02*
X116798684Y-122427014D01*
X116798684Y-122427014D02*
X116884398Y-122384157D01*
X116884398Y-122384157D02*
X116970112Y-122384157D01*
X117655827Y-122984157D02*
X117655827Y-122512728D01*
X117655827Y-122512728D02*
X117612969Y-122427014D01*
X117612969Y-122427014D02*
X117527255Y-122384157D01*
X117527255Y-122384157D02*
X117355827Y-122384157D01*
X117355827Y-122384157D02*
X117270112Y-122427014D01*
X117655827Y-122941300D02*
X117570112Y-122984157D01*
X117570112Y-122984157D02*
X117355827Y-122984157D01*
X117355827Y-122984157D02*
X117270112Y-122941300D01*
X117270112Y-122941300D02*
X117227255Y-122855585D01*
X117227255Y-122855585D02*
X117227255Y-122769871D01*
X117227255Y-122769871D02*
X117270112Y-122684157D01*
X117270112Y-122684157D02*
X117355827Y-122641300D01*
X117355827Y-122641300D02*
X117570112Y-122641300D01*
X117570112Y-122641300D02*
X117655827Y-122598442D01*
X118470113Y-122984157D02*
X118470113Y-122084157D01*
X118470113Y-122941300D02*
X118384398Y-122984157D01*
X118384398Y-122984157D02*
X118212970Y-122984157D01*
X118212970Y-122984157D02*
X118127255Y-122941300D01*
X118127255Y-122941300D02*
X118084398Y-122898442D01*
X118084398Y-122898442D02*
X118041541Y-122812728D01*
X118041541Y-122812728D02*
X118041541Y-122555585D01*
X118041541Y-122555585D02*
X118084398Y-122469871D01*
X118084398Y-122469871D02*
X118127255Y-122427014D01*
X118127255Y-122427014D02*
X118212970Y-122384157D01*
X118212970Y-122384157D02*
X118384398Y-122384157D01*
X118384398Y-122384157D02*
X118470113Y-122427014D01*
X118855827Y-122941300D02*
X118941541Y-122984157D01*
X118941541Y-122984157D02*
X119112970Y-122984157D01*
X119112970Y-122984157D02*
X119198684Y-122941300D01*
X119198684Y-122941300D02*
X119241541Y-122855585D01*
X119241541Y-122855585D02*
X119241541Y-122812728D01*
X119241541Y-122812728D02*
X119198684Y-122727014D01*
X119198684Y-122727014D02*
X119112970Y-122684157D01*
X119112970Y-122684157D02*
X118984399Y-122684157D01*
X118984399Y-122684157D02*
X118898684Y-122641300D01*
X118898684Y-122641300D02*
X118855827Y-122555585D01*
X118855827Y-122555585D02*
X118855827Y-122512728D01*
X118855827Y-122512728D02*
X118898684Y-122427014D01*
X118898684Y-122427014D02*
X118984399Y-122384157D01*
X118984399Y-122384157D02*
X119112970Y-122384157D01*
X119112970Y-122384157D02*
X119198684Y-122427014D01*
X119627255Y-122984157D02*
X119627255Y-122084157D01*
X120012970Y-122984157D02*
X120012970Y-122512728D01*
X120012970Y-122512728D02*
X119970112Y-122427014D01*
X119970112Y-122427014D02*
X119884398Y-122384157D01*
X119884398Y-122384157D02*
X119755827Y-122384157D01*
X119755827Y-122384157D02*
X119670112Y-122427014D01*
X119670112Y-122427014D02*
X119627255Y-122469871D01*
X120827256Y-122984157D02*
X120827256Y-122512728D01*
X120827256Y-122512728D02*
X120784398Y-122427014D01*
X120784398Y-122427014D02*
X120698684Y-122384157D01*
X120698684Y-122384157D02*
X120527256Y-122384157D01*
X120527256Y-122384157D02*
X120441541Y-122427014D01*
X120827256Y-122941300D02*
X120741541Y-122984157D01*
X120741541Y-122984157D02*
X120527256Y-122984157D01*
X120527256Y-122984157D02*
X120441541Y-122941300D01*
X120441541Y-122941300D02*
X120398684Y-122855585D01*
X120398684Y-122855585D02*
X120398684Y-122769871D01*
X120398684Y-122769871D02*
X120441541Y-122684157D01*
X120441541Y-122684157D02*
X120527256Y-122641300D01*
X120527256Y-122641300D02*
X120741541Y-122641300D01*
X120741541Y-122641300D02*
X120827256Y-122598442D01*
X121170113Y-122384157D02*
X121341542Y-122984157D01*
X121341542Y-122984157D02*
X121512970Y-122555585D01*
X121512970Y-122555585D02*
X121684399Y-122984157D01*
X121684399Y-122984157D02*
X121855827Y-122384157D01*
X122884398Y-122984157D02*
X122884398Y-122084157D01*
X123312969Y-122384157D02*
X123312969Y-122984157D01*
X123312969Y-122469871D02*
X123355826Y-122427014D01*
X123355826Y-122427014D02*
X123441541Y-122384157D01*
X123441541Y-122384157D02*
X123570112Y-122384157D01*
X123570112Y-122384157D02*
X123655826Y-122427014D01*
X123655826Y-122427014D02*
X123698684Y-122512728D01*
X123698684Y-122512728D02*
X123698684Y-122984157D01*
X124084398Y-122941300D02*
X124170112Y-122984157D01*
X124170112Y-122984157D02*
X124341541Y-122984157D01*
X124341541Y-122984157D02*
X124427255Y-122941300D01*
X124427255Y-122941300D02*
X124470112Y-122855585D01*
X124470112Y-122855585D02*
X124470112Y-122812728D01*
X124470112Y-122812728D02*
X124427255Y-122727014D01*
X124427255Y-122727014D02*
X124341541Y-122684157D01*
X124341541Y-122684157D02*
X124212970Y-122684157D01*
X124212970Y-122684157D02*
X124127255Y-122641300D01*
X124127255Y-122641300D02*
X124084398Y-122555585D01*
X124084398Y-122555585D02*
X124084398Y-122512728D01*
X124084398Y-122512728D02*
X124127255Y-122427014D01*
X124127255Y-122427014D02*
X124212970Y-122384157D01*
X124212970Y-122384157D02*
X124341541Y-122384157D01*
X124341541Y-122384157D02*
X124427255Y-122427014D01*
X124727255Y-122384157D02*
X125070112Y-122384157D01*
X124855826Y-122084157D02*
X124855826Y-122855585D01*
X124855826Y-122855585D02*
X124898683Y-122941300D01*
X124898683Y-122941300D02*
X124984398Y-122984157D01*
X124984398Y-122984157D02*
X125070112Y-122984157D01*
X125370112Y-122984157D02*
X125370112Y-122384157D01*
X125370112Y-122555585D02*
X125412969Y-122469871D01*
X125412969Y-122469871D02*
X125455827Y-122427014D01*
X125455827Y-122427014D02*
X125541541Y-122384157D01*
X125541541Y-122384157D02*
X125627255Y-122384157D01*
X126312970Y-122384157D02*
X126312970Y-122984157D01*
X125927255Y-122384157D02*
X125927255Y-122855585D01*
X125927255Y-122855585D02*
X125970112Y-122941300D01*
X125970112Y-122941300D02*
X126055827Y-122984157D01*
X126055827Y-122984157D02*
X126184398Y-122984157D01*
X126184398Y-122984157D02*
X126270112Y-122941300D01*
X126270112Y-122941300D02*
X126312970Y-122898442D01*
X126741541Y-122984157D02*
X126741541Y-122384157D01*
X126741541Y-122469871D02*
X126784398Y-122427014D01*
X126784398Y-122427014D02*
X126870113Y-122384157D01*
X126870113Y-122384157D02*
X126998684Y-122384157D01*
X126998684Y-122384157D02*
X127084398Y-122427014D01*
X127084398Y-122427014D02*
X127127256Y-122512728D01*
X127127256Y-122512728D02*
X127127256Y-122984157D01*
X127127256Y-122512728D02*
X127170113Y-122427014D01*
X127170113Y-122427014D02*
X127255827Y-122384157D01*
X127255827Y-122384157D02*
X127384398Y-122384157D01*
X127384398Y-122384157D02*
X127470113Y-122427014D01*
X127470113Y-122427014D02*
X127512970Y-122512728D01*
X127512970Y-122512728D02*
X127512970Y-122984157D01*
X128284398Y-122941300D02*
X128198684Y-122984157D01*
X128198684Y-122984157D02*
X128027256Y-122984157D01*
X128027256Y-122984157D02*
X127941541Y-122941300D01*
X127941541Y-122941300D02*
X127898684Y-122855585D01*
X127898684Y-122855585D02*
X127898684Y-122512728D01*
X127898684Y-122512728D02*
X127941541Y-122427014D01*
X127941541Y-122427014D02*
X128027256Y-122384157D01*
X128027256Y-122384157D02*
X128198684Y-122384157D01*
X128198684Y-122384157D02*
X128284398Y-122427014D01*
X128284398Y-122427014D02*
X128327256Y-122512728D01*
X128327256Y-122512728D02*
X128327256Y-122598442D01*
X128327256Y-122598442D02*
X127898684Y-122684157D01*
X128712970Y-122384157D02*
X128712970Y-122984157D01*
X128712970Y-122469871D02*
X128755827Y-122427014D01*
X128755827Y-122427014D02*
X128841542Y-122384157D01*
X128841542Y-122384157D02*
X128970113Y-122384157D01*
X128970113Y-122384157D02*
X129055827Y-122427014D01*
X129055827Y-122427014D02*
X129098685Y-122512728D01*
X129098685Y-122512728D02*
X129098685Y-122984157D01*
X129398685Y-122384157D02*
X129741542Y-122384157D01*
X129527256Y-122084157D02*
X129527256Y-122855585D01*
X129527256Y-122855585D02*
X129570113Y-122941300D01*
X129570113Y-122941300D02*
X129655828Y-122984157D01*
X129655828Y-122984157D02*
X129741542Y-122984157D01*
X129998685Y-122941300D02*
X130084399Y-122984157D01*
X130084399Y-122984157D02*
X130255828Y-122984157D01*
X130255828Y-122984157D02*
X130341542Y-122941300D01*
X130341542Y-122941300D02*
X130384399Y-122855585D01*
X130384399Y-122855585D02*
X130384399Y-122812728D01*
X130384399Y-122812728D02*
X130341542Y-122727014D01*
X130341542Y-122727014D02*
X130255828Y-122684157D01*
X130255828Y-122684157D02*
X130127257Y-122684157D01*
X130127257Y-122684157D02*
X130041542Y-122641300D01*
X130041542Y-122641300D02*
X129998685Y-122555585D01*
X129998685Y-122555585D02*
X129998685Y-122512728D01*
X129998685Y-122512728D02*
X130041542Y-122427014D01*
X130041542Y-122427014D02*
X130127257Y-122384157D01*
X130127257Y-122384157D02*
X130255828Y-122384157D01*
X130255828Y-122384157D02*
X130341542Y-122427014D01*
X115984398Y-123533107D02*
X116155826Y-123533107D01*
X116155826Y-123533107D02*
X116241541Y-123575964D01*
X116241541Y-123575964D02*
X116327255Y-123661678D01*
X116327255Y-123661678D02*
X116370112Y-123833107D01*
X116370112Y-123833107D02*
X116370112Y-124133107D01*
X116370112Y-124133107D02*
X116327255Y-124304535D01*
X116327255Y-124304535D02*
X116241541Y-124390250D01*
X116241541Y-124390250D02*
X116155826Y-124433107D01*
X116155826Y-124433107D02*
X115984398Y-124433107D01*
X115984398Y-124433107D02*
X115898684Y-124390250D01*
X115898684Y-124390250D02*
X115812969Y-124304535D01*
X115812969Y-124304535D02*
X115770112Y-124133107D01*
X115770112Y-124133107D02*
X115770112Y-123833107D01*
X115770112Y-123833107D02*
X115812969Y-123661678D01*
X115812969Y-123661678D02*
X115898684Y-123575964D01*
X115898684Y-123575964D02*
X115984398Y-123533107D01*
X116755826Y-124433107D02*
X116755826Y-123833107D01*
X116755826Y-123918821D02*
X116798683Y-123875964D01*
X116798683Y-123875964D02*
X116884398Y-123833107D01*
X116884398Y-123833107D02*
X117012969Y-123833107D01*
X117012969Y-123833107D02*
X117098683Y-123875964D01*
X117098683Y-123875964D02*
X117141541Y-123961678D01*
X117141541Y-123961678D02*
X117141541Y-124433107D01*
X117141541Y-123961678D02*
X117184398Y-123875964D01*
X117184398Y-123875964D02*
X117270112Y-123833107D01*
X117270112Y-123833107D02*
X117398683Y-123833107D01*
X117398683Y-123833107D02*
X117484398Y-123875964D01*
X117484398Y-123875964D02*
X117527255Y-123961678D01*
X117527255Y-123961678D02*
X117527255Y-124433107D01*
X117955826Y-123833107D02*
X117955826Y-124433107D01*
X117955826Y-123918821D02*
X117998683Y-123875964D01*
X117998683Y-123875964D02*
X118084398Y-123833107D01*
X118084398Y-123833107D02*
X118212969Y-123833107D01*
X118212969Y-123833107D02*
X118298683Y-123875964D01*
X118298683Y-123875964D02*
X118341541Y-123961678D01*
X118341541Y-123961678D02*
X118341541Y-124433107D01*
X118770112Y-124433107D02*
X118770112Y-123833107D01*
X118770112Y-123533107D02*
X118727255Y-123575964D01*
X118727255Y-123575964D02*
X118770112Y-123618821D01*
X118770112Y-123618821D02*
X118812969Y-123575964D01*
X118812969Y-123575964D02*
X118770112Y-123533107D01*
X118770112Y-123533107D02*
X118770112Y-123618821D01*
X119155826Y-124390250D02*
X119241540Y-124433107D01*
X119241540Y-124433107D02*
X119412969Y-124433107D01*
X119412969Y-124433107D02*
X119498683Y-124390250D01*
X119498683Y-124390250D02*
X119541540Y-124304535D01*
X119541540Y-124304535D02*
X119541540Y-124261678D01*
X119541540Y-124261678D02*
X119498683Y-124175964D01*
X119498683Y-124175964D02*
X119412969Y-124133107D01*
X119412969Y-124133107D02*
X119284398Y-124133107D01*
X119284398Y-124133107D02*
X119198683Y-124090250D01*
X119198683Y-124090250D02*
X119155826Y-124004535D01*
X119155826Y-124004535D02*
X119155826Y-123961678D01*
X119155826Y-123961678D02*
X119198683Y-123875964D01*
X119198683Y-123875964D02*
X119284398Y-123833107D01*
X119284398Y-123833107D02*
X119412969Y-123833107D01*
X119412969Y-123833107D02*
X119498683Y-123875964D01*
X119798683Y-123833107D02*
X120141540Y-123833107D01*
X119927254Y-123533107D02*
X119927254Y-124304535D01*
X119927254Y-124304535D02*
X119970111Y-124390250D01*
X119970111Y-124390250D02*
X120055826Y-124433107D01*
X120055826Y-124433107D02*
X120141540Y-124433107D01*
X120570112Y-124433107D02*
X120484397Y-124390250D01*
X120484397Y-124390250D02*
X120441540Y-124347392D01*
X120441540Y-124347392D02*
X120398683Y-124261678D01*
X120398683Y-124261678D02*
X120398683Y-124004535D01*
X120398683Y-124004535D02*
X120441540Y-123918821D01*
X120441540Y-123918821D02*
X120484397Y-123875964D01*
X120484397Y-123875964D02*
X120570112Y-123833107D01*
X120570112Y-123833107D02*
X120698683Y-123833107D01*
X120698683Y-123833107D02*
X120784397Y-123875964D01*
X120784397Y-123875964D02*
X120827255Y-123918821D01*
X120827255Y-123918821D02*
X120870112Y-124004535D01*
X120870112Y-124004535D02*
X120870112Y-124261678D01*
X120870112Y-124261678D02*
X120827255Y-124347392D01*
X120827255Y-124347392D02*
X120784397Y-124390250D01*
X120784397Y-124390250D02*
X120698683Y-124433107D01*
X120698683Y-124433107D02*
X120570112Y-124433107D01*
X121255826Y-124433107D02*
X121255826Y-123833107D01*
X121255826Y-123918821D02*
X121298683Y-123875964D01*
X121298683Y-123875964D02*
X121384398Y-123833107D01*
X121384398Y-123833107D02*
X121512969Y-123833107D01*
X121512969Y-123833107D02*
X121598683Y-123875964D01*
X121598683Y-123875964D02*
X121641541Y-123961678D01*
X121641541Y-123961678D02*
X121641541Y-124433107D01*
X121641541Y-123961678D02*
X121684398Y-123875964D01*
X121684398Y-123875964D02*
X121770112Y-123833107D01*
X121770112Y-123833107D02*
X121898683Y-123833107D01*
X121898683Y-123833107D02*
X121984398Y-123875964D01*
X121984398Y-123875964D02*
X122027255Y-123961678D01*
X122027255Y-123961678D02*
X122027255Y-124433107D01*
X122455826Y-123833107D02*
X122455826Y-124733107D01*
X122455826Y-123875964D02*
X122541541Y-123833107D01*
X122541541Y-123833107D02*
X122712969Y-123833107D01*
X122712969Y-123833107D02*
X122798683Y-123875964D01*
X122798683Y-123875964D02*
X122841541Y-123918821D01*
X122841541Y-123918821D02*
X122884398Y-124004535D01*
X122884398Y-124004535D02*
X122884398Y-124261678D01*
X122884398Y-124261678D02*
X122841541Y-124347392D01*
X122841541Y-124347392D02*
X122798683Y-124390250D01*
X122798683Y-124390250D02*
X122712969Y-124433107D01*
X122712969Y-124433107D02*
X122541541Y-124433107D01*
X122541541Y-124433107D02*
X122455826Y-124390250D01*
X123827255Y-123533107D02*
X124127255Y-124433107D01*
X124127255Y-124433107D02*
X124427255Y-123533107D01*
X125198684Y-124433107D02*
X124684398Y-124433107D01*
X124941541Y-124433107D02*
X124941541Y-123533107D01*
X124941541Y-123533107D02*
X124855827Y-123661678D01*
X124855827Y-123661678D02*
X124770112Y-123747392D01*
X124770112Y-123747392D02*
X124684398Y-123790250D01*
X125584398Y-124347392D02*
X125627255Y-124390250D01*
X125627255Y-124390250D02*
X125584398Y-124433107D01*
X125584398Y-124433107D02*
X125541541Y-124390250D01*
X125541541Y-124390250D02*
X125584398Y-124347392D01*
X125584398Y-124347392D02*
X125584398Y-124433107D01*
X126184398Y-123533107D02*
X126270112Y-123533107D01*
X126270112Y-123533107D02*
X126355826Y-123575964D01*
X126355826Y-123575964D02*
X126398684Y-123618821D01*
X126398684Y-123618821D02*
X126441541Y-123704535D01*
X126441541Y-123704535D02*
X126484398Y-123875964D01*
X126484398Y-123875964D02*
X126484398Y-124090250D01*
X126484398Y-124090250D02*
X126441541Y-124261678D01*
X126441541Y-124261678D02*
X126398684Y-124347392D01*
X126398684Y-124347392D02*
X126355826Y-124390250D01*
X126355826Y-124390250D02*
X126270112Y-124433107D01*
X126270112Y-124433107D02*
X126184398Y-124433107D01*
X126184398Y-124433107D02*
X126098684Y-124390250D01*
X126098684Y-124390250D02*
X126055826Y-124347392D01*
X126055826Y-124347392D02*
X126012969Y-124261678D01*
X126012969Y-124261678D02*
X125970112Y-124090250D01*
X125970112Y-124090250D02*
X125970112Y-123875964D01*
X125970112Y-123875964D02*
X126012969Y-123704535D01*
X126012969Y-123704535D02*
X126055826Y-123618821D01*
X126055826Y-123618821D02*
X126098684Y-123575964D01*
X126098684Y-123575964D02*
X126184398Y-123533107D01*
X127341541Y-124433107D02*
X126827255Y-124433107D01*
X127084398Y-124433107D02*
X127084398Y-123533107D01*
X127084398Y-123533107D02*
X126998684Y-123661678D01*
X126998684Y-123661678D02*
X126912969Y-123747392D01*
X126912969Y-123747392D02*
X126827255Y-123790250D01*
X115812969Y-125882057D02*
X115812969Y-124982057D01*
X115812969Y-124982057D02*
X116112969Y-125624914D01*
X116112969Y-125624914D02*
X116412969Y-124982057D01*
X116412969Y-124982057D02*
X116412969Y-125882057D01*
X117227255Y-125882057D02*
X117227255Y-125410628D01*
X117227255Y-125410628D02*
X117184397Y-125324914D01*
X117184397Y-125324914D02*
X117098683Y-125282057D01*
X117098683Y-125282057D02*
X116927255Y-125282057D01*
X116927255Y-125282057D02*
X116841540Y-125324914D01*
X117227255Y-125839200D02*
X117141540Y-125882057D01*
X117141540Y-125882057D02*
X116927255Y-125882057D01*
X116927255Y-125882057D02*
X116841540Y-125839200D01*
X116841540Y-125839200D02*
X116798683Y-125753485D01*
X116798683Y-125753485D02*
X116798683Y-125667771D01*
X116798683Y-125667771D02*
X116841540Y-125582057D01*
X116841540Y-125582057D02*
X116927255Y-125539200D01*
X116927255Y-125539200D02*
X117141540Y-125539200D01*
X117141540Y-125539200D02*
X117227255Y-125496342D01*
X117570112Y-125282057D02*
X117784398Y-125882057D01*
X117998683Y-125282057D02*
X117784398Y-125882057D01*
X117784398Y-125882057D02*
X117698683Y-126096342D01*
X117698683Y-126096342D02*
X117655826Y-126139200D01*
X117655826Y-126139200D02*
X117570112Y-126182057D01*
X118984397Y-125067771D02*
X119027254Y-125024914D01*
X119027254Y-125024914D02*
X119112969Y-124982057D01*
X119112969Y-124982057D02*
X119327254Y-124982057D01*
X119327254Y-124982057D02*
X119412969Y-125024914D01*
X119412969Y-125024914D02*
X119455826Y-125067771D01*
X119455826Y-125067771D02*
X119498683Y-125153485D01*
X119498683Y-125153485D02*
X119498683Y-125239200D01*
X119498683Y-125239200D02*
X119455826Y-125367771D01*
X119455826Y-125367771D02*
X118941540Y-125882057D01*
X118941540Y-125882057D02*
X119498683Y-125882057D01*
X120055826Y-124982057D02*
X120141540Y-124982057D01*
X120141540Y-124982057D02*
X120227254Y-125024914D01*
X120227254Y-125024914D02*
X120270112Y-125067771D01*
X120270112Y-125067771D02*
X120312969Y-125153485D01*
X120312969Y-125153485D02*
X120355826Y-125324914D01*
X120355826Y-125324914D02*
X120355826Y-125539200D01*
X120355826Y-125539200D02*
X120312969Y-125710628D01*
X120312969Y-125710628D02*
X120270112Y-125796342D01*
X120270112Y-125796342D02*
X120227254Y-125839200D01*
X120227254Y-125839200D02*
X120141540Y-125882057D01*
X120141540Y-125882057D02*
X120055826Y-125882057D01*
X120055826Y-125882057D02*
X119970112Y-125839200D01*
X119970112Y-125839200D02*
X119927254Y-125796342D01*
X119927254Y-125796342D02*
X119884397Y-125710628D01*
X119884397Y-125710628D02*
X119841540Y-125539200D01*
X119841540Y-125539200D02*
X119841540Y-125324914D01*
X119841540Y-125324914D02*
X119884397Y-125153485D01*
X119884397Y-125153485D02*
X119927254Y-125067771D01*
X119927254Y-125067771D02*
X119970112Y-125024914D01*
X119970112Y-125024914D02*
X120055826Y-124982057D01*
X120698683Y-125067771D02*
X120741540Y-125024914D01*
X120741540Y-125024914D02*
X120827255Y-124982057D01*
X120827255Y-124982057D02*
X121041540Y-124982057D01*
X121041540Y-124982057D02*
X121127255Y-125024914D01*
X121127255Y-125024914D02*
X121170112Y-125067771D01*
X121170112Y-125067771D02*
X121212969Y-125153485D01*
X121212969Y-125153485D02*
X121212969Y-125239200D01*
X121212969Y-125239200D02*
X121170112Y-125367771D01*
X121170112Y-125367771D02*
X120655826Y-125882057D01*
X120655826Y-125882057D02*
X121212969Y-125882057D01*
X122027255Y-124982057D02*
X121598683Y-124982057D01*
X121598683Y-124982057D02*
X121555826Y-125410628D01*
X121555826Y-125410628D02*
X121598683Y-125367771D01*
X121598683Y-125367771D02*
X121684398Y-125324914D01*
X121684398Y-125324914D02*
X121898683Y-125324914D01*
X121898683Y-125324914D02*
X121984398Y-125367771D01*
X121984398Y-125367771D02*
X122027255Y-125410628D01*
X122027255Y-125410628D02*
X122070112Y-125496342D01*
X122070112Y-125496342D02*
X122070112Y-125710628D01*
X122070112Y-125710628D02*
X122027255Y-125796342D01*
X122027255Y-125796342D02*
X121984398Y-125839200D01*
X121984398Y-125839200D02*
X121898683Y-125882057D01*
X121898683Y-125882057D02*
X121684398Y-125882057D01*
X121684398Y-125882057D02*
X121598683Y-125839200D01*
X121598683Y-125839200D02*
X121555826Y-125796342D01*
X104627488Y-110917040D02*
X104817964Y-110917040D01*
X104817964Y-110917040D02*
X104913202Y-110869421D01*
X104913202Y-110869421D02*
X104960821Y-110821801D01*
X104960821Y-110821801D02*
X105056059Y-110678944D01*
X105056059Y-110678944D02*
X105103678Y-110488468D01*
X105103678Y-110488468D02*
X105103678Y-110107516D01*
X105103678Y-110107516D02*
X105056059Y-110012278D01*
X105056059Y-110012278D02*
X105008440Y-109964659D01*
X105008440Y-109964659D02*
X104913202Y-109917040D01*
X104913202Y-109917040D02*
X104722726Y-109917040D01*
X104722726Y-109917040D02*
X104627488Y-109964659D01*
X104627488Y-109964659D02*
X104579869Y-110012278D01*
X104579869Y-110012278D02*
X104532250Y-110107516D01*
X104532250Y-110107516D02*
X104532250Y-110345611D01*
X104532250Y-110345611D02*
X104579869Y-110440849D01*
X104579869Y-110440849D02*
X104627488Y-110488468D01*
X104627488Y-110488468D02*
X104722726Y-110536087D01*
X104722726Y-110536087D02*
X104913202Y-110536087D01*
X104913202Y-110536087D02*
X105008440Y-110488468D01*
X105008440Y-110488468D02*
X105056059Y-110440849D01*
X105056059Y-110440849D02*
X105103678Y-110345611D01*
X105389393Y-109917040D02*
X105722726Y-110917040D01*
X105722726Y-110917040D02*
X106056059Y-109917040D01*
X80183568Y-110035729D02*
X81326426Y-110035729D01*
X80754997Y-110607157D02*
X80754997Y-109464300D01*
X89783568Y-109835729D02*
X90926426Y-109835729D01*
X79435600Y-91689830D02*
X79121314Y-91689830D01*
X79121314Y-91689830D02*
X79121314Y-90889830D01*
X79655600Y-91689830D02*
X79655600Y-90889830D01*
X79969886Y-91689830D02*
X79969886Y-90889830D01*
X79969886Y-90889830D02*
X80347029Y-91689830D01*
X80347029Y-91689830D02*
X80347029Y-90889830D01*
X80661315Y-91270782D02*
X80881315Y-91270782D01*
X80975601Y-91689830D02*
X80661315Y-91689830D01*
X80661315Y-91689830D02*
X80661315Y-90889830D01*
X80661315Y-90889830D02*
X80975601Y-90889830D01*
X79089886Y-92977785D02*
X79089886Y-92177785D01*
X79404172Y-92977785D02*
X79404172Y-92177785D01*
X79404172Y-92177785D02*
X79781315Y-92977785D01*
X79781315Y-92977785D02*
X79781315Y-92177785D01*
X80975601Y-92977785D02*
X80755601Y-92596832D01*
X80598458Y-92977785D02*
X80598458Y-92177785D01*
X80598458Y-92177785D02*
X80849887Y-92177785D01*
X80849887Y-92177785D02*
X80912744Y-92215880D01*
X80912744Y-92215880D02*
X80944173Y-92253975D01*
X80944173Y-92253975D02*
X80975601Y-92330166D01*
X80975601Y-92330166D02*
X80975601Y-92444451D01*
X80975601Y-92444451D02*
X80944173Y-92520642D01*
X80944173Y-92520642D02*
X80912744Y-92558737D01*
X80912744Y-92558737D02*
X80849887Y-92596832D01*
X80849887Y-92596832D02*
X80598458Y-92596832D01*
X122071429Y-114454819D02*
X122071429Y-113454819D01*
X122547619Y-114454819D02*
X122547619Y-113454819D01*
X122547619Y-113454819D02*
X123119047Y-114454819D01*
X123119047Y-114454819D02*
X123119047Y-113454819D01*
X123595238Y-114454819D02*
X123595238Y-113454819D01*
X123595238Y-113454819D02*
X123976190Y-113454819D01*
X123976190Y-113454819D02*
X124071428Y-113502438D01*
X124071428Y-113502438D02*
X124119047Y-113550057D01*
X124119047Y-113550057D02*
X124166666Y-113645295D01*
X124166666Y-113645295D02*
X124166666Y-113788152D01*
X124166666Y-113788152D02*
X124119047Y-113883390D01*
X124119047Y-113883390D02*
X124071428Y-113931009D01*
X124071428Y-113931009D02*
X123976190Y-113978628D01*
X123976190Y-113978628D02*
X123595238Y-113978628D01*
X124595238Y-113454819D02*
X124595238Y-114264342D01*
X124595238Y-114264342D02*
X124642857Y-114359580D01*
X124642857Y-114359580D02*
X124690476Y-114407200D01*
X124690476Y-114407200D02*
X124785714Y-114454819D01*
X124785714Y-114454819D02*
X124976190Y-114454819D01*
X124976190Y-114454819D02*
X125071428Y-114407200D01*
X125071428Y-114407200D02*
X125119047Y-114359580D01*
X125119047Y-114359580D02*
X125166666Y-114264342D01*
X125166666Y-114264342D02*
X125166666Y-113454819D01*
X125500000Y-113454819D02*
X126071428Y-113454819D01*
X125785714Y-114454819D02*
X125785714Y-113454819D01*
X87812969Y-49224819D02*
X87336779Y-49224819D01*
X87336779Y-49224819D02*
X87336779Y-48224819D01*
X128304910Y-109806089D02*
X129447768Y-109806089D01*
X100128571Y-109537200D02*
X101271429Y-109537200D01*
X100700000Y-110108628D02*
X100700000Y-108965771D01*
X79058459Y-78189830D02*
X79058459Y-78761258D01*
X79058459Y-78761258D02*
X79027030Y-78875544D01*
X79027030Y-78875544D02*
X78964173Y-78951735D01*
X78964173Y-78951735D02*
X78869887Y-78989830D01*
X78869887Y-78989830D02*
X78807030Y-78989830D01*
X79341316Y-78761258D02*
X79655602Y-78761258D01*
X79278459Y-78989830D02*
X79498459Y-78189830D01*
X79498459Y-78189830D02*
X79718459Y-78989830D01*
X80315601Y-78913639D02*
X80284173Y-78951735D01*
X80284173Y-78951735D02*
X80189887Y-78989830D01*
X80189887Y-78989830D02*
X80127030Y-78989830D01*
X80127030Y-78989830D02*
X80032744Y-78951735D01*
X80032744Y-78951735D02*
X79969887Y-78875544D01*
X79969887Y-78875544D02*
X79938458Y-78799354D01*
X79938458Y-78799354D02*
X79907030Y-78646973D01*
X79907030Y-78646973D02*
X79907030Y-78532687D01*
X79907030Y-78532687D02*
X79938458Y-78380306D01*
X79938458Y-78380306D02*
X79969887Y-78304115D01*
X79969887Y-78304115D02*
X80032744Y-78227925D01*
X80032744Y-78227925D02*
X80127030Y-78189830D01*
X80127030Y-78189830D02*
X80189887Y-78189830D01*
X80189887Y-78189830D02*
X80284173Y-78227925D01*
X80284173Y-78227925D02*
X80315601Y-78266020D01*
X80598458Y-78989830D02*
X80598458Y-78189830D01*
X80975601Y-78989830D02*
X80692744Y-78532687D01*
X80975601Y-78189830D02*
X80598458Y-78646973D01*
X80252743Y-80277785D02*
X80252743Y-79477785D01*
X80567029Y-80277785D02*
X80567029Y-79477785D01*
X80567029Y-79477785D02*
X80944172Y-80277785D01*
X80944172Y-80277785D02*
X80944172Y-79477785D01*
X78304172Y-84069830D02*
X78304172Y-83269830D01*
X78304172Y-83269830D02*
X78555601Y-83269830D01*
X78555601Y-83269830D02*
X78618458Y-83307925D01*
X78618458Y-83307925D02*
X78649887Y-83346020D01*
X78649887Y-83346020D02*
X78681315Y-83422211D01*
X78681315Y-83422211D02*
X78681315Y-83536496D01*
X78681315Y-83536496D02*
X78649887Y-83612687D01*
X78649887Y-83612687D02*
X78618458Y-83650782D01*
X78618458Y-83650782D02*
X78555601Y-83688877D01*
X78555601Y-83688877D02*
X78304172Y-83688877D01*
X78995601Y-83269830D02*
X78932744Y-83422211D01*
X79247030Y-83841258D02*
X79561316Y-83841258D01*
X79184173Y-84069830D02*
X79404173Y-83269830D01*
X79404173Y-83269830D02*
X79624173Y-84069830D01*
X79844172Y-84069830D02*
X79844172Y-83269830D01*
X79844172Y-83269830D02*
X80064172Y-83841258D01*
X80064172Y-83841258D02*
X80284172Y-83269830D01*
X80284172Y-83269830D02*
X80284172Y-84069830D01*
X80598458Y-84069830D02*
X80598458Y-83269830D01*
X80598458Y-83269830D02*
X80849887Y-83269830D01*
X80849887Y-83269830D02*
X80912744Y-83307925D01*
X80912744Y-83307925D02*
X80944173Y-83346020D01*
X80944173Y-83346020D02*
X80975601Y-83422211D01*
X80975601Y-83422211D02*
X80975601Y-83536496D01*
X80975601Y-83536496D02*
X80944173Y-83612687D01*
X80944173Y-83612687D02*
X80912744Y-83650782D01*
X80912744Y-83650782D02*
X80849887Y-83688877D01*
X80849887Y-83688877D02*
X80598458Y-83688877D01*
X79215600Y-85357785D02*
X79215600Y-84557785D01*
X79529886Y-85357785D02*
X79529886Y-84557785D01*
X79529886Y-84557785D02*
X79907029Y-85357785D01*
X79907029Y-85357785D02*
X79907029Y-84557785D01*
X81038458Y-85357785D02*
X80724172Y-85357785D01*
X80724172Y-85357785D02*
X80724172Y-84557785D01*
X79781315Y-99309830D02*
X79467029Y-99309830D01*
X79467029Y-99309830D02*
X79467029Y-98509830D01*
X80001315Y-98890782D02*
X80221315Y-98890782D01*
X80315601Y-99309830D02*
X80001315Y-99309830D01*
X80001315Y-99309830D02*
X80001315Y-98509830D01*
X80001315Y-98509830D02*
X80315601Y-98509830D01*
X80598458Y-99309830D02*
X80598458Y-98509830D01*
X80598458Y-98509830D02*
X80755601Y-98509830D01*
X80755601Y-98509830D02*
X80849887Y-98547925D01*
X80849887Y-98547925D02*
X80912744Y-98624115D01*
X80912744Y-98624115D02*
X80944173Y-98700306D01*
X80944173Y-98700306D02*
X80975601Y-98852687D01*
X80975601Y-98852687D02*
X80975601Y-98966973D01*
X80975601Y-98966973D02*
X80944173Y-99119354D01*
X80944173Y-99119354D02*
X80912744Y-99195544D01*
X80912744Y-99195544D02*
X80849887Y-99271735D01*
X80849887Y-99271735D02*
X80755601Y-99309830D01*
X80755601Y-99309830D02*
X80598458Y-99309830D01*
X79278458Y-100293023D02*
X79781316Y-100293023D01*
X80001316Y-99797785D02*
X80221316Y-100597785D01*
X80221316Y-100597785D02*
X80441316Y-99797785D01*
X80661315Y-100178737D02*
X80881315Y-100178737D01*
X80975601Y-100597785D02*
X80661315Y-100597785D01*
X80661315Y-100597785D02*
X80661315Y-99797785D01*
X80661315Y-99797785D02*
X80975601Y-99797785D01*
X79058459Y-80729830D02*
X79058459Y-81301258D01*
X79058459Y-81301258D02*
X79027030Y-81415544D01*
X79027030Y-81415544D02*
X78964173Y-81491735D01*
X78964173Y-81491735D02*
X78869887Y-81529830D01*
X78869887Y-81529830D02*
X78807030Y-81529830D01*
X79341316Y-81301258D02*
X79655602Y-81301258D01*
X79278459Y-81529830D02*
X79498459Y-80729830D01*
X79498459Y-80729830D02*
X79718459Y-81529830D01*
X80315601Y-81453639D02*
X80284173Y-81491735D01*
X80284173Y-81491735D02*
X80189887Y-81529830D01*
X80189887Y-81529830D02*
X80127030Y-81529830D01*
X80127030Y-81529830D02*
X80032744Y-81491735D01*
X80032744Y-81491735D02*
X79969887Y-81415544D01*
X79969887Y-81415544D02*
X79938458Y-81339354D01*
X79938458Y-81339354D02*
X79907030Y-81186973D01*
X79907030Y-81186973D02*
X79907030Y-81072687D01*
X79907030Y-81072687D02*
X79938458Y-80920306D01*
X79938458Y-80920306D02*
X79969887Y-80844115D01*
X79969887Y-80844115D02*
X80032744Y-80767925D01*
X80032744Y-80767925D02*
X80127030Y-80729830D01*
X80127030Y-80729830D02*
X80189887Y-80729830D01*
X80189887Y-80729830D02*
X80284173Y-80767925D01*
X80284173Y-80767925D02*
X80315601Y-80806020D01*
X80598458Y-81529830D02*
X80598458Y-80729830D01*
X80975601Y-81529830D02*
X80692744Y-81072687D01*
X80975601Y-80729830D02*
X80598458Y-81186973D01*
X79498458Y-82017785D02*
X79624172Y-82017785D01*
X79624172Y-82017785D02*
X79687029Y-82055880D01*
X79687029Y-82055880D02*
X79749886Y-82132070D01*
X79749886Y-82132070D02*
X79781315Y-82284451D01*
X79781315Y-82284451D02*
X79781315Y-82551118D01*
X79781315Y-82551118D02*
X79749886Y-82703499D01*
X79749886Y-82703499D02*
X79687029Y-82779690D01*
X79687029Y-82779690D02*
X79624172Y-82817785D01*
X79624172Y-82817785D02*
X79498458Y-82817785D01*
X79498458Y-82817785D02*
X79435601Y-82779690D01*
X79435601Y-82779690D02*
X79372743Y-82703499D01*
X79372743Y-82703499D02*
X79341315Y-82551118D01*
X79341315Y-82551118D02*
X79341315Y-82284451D01*
X79341315Y-82284451D02*
X79372743Y-82132070D01*
X79372743Y-82132070D02*
X79435601Y-82055880D01*
X79435601Y-82055880D02*
X79498458Y-82017785D01*
X80064172Y-82017785D02*
X80064172Y-82665404D01*
X80064172Y-82665404D02*
X80095601Y-82741594D01*
X80095601Y-82741594D02*
X80127030Y-82779690D01*
X80127030Y-82779690D02*
X80189887Y-82817785D01*
X80189887Y-82817785D02*
X80315601Y-82817785D01*
X80315601Y-82817785D02*
X80378458Y-82779690D01*
X80378458Y-82779690D02*
X80409887Y-82741594D01*
X80409887Y-82741594D02*
X80441315Y-82665404D01*
X80441315Y-82665404D02*
X80441315Y-82017785D01*
X80661316Y-82017785D02*
X81038459Y-82017785D01*
X80849887Y-82817785D02*
X80849887Y-82017785D01*
X79665583Y-105423416D02*
X79617964Y-105518654D01*
X79617964Y-105518654D02*
X79617964Y-105661511D01*
X79617964Y-105661511D02*
X79665583Y-105804368D01*
X79665583Y-105804368D02*
X79760821Y-105899606D01*
X79760821Y-105899606D02*
X79856059Y-105947225D01*
X79856059Y-105947225D02*
X80046535Y-105994844D01*
X80046535Y-105994844D02*
X80189392Y-105994844D01*
X80189392Y-105994844D02*
X80379868Y-105947225D01*
X80379868Y-105947225D02*
X80475106Y-105899606D01*
X80475106Y-105899606D02*
X80570345Y-105804368D01*
X80570345Y-105804368D02*
X80617964Y-105661511D01*
X80617964Y-105661511D02*
X80617964Y-105566273D01*
X80617964Y-105566273D02*
X80570345Y-105423416D01*
X80570345Y-105423416D02*
X80522725Y-105375797D01*
X80522725Y-105375797D02*
X80189392Y-105375797D01*
X80189392Y-105375797D02*
X80189392Y-105566273D01*
X80617964Y-104947225D02*
X79617964Y-104947225D01*
X79617964Y-104947225D02*
X80617964Y-104375797D01*
X80617964Y-104375797D02*
X79617964Y-104375797D01*
X80617964Y-103899606D02*
X79617964Y-103899606D01*
X79617964Y-103899606D02*
X79617964Y-103661511D01*
X79617964Y-103661511D02*
X79665583Y-103518654D01*
X79665583Y-103518654D02*
X79760821Y-103423416D01*
X79760821Y-103423416D02*
X79856059Y-103375797D01*
X79856059Y-103375797D02*
X80046535Y-103328178D01*
X80046535Y-103328178D02*
X80189392Y-103328178D01*
X80189392Y-103328178D02*
X80379868Y-103375797D01*
X80379868Y-103375797D02*
X80475106Y-103423416D01*
X80475106Y-103423416D02*
X80570345Y-103518654D01*
X80570345Y-103518654D02*
X80617964Y-103661511D01*
X80617964Y-103661511D02*
X80617964Y-103899606D01*
X86771428Y-134410485D02*
X86809524Y-134372390D01*
X86809524Y-134372390D02*
X86885714Y-134334295D01*
X86885714Y-134334295D02*
X87076190Y-134334295D01*
X87076190Y-134334295D02*
X87152381Y-134372390D01*
X87152381Y-134372390D02*
X87190476Y-134410485D01*
X87190476Y-134410485D02*
X87228571Y-134486676D01*
X87228571Y-134486676D02*
X87228571Y-134562866D01*
X87228571Y-134562866D02*
X87190476Y-134677152D01*
X87190476Y-134677152D02*
X86733333Y-135134295D01*
X86733333Y-135134295D02*
X87228571Y-135134295D01*
X89652381Y-131794295D02*
X89500000Y-131794295D01*
X89500000Y-131794295D02*
X89423809Y-131832390D01*
X89423809Y-131832390D02*
X89385714Y-131870485D01*
X89385714Y-131870485D02*
X89309524Y-131984771D01*
X89309524Y-131984771D02*
X89271428Y-132137152D01*
X89271428Y-132137152D02*
X89271428Y-132441914D01*
X89271428Y-132441914D02*
X89309524Y-132518104D01*
X89309524Y-132518104D02*
X89347619Y-132556200D01*
X89347619Y-132556200D02*
X89423809Y-132594295D01*
X89423809Y-132594295D02*
X89576190Y-132594295D01*
X89576190Y-132594295D02*
X89652381Y-132556200D01*
X89652381Y-132556200D02*
X89690476Y-132518104D01*
X89690476Y-132518104D02*
X89728571Y-132441914D01*
X89728571Y-132441914D02*
X89728571Y-132251438D01*
X89728571Y-132251438D02*
X89690476Y-132175247D01*
X89690476Y-132175247D02*
X89652381Y-132137152D01*
X89652381Y-132137152D02*
X89576190Y-132099057D01*
X89576190Y-132099057D02*
X89423809Y-132099057D01*
X89423809Y-132099057D02*
X89347619Y-132137152D01*
X89347619Y-132137152D02*
X89309524Y-132175247D01*
X89309524Y-132175247D02*
X89271428Y-132251438D01*
X86733333Y-131794295D02*
X87228571Y-131794295D01*
X87228571Y-131794295D02*
X86961905Y-132099057D01*
X86961905Y-132099057D02*
X87076190Y-132099057D01*
X87076190Y-132099057D02*
X87152381Y-132137152D01*
X87152381Y-132137152D02*
X87190476Y-132175247D01*
X87190476Y-132175247D02*
X87228571Y-132251438D01*
X87228571Y-132251438D02*
X87228571Y-132441914D01*
X87228571Y-132441914D02*
X87190476Y-132518104D01*
X87190476Y-132518104D02*
X87152381Y-132556200D01*
X87152381Y-132556200D02*
X87076190Y-132594295D01*
X87076190Y-132594295D02*
X86847619Y-132594295D01*
X86847619Y-132594295D02*
X86771428Y-132556200D01*
X86771428Y-132556200D02*
X86733333Y-132518104D01*
X89690476Y-134334295D02*
X89309524Y-134334295D01*
X89309524Y-134334295D02*
X89271428Y-134715247D01*
X89271428Y-134715247D02*
X89309524Y-134677152D01*
X89309524Y-134677152D02*
X89385714Y-134639057D01*
X89385714Y-134639057D02*
X89576190Y-134639057D01*
X89576190Y-134639057D02*
X89652381Y-134677152D01*
X89652381Y-134677152D02*
X89690476Y-134715247D01*
X89690476Y-134715247D02*
X89728571Y-134791438D01*
X89728571Y-134791438D02*
X89728571Y-134981914D01*
X89728571Y-134981914D02*
X89690476Y-135058104D01*
X89690476Y-135058104D02*
X89652381Y-135096200D01*
X89652381Y-135096200D02*
X89576190Y-135134295D01*
X89576190Y-135134295D02*
X89385714Y-135134295D01*
X89385714Y-135134295D02*
X89309524Y-135096200D01*
X89309524Y-135096200D02*
X89271428Y-135058104D01*
X91833333Y-136874295D02*
X92366667Y-136874295D01*
X92366667Y-136874295D02*
X92023809Y-137674295D01*
X87228571Y-137674295D02*
X86771428Y-137674295D01*
X87000000Y-137674295D02*
X87000000Y-136874295D01*
X87000000Y-136874295D02*
X86923809Y-136988580D01*
X86923809Y-136988580D02*
X86847619Y-137064771D01*
X86847619Y-137064771D02*
X86771428Y-137102866D01*
X92023809Y-134677152D02*
X91947619Y-134639057D01*
X91947619Y-134639057D02*
X91909524Y-134600961D01*
X91909524Y-134600961D02*
X91871428Y-134524771D01*
X91871428Y-134524771D02*
X91871428Y-134486676D01*
X91871428Y-134486676D02*
X91909524Y-134410485D01*
X91909524Y-134410485D02*
X91947619Y-134372390D01*
X91947619Y-134372390D02*
X92023809Y-134334295D01*
X92023809Y-134334295D02*
X92176190Y-134334295D01*
X92176190Y-134334295D02*
X92252381Y-134372390D01*
X92252381Y-134372390D02*
X92290476Y-134410485D01*
X92290476Y-134410485D02*
X92328571Y-134486676D01*
X92328571Y-134486676D02*
X92328571Y-134524771D01*
X92328571Y-134524771D02*
X92290476Y-134600961D01*
X92290476Y-134600961D02*
X92252381Y-134639057D01*
X92252381Y-134639057D02*
X92176190Y-134677152D01*
X92176190Y-134677152D02*
X92023809Y-134677152D01*
X92023809Y-134677152D02*
X91947619Y-134715247D01*
X91947619Y-134715247D02*
X91909524Y-134753342D01*
X91909524Y-134753342D02*
X91871428Y-134829533D01*
X91871428Y-134829533D02*
X91871428Y-134981914D01*
X91871428Y-134981914D02*
X91909524Y-135058104D01*
X91909524Y-135058104D02*
X91947619Y-135096200D01*
X91947619Y-135096200D02*
X92023809Y-135134295D01*
X92023809Y-135134295D02*
X92176190Y-135134295D01*
X92176190Y-135134295D02*
X92252381Y-135096200D01*
X92252381Y-135096200D02*
X92290476Y-135058104D01*
X92290476Y-135058104D02*
X92328571Y-134981914D01*
X92328571Y-134981914D02*
X92328571Y-134829533D01*
X92328571Y-134829533D02*
X92290476Y-134753342D01*
X92290476Y-134753342D02*
X92252381Y-134715247D01*
X92252381Y-134715247D02*
X92176190Y-134677152D01*
X89652381Y-137140961D02*
X89652381Y-137674295D01*
X89461905Y-136836200D02*
X89271428Y-137407628D01*
X89271428Y-137407628D02*
X89766667Y-137407628D01*
X91947619Y-132594295D02*
X92100000Y-132594295D01*
X92100000Y-132594295D02*
X92176190Y-132556200D01*
X92176190Y-132556200D02*
X92214286Y-132518104D01*
X92214286Y-132518104D02*
X92290476Y-132403819D01*
X92290476Y-132403819D02*
X92328571Y-132251438D01*
X92328571Y-132251438D02*
X92328571Y-131946676D01*
X92328571Y-131946676D02*
X92290476Y-131870485D01*
X92290476Y-131870485D02*
X92252381Y-131832390D01*
X92252381Y-131832390D02*
X92176190Y-131794295D01*
X92176190Y-131794295D02*
X92023809Y-131794295D01*
X92023809Y-131794295D02*
X91947619Y-131832390D01*
X91947619Y-131832390D02*
X91909524Y-131870485D01*
X91909524Y-131870485D02*
X91871428Y-131946676D01*
X91871428Y-131946676D02*
X91871428Y-132137152D01*
X91871428Y-132137152D02*
X91909524Y-132213342D01*
X91909524Y-132213342D02*
X91947619Y-132251438D01*
X91947619Y-132251438D02*
X92023809Y-132289533D01*
X92023809Y-132289533D02*
X92176190Y-132289533D01*
X92176190Y-132289533D02*
X92252381Y-132251438D01*
X92252381Y-132251438D02*
X92290476Y-132213342D01*
X92290476Y-132213342D02*
X92328571Y-132137152D01*
X110954819Y-112761904D02*
X109954819Y-112761904D01*
X110954819Y-112190476D02*
X110383390Y-112619047D01*
X109954819Y-112190476D02*
X110526247Y-112761904D01*
D11*
%TO.C,C21*%
X104159420Y-52240000D02*
X104440580Y-52240000D01*
X104159420Y-53260000D02*
X104440580Y-53260000D01*
%TO.C,R19*%
X109712258Y-63277500D02*
X109237742Y-63277500D01*
X109712258Y-64322500D02*
X109237742Y-64322500D01*
%TO.C,L1*%
X103740000Y-122740000D02*
X103740000Y-122890000D01*
X103740000Y-122740000D02*
X110260000Y-122740000D01*
X103740000Y-129260000D02*
X103740000Y-129110000D01*
X103740000Y-129260000D02*
X110260000Y-129260000D01*
X110260000Y-122740000D02*
X110260000Y-122890000D01*
X110260000Y-129260000D02*
X110260000Y-129110000D01*
%TO.C,C7*%
X88759420Y-122690000D02*
X89040580Y-122690000D01*
X88759420Y-123710000D02*
X89040580Y-123710000D01*
%TO.C,R10*%
X107677500Y-93062742D02*
X107677500Y-93537258D01*
X108722500Y-93062742D02*
X108722500Y-93537258D01*
%TO.C,R23*%
X83477500Y-125387258D02*
X83477500Y-124912742D01*
X84522500Y-125387258D02*
X84522500Y-124912742D01*
%TO.C,C22*%
X100415580Y-59790000D02*
X100134420Y-59790000D01*
X100415580Y-60810000D02*
X100134420Y-60810000D01*
%TO.C,D2*%
X107150000Y-122510000D02*
X107150000Y-117000000D01*
X107150000Y-122510000D02*
X110450000Y-122510000D01*
X110450000Y-122510000D02*
X110450000Y-117000000D01*
%TO.C,R17*%
X101027500Y-75287258D02*
X101027500Y-74812742D01*
X102072500Y-75287258D02*
X102072500Y-74812742D01*
%TO.C,R25*%
X91630000Y-139920000D02*
X91960000Y-139920000D01*
X91630000Y-146460000D02*
X91630000Y-139920000D01*
X91960000Y-146460000D02*
X91630000Y-146460000D01*
X94040000Y-146460000D02*
X94370000Y-146460000D01*
X94370000Y-139920000D02*
X94040000Y-139920000D01*
X94370000Y-146460000D02*
X94370000Y-139920000D01*
%TO.C,U3*%
X102145000Y-87175000D02*
X102145000Y-85225000D01*
X102145000Y-87175000D02*
X102145000Y-89125000D01*
X107265000Y-87175000D02*
X107265000Y-85225000D01*
X107265000Y-87175000D02*
X107265000Y-89125000D01*
X102240000Y-89875000D02*
X101910000Y-90115000D01*
X101910000Y-89635000D01*
X102240000Y-89875000D01*
G36*
X102240000Y-89875000D02*
G01*
X101910000Y-90115000D01*
X101910000Y-89635000D01*
X102240000Y-89875000D01*
G37*
%TO.C,U5*%
X102990000Y-55690000D02*
X102990000Y-55480000D01*
X102990000Y-58460000D02*
X102990000Y-58010000D01*
X103440000Y-55240000D02*
X103290000Y-55240000D01*
X103440000Y-58460000D02*
X102990000Y-58460000D01*
X105760000Y-55240000D02*
X106210000Y-55240000D01*
X105760000Y-58460000D02*
X106210000Y-58460000D01*
X106210000Y-55240000D02*
X106210000Y-55690000D01*
X106210000Y-58460000D02*
X106210000Y-58010000D01*
X102990000Y-55240000D02*
X102750000Y-54910000D01*
X103230000Y-54910000D01*
X102990000Y-55240000D01*
G36*
X102990000Y-55240000D02*
G01*
X102750000Y-54910000D01*
X103230000Y-54910000D01*
X102990000Y-55240000D01*
G37*
%TO.C,R20*%
X107662742Y-50477500D02*
X108137258Y-50477500D01*
X107662742Y-51522500D02*
X108137258Y-51522500D01*
%TO.C,R16*%
X106527500Y-75287258D02*
X106527500Y-74812742D01*
X107572500Y-75287258D02*
X107572500Y-74812742D01*
%TO.C,FB1*%
X108062779Y-48740000D02*
X107737221Y-48740000D01*
X108062779Y-49760000D02*
X107737221Y-49760000D01*
%TO.C,C4*%
X98715000Y-124140580D02*
X98715000Y-123859420D01*
X99735000Y-124140580D02*
X99735000Y-123859420D01*
%TO.C,U2*%
X99240000Y-118000000D02*
X99240000Y-116050000D01*
X99240000Y-118000000D02*
X99240000Y-119950000D01*
X104360000Y-118000000D02*
X104360000Y-116050000D01*
X104360000Y-118000000D02*
X104360000Y-119950000D01*
X104595000Y-115540000D02*
X104265000Y-115300000D01*
X104595000Y-115060000D01*
X104595000Y-115540000D01*
G36*
X104595000Y-115540000D02*
G01*
X104265000Y-115300000D01*
X104595000Y-115060000D01*
X104595000Y-115540000D01*
G37*
%TO.C,C8*%
X91859420Y-122690000D02*
X92140580Y-122690000D01*
X91859420Y-123710000D02*
X92140580Y-123710000D01*
%TO.C,R15*%
X106112258Y-82077500D02*
X105637742Y-82077500D01*
X106112258Y-83122500D02*
X105637742Y-83122500D01*
%TO.C,R18*%
X109712258Y-65877500D02*
X109237742Y-65877500D01*
X109712258Y-66922500D02*
X109237742Y-66922500D01*
%TO.C,R3*%
X98702500Y-128237742D02*
X98702500Y-128712258D01*
X99747500Y-128237742D02*
X99747500Y-128712258D01*
%TO.C,C1*%
X106538748Y-113040000D02*
X107061252Y-113040000D01*
X106538748Y-114510000D02*
X107061252Y-114510000D01*
%TO.C,C16*%
X104940000Y-71834420D02*
X104940000Y-72115580D01*
X105960000Y-71834420D02*
X105960000Y-72115580D01*
%TO.C,U4*%
X102840000Y-50000000D02*
X102840000Y-49350000D01*
X102840000Y-50000000D02*
X102840000Y-50650000D01*
X105960000Y-50000000D02*
X105960000Y-49350000D01*
X105960000Y-50000000D02*
X105960000Y-50650000D01*
X102890000Y-51162500D02*
X102560000Y-51402500D01*
X102560000Y-50922500D01*
X102890000Y-51162500D01*
G36*
X102890000Y-51162500D02*
G01*
X102560000Y-51402500D01*
X102560000Y-50922500D01*
X102890000Y-51162500D01*
G37*
%TO.C,R11*%
X107777500Y-83612258D02*
X107777500Y-83137742D01*
X108822500Y-83612258D02*
X108822500Y-83137742D01*
%TO.C,R13*%
X105537258Y-91877500D02*
X105062742Y-91877500D01*
X105537258Y-92922500D02*
X105062742Y-92922500D01*
%TO.C,D4*%
X100940000Y-68437500D02*
X100940000Y-67787500D01*
X100940000Y-68437500D02*
X100940000Y-69087500D01*
X104060000Y-68437500D02*
X104060000Y-67787500D01*
X104060000Y-68437500D02*
X104060000Y-69087500D01*
X100990000Y-69600000D02*
X100660000Y-69840000D01*
X100660000Y-69360000D01*
X100990000Y-69600000D01*
G36*
X100990000Y-69600000D02*
G01*
X100660000Y-69840000D01*
X100660000Y-69360000D01*
X100990000Y-69600000D01*
G37*
%TO.C,R22*%
X83477500Y-122287258D02*
X83477500Y-121812742D01*
X84522500Y-122287258D02*
X84522500Y-121812742D01*
%TO.C,C26*%
X81890000Y-118859420D02*
X81890000Y-119140580D01*
X82910000Y-118859420D02*
X82910000Y-119140580D01*
%TO.C,R7*%
X91762742Y-119477500D02*
X92237258Y-119477500D01*
X91762742Y-120522500D02*
X92237258Y-120522500D01*
%TO.C,C3*%
X101633129Y-112776448D02*
X101351969Y-112776448D01*
X101633129Y-113796448D02*
X101351969Y-113796448D01*
%TO.C,J13*%
X88160000Y-132930000D02*
X88160000Y-132330000D01*
X88160000Y-135470000D02*
X88160000Y-134870000D01*
X90700000Y-132940000D02*
X90700000Y-132340000D01*
X90700000Y-135480000D02*
X90700000Y-134880000D01*
X93240000Y-132940000D02*
X93240000Y-132340000D01*
X93240000Y-135480000D02*
X93240000Y-134880000D01*
%TO.C,D3*%
X104540000Y-68437500D02*
X104540000Y-67787500D01*
X104540000Y-68437500D02*
X104540000Y-69087500D01*
X107660000Y-68437500D02*
X107660000Y-67787500D01*
X107660000Y-68437500D02*
X107660000Y-69087500D01*
X104590000Y-69600000D02*
X104260000Y-69840000D01*
X104260000Y-69360000D01*
X104590000Y-69600000D01*
G36*
X104590000Y-69600000D02*
G01*
X104260000Y-69840000D01*
X104260000Y-69360000D01*
X104590000Y-69600000D01*
G37*
%TO.C,C23*%
X98963289Y-56696240D02*
X98963289Y-56415080D01*
X99983289Y-56696240D02*
X99983289Y-56415080D01*
%TO.C,C24*%
X100893050Y-57269138D02*
X100893050Y-56987978D01*
X101913050Y-57269138D02*
X101913050Y-56987978D01*
%TO.C,R8*%
X88662742Y-121077500D02*
X89137258Y-121077500D01*
X88662742Y-122122500D02*
X89137258Y-122122500D01*
%TO.C,C19*%
X109090000Y-58559420D02*
X109090000Y-58840580D01*
X110110000Y-58559420D02*
X110110000Y-58840580D01*
%TO.C,R6*%
X88662742Y-119477500D02*
X89137258Y-119477500D01*
X88662742Y-120522500D02*
X89137258Y-120522500D01*
%TO.C,C13*%
X100590000Y-86915580D02*
X100590000Y-86634420D01*
X101610000Y-86915580D02*
X101610000Y-86634420D01*
%TO.C,R21*%
X81877500Y-122287258D02*
X81877500Y-121812742D01*
X82922500Y-122287258D02*
X82922500Y-121812742D01*
%TO.C,C17*%
X102640000Y-71859420D02*
X102640000Y-72140580D01*
X103660000Y-71859420D02*
X103660000Y-72140580D01*
%TO.C,C14*%
X104940000Y-74909420D02*
X104940000Y-75190580D01*
X105960000Y-74909420D02*
X105960000Y-75190580D01*
%TO.C,R1*%
X102037258Y-124702500D02*
X101562742Y-124702500D01*
X102037258Y-125747500D02*
X101562742Y-125747500D01*
%TO.C,R9*%
X91762742Y-121077500D02*
X92237258Y-121077500D01*
X91762742Y-122122500D02*
X92237258Y-122122500D01*
%TO.C,C11*%
X105440580Y-93690000D02*
X105159420Y-93690000D01*
X105440580Y-94710000D02*
X105159420Y-94710000D01*
%TO.C,C25*%
X83490000Y-118859420D02*
X83490000Y-119140580D01*
X84510000Y-118859420D02*
X84510000Y-119140580D01*
%TO.C,C6*%
X110940000Y-127811252D02*
X110940000Y-126388748D01*
X113660000Y-127811252D02*
X113660000Y-126388748D01*
%TO.C,C18*%
X101140000Y-50390580D02*
X101140000Y-50109420D01*
X102160000Y-50390580D02*
X102160000Y-50109420D01*
%TO.C,C9*%
X107790000Y-89434420D02*
X107790000Y-89715580D01*
X108810000Y-89434420D02*
X108810000Y-89715580D01*
D10*
%TO.C,U1*%
X93570000Y-47520000D02*
X116430000Y-47520000D01*
X93570000Y-108480000D02*
X93570000Y-47520000D01*
X116430000Y-47520000D02*
X116430000Y-108480000D01*
X116430000Y-108480000D02*
X93570000Y-108480000D01*
D11*
%TO.C,D1*%
X111080000Y-114860000D02*
X111080000Y-120300000D01*
X111080000Y-120300000D02*
X114020000Y-120300000D01*
X112550000Y-113840000D02*
X112550000Y-114860000D01*
X112550000Y-121320000D02*
X112550000Y-120300000D01*
X114020000Y-114860000D02*
X111080000Y-114860000D01*
X114020000Y-115640000D02*
X111080000Y-115640000D01*
X114020000Y-115760000D02*
X111080000Y-115760000D01*
X114020000Y-115880000D02*
X111080000Y-115880000D01*
X114020000Y-120300000D02*
X114020000Y-114860000D01*
%TO.C,R2*%
X101962258Y-127202500D02*
X101487742Y-127202500D01*
X101962258Y-128247500D02*
X101487742Y-128247500D01*
%TO.C,D5*%
X85710000Y-139455000D02*
X85710000Y-142545000D01*
X85710000Y-139455170D02*
G75*
G02*
X91260000Y-140999952I2560000J-1544830D01*
G01*
X91260000Y-141000048D02*
G75*
G02*
X85710000Y-142544830I-2990000J48D01*
G01*
X90770000Y-141000000D02*
G75*
G02*
X85770000Y-141000000I-2500000J0D01*
G01*
X85770000Y-141000000D02*
G75*
G02*
X90770000Y-141000000I2500000J0D01*
G01*
%TO.C,SW1*%
X95200000Y-130500000D02*
X114800000Y-130500000D01*
X114800000Y-147500000D01*
X95200000Y-147500000D01*
X95200000Y-130500000D01*
%TO.C,C2*%
X105290000Y-118140580D02*
X105290000Y-117859420D01*
X106310000Y-118140580D02*
X106310000Y-117859420D01*
%TO.C,R5*%
X91752742Y-124277500D02*
X92227258Y-124277500D01*
X91752742Y-125322500D02*
X92227258Y-125322500D01*
%TO.C,C15*%
X102640000Y-75190580D02*
X102640000Y-74909420D01*
X103660000Y-75190580D02*
X103660000Y-74909420D01*
%TO.C,R4*%
X88662742Y-124277500D02*
X89137258Y-124277500D01*
X88662742Y-125322500D02*
X89137258Y-125322500D01*
%TO.C,C12*%
X106015580Y-80490000D02*
X105734420Y-80490000D01*
X106015580Y-81510000D02*
X105734420Y-81510000D01*
%TO.C,C20*%
X107290000Y-58559420D02*
X107290000Y-58840580D01*
X108310000Y-58559420D02*
X108310000Y-58840580D01*
%TO.C,R24*%
X81877500Y-125387258D02*
X81877500Y-124912742D01*
X82922500Y-125387258D02*
X82922500Y-124912742D01*
%TO.C,C10*%
X107790000Y-86665580D02*
X107790000Y-86384420D01*
X108810000Y-86665580D02*
X108810000Y-86384420D01*
%TO.C,C5*%
X101559420Y-122465000D02*
X101840580Y-122465000D01*
X101559420Y-123485000D02*
X101840580Y-123485000D01*
%TD*%
%LPC*%
D12*
%TO.C,C21*%
X103525000Y-52750000D03*
X105075000Y-52750000D03*
%TD*%
D13*
%TO.C,R19*%
X110300000Y-63800000D03*
X108650000Y-63800000D03*
%TD*%
D14*
%TO.C,J10*%
X127860000Y-64030000D03*
D15*
X127860000Y-66570000D03*
X127860000Y-69110000D03*
X127860000Y-71650000D03*
X127860000Y-74190000D03*
X127860000Y-76730000D03*
X127860000Y-79270000D03*
X127860000Y-81810000D03*
X127860000Y-84350000D03*
X127860000Y-86890000D03*
X127860000Y-89430000D03*
X127860000Y-91970000D03*
X127860000Y-94510000D03*
X127860000Y-97050000D03*
X127860000Y-99590000D03*
X127860000Y-102130000D03*
X127860000Y-104670000D03*
X127860000Y-107210000D03*
%TD*%
D16*
%TO.C,L1*%
X104750000Y-126000000D03*
X109250000Y-126000000D03*
%TD*%
D12*
%TO.C,C7*%
X88125000Y-123200000D03*
X89675000Y-123200000D03*
%TD*%
D17*
%TO.C,R10*%
X108200000Y-92475000D03*
X108200000Y-94125000D03*
%TD*%
D18*
%TO.C,R23*%
X84000000Y-125975000D03*
X84000000Y-124325000D03*
%TD*%
D14*
%TO.C,J3*%
X87218145Y-64031512D03*
D15*
X87218145Y-66571512D03*
X87218145Y-69111512D03*
X87218145Y-71651512D03*
X87218145Y-74191512D03*
X87218145Y-76731512D03*
X87218145Y-79271512D03*
X87218145Y-81811512D03*
X87218145Y-84351512D03*
X87218145Y-86891512D03*
X87218145Y-89431512D03*
X87218145Y-91971512D03*
X87218145Y-94511512D03*
X87218145Y-97051512D03*
X87218145Y-99591512D03*
X87218145Y-102131512D03*
X87218145Y-104671512D03*
X87218145Y-107211512D03*
%TD*%
D19*
%TO.C,C22*%
X101050000Y-60300000D03*
X99500000Y-60300000D03*
%TD*%
D14*
%TO.C,J5*%
X92298145Y-48791512D03*
D15*
X92298145Y-51331512D03*
X92298145Y-53871512D03*
X92298145Y-56411512D03*
X92298145Y-58951512D03*
X92298145Y-61491512D03*
X92298145Y-64031512D03*
X92298145Y-66571512D03*
X92298145Y-69111512D03*
X92298145Y-71651512D03*
X92298145Y-74191512D03*
X92298145Y-76731512D03*
X92298145Y-79271512D03*
X92298145Y-81811512D03*
X92298145Y-84351512D03*
X92298145Y-86891512D03*
X92298145Y-89431512D03*
X92298145Y-91971512D03*
X92298145Y-94511512D03*
X92298145Y-97051512D03*
X92298145Y-99591512D03*
X92298145Y-102131512D03*
X92298145Y-104671512D03*
X92298145Y-107211512D03*
%TD*%
D20*
%TO.C,D2*%
X108800000Y-121000000D03*
X108800000Y-117000000D03*
%TD*%
D18*
%TO.C,R17*%
X101550000Y-75875000D03*
X101550000Y-74225000D03*
%TD*%
D21*
%TO.C,R25*%
X93000000Y-147000000D03*
D22*
X93000000Y-139380000D03*
%TD*%
D23*
%TO.C,U3*%
X102800000Y-89650000D03*
X104070000Y-89650000D03*
X105340000Y-89650000D03*
X106610000Y-89650000D03*
X106610000Y-84700000D03*
X105340000Y-84700000D03*
X104070000Y-84700000D03*
X102800000Y-84700000D03*
%TD*%
D24*
%TO.C,U5*%
X103150000Y-56050000D03*
X103150000Y-56450000D03*
X103150000Y-56850000D03*
X103150000Y-57250000D03*
X103150000Y-57650000D03*
D25*
X103800000Y-58300000D03*
X104200000Y-58300000D03*
X104600000Y-58300000D03*
X105000000Y-58300000D03*
X105400000Y-58300000D03*
D24*
X106050000Y-57650000D03*
X106050000Y-57250000D03*
X106050000Y-56850000D03*
X106050000Y-56450000D03*
X106050000Y-56050000D03*
D25*
X105400000Y-55400000D03*
X105000000Y-55400000D03*
X104600000Y-55400000D03*
X104200000Y-55400000D03*
X103800000Y-55400000D03*
D26*
X104600000Y-56850000D03*
%TD*%
D27*
%TO.C,H4*%
X127000000Y-134000000D03*
%TD*%
D28*
%TO.C,R20*%
X107075000Y-51000000D03*
X108725000Y-51000000D03*
%TD*%
D18*
%TO.C,R16*%
X107050000Y-75875000D03*
X107050000Y-74225000D03*
%TD*%
D29*
%TO.C,FB1*%
X108687500Y-49250000D03*
X107112500Y-49250000D03*
%TD*%
D30*
%TO.C,C4*%
X99225000Y-124775000D03*
X99225000Y-123225000D03*
%TD*%
D31*
%TO.C,U2*%
X103705000Y-115525000D03*
X102435000Y-115525000D03*
X101165000Y-115525000D03*
X99895000Y-115525000D03*
X99895000Y-120475000D03*
X101165000Y-120475000D03*
X102435000Y-120475000D03*
X103705000Y-120475000D03*
%TD*%
D12*
%TO.C,C8*%
X91225000Y-123200000D03*
X92775000Y-123200000D03*
%TD*%
D13*
%TO.C,R15*%
X106700000Y-82600000D03*
X105050000Y-82600000D03*
%TD*%
%TO.C,R18*%
X110300000Y-66400000D03*
X108650000Y-66400000D03*
%TD*%
D17*
%TO.C,R3*%
X99225000Y-127650000D03*
X99225000Y-129300000D03*
%TD*%
D32*
%TO.C,C1*%
X105850000Y-113775000D03*
X107750000Y-113775000D03*
%TD*%
D14*
%TO.C,J4*%
X89758145Y-48791512D03*
D15*
X89758145Y-51331512D03*
X89758145Y-53871512D03*
X89758145Y-56411512D03*
X89758145Y-58951512D03*
X89758145Y-61491512D03*
X89758145Y-64031512D03*
X89758145Y-66571512D03*
X89758145Y-69111512D03*
X89758145Y-71651512D03*
X89758145Y-74191512D03*
X89758145Y-76731512D03*
X89758145Y-79271512D03*
X89758145Y-81811512D03*
X89758145Y-84351512D03*
X89758145Y-86891512D03*
X89758145Y-89431512D03*
X89758145Y-91971512D03*
X89758145Y-94511512D03*
X89758145Y-97051512D03*
X89758145Y-99591512D03*
X89758145Y-102131512D03*
X89758145Y-104671512D03*
X89758145Y-107211512D03*
%TD*%
D33*
%TO.C,J15*%
X83000000Y-111000000D03*
D34*
X88400000Y-111000000D03*
%TD*%
D14*
%TO.C,J2*%
X84678145Y-64031512D03*
D15*
X84678145Y-66571512D03*
X84678145Y-69111512D03*
X84678145Y-71651512D03*
X84678145Y-74191512D03*
X84678145Y-76731512D03*
X84678145Y-79271512D03*
X84678145Y-81811512D03*
X84678145Y-84351512D03*
X84678145Y-86891512D03*
X84678145Y-89431512D03*
X84678145Y-91971512D03*
X84678145Y-94511512D03*
X84678145Y-97051512D03*
X84678145Y-99591512D03*
X84678145Y-102131512D03*
X84678145Y-104671512D03*
X84678145Y-107211512D03*
%TD*%
D35*
%TO.C,J11*%
X108000000Y-110400000D03*
D34*
X102600000Y-110400000D03*
%TD*%
D36*
%TO.C,C16*%
X105450000Y-71200000D03*
X105450000Y-72750000D03*
%TD*%
D37*
%TO.C,U4*%
X103450000Y-50937500D03*
X105350000Y-50937500D03*
X104400000Y-49062500D03*
%TD*%
D18*
%TO.C,R11*%
X108300000Y-84200000D03*
X108300000Y-82550000D03*
%TD*%
D13*
%TO.C,R13*%
X106125000Y-92400000D03*
X104475000Y-92400000D03*
%TD*%
D37*
%TO.C,D4*%
X101550000Y-69375000D03*
X103450000Y-69375000D03*
X102500000Y-67500000D03*
%TD*%
D14*
%TO.C,J9*%
X125320000Y-64030000D03*
D15*
X125320000Y-66570000D03*
X125320000Y-69110000D03*
X125320000Y-71650000D03*
X125320000Y-74190000D03*
X125320000Y-76730000D03*
X125320000Y-79270000D03*
X125320000Y-81810000D03*
X125320000Y-84350000D03*
X125320000Y-86890000D03*
X125320000Y-89430000D03*
X125320000Y-91970000D03*
X125320000Y-94510000D03*
X125320000Y-97050000D03*
X125320000Y-99590000D03*
X125320000Y-102130000D03*
X125320000Y-104670000D03*
X125320000Y-107210000D03*
%TD*%
D14*
%TO.C,J8*%
X122780000Y-64030000D03*
D15*
X122780000Y-66570000D03*
X122780000Y-69110000D03*
X122780000Y-71650000D03*
X122780000Y-74190000D03*
X122780000Y-76730000D03*
X122780000Y-79270000D03*
X122780000Y-81810000D03*
X122780000Y-84350000D03*
X122780000Y-86890000D03*
X122780000Y-89430000D03*
X122780000Y-91970000D03*
X122780000Y-94510000D03*
X122780000Y-97050000D03*
X122780000Y-99590000D03*
X122780000Y-102130000D03*
X122780000Y-104670000D03*
X122780000Y-107210000D03*
%TD*%
D18*
%TO.C,R22*%
X84000000Y-122875000D03*
X84000000Y-121225000D03*
%TD*%
D14*
%TO.C,J7*%
X120240000Y-48790000D03*
D15*
X120240000Y-51330000D03*
X120240000Y-53870000D03*
X120240000Y-56410000D03*
X120240000Y-58950000D03*
X120240000Y-61490000D03*
X120240000Y-64030000D03*
X120240000Y-66570000D03*
X120240000Y-69110000D03*
X120240000Y-71650000D03*
X120240000Y-74190000D03*
X120240000Y-76730000D03*
X120240000Y-79270000D03*
X120240000Y-81810000D03*
X120240000Y-84350000D03*
X120240000Y-86890000D03*
X120240000Y-89430000D03*
X120240000Y-91970000D03*
X120240000Y-94510000D03*
X120240000Y-97050000D03*
X120240000Y-99590000D03*
X120240000Y-102130000D03*
X120240000Y-104670000D03*
X120240000Y-107210000D03*
%TD*%
D36*
%TO.C,C26*%
X82400000Y-118225000D03*
X82400000Y-119775000D03*
%TD*%
D28*
%TO.C,R7*%
X91175000Y-120000000D03*
X92825000Y-120000000D03*
%TD*%
D19*
%TO.C,C3*%
X102267549Y-113286448D03*
X100717549Y-113286448D03*
%TD*%
D38*
%TO.C,J13*%
X88160000Y-136440000D03*
D15*
X88160000Y-133900000D03*
X88160000Y-131360000D03*
X90700000Y-136440000D03*
X90700000Y-133900000D03*
X90700000Y-131360000D03*
X93240000Y-136440000D03*
X93240000Y-133900000D03*
X93240000Y-131360000D03*
%TD*%
D37*
%TO.C,D3*%
X105150000Y-69375000D03*
X107050000Y-69375000D03*
X106100000Y-67500000D03*
%TD*%
D30*
%TO.C,C23*%
X99473289Y-57330660D03*
X99473289Y-55780660D03*
%TD*%
D14*
%TO.C,J6*%
X117700000Y-48790000D03*
D15*
X117700000Y-51330000D03*
X117700000Y-53870000D03*
X117700000Y-56410000D03*
X117700000Y-58950000D03*
X117700000Y-61490000D03*
X117700000Y-64030000D03*
X117700000Y-66570000D03*
X117700000Y-69110000D03*
X117700000Y-71650000D03*
X117700000Y-74190000D03*
X117700000Y-76730000D03*
X117700000Y-79270000D03*
X117700000Y-81810000D03*
X117700000Y-84350000D03*
X117700000Y-86890000D03*
X117700000Y-89430000D03*
X117700000Y-91970000D03*
X117700000Y-94510000D03*
X117700000Y-97050000D03*
X117700000Y-99590000D03*
X117700000Y-102130000D03*
X117700000Y-104670000D03*
X117700000Y-107210000D03*
%TD*%
D30*
%TO.C,C24*%
X101403050Y-57903558D03*
X101403050Y-56353558D03*
%TD*%
D28*
%TO.C,R8*%
X88075000Y-121600000D03*
X89725000Y-121600000D03*
%TD*%
D27*
%TO.C,H2*%
X127000000Y-59000000D03*
%TD*%
D36*
%TO.C,C19*%
X109600000Y-57925000D03*
X109600000Y-59475000D03*
%TD*%
D28*
%TO.C,R6*%
X88075000Y-120000000D03*
X89725000Y-120000000D03*
%TD*%
D30*
%TO.C,C13*%
X101100000Y-87550000D03*
X101100000Y-86000000D03*
%TD*%
D18*
%TO.C,R21*%
X82400000Y-122875000D03*
X82400000Y-121225000D03*
%TD*%
D36*
%TO.C,C17*%
X103150000Y-71225000D03*
X103150000Y-72775000D03*
%TD*%
D33*
%TO.C,J14*%
X121600000Y-111000000D03*
D34*
X127000000Y-111000000D03*
%TD*%
D36*
%TO.C,C14*%
X105450000Y-74275000D03*
X105450000Y-75825000D03*
%TD*%
D13*
%TO.C,R1*%
X102625000Y-125225000D03*
X100975000Y-125225000D03*
%TD*%
D28*
%TO.C,R9*%
X91175000Y-121600000D03*
X92825000Y-121600000D03*
%TD*%
D19*
%TO.C,C11*%
X106075000Y-94200000D03*
X104525000Y-94200000D03*
%TD*%
D36*
%TO.C,C25*%
X84000000Y-118225000D03*
X84000000Y-119775000D03*
%TD*%
D39*
%TO.C,C6*%
X112300000Y-128575000D03*
X112300000Y-125625000D03*
%TD*%
D30*
%TO.C,C18*%
X101650000Y-51025000D03*
X101650000Y-49475000D03*
%TD*%
D36*
%TO.C,C9*%
X108300000Y-88800000D03*
X108300000Y-90350000D03*
%TD*%
D27*
%TO.C,H1*%
X83000000Y-59000000D03*
%TD*%
D14*
%TO.C,U1*%
X97380000Y-48790000D03*
X94840000Y-48790000D03*
X97380000Y-51330000D03*
X94840000Y-51330000D03*
X97380000Y-53870000D03*
X94840000Y-53870000D03*
X97380000Y-56410000D03*
X94840000Y-56410000D03*
X97380000Y-58950000D03*
X94840000Y-58950000D03*
X97380000Y-61490000D03*
X94840000Y-61490000D03*
X97380000Y-64030000D03*
X94840000Y-64030000D03*
X97380000Y-66570000D03*
X94840000Y-66570000D03*
X97380000Y-69110000D03*
X94840000Y-69110000D03*
X97380000Y-71650000D03*
X94840000Y-71650000D03*
X97380000Y-74190000D03*
X94840000Y-74190000D03*
X97380000Y-76730000D03*
X94840000Y-76730000D03*
X97380000Y-79270000D03*
X94840000Y-79270000D03*
X97380000Y-81810000D03*
X94840000Y-81810000D03*
X97380000Y-84350000D03*
X94840000Y-84350000D03*
X97380000Y-86890000D03*
X94840000Y-86890000D03*
X97380000Y-89430000D03*
X94840000Y-89430000D03*
X97380000Y-91970000D03*
X94840000Y-91970000D03*
X97380000Y-94510000D03*
X94840000Y-94510000D03*
X97380000Y-97050000D03*
X94840000Y-97050000D03*
X97380000Y-99590000D03*
X94840000Y-99590000D03*
X97380000Y-102130000D03*
X94840000Y-102130000D03*
X97380000Y-104670000D03*
X94840000Y-104670000D03*
X97380000Y-107210000D03*
X94840000Y-107210000D03*
X115160000Y-107210000D03*
X112620000Y-107210000D03*
X115160000Y-104670000D03*
X112620000Y-104670000D03*
X115160000Y-102130000D03*
X112620000Y-102130000D03*
X115160000Y-99590000D03*
X112620000Y-99590000D03*
X115160000Y-97050000D03*
X112620000Y-97050000D03*
X115160000Y-94510000D03*
X112620000Y-94510000D03*
X115160000Y-91970000D03*
X112620000Y-91970000D03*
X115160000Y-89430000D03*
X112620000Y-89430000D03*
X115160000Y-86890000D03*
X112620000Y-86890000D03*
X115160000Y-84350000D03*
X112620000Y-84350000D03*
X115160000Y-81810000D03*
X112620000Y-81810000D03*
X115160000Y-79270000D03*
X112620000Y-79270000D03*
X115160000Y-76730000D03*
X112620000Y-76730000D03*
X115160000Y-74190000D03*
X112620000Y-74190000D03*
X115160000Y-71650000D03*
X112620000Y-71650000D03*
X115160000Y-69110000D03*
X112620000Y-69110000D03*
X115160000Y-66570000D03*
X112620000Y-66570000D03*
X115160000Y-64030000D03*
X112620000Y-64030000D03*
X115160000Y-61490000D03*
X112620000Y-61490000D03*
X115160000Y-58950000D03*
X112620000Y-58950000D03*
X115160000Y-56410000D03*
X112620000Y-56410000D03*
X115160000Y-53870000D03*
X112620000Y-53870000D03*
X115160000Y-51330000D03*
X112620000Y-51330000D03*
X115160000Y-48790000D03*
X112620000Y-48790000D03*
%TD*%
D40*
%TO.C,D1*%
X112550000Y-112500000D03*
D41*
X112550000Y-122660000D03*
%TD*%
D13*
%TO.C,R2*%
X102550000Y-127725000D03*
X100900000Y-127725000D03*
%TD*%
D42*
%TO.C,D5*%
X87000000Y-141000000D03*
D43*
X89540000Y-141000000D03*
%TD*%
D44*
%TO.C,SW1*%
X99700000Y-143800000D03*
X99700000Y-139000000D03*
X99700000Y-134200000D03*
X105000000Y-143800000D03*
X105000000Y-139000000D03*
X105000000Y-134200000D03*
X110300000Y-143800000D03*
X110300000Y-139000000D03*
X110300000Y-134200000D03*
%TD*%
D30*
%TO.C,C2*%
X105800000Y-118775000D03*
X105800000Y-117225000D03*
%TD*%
D27*
%TO.C,H3*%
X83000000Y-134000000D03*
%TD*%
D28*
%TO.C,R5*%
X91165000Y-124800000D03*
X92815000Y-124800000D03*
%TD*%
D14*
%TO.C,J1*%
X82138145Y-64031512D03*
D15*
X82138145Y-66571512D03*
X82138145Y-69111512D03*
X82138145Y-71651512D03*
X82138145Y-74191512D03*
X82138145Y-76731512D03*
X82138145Y-79271512D03*
X82138145Y-81811512D03*
X82138145Y-84351512D03*
X82138145Y-86891512D03*
X82138145Y-89431512D03*
X82138145Y-91971512D03*
X82138145Y-94511512D03*
X82138145Y-97051512D03*
X82138145Y-99591512D03*
X82138145Y-102131512D03*
X82138145Y-104671512D03*
X82138145Y-107211512D03*
%TD*%
D30*
%TO.C,C15*%
X103150000Y-75825000D03*
X103150000Y-74275000D03*
%TD*%
D28*
%TO.C,R4*%
X88075000Y-124800000D03*
X89725000Y-124800000D03*
%TD*%
D19*
%TO.C,C12*%
X106650000Y-81000000D03*
X105100000Y-81000000D03*
%TD*%
D36*
%TO.C,C20*%
X107800000Y-57925000D03*
X107800000Y-59475000D03*
%TD*%
D18*
%TO.C,R24*%
X82400000Y-125975000D03*
X82400000Y-124325000D03*
%TD*%
D30*
%TO.C,C10*%
X108300000Y-87300000D03*
X108300000Y-85750000D03*
%TD*%
D12*
%TO.C,C5*%
X100925000Y-122975000D03*
X102475000Y-122975000D03*
%TD*%
D21*
%TO.C,R14*%
X108600000Y-78400000D03*
D22*
X100980000Y-78400000D03*
%TD*%
D21*
%TO.C,R12*%
X108110000Y-97100000D03*
D22*
X100490000Y-97100000D03*
%TD*%
%LPD*%
M02*
