M48
; DRILL file {KiCad 7.0.2} date Mon Feb 17 11:53:53 2025
; FORMAT={-:-/ absolute / inch / decimal}
; #@! TF.CreationDate,2025-02-17T11:53:53+00:00
; #@! TF.GenerationSoftware,Kicad,Pcbnew,7.0.2
; #@! TF.FileFunction,Plated,1,2,PTH
FMAT,2
INCH
; #@! TA.AperFunction,Plated,PTH,ViaDrill
T1C0.0157
; #@! TA.AperFunction,Plated,PTH,ComponentDrill
T2C0.0315
; #@! TA.AperFunction,Plated,PTH,ComponentDrill
T3C0.0354
; #@! TA.AperFunction,Plated,PTH,ComponentDrill
T4C0.0394
; #@! TA.AperFunction,Plated,PTH,ComponentDrill
T5C0.0433
; #@! TA.AperFunction,Plated,PTH,ComponentDrill
T6C0.0512
; #@! TA.AperFunction,Plated,PTH,ComponentDrill
T7C0.0551
%
G90
G05
T1
X0.1575Y-2.8898
X0.252Y-2.8937
X0.3622Y-2.811
X0.3858Y-2.9764
X0.4331Y-2.8071
X0.4956Y-3.1776
X0.5039Y-0.1575
X0.5394Y-2.563
X0.5866Y-2.622
X0.6496Y-2.815
X0.6535Y-1.6535
X0.6535Y-1.8543
X0.6772Y-0.5984
X0.7244Y-0.4449
X0.7559Y-0.1654
X0.8199Y-3.4449
X0.8583Y-0.5118
X0.9409Y-0.5827
X0.9567Y-3.252
X1.2402Y-0.9488
X1.252Y-1.0512
X1.252Y-1.6252
X1.2559Y-2.563
X1.2598Y-0.248
X1.3071Y-0.5669
X1.3219Y-0.6772
X1.3228Y-1.1588
X1.3228Y-1.6142
X1.3228Y-1.7598
X1.3268Y-0.3898
X1.3307Y-0.4331
X1.3327Y-1.9932
X1.3469Y-0.1212
X1.3504Y-1.5827
X1.3591Y-0.3622
X1.3824Y-0.0936
X1.3937Y-1.0394
X1.3976Y-0.3701
X1.4055Y-2.126
X1.4173Y-1.8701
X1.4213Y-0.3346
X1.4252Y-0.0779
X1.4331Y-1.6772
X1.4488Y-0.7677
X1.4567Y-0.2047
X1.4724Y-0.3937
X1.4961Y-0.9094
X1.4961Y-1.2165
X1.499Y-0.2441
X1.5039Y-1.0315
X1.5039Y-2.9291
X1.509Y-0.3791
X1.5207Y-3.2126
X1.5354Y-1.3976
X1.5473Y-0.3701
X1.563Y-0.6654
X1.5673Y-0.6262
X1.5709Y-1.7244
X1.5748Y-0.311
X1.5748Y-0.5827
X1.6063Y-0.7992
X1.6137Y-3.5362
X1.6542Y-0.2723
X1.6575Y-0.4213
X1.6679Y-0.5098
X1.7047Y-3.3346
X1.7126Y-3.4882
X1.7441Y-0.1292
X1.7638Y-0.6496
X1.8968Y-3.5441
X1.9646Y-3.4488
X1.9646Y-3.5748
T2
X0.1969Y-3.7
X0.1969Y-4.0
X1.3461Y-2.0827
X1.3654Y-1.3465
X1.6461Y-2.0827
X1.6654Y-1.3465
T3
X0.3543Y-3.7795
X0.4543Y-3.7795
T4
X0.1Y-0.55
X0.2Y-0.55
X0.2Y-0.7
X0.2Y-0.8
X0.2Y-0.9
X0.2Y-1.0
X0.2Y-1.1
X0.2Y-1.2
X0.2Y-1.3
X0.2Y-1.4
X0.2Y-1.5
X0.2Y-1.6
X0.2Y-1.7
X0.2Y-1.8
X0.2Y-1.9
X0.2Y-2.0
X0.2Y-2.1
X0.2Y-2.2
X0.2Y-2.3
X0.2Y-2.4
X0.3Y-0.7
X0.3Y-0.8
X0.3Y-0.9
X0.3Y-1.0
X0.3Y-1.1
X0.3Y-1.2
X0.3Y-1.3
X0.3Y-1.4
X0.3Y-1.5
X0.3Y-1.6
X0.3Y-1.7
X0.3Y-1.8
X0.3Y-1.9
X0.3Y-2.0
X0.3Y-2.1
X0.3Y-2.2
X0.3Y-2.3
X0.3Y-2.4
X0.4Y-0.7
X0.4Y-0.8
X0.4Y-0.9
X0.4Y-1.0
X0.4Y-1.1
X0.4Y-1.2
X0.4Y-1.3
X0.4Y-1.4
X0.4Y-1.5
X0.4Y-1.6
X0.4Y-1.7
X0.4Y-1.8
X0.4Y-1.9
X0.4Y-2.0
X0.4Y-2.1
X0.4Y-2.2
X0.4Y-2.3
X0.4Y-2.4
X0.4Y-3.4
X0.4Y-3.5
X0.4Y-3.6
X0.5Y-0.7
X0.5Y-0.8
X0.5Y-0.9
X0.5Y-1.0
X0.5Y-1.1
X0.5Y-1.2
X0.5Y-1.3
X0.5Y-1.4
X0.5Y-1.5
X0.5Y-1.6
X0.5Y-1.7
X0.5Y-1.8
X0.5Y-1.9
X0.5Y-2.0
X0.5Y-2.1
X0.5Y-2.2
X0.5Y-2.3
X0.5Y-2.4
X0.5Y-3.4
X0.5Y-3.5
X0.5Y-3.6
X0.6Y-0.7
X0.6Y-0.8
X0.6Y-0.9
X0.6Y-1.0
X0.6Y-1.1
X0.6Y-1.2
X0.6Y-1.3
X0.6Y-1.4
X0.6Y-1.5
X0.6Y-1.6
X0.6Y-1.7
X0.6Y-1.8
X0.6Y-1.9
X0.6Y-2.0
X0.6Y-2.1
X0.6Y-2.2
X0.6Y-2.3
X0.6Y-2.4
X0.6Y-3.4
X0.6Y-3.5
X0.6Y-3.6
X0.7Y-0.7
X0.7Y-0.8
X0.7Y-0.9
X0.7Y-1.0
X0.7Y-1.1
X0.7Y-1.2
X0.7Y-1.3
X0.7Y-1.4
X0.7Y-1.5
X0.7Y-1.6
X0.7Y-1.7
X0.7Y-1.8
X0.7Y-1.9
X0.7Y-2.0
X0.7Y-2.1
X0.7Y-2.2
X0.7Y-2.3
X0.7Y-2.4
X0.8Y-0.7
X0.8Y-0.8
X0.8Y-0.9
X0.8Y-1.0
X0.8Y-1.1
X0.8Y-1.2
X0.8Y-1.3
X0.8Y-1.4
X0.8Y-1.5
X0.8Y-1.6
X0.8Y-1.7
X0.8Y-1.8
X0.8Y-1.9
X0.8Y-2.0
X0.8Y-2.1
X0.8Y-2.2
X0.8Y-2.3
X0.8Y-2.4
X0.9Y-0.7
X0.9Y-0.8
X0.9Y-0.9
X0.9Y-1.0
X0.9Y-1.1
X0.9Y-1.2
X0.9Y-1.3
X0.9Y-1.4
X0.9Y-1.5
X0.9Y-1.6
X0.9Y-1.7
X0.9Y-1.8
X0.9Y-1.9
X0.9Y-2.0
X0.9Y-2.1
X0.9Y-2.2
X0.9Y-2.3
X0.9Y-2.4
X1.0Y-0.7
X1.0Y-0.8
X1.0Y-0.9
X1.0Y-1.0
X1.0Y-1.1
X1.0Y-1.2
X1.0Y-1.3
X1.0Y-1.4
X1.0Y-1.5
X1.0Y-1.6
X1.0Y-1.7
X1.0Y-1.8
X1.0Y-1.9
X1.0Y-2.0
X1.0Y-2.1
X1.0Y-2.2
X1.0Y-2.3
X1.0Y-2.4
X2.0Y-0.3
X2.0Y-0.4
X2.0Y-0.5
X2.0Y-0.7
X2.0Y-0.8
X2.0Y-0.9
X2.0Y-1.0
X2.0Y-1.1
X2.0Y-1.2
X2.0Y-1.3
X2.0Y-1.4
X2.0Y-1.5
X2.0Y-1.6
X2.0Y-1.7
X2.0Y-1.8
X2.0Y-1.9
X2.0Y-2.0
X2.0Y-2.1
X2.0Y-2.2
X2.0Y-2.3
X2.0Y-2.4
T5
X0.2953Y-0.0886
X0.6953Y-0.0886
X1.1Y-0.1
X1.1Y-0.2
X1.1Y-0.3
X1.1Y-0.4
X1.1Y-0.5
X1.1Y-0.6
X1.1Y-0.7
X1.1Y-0.8
X1.1Y-0.9
X1.1Y-1.0
X1.1Y-1.1
X1.1Y-1.2
X1.1Y-1.3
X1.1Y-1.4
X1.1Y-1.5
X1.1Y-1.6
X1.1Y-1.7
X1.1Y-1.8
X1.1Y-1.9
X1.1Y-2.0
X1.1Y-2.1
X1.1Y-2.2
X1.1Y-2.3
X1.1Y-2.4
X1.2Y-0.1
X1.2Y-0.2
X1.2Y-0.3
X1.2Y-0.4
X1.2Y-0.5
X1.2Y-0.6
X1.2Y-0.7
X1.2Y-0.8
X1.2Y-0.9
X1.2Y-1.0
X1.2Y-1.1
X1.2Y-1.2
X1.2Y-1.3
X1.2Y-1.4
X1.2Y-1.5
X1.2Y-1.6
X1.2Y-1.7
X1.2Y-1.8
X1.2Y-1.9
X1.2Y-2.0
X1.2Y-2.1
X1.2Y-2.2
X1.2Y-2.3
X1.2Y-2.4
X1.8Y-0.1
X1.8Y-0.2
X1.8Y-0.3
X1.8Y-0.4
X1.8Y-0.5
X1.8Y-0.6
X1.8Y-0.7
X1.8Y-0.8
X1.8Y-0.9
X1.8Y-1.0
X1.8Y-1.1
X1.8Y-1.2
X1.8Y-1.3
X1.8Y-1.4
X1.8Y-1.5
X1.8Y-1.6
X1.8Y-1.7
X1.8Y-1.8
X1.8Y-1.9
X1.8Y-2.0
X1.8Y-2.1
X1.8Y-2.2
X1.8Y-2.3
X1.8Y-2.4
X1.9Y-0.1
X1.9Y-0.2
X1.9Y-0.3
X1.9Y-0.4
X1.9Y-0.5
X1.9Y-0.6
X1.9Y-0.7
X1.9Y-0.8
X1.9Y-0.9
X1.9Y-1.0
X1.9Y-1.1
X1.9Y-1.2
X1.9Y-1.3
X1.9Y-1.4
X1.9Y-1.5
X1.9Y-1.6
X1.9Y-1.7
X1.9Y-1.8
X1.9Y-1.9
X1.9Y-2.0
X1.9Y-2.1
X1.9Y-2.2
X1.9Y-2.3
X1.9Y-2.4
T7
X0.248Y-2.5894
X0.248Y-3.2283
X0.748Y-2.5894
X0.748Y-3.2283
X1.378Y-2.5894
X1.378Y-3.2283
X1.878Y-2.5894
X1.878Y-3.2283
T6
G00X0.8327Y-3.5906
M15
G01X0.876Y-3.5906
M16
G05
G00X0.8327Y-3.7795
M15
G01X0.876Y-3.7795
M16
G05
G00X0.8327Y-3.9685
M15
G01X0.876Y-3.9685
M16
G05
G00X1.0413Y-3.5906
M15
G01X1.0846Y-3.5906
M16
G05
G00X1.0413Y-3.7795
M15
G01X1.0846Y-3.7795
M16
G05
G00X1.0413Y-3.9685
M15
G01X1.0846Y-3.9685
M16
G05
G00X1.25Y-3.5906
M15
G01X1.2933Y-3.5906
M16
G05
G00X1.25Y-3.7795
M15
G01X1.2933Y-3.7795
M16
G05
G00X1.25Y-3.9685
M15
G01X1.2933Y-3.9685
M16
G05
T0
M30
