%TF.GenerationSoftware,KiCad,Pcbnew,7.0.2*%
%TF.CreationDate,2025-02-17T11:53:52+00:00*%
%TF.ProjectId,stomp_00,73746f6d-705f-4303-902e-6b696361645f,rev?*%
%TF.SameCoordinates,Original*%
%TF.FileFunction,Legend,Bot*%
%TF.FilePolarity,Positive*%
%FSLAX46Y46*%
G04 Gerber Fmt 4.6, Leading zero omitted, Abs format (unit mm)*
G04 Created by KiCad (PCBNEW 7.0.2) date 2025-02-17 11:53:52*
%MOMM*%
%LPD*%
G01*
G04 APERTURE LIST*
G04 Aperture macros list*
%AMFreePoly0*
4,1,19,0.500000,-0.750000,0.000000,-0.750000,0.000000,-0.744911,-0.071157,-0.744911,-0.207708,-0.704816,-0.327430,-0.627875,-0.420627,-0.520320,-0.479746,-0.390866,-0.500000,-0.250000,-0.500000,0.250000,-0.479746,0.390866,-0.420627,0.520320,-0.327430,0.627875,-0.207708,0.704816,-0.071157,0.744911,0.000000,0.744911,0.000000,0.750000,0.500000,0.750000,0.500000,-0.750000,0.500000,-0.750000,
$1*%
%AMFreePoly1*
4,1,19,0.000000,0.744911,0.071157,0.744911,0.207708,0.704816,0.327430,0.627875,0.420627,0.520320,0.479746,0.390866,0.500000,0.250000,0.500000,-0.250000,0.479746,-0.390866,0.420627,-0.520320,0.327430,-0.627875,0.207708,-0.704816,0.071157,-0.744911,0.000000,-0.744911,0.000000,-0.750000,-0.500000,-0.750000,-0.500000,0.750000,0.000000,0.750000,0.000000,0.744911,0.000000,0.744911,
$1*%
G04 Aperture macros list end*
%ADD10C,0.150000*%
%ADD11C,0.120000*%
%ADD12C,3.000000*%
%ADD13C,1.700000*%
%ADD14O,1.700000X1.700000*%
%ADD15C,1.600000*%
%ADD16O,1.600000X1.600000*%
%ADD17R,1.700000X1.700000*%
%ADD18C,3.200000*%
%ADD19R,1.600000X1.600000*%
%ADD20R,2.200000X2.200000*%
%ADD21O,2.200000X2.200000*%
%ADD22R,1.800000X1.800000*%
%ADD23C,1.800000*%
%ADD24O,4.000000X2.800000*%
%ADD25FreePoly0,270.000000*%
%ADD26FreePoly1,270.000000*%
%ADD27FreePoly0,0.000000*%
%ADD28FreePoly1,0.000000*%
%ADD29FreePoly0,90.000000*%
%ADD30FreePoly1,90.000000*%
G04 APERTURE END LIST*
D10*
X8500001Y-79049999D02*
G75*
G03*
X16499999Y-79049999I3999999J4000000D01*
G01*
X6970952Y-72572095D02*
X6970952Y-73143523D01*
X6970952Y-73143523D02*
X7009047Y-73257809D01*
X7009047Y-73257809D02*
X7085238Y-73334000D01*
X7085238Y-73334000D02*
X7199523Y-73372095D01*
X7199523Y-73372095D02*
X7275714Y-73372095D01*
X6628095Y-73143523D02*
X6247142Y-73143523D01*
X6704285Y-73372095D02*
X6437618Y-72572095D01*
X6437618Y-72572095D02*
X6170952Y-73372095D01*
X5447142Y-73295904D02*
X5485238Y-73334000D01*
X5485238Y-73334000D02*
X5599523Y-73372095D01*
X5599523Y-73372095D02*
X5675714Y-73372095D01*
X5675714Y-73372095D02*
X5790000Y-73334000D01*
X5790000Y-73334000D02*
X5866190Y-73257809D01*
X5866190Y-73257809D02*
X5904285Y-73181619D01*
X5904285Y-73181619D02*
X5942381Y-73029238D01*
X5942381Y-73029238D02*
X5942381Y-72914952D01*
X5942381Y-72914952D02*
X5904285Y-72762571D01*
X5904285Y-72762571D02*
X5866190Y-72686380D01*
X5866190Y-72686380D02*
X5790000Y-72610190D01*
X5790000Y-72610190D02*
X5675714Y-72572095D01*
X5675714Y-72572095D02*
X5599523Y-72572095D01*
X5599523Y-72572095D02*
X5485238Y-72610190D01*
X5485238Y-72610190D02*
X5447142Y-72648285D01*
X5104285Y-73372095D02*
X5104285Y-72572095D01*
X4647142Y-73372095D02*
X4990000Y-72914952D01*
X4647142Y-72572095D02*
X5104285Y-73029238D01*
X7199523Y-74668095D02*
X7199523Y-73868095D01*
X6818571Y-74668095D02*
X6818571Y-73868095D01*
X6818571Y-73868095D02*
X6361428Y-74668095D01*
X6361428Y-74668095D02*
X6361428Y-73868095D01*
X20106190Y-72572095D02*
X20106190Y-73143523D01*
X20106190Y-73143523D02*
X20144285Y-73257809D01*
X20144285Y-73257809D02*
X20220476Y-73334000D01*
X20220476Y-73334000D02*
X20334761Y-73372095D01*
X20334761Y-73372095D02*
X20410952Y-73372095D01*
X19763333Y-73143523D02*
X19382380Y-73143523D01*
X19839523Y-73372095D02*
X19572856Y-72572095D01*
X19572856Y-72572095D02*
X19306190Y-73372095D01*
X18582380Y-73295904D02*
X18620476Y-73334000D01*
X18620476Y-73334000D02*
X18734761Y-73372095D01*
X18734761Y-73372095D02*
X18810952Y-73372095D01*
X18810952Y-73372095D02*
X18925238Y-73334000D01*
X18925238Y-73334000D02*
X19001428Y-73257809D01*
X19001428Y-73257809D02*
X19039523Y-73181619D01*
X19039523Y-73181619D02*
X19077619Y-73029238D01*
X19077619Y-73029238D02*
X19077619Y-72914952D01*
X19077619Y-72914952D02*
X19039523Y-72762571D01*
X19039523Y-72762571D02*
X19001428Y-72686380D01*
X19001428Y-72686380D02*
X18925238Y-72610190D01*
X18925238Y-72610190D02*
X18810952Y-72572095D01*
X18810952Y-72572095D02*
X18734761Y-72572095D01*
X18734761Y-72572095D02*
X18620476Y-72610190D01*
X18620476Y-72610190D02*
X18582380Y-72648285D01*
X18239523Y-73372095D02*
X18239523Y-72572095D01*
X17782380Y-73372095D02*
X18125238Y-72914952D01*
X17782380Y-72572095D02*
X18239523Y-73029238D01*
X19572856Y-73868095D02*
X19420475Y-73868095D01*
X19420475Y-73868095D02*
X19344285Y-73906190D01*
X19344285Y-73906190D02*
X19268094Y-73982380D01*
X19268094Y-73982380D02*
X19229999Y-74134761D01*
X19229999Y-74134761D02*
X19229999Y-74401428D01*
X19229999Y-74401428D02*
X19268094Y-74553809D01*
X19268094Y-74553809D02*
X19344285Y-74630000D01*
X19344285Y-74630000D02*
X19420475Y-74668095D01*
X19420475Y-74668095D02*
X19572856Y-74668095D01*
X19572856Y-74668095D02*
X19649047Y-74630000D01*
X19649047Y-74630000D02*
X19725237Y-74553809D01*
X19725237Y-74553809D02*
X19763333Y-74401428D01*
X19763333Y-74401428D02*
X19763333Y-74134761D01*
X19763333Y-74134761D02*
X19725237Y-73982380D01*
X19725237Y-73982380D02*
X19649047Y-73906190D01*
X19649047Y-73906190D02*
X19572856Y-73868095D01*
X18887142Y-73868095D02*
X18887142Y-74515714D01*
X18887142Y-74515714D02*
X18849047Y-74591904D01*
X18849047Y-74591904D02*
X18810952Y-74630000D01*
X18810952Y-74630000D02*
X18734761Y-74668095D01*
X18734761Y-74668095D02*
X18582380Y-74668095D01*
X18582380Y-74668095D02*
X18506190Y-74630000D01*
X18506190Y-74630000D02*
X18468095Y-74591904D01*
X18468095Y-74591904D02*
X18429999Y-74515714D01*
X18429999Y-74515714D02*
X18429999Y-73868095D01*
X18163333Y-73868095D02*
X17706190Y-73868095D01*
X17934762Y-74668095D02*
X17934762Y-73868095D01*
X13014285Y-66756095D02*
X13395237Y-66756095D01*
X13395237Y-66756095D02*
X13395237Y-65956095D01*
X12747618Y-66337047D02*
X12480952Y-66337047D01*
X12366666Y-66756095D02*
X12747618Y-66756095D01*
X12747618Y-66756095D02*
X12747618Y-65956095D01*
X12747618Y-65956095D02*
X12366666Y-65956095D01*
X12023808Y-66756095D02*
X12023808Y-65956095D01*
X12023808Y-65956095D02*
X11833332Y-65956095D01*
X11833332Y-65956095D02*
X11719046Y-65994190D01*
X11719046Y-65994190D02*
X11642856Y-66070380D01*
X11642856Y-66070380D02*
X11604761Y-66146571D01*
X11604761Y-66146571D02*
X11566665Y-66298952D01*
X11566665Y-66298952D02*
X11566665Y-66413238D01*
X11566665Y-66413238D02*
X11604761Y-66565619D01*
X11604761Y-66565619D02*
X11642856Y-66641809D01*
X11642856Y-66641809D02*
X11719046Y-66718000D01*
X11719046Y-66718000D02*
X11833332Y-66756095D01*
X11833332Y-66756095D02*
X12023808Y-66756095D01*
X13509523Y-67747333D02*
X12900000Y-67747333D01*
X12633333Y-67252095D02*
X12366666Y-68052095D01*
X12366666Y-68052095D02*
X12100000Y-67252095D01*
X11833333Y-67633047D02*
X11566667Y-67633047D01*
X11452381Y-68052095D02*
X11833333Y-68052095D01*
X11833333Y-68052095D02*
X11833333Y-67252095D01*
X11833333Y-67252095D02*
X11452381Y-67252095D01*
X7199523Y-69372095D02*
X7199523Y-68572095D01*
X7199523Y-68572095D02*
X6894761Y-68572095D01*
X6894761Y-68572095D02*
X6818571Y-68610190D01*
X6818571Y-68610190D02*
X6780476Y-68648285D01*
X6780476Y-68648285D02*
X6742380Y-68724476D01*
X6742380Y-68724476D02*
X6742380Y-68838761D01*
X6742380Y-68838761D02*
X6780476Y-68914952D01*
X6780476Y-68914952D02*
X6818571Y-68953047D01*
X6818571Y-68953047D02*
X6894761Y-68991142D01*
X6894761Y-68991142D02*
X7199523Y-68991142D01*
X5942380Y-69372095D02*
X6209047Y-68991142D01*
X6399523Y-69372095D02*
X6399523Y-68572095D01*
X6399523Y-68572095D02*
X6094761Y-68572095D01*
X6094761Y-68572095D02*
X6018571Y-68610190D01*
X6018571Y-68610190D02*
X5980476Y-68648285D01*
X5980476Y-68648285D02*
X5942380Y-68724476D01*
X5942380Y-68724476D02*
X5942380Y-68838761D01*
X5942380Y-68838761D02*
X5980476Y-68914952D01*
X5980476Y-68914952D02*
X6018571Y-68953047D01*
X6018571Y-68953047D02*
X6094761Y-68991142D01*
X6094761Y-68991142D02*
X6399523Y-68991142D01*
X5599523Y-68953047D02*
X5332857Y-68953047D01*
X5218571Y-69372095D02*
X5599523Y-69372095D01*
X5599523Y-69372095D02*
X5599523Y-68572095D01*
X5599523Y-68572095D02*
X5218571Y-68572095D01*
X4913809Y-69143523D02*
X4532856Y-69143523D01*
X4989999Y-69372095D02*
X4723332Y-68572095D01*
X4723332Y-68572095D02*
X4456666Y-69372095D01*
X4189999Y-69372095D02*
X4189999Y-68572095D01*
X4189999Y-68572095D02*
X3923333Y-69143523D01*
X3923333Y-69143523D02*
X3656666Y-68572095D01*
X3656666Y-68572095D02*
X3656666Y-69372095D01*
X3275713Y-69372095D02*
X3275713Y-68572095D01*
X3275713Y-68572095D02*
X2970951Y-68572095D01*
X2970951Y-68572095D02*
X2894761Y-68610190D01*
X2894761Y-68610190D02*
X2856666Y-68648285D01*
X2856666Y-68648285D02*
X2818570Y-68724476D01*
X2818570Y-68724476D02*
X2818570Y-68838761D01*
X2818570Y-68838761D02*
X2856666Y-68914952D01*
X2856666Y-68914952D02*
X2894761Y-68953047D01*
X2894761Y-68953047D02*
X2970951Y-68991142D01*
X2970951Y-68991142D02*
X3275713Y-68991142D01*
X7199523Y-70668095D02*
X7199523Y-69868095D01*
X6818571Y-70668095D02*
X6818571Y-69868095D01*
X6818571Y-69868095D02*
X6361428Y-70668095D01*
X6361428Y-70668095D02*
X6361428Y-69868095D01*
X4990000Y-70668095D02*
X5370952Y-70668095D01*
X5370952Y-70668095D02*
X5370952Y-69868095D01*
X41076190Y-37202619D02*
X41409523Y-36726428D01*
X41647618Y-37202619D02*
X41647618Y-36202619D01*
X41647618Y-36202619D02*
X41266666Y-36202619D01*
X41266666Y-36202619D02*
X41171428Y-36250238D01*
X41171428Y-36250238D02*
X41123809Y-36297857D01*
X41123809Y-36297857D02*
X41076190Y-36393095D01*
X41076190Y-36393095D02*
X41076190Y-36535952D01*
X41076190Y-36535952D02*
X41123809Y-36631190D01*
X41123809Y-36631190D02*
X41171428Y-36678809D01*
X41171428Y-36678809D02*
X41266666Y-36726428D01*
X41266666Y-36726428D02*
X41647618Y-36726428D01*
X40647618Y-37202619D02*
X40647618Y-36202619D01*
X39647619Y-36250238D02*
X39742857Y-36202619D01*
X39742857Y-36202619D02*
X39885714Y-36202619D01*
X39885714Y-36202619D02*
X40028571Y-36250238D01*
X40028571Y-36250238D02*
X40123809Y-36345476D01*
X40123809Y-36345476D02*
X40171428Y-36440714D01*
X40171428Y-36440714D02*
X40219047Y-36631190D01*
X40219047Y-36631190D02*
X40219047Y-36774047D01*
X40219047Y-36774047D02*
X40171428Y-36964523D01*
X40171428Y-36964523D02*
X40123809Y-37059761D01*
X40123809Y-37059761D02*
X40028571Y-37155000D01*
X40028571Y-37155000D02*
X39885714Y-37202619D01*
X39885714Y-37202619D02*
X39790476Y-37202619D01*
X39790476Y-37202619D02*
X39647619Y-37155000D01*
X39647619Y-37155000D02*
X39600000Y-37107380D01*
X39600000Y-37107380D02*
X39600000Y-36774047D01*
X39600000Y-36774047D02*
X39790476Y-36774047D01*
X39171428Y-37202619D02*
X39171428Y-36202619D01*
X39171428Y-36678809D02*
X38600000Y-36678809D01*
X38600000Y-37202619D02*
X38600000Y-36202619D01*
X38266666Y-36202619D02*
X37695238Y-36202619D01*
X37980952Y-37202619D02*
X37980952Y-36202619D01*
X40314285Y-38155952D02*
X40314285Y-38822619D01*
X40552380Y-37775000D02*
X40790475Y-38489285D01*
X40790475Y-38489285D02*
X40171428Y-38489285D01*
X39790475Y-38727380D02*
X39742856Y-38775000D01*
X39742856Y-38775000D02*
X39790475Y-38822619D01*
X39790475Y-38822619D02*
X39838094Y-38775000D01*
X39838094Y-38775000D02*
X39790475Y-38727380D01*
X39790475Y-38727380D02*
X39790475Y-38822619D01*
X39409523Y-37822619D02*
X38742857Y-37822619D01*
X38742857Y-37822619D02*
X39171428Y-38822619D01*
X38361904Y-38822619D02*
X38361904Y-37822619D01*
X37790476Y-38822619D02*
X38219047Y-38251190D01*
X37790476Y-37822619D02*
X38361904Y-38394047D01*
X19649047Y-69372095D02*
X20029999Y-69372095D01*
X20029999Y-69372095D02*
X20029999Y-68572095D01*
X19382380Y-69372095D02*
X19382380Y-68572095D01*
X19001428Y-69372095D02*
X19001428Y-68572095D01*
X19001428Y-68572095D02*
X18544285Y-69372095D01*
X18544285Y-69372095D02*
X18544285Y-68572095D01*
X18163333Y-68953047D02*
X17896667Y-68953047D01*
X17782381Y-69372095D02*
X18163333Y-69372095D01*
X18163333Y-69372095D02*
X18163333Y-68572095D01*
X18163333Y-68572095D02*
X17782381Y-68572095D01*
X20829999Y-69868095D02*
X20677618Y-69868095D01*
X20677618Y-69868095D02*
X20601428Y-69906190D01*
X20601428Y-69906190D02*
X20525237Y-69982380D01*
X20525237Y-69982380D02*
X20487142Y-70134761D01*
X20487142Y-70134761D02*
X20487142Y-70401428D01*
X20487142Y-70401428D02*
X20525237Y-70553809D01*
X20525237Y-70553809D02*
X20601428Y-70630000D01*
X20601428Y-70630000D02*
X20677618Y-70668095D01*
X20677618Y-70668095D02*
X20829999Y-70668095D01*
X20829999Y-70668095D02*
X20906190Y-70630000D01*
X20906190Y-70630000D02*
X20982380Y-70553809D01*
X20982380Y-70553809D02*
X21020476Y-70401428D01*
X21020476Y-70401428D02*
X21020476Y-70134761D01*
X21020476Y-70134761D02*
X20982380Y-69982380D01*
X20982380Y-69982380D02*
X20906190Y-69906190D01*
X20906190Y-69906190D02*
X20829999Y-69868095D01*
X20144285Y-69868095D02*
X20144285Y-70515714D01*
X20144285Y-70515714D02*
X20106190Y-70591904D01*
X20106190Y-70591904D02*
X20068095Y-70630000D01*
X20068095Y-70630000D02*
X19991904Y-70668095D01*
X19991904Y-70668095D02*
X19839523Y-70668095D01*
X19839523Y-70668095D02*
X19763333Y-70630000D01*
X19763333Y-70630000D02*
X19725238Y-70591904D01*
X19725238Y-70591904D02*
X19687142Y-70515714D01*
X19687142Y-70515714D02*
X19687142Y-69868095D01*
X19420476Y-69868095D02*
X18963333Y-69868095D01*
X19191905Y-70668095D02*
X19191905Y-69868095D01*
X17706190Y-70668095D02*
X18087142Y-70668095D01*
X18087142Y-70668095D02*
X18087142Y-69868095D01*
X6238095Y-84462619D02*
X6047619Y-84462619D01*
X6047619Y-84462619D02*
X5952381Y-84510238D01*
X5952381Y-84510238D02*
X5857143Y-84605476D01*
X5857143Y-84605476D02*
X5809524Y-84795952D01*
X5809524Y-84795952D02*
X5809524Y-85129285D01*
X5809524Y-85129285D02*
X5857143Y-85319761D01*
X5857143Y-85319761D02*
X5952381Y-85415000D01*
X5952381Y-85415000D02*
X6047619Y-85462619D01*
X6047619Y-85462619D02*
X6238095Y-85462619D01*
X6238095Y-85462619D02*
X6333333Y-85415000D01*
X6333333Y-85415000D02*
X6428571Y-85319761D01*
X6428571Y-85319761D02*
X6476190Y-85129285D01*
X6476190Y-85129285D02*
X6476190Y-84795952D01*
X6476190Y-84795952D02*
X6428571Y-84605476D01*
X6428571Y-84605476D02*
X6333333Y-84510238D01*
X6333333Y-84510238D02*
X6238095Y-84462619D01*
X5380952Y-84462619D02*
X5380952Y-85272142D01*
X5380952Y-85272142D02*
X5333333Y-85367380D01*
X5333333Y-85367380D02*
X5285714Y-85415000D01*
X5285714Y-85415000D02*
X5190476Y-85462619D01*
X5190476Y-85462619D02*
X5000000Y-85462619D01*
X5000000Y-85462619D02*
X4904762Y-85415000D01*
X4904762Y-85415000D02*
X4857143Y-85367380D01*
X4857143Y-85367380D02*
X4809524Y-85272142D01*
X4809524Y-85272142D02*
X4809524Y-84462619D01*
X4476190Y-84462619D02*
X3904762Y-84462619D01*
X4190476Y-85462619D02*
X4190476Y-84462619D01*
X3571428Y-85462619D02*
X3571428Y-84462619D01*
X3571428Y-84462619D02*
X3190476Y-84462619D01*
X3190476Y-84462619D02*
X3095238Y-84510238D01*
X3095238Y-84510238D02*
X3047619Y-84557857D01*
X3047619Y-84557857D02*
X3000000Y-84653095D01*
X3000000Y-84653095D02*
X3000000Y-84795952D01*
X3000000Y-84795952D02*
X3047619Y-84891190D01*
X3047619Y-84891190D02*
X3095238Y-84938809D01*
X3095238Y-84938809D02*
X3190476Y-84986428D01*
X3190476Y-84986428D02*
X3571428Y-84986428D01*
X2571428Y-84462619D02*
X2571428Y-85272142D01*
X2571428Y-85272142D02*
X2523809Y-85367380D01*
X2523809Y-85367380D02*
X2476190Y-85415000D01*
X2476190Y-85415000D02*
X2380952Y-85462619D01*
X2380952Y-85462619D02*
X2190476Y-85462619D01*
X2190476Y-85462619D02*
X2095238Y-85415000D01*
X2095238Y-85415000D02*
X2047619Y-85367380D01*
X2047619Y-85367380D02*
X2000000Y-85272142D01*
X2000000Y-85272142D02*
X2000000Y-84462619D01*
X1666666Y-84462619D02*
X1095238Y-84462619D01*
X1380952Y-85462619D02*
X1380952Y-84462619D01*
X45580952Y-76822095D02*
X45580952Y-77393523D01*
X45580952Y-77393523D02*
X45619047Y-77507809D01*
X45619047Y-77507809D02*
X45695238Y-77584000D01*
X45695238Y-77584000D02*
X45809523Y-77622095D01*
X45809523Y-77622095D02*
X45885714Y-77622095D01*
X45238095Y-77393523D02*
X44857142Y-77393523D01*
X45314285Y-77622095D02*
X45047618Y-76822095D01*
X45047618Y-76822095D02*
X44780952Y-77622095D01*
X44057142Y-77545904D02*
X44095238Y-77584000D01*
X44095238Y-77584000D02*
X44209523Y-77622095D01*
X44209523Y-77622095D02*
X44285714Y-77622095D01*
X44285714Y-77622095D02*
X44400000Y-77584000D01*
X44400000Y-77584000D02*
X44476190Y-77507809D01*
X44476190Y-77507809D02*
X44514285Y-77431619D01*
X44514285Y-77431619D02*
X44552381Y-77279238D01*
X44552381Y-77279238D02*
X44552381Y-77164952D01*
X44552381Y-77164952D02*
X44514285Y-77012571D01*
X44514285Y-77012571D02*
X44476190Y-76936380D01*
X44476190Y-76936380D02*
X44400000Y-76860190D01*
X44400000Y-76860190D02*
X44285714Y-76822095D01*
X44285714Y-76822095D02*
X44209523Y-76822095D01*
X44209523Y-76822095D02*
X44095238Y-76860190D01*
X44095238Y-76860190D02*
X44057142Y-76898285D01*
X43714285Y-77622095D02*
X43714285Y-76822095D01*
X43257142Y-77622095D02*
X43600000Y-77164952D01*
X43257142Y-76822095D02*
X43714285Y-77279238D01*
X42304761Y-77622095D02*
X42304761Y-76822095D01*
X41923809Y-77622095D02*
X41923809Y-76822095D01*
X41923809Y-76822095D02*
X41466666Y-77622095D01*
X41466666Y-77622095D02*
X41466666Y-76822095D01*
X45923809Y-78118095D02*
X45466666Y-78118095D01*
X45695238Y-78918095D02*
X45695238Y-78118095D01*
X45047618Y-78118095D02*
X44895237Y-78118095D01*
X44895237Y-78118095D02*
X44819047Y-78156190D01*
X44819047Y-78156190D02*
X44742856Y-78232380D01*
X44742856Y-78232380D02*
X44704761Y-78384761D01*
X44704761Y-78384761D02*
X44704761Y-78651428D01*
X44704761Y-78651428D02*
X44742856Y-78803809D01*
X44742856Y-78803809D02*
X44819047Y-78880000D01*
X44819047Y-78880000D02*
X44895237Y-78918095D01*
X44895237Y-78918095D02*
X45047618Y-78918095D01*
X45047618Y-78918095D02*
X45123809Y-78880000D01*
X45123809Y-78880000D02*
X45199999Y-78803809D01*
X45199999Y-78803809D02*
X45238095Y-78651428D01*
X45238095Y-78651428D02*
X45238095Y-78384761D01*
X45238095Y-78384761D02*
X45199999Y-78232380D01*
X45199999Y-78232380D02*
X45123809Y-78156190D01*
X45123809Y-78156190D02*
X45047618Y-78118095D01*
X43752380Y-78918095D02*
X43752380Y-78118095D01*
X43752380Y-78118095D02*
X43447618Y-78118095D01*
X43447618Y-78118095D02*
X43371428Y-78156190D01*
X43371428Y-78156190D02*
X43333333Y-78194285D01*
X43333333Y-78194285D02*
X43295237Y-78270476D01*
X43295237Y-78270476D02*
X43295237Y-78384761D01*
X43295237Y-78384761D02*
X43333333Y-78460952D01*
X43333333Y-78460952D02*
X43371428Y-78499047D01*
X43371428Y-78499047D02*
X43447618Y-78537142D01*
X43447618Y-78537142D02*
X43752380Y-78537142D01*
X42495237Y-78918095D02*
X42761904Y-78537142D01*
X42952380Y-78918095D02*
X42952380Y-78118095D01*
X42952380Y-78118095D02*
X42647618Y-78118095D01*
X42647618Y-78118095D02*
X42571428Y-78156190D01*
X42571428Y-78156190D02*
X42533333Y-78194285D01*
X42533333Y-78194285D02*
X42495237Y-78270476D01*
X42495237Y-78270476D02*
X42495237Y-78384761D01*
X42495237Y-78384761D02*
X42533333Y-78460952D01*
X42533333Y-78460952D02*
X42571428Y-78499047D01*
X42571428Y-78499047D02*
X42647618Y-78537142D01*
X42647618Y-78537142D02*
X42952380Y-78537142D01*
X42152380Y-78499047D02*
X41885714Y-78499047D01*
X41771428Y-78918095D02*
X42152380Y-78918095D01*
X42152380Y-78918095D02*
X42152380Y-78118095D01*
X42152380Y-78118095D02*
X41771428Y-78118095D01*
X41466666Y-78689523D02*
X41085713Y-78689523D01*
X41542856Y-78918095D02*
X41276189Y-78118095D01*
X41276189Y-78118095D02*
X41009523Y-78918095D01*
X40742856Y-78918095D02*
X40742856Y-78118095D01*
X40742856Y-78118095D02*
X40476190Y-78689523D01*
X40476190Y-78689523D02*
X40209523Y-78118095D01*
X40209523Y-78118095D02*
X40209523Y-78918095D01*
X39828570Y-78918095D02*
X39828570Y-78118095D01*
X39828570Y-78118095D02*
X39523808Y-78118095D01*
X39523808Y-78118095D02*
X39447618Y-78156190D01*
X39447618Y-78156190D02*
X39409523Y-78194285D01*
X39409523Y-78194285D02*
X39371427Y-78270476D01*
X39371427Y-78270476D02*
X39371427Y-78384761D01*
X39371427Y-78384761D02*
X39409523Y-78460952D01*
X39409523Y-78460952D02*
X39447618Y-78499047D01*
X39447618Y-78499047D02*
X39523808Y-78537142D01*
X39523808Y-78537142D02*
X39828570Y-78537142D01*
X48958571Y-69773809D02*
X48815714Y-69821428D01*
X48815714Y-69821428D02*
X48768095Y-69869047D01*
X48768095Y-69869047D02*
X48720476Y-69964285D01*
X48720476Y-69964285D02*
X48720476Y-70107142D01*
X48720476Y-70107142D02*
X48768095Y-70202380D01*
X48768095Y-70202380D02*
X48815714Y-70250000D01*
X48815714Y-70250000D02*
X48910952Y-70297619D01*
X48910952Y-70297619D02*
X49291904Y-70297619D01*
X49291904Y-70297619D02*
X49291904Y-69297619D01*
X49291904Y-69297619D02*
X48958571Y-69297619D01*
X48958571Y-69297619D02*
X48863333Y-69345238D01*
X48863333Y-69345238D02*
X48815714Y-69392857D01*
X48815714Y-69392857D02*
X48768095Y-69488095D01*
X48768095Y-69488095D02*
X48768095Y-69583333D01*
X48768095Y-69583333D02*
X48815714Y-69678571D01*
X48815714Y-69678571D02*
X48863333Y-69726190D01*
X48863333Y-69726190D02*
X48958571Y-69773809D01*
X48958571Y-69773809D02*
X49291904Y-69773809D01*
X48291904Y-70297619D02*
X48291904Y-69630952D01*
X48291904Y-69821428D02*
X48244285Y-69726190D01*
X48244285Y-69726190D02*
X48196666Y-69678571D01*
X48196666Y-69678571D02*
X48101428Y-69630952D01*
X48101428Y-69630952D02*
X48006190Y-69630952D01*
X47244285Y-70297619D02*
X47244285Y-69773809D01*
X47244285Y-69773809D02*
X47291904Y-69678571D01*
X47291904Y-69678571D02*
X47387142Y-69630952D01*
X47387142Y-69630952D02*
X47577618Y-69630952D01*
X47577618Y-69630952D02*
X47672856Y-69678571D01*
X47244285Y-70250000D02*
X47339523Y-70297619D01*
X47339523Y-70297619D02*
X47577618Y-70297619D01*
X47577618Y-70297619D02*
X47672856Y-70250000D01*
X47672856Y-70250000D02*
X47720475Y-70154761D01*
X47720475Y-70154761D02*
X47720475Y-70059523D01*
X47720475Y-70059523D02*
X47672856Y-69964285D01*
X47672856Y-69964285D02*
X47577618Y-69916666D01*
X47577618Y-69916666D02*
X47339523Y-69916666D01*
X47339523Y-69916666D02*
X47244285Y-69869047D01*
X46339523Y-70297619D02*
X46339523Y-69297619D01*
X46339523Y-70250000D02*
X46434761Y-70297619D01*
X46434761Y-70297619D02*
X46625237Y-70297619D01*
X46625237Y-70297619D02*
X46720475Y-70250000D01*
X46720475Y-70250000D02*
X46768094Y-70202380D01*
X46768094Y-70202380D02*
X46815713Y-70107142D01*
X46815713Y-70107142D02*
X46815713Y-69821428D01*
X46815713Y-69821428D02*
X46768094Y-69726190D01*
X46768094Y-69726190D02*
X46720475Y-69678571D01*
X46720475Y-69678571D02*
X46625237Y-69630952D01*
X46625237Y-69630952D02*
X46434761Y-69630952D01*
X46434761Y-69630952D02*
X46339523Y-69678571D01*
X45910951Y-70250000D02*
X45815713Y-70297619D01*
X45815713Y-70297619D02*
X45625237Y-70297619D01*
X45625237Y-70297619D02*
X45529999Y-70250000D01*
X45529999Y-70250000D02*
X45482380Y-70154761D01*
X45482380Y-70154761D02*
X45482380Y-70107142D01*
X45482380Y-70107142D02*
X45529999Y-70011904D01*
X45529999Y-70011904D02*
X45625237Y-69964285D01*
X45625237Y-69964285D02*
X45768094Y-69964285D01*
X45768094Y-69964285D02*
X45863332Y-69916666D01*
X45863332Y-69916666D02*
X45910951Y-69821428D01*
X45910951Y-69821428D02*
X45910951Y-69773809D01*
X45910951Y-69773809D02*
X45863332Y-69678571D01*
X45863332Y-69678571D02*
X45768094Y-69630952D01*
X45768094Y-69630952D02*
X45625237Y-69630952D01*
X45625237Y-69630952D02*
X45529999Y-69678571D01*
X45053808Y-70297619D02*
X45053808Y-69297619D01*
X44625237Y-70297619D02*
X44625237Y-69773809D01*
X44625237Y-69773809D02*
X44672856Y-69678571D01*
X44672856Y-69678571D02*
X44768094Y-69630952D01*
X44768094Y-69630952D02*
X44910951Y-69630952D01*
X44910951Y-69630952D02*
X45006189Y-69678571D01*
X45006189Y-69678571D02*
X45053808Y-69726190D01*
X43720475Y-70297619D02*
X43720475Y-69773809D01*
X43720475Y-69773809D02*
X43768094Y-69678571D01*
X43768094Y-69678571D02*
X43863332Y-69630952D01*
X43863332Y-69630952D02*
X44053808Y-69630952D01*
X44053808Y-69630952D02*
X44149046Y-69678571D01*
X43720475Y-70250000D02*
X43815713Y-70297619D01*
X43815713Y-70297619D02*
X44053808Y-70297619D01*
X44053808Y-70297619D02*
X44149046Y-70250000D01*
X44149046Y-70250000D02*
X44196665Y-70154761D01*
X44196665Y-70154761D02*
X44196665Y-70059523D01*
X44196665Y-70059523D02*
X44149046Y-69964285D01*
X44149046Y-69964285D02*
X44053808Y-69916666D01*
X44053808Y-69916666D02*
X43815713Y-69916666D01*
X43815713Y-69916666D02*
X43720475Y-69869047D01*
X43339522Y-69630952D02*
X43149046Y-70297619D01*
X43149046Y-70297619D02*
X42958570Y-69821428D01*
X42958570Y-69821428D02*
X42768094Y-70297619D01*
X42768094Y-70297619D02*
X42577618Y-69630952D01*
X41434760Y-70297619D02*
X41434760Y-69297619D01*
X40958570Y-69630952D02*
X40958570Y-70297619D01*
X40958570Y-69726190D02*
X40910951Y-69678571D01*
X40910951Y-69678571D02*
X40815713Y-69630952D01*
X40815713Y-69630952D02*
X40672856Y-69630952D01*
X40672856Y-69630952D02*
X40577618Y-69678571D01*
X40577618Y-69678571D02*
X40529999Y-69773809D01*
X40529999Y-69773809D02*
X40529999Y-70297619D01*
X40101427Y-70250000D02*
X40006189Y-70297619D01*
X40006189Y-70297619D02*
X39815713Y-70297619D01*
X39815713Y-70297619D02*
X39720475Y-70250000D01*
X39720475Y-70250000D02*
X39672856Y-70154761D01*
X39672856Y-70154761D02*
X39672856Y-70107142D01*
X39672856Y-70107142D02*
X39720475Y-70011904D01*
X39720475Y-70011904D02*
X39815713Y-69964285D01*
X39815713Y-69964285D02*
X39958570Y-69964285D01*
X39958570Y-69964285D02*
X40053808Y-69916666D01*
X40053808Y-69916666D02*
X40101427Y-69821428D01*
X40101427Y-69821428D02*
X40101427Y-69773809D01*
X40101427Y-69773809D02*
X40053808Y-69678571D01*
X40053808Y-69678571D02*
X39958570Y-69630952D01*
X39958570Y-69630952D02*
X39815713Y-69630952D01*
X39815713Y-69630952D02*
X39720475Y-69678571D01*
X39387141Y-69630952D02*
X39006189Y-69630952D01*
X39244284Y-69297619D02*
X39244284Y-70154761D01*
X39244284Y-70154761D02*
X39196665Y-70250000D01*
X39196665Y-70250000D02*
X39101427Y-70297619D01*
X39101427Y-70297619D02*
X39006189Y-70297619D01*
X38672855Y-70297619D02*
X38672855Y-69630952D01*
X38672855Y-69821428D02*
X38625236Y-69726190D01*
X38625236Y-69726190D02*
X38577617Y-69678571D01*
X38577617Y-69678571D02*
X38482379Y-69630952D01*
X38482379Y-69630952D02*
X38387141Y-69630952D01*
X37625236Y-69630952D02*
X37625236Y-70297619D01*
X38053807Y-69630952D02*
X38053807Y-70154761D01*
X38053807Y-70154761D02*
X38006188Y-70250000D01*
X38006188Y-70250000D02*
X37910950Y-70297619D01*
X37910950Y-70297619D02*
X37768093Y-70297619D01*
X37768093Y-70297619D02*
X37672855Y-70250000D01*
X37672855Y-70250000D02*
X37625236Y-70202380D01*
X37149045Y-70297619D02*
X37149045Y-69630952D01*
X37149045Y-69726190D02*
X37101426Y-69678571D01*
X37101426Y-69678571D02*
X37006188Y-69630952D01*
X37006188Y-69630952D02*
X36863331Y-69630952D01*
X36863331Y-69630952D02*
X36768093Y-69678571D01*
X36768093Y-69678571D02*
X36720474Y-69773809D01*
X36720474Y-69773809D02*
X36720474Y-70297619D01*
X36720474Y-69773809D02*
X36672855Y-69678571D01*
X36672855Y-69678571D02*
X36577617Y-69630952D01*
X36577617Y-69630952D02*
X36434760Y-69630952D01*
X36434760Y-69630952D02*
X36339521Y-69678571D01*
X36339521Y-69678571D02*
X36291902Y-69773809D01*
X36291902Y-69773809D02*
X36291902Y-70297619D01*
X35434760Y-70250000D02*
X35529998Y-70297619D01*
X35529998Y-70297619D02*
X35720474Y-70297619D01*
X35720474Y-70297619D02*
X35815712Y-70250000D01*
X35815712Y-70250000D02*
X35863331Y-70154761D01*
X35863331Y-70154761D02*
X35863331Y-69773809D01*
X35863331Y-69773809D02*
X35815712Y-69678571D01*
X35815712Y-69678571D02*
X35720474Y-69630952D01*
X35720474Y-69630952D02*
X35529998Y-69630952D01*
X35529998Y-69630952D02*
X35434760Y-69678571D01*
X35434760Y-69678571D02*
X35387141Y-69773809D01*
X35387141Y-69773809D02*
X35387141Y-69869047D01*
X35387141Y-69869047D02*
X35863331Y-69964285D01*
X34958569Y-69630952D02*
X34958569Y-70297619D01*
X34958569Y-69726190D02*
X34910950Y-69678571D01*
X34910950Y-69678571D02*
X34815712Y-69630952D01*
X34815712Y-69630952D02*
X34672855Y-69630952D01*
X34672855Y-69630952D02*
X34577617Y-69678571D01*
X34577617Y-69678571D02*
X34529998Y-69773809D01*
X34529998Y-69773809D02*
X34529998Y-70297619D01*
X34196664Y-69630952D02*
X33815712Y-69630952D01*
X34053807Y-69297619D02*
X34053807Y-70154761D01*
X34053807Y-70154761D02*
X34006188Y-70250000D01*
X34006188Y-70250000D02*
X33910950Y-70297619D01*
X33910950Y-70297619D02*
X33815712Y-70297619D01*
X33529997Y-70250000D02*
X33434759Y-70297619D01*
X33434759Y-70297619D02*
X33244283Y-70297619D01*
X33244283Y-70297619D02*
X33149045Y-70250000D01*
X33149045Y-70250000D02*
X33101426Y-70154761D01*
X33101426Y-70154761D02*
X33101426Y-70107142D01*
X33101426Y-70107142D02*
X33149045Y-70011904D01*
X33149045Y-70011904D02*
X33244283Y-69964285D01*
X33244283Y-69964285D02*
X33387140Y-69964285D01*
X33387140Y-69964285D02*
X33482378Y-69916666D01*
X33482378Y-69916666D02*
X33529997Y-69821428D01*
X33529997Y-69821428D02*
X33529997Y-69773809D01*
X33529997Y-69773809D02*
X33482378Y-69678571D01*
X33482378Y-69678571D02*
X33387140Y-69630952D01*
X33387140Y-69630952D02*
X33244283Y-69630952D01*
X33244283Y-69630952D02*
X33149045Y-69678571D01*
X49101428Y-70917619D02*
X48910952Y-70917619D01*
X48910952Y-70917619D02*
X48815714Y-70965238D01*
X48815714Y-70965238D02*
X48720476Y-71060476D01*
X48720476Y-71060476D02*
X48672857Y-71250952D01*
X48672857Y-71250952D02*
X48672857Y-71584285D01*
X48672857Y-71584285D02*
X48720476Y-71774761D01*
X48720476Y-71774761D02*
X48815714Y-71870000D01*
X48815714Y-71870000D02*
X48910952Y-71917619D01*
X48910952Y-71917619D02*
X49101428Y-71917619D01*
X49101428Y-71917619D02*
X49196666Y-71870000D01*
X49196666Y-71870000D02*
X49291904Y-71774761D01*
X49291904Y-71774761D02*
X49339523Y-71584285D01*
X49339523Y-71584285D02*
X49339523Y-71250952D01*
X49339523Y-71250952D02*
X49291904Y-71060476D01*
X49291904Y-71060476D02*
X49196666Y-70965238D01*
X49196666Y-70965238D02*
X49101428Y-70917619D01*
X48244285Y-71917619D02*
X48244285Y-71250952D01*
X48244285Y-71346190D02*
X48196666Y-71298571D01*
X48196666Y-71298571D02*
X48101428Y-71250952D01*
X48101428Y-71250952D02*
X47958571Y-71250952D01*
X47958571Y-71250952D02*
X47863333Y-71298571D01*
X47863333Y-71298571D02*
X47815714Y-71393809D01*
X47815714Y-71393809D02*
X47815714Y-71917619D01*
X47815714Y-71393809D02*
X47768095Y-71298571D01*
X47768095Y-71298571D02*
X47672857Y-71250952D01*
X47672857Y-71250952D02*
X47530000Y-71250952D01*
X47530000Y-71250952D02*
X47434761Y-71298571D01*
X47434761Y-71298571D02*
X47387142Y-71393809D01*
X47387142Y-71393809D02*
X47387142Y-71917619D01*
X46910952Y-71250952D02*
X46910952Y-71917619D01*
X46910952Y-71346190D02*
X46863333Y-71298571D01*
X46863333Y-71298571D02*
X46768095Y-71250952D01*
X46768095Y-71250952D02*
X46625238Y-71250952D01*
X46625238Y-71250952D02*
X46530000Y-71298571D01*
X46530000Y-71298571D02*
X46482381Y-71393809D01*
X46482381Y-71393809D02*
X46482381Y-71917619D01*
X46006190Y-71917619D02*
X46006190Y-71250952D01*
X46006190Y-70917619D02*
X46053809Y-70965238D01*
X46053809Y-70965238D02*
X46006190Y-71012857D01*
X46006190Y-71012857D02*
X45958571Y-70965238D01*
X45958571Y-70965238D02*
X46006190Y-70917619D01*
X46006190Y-70917619D02*
X46006190Y-71012857D01*
X45577619Y-71870000D02*
X45482381Y-71917619D01*
X45482381Y-71917619D02*
X45291905Y-71917619D01*
X45291905Y-71917619D02*
X45196667Y-71870000D01*
X45196667Y-71870000D02*
X45149048Y-71774761D01*
X45149048Y-71774761D02*
X45149048Y-71727142D01*
X45149048Y-71727142D02*
X45196667Y-71631904D01*
X45196667Y-71631904D02*
X45291905Y-71584285D01*
X45291905Y-71584285D02*
X45434762Y-71584285D01*
X45434762Y-71584285D02*
X45530000Y-71536666D01*
X45530000Y-71536666D02*
X45577619Y-71441428D01*
X45577619Y-71441428D02*
X45577619Y-71393809D01*
X45577619Y-71393809D02*
X45530000Y-71298571D01*
X45530000Y-71298571D02*
X45434762Y-71250952D01*
X45434762Y-71250952D02*
X45291905Y-71250952D01*
X45291905Y-71250952D02*
X45196667Y-71298571D01*
X44863333Y-71250952D02*
X44482381Y-71250952D01*
X44720476Y-70917619D02*
X44720476Y-71774761D01*
X44720476Y-71774761D02*
X44672857Y-71870000D01*
X44672857Y-71870000D02*
X44577619Y-71917619D01*
X44577619Y-71917619D02*
X44482381Y-71917619D01*
X44006190Y-71917619D02*
X44101428Y-71870000D01*
X44101428Y-71870000D02*
X44149047Y-71822380D01*
X44149047Y-71822380D02*
X44196666Y-71727142D01*
X44196666Y-71727142D02*
X44196666Y-71441428D01*
X44196666Y-71441428D02*
X44149047Y-71346190D01*
X44149047Y-71346190D02*
X44101428Y-71298571D01*
X44101428Y-71298571D02*
X44006190Y-71250952D01*
X44006190Y-71250952D02*
X43863333Y-71250952D01*
X43863333Y-71250952D02*
X43768095Y-71298571D01*
X43768095Y-71298571D02*
X43720476Y-71346190D01*
X43720476Y-71346190D02*
X43672857Y-71441428D01*
X43672857Y-71441428D02*
X43672857Y-71727142D01*
X43672857Y-71727142D02*
X43720476Y-71822380D01*
X43720476Y-71822380D02*
X43768095Y-71870000D01*
X43768095Y-71870000D02*
X43863333Y-71917619D01*
X43863333Y-71917619D02*
X44006190Y-71917619D01*
X43244285Y-71917619D02*
X43244285Y-71250952D01*
X43244285Y-71346190D02*
X43196666Y-71298571D01*
X43196666Y-71298571D02*
X43101428Y-71250952D01*
X43101428Y-71250952D02*
X42958571Y-71250952D01*
X42958571Y-71250952D02*
X42863333Y-71298571D01*
X42863333Y-71298571D02*
X42815714Y-71393809D01*
X42815714Y-71393809D02*
X42815714Y-71917619D01*
X42815714Y-71393809D02*
X42768095Y-71298571D01*
X42768095Y-71298571D02*
X42672857Y-71250952D01*
X42672857Y-71250952D02*
X42530000Y-71250952D01*
X42530000Y-71250952D02*
X42434761Y-71298571D01*
X42434761Y-71298571D02*
X42387142Y-71393809D01*
X42387142Y-71393809D02*
X42387142Y-71917619D01*
X41910952Y-71250952D02*
X41910952Y-72250952D01*
X41910952Y-71298571D02*
X41815714Y-71250952D01*
X41815714Y-71250952D02*
X41625238Y-71250952D01*
X41625238Y-71250952D02*
X41530000Y-71298571D01*
X41530000Y-71298571D02*
X41482381Y-71346190D01*
X41482381Y-71346190D02*
X41434762Y-71441428D01*
X41434762Y-71441428D02*
X41434762Y-71727142D01*
X41434762Y-71727142D02*
X41482381Y-71822380D01*
X41482381Y-71822380D02*
X41530000Y-71870000D01*
X41530000Y-71870000D02*
X41625238Y-71917619D01*
X41625238Y-71917619D02*
X41815714Y-71917619D01*
X41815714Y-71917619D02*
X41910952Y-71870000D01*
X40387142Y-70917619D02*
X40053809Y-71917619D01*
X40053809Y-71917619D02*
X39720476Y-70917619D01*
X38863333Y-71917619D02*
X39434761Y-71917619D01*
X39149047Y-71917619D02*
X39149047Y-70917619D01*
X39149047Y-70917619D02*
X39244285Y-71060476D01*
X39244285Y-71060476D02*
X39339523Y-71155714D01*
X39339523Y-71155714D02*
X39434761Y-71203333D01*
X38434761Y-71822380D02*
X38387142Y-71870000D01*
X38387142Y-71870000D02*
X38434761Y-71917619D01*
X38434761Y-71917619D02*
X38482380Y-71870000D01*
X38482380Y-71870000D02*
X38434761Y-71822380D01*
X38434761Y-71822380D02*
X38434761Y-71917619D01*
X37768095Y-70917619D02*
X37672857Y-70917619D01*
X37672857Y-70917619D02*
X37577619Y-70965238D01*
X37577619Y-70965238D02*
X37530000Y-71012857D01*
X37530000Y-71012857D02*
X37482381Y-71108095D01*
X37482381Y-71108095D02*
X37434762Y-71298571D01*
X37434762Y-71298571D02*
X37434762Y-71536666D01*
X37434762Y-71536666D02*
X37482381Y-71727142D01*
X37482381Y-71727142D02*
X37530000Y-71822380D01*
X37530000Y-71822380D02*
X37577619Y-71870000D01*
X37577619Y-71870000D02*
X37672857Y-71917619D01*
X37672857Y-71917619D02*
X37768095Y-71917619D01*
X37768095Y-71917619D02*
X37863333Y-71870000D01*
X37863333Y-71870000D02*
X37910952Y-71822380D01*
X37910952Y-71822380D02*
X37958571Y-71727142D01*
X37958571Y-71727142D02*
X38006190Y-71536666D01*
X38006190Y-71536666D02*
X38006190Y-71298571D01*
X38006190Y-71298571D02*
X37958571Y-71108095D01*
X37958571Y-71108095D02*
X37910952Y-71012857D01*
X37910952Y-71012857D02*
X37863333Y-70965238D01*
X37863333Y-70965238D02*
X37768095Y-70917619D01*
X49006190Y-72537619D02*
X49006190Y-73251904D01*
X49006190Y-73251904D02*
X49053809Y-73394761D01*
X49053809Y-73394761D02*
X49149047Y-73490000D01*
X49149047Y-73490000D02*
X49291904Y-73537619D01*
X49291904Y-73537619D02*
X49387142Y-73537619D01*
X48101428Y-73537619D02*
X48101428Y-73013809D01*
X48101428Y-73013809D02*
X48149047Y-72918571D01*
X48149047Y-72918571D02*
X48244285Y-72870952D01*
X48244285Y-72870952D02*
X48434761Y-72870952D01*
X48434761Y-72870952D02*
X48529999Y-72918571D01*
X48101428Y-73490000D02*
X48196666Y-73537619D01*
X48196666Y-73537619D02*
X48434761Y-73537619D01*
X48434761Y-73537619D02*
X48529999Y-73490000D01*
X48529999Y-73490000D02*
X48577618Y-73394761D01*
X48577618Y-73394761D02*
X48577618Y-73299523D01*
X48577618Y-73299523D02*
X48529999Y-73204285D01*
X48529999Y-73204285D02*
X48434761Y-73156666D01*
X48434761Y-73156666D02*
X48196666Y-73156666D01*
X48196666Y-73156666D02*
X48101428Y-73109047D01*
X47625237Y-72870952D02*
X47625237Y-73537619D01*
X47625237Y-72966190D02*
X47577618Y-72918571D01*
X47577618Y-72918571D02*
X47482380Y-72870952D01*
X47482380Y-72870952D02*
X47339523Y-72870952D01*
X47339523Y-72870952D02*
X47244285Y-72918571D01*
X47244285Y-72918571D02*
X47196666Y-73013809D01*
X47196666Y-73013809D02*
X47196666Y-73537619D01*
X46291904Y-72870952D02*
X46291904Y-73537619D01*
X46720475Y-72870952D02*
X46720475Y-73394761D01*
X46720475Y-73394761D02*
X46672856Y-73490000D01*
X46672856Y-73490000D02*
X46577618Y-73537619D01*
X46577618Y-73537619D02*
X46434761Y-73537619D01*
X46434761Y-73537619D02*
X46339523Y-73490000D01*
X46339523Y-73490000D02*
X46291904Y-73442380D01*
X45387142Y-73537619D02*
X45387142Y-73013809D01*
X45387142Y-73013809D02*
X45434761Y-72918571D01*
X45434761Y-72918571D02*
X45529999Y-72870952D01*
X45529999Y-72870952D02*
X45720475Y-72870952D01*
X45720475Y-72870952D02*
X45815713Y-72918571D01*
X45387142Y-73490000D02*
X45482380Y-73537619D01*
X45482380Y-73537619D02*
X45720475Y-73537619D01*
X45720475Y-73537619D02*
X45815713Y-73490000D01*
X45815713Y-73490000D02*
X45863332Y-73394761D01*
X45863332Y-73394761D02*
X45863332Y-73299523D01*
X45863332Y-73299523D02*
X45815713Y-73204285D01*
X45815713Y-73204285D02*
X45720475Y-73156666D01*
X45720475Y-73156666D02*
X45482380Y-73156666D01*
X45482380Y-73156666D02*
X45387142Y-73109047D01*
X44910951Y-73537619D02*
X44910951Y-72870952D01*
X44910951Y-73061428D02*
X44863332Y-72966190D01*
X44863332Y-72966190D02*
X44815713Y-72918571D01*
X44815713Y-72918571D02*
X44720475Y-72870952D01*
X44720475Y-72870952D02*
X44625237Y-72870952D01*
X44387141Y-72870952D02*
X44149046Y-73537619D01*
X43910951Y-72870952D02*
X44149046Y-73537619D01*
X44149046Y-73537619D02*
X44244284Y-73775714D01*
X44244284Y-73775714D02*
X44291903Y-73823333D01*
X44291903Y-73823333D02*
X44387141Y-73870952D01*
X42815712Y-72632857D02*
X42768093Y-72585238D01*
X42768093Y-72585238D02*
X42672855Y-72537619D01*
X42672855Y-72537619D02*
X42434760Y-72537619D01*
X42434760Y-72537619D02*
X42339522Y-72585238D01*
X42339522Y-72585238D02*
X42291903Y-72632857D01*
X42291903Y-72632857D02*
X42244284Y-72728095D01*
X42244284Y-72728095D02*
X42244284Y-72823333D01*
X42244284Y-72823333D02*
X42291903Y-72966190D01*
X42291903Y-72966190D02*
X42863331Y-73537619D01*
X42863331Y-73537619D02*
X42244284Y-73537619D01*
X41625236Y-72537619D02*
X41529998Y-72537619D01*
X41529998Y-72537619D02*
X41434760Y-72585238D01*
X41434760Y-72585238D02*
X41387141Y-72632857D01*
X41387141Y-72632857D02*
X41339522Y-72728095D01*
X41339522Y-72728095D02*
X41291903Y-72918571D01*
X41291903Y-72918571D02*
X41291903Y-73156666D01*
X41291903Y-73156666D02*
X41339522Y-73347142D01*
X41339522Y-73347142D02*
X41387141Y-73442380D01*
X41387141Y-73442380D02*
X41434760Y-73490000D01*
X41434760Y-73490000D02*
X41529998Y-73537619D01*
X41529998Y-73537619D02*
X41625236Y-73537619D01*
X41625236Y-73537619D02*
X41720474Y-73490000D01*
X41720474Y-73490000D02*
X41768093Y-73442380D01*
X41768093Y-73442380D02*
X41815712Y-73347142D01*
X41815712Y-73347142D02*
X41863331Y-73156666D01*
X41863331Y-73156666D02*
X41863331Y-72918571D01*
X41863331Y-72918571D02*
X41815712Y-72728095D01*
X41815712Y-72728095D02*
X41768093Y-72632857D01*
X41768093Y-72632857D02*
X41720474Y-72585238D01*
X41720474Y-72585238D02*
X41625236Y-72537619D01*
X40910950Y-72632857D02*
X40863331Y-72585238D01*
X40863331Y-72585238D02*
X40768093Y-72537619D01*
X40768093Y-72537619D02*
X40529998Y-72537619D01*
X40529998Y-72537619D02*
X40434760Y-72585238D01*
X40434760Y-72585238D02*
X40387141Y-72632857D01*
X40387141Y-72632857D02*
X40339522Y-72728095D01*
X40339522Y-72728095D02*
X40339522Y-72823333D01*
X40339522Y-72823333D02*
X40387141Y-72966190D01*
X40387141Y-72966190D02*
X40958569Y-73537619D01*
X40958569Y-73537619D02*
X40339522Y-73537619D01*
X39434760Y-72537619D02*
X39910950Y-72537619D01*
X39910950Y-72537619D02*
X39958569Y-73013809D01*
X39958569Y-73013809D02*
X39910950Y-72966190D01*
X39910950Y-72966190D02*
X39815712Y-72918571D01*
X39815712Y-72918571D02*
X39577617Y-72918571D01*
X39577617Y-72918571D02*
X39482379Y-72966190D01*
X39482379Y-72966190D02*
X39434760Y-73013809D01*
X39434760Y-73013809D02*
X39387141Y-73109047D01*
X39387141Y-73109047D02*
X39387141Y-73347142D01*
X39387141Y-73347142D02*
X39434760Y-73442380D01*
X39434760Y-73442380D02*
X39482379Y-73490000D01*
X39482379Y-73490000D02*
X39577617Y-73537619D01*
X39577617Y-73537619D02*
X39815712Y-73537619D01*
X39815712Y-73537619D02*
X39910950Y-73490000D01*
X39910950Y-73490000D02*
X39958569Y-73442380D01*
X13059523Y-75266190D02*
X13135713Y-75228095D01*
X13135713Y-75228095D02*
X13249999Y-75228095D01*
X13249999Y-75228095D02*
X13364285Y-75266190D01*
X13364285Y-75266190D02*
X13440475Y-75342380D01*
X13440475Y-75342380D02*
X13478570Y-75418571D01*
X13478570Y-75418571D02*
X13516666Y-75570952D01*
X13516666Y-75570952D02*
X13516666Y-75685238D01*
X13516666Y-75685238D02*
X13478570Y-75837619D01*
X13478570Y-75837619D02*
X13440475Y-75913809D01*
X13440475Y-75913809D02*
X13364285Y-75990000D01*
X13364285Y-75990000D02*
X13249999Y-76028095D01*
X13249999Y-76028095D02*
X13173808Y-76028095D01*
X13173808Y-76028095D02*
X13059523Y-75990000D01*
X13059523Y-75990000D02*
X13021427Y-75951904D01*
X13021427Y-75951904D02*
X13021427Y-75685238D01*
X13021427Y-75685238D02*
X13173808Y-75685238D01*
X12678570Y-76028095D02*
X12678570Y-75228095D01*
X12678570Y-75228095D02*
X12221427Y-76028095D01*
X12221427Y-76028095D02*
X12221427Y-75228095D01*
X11840475Y-76028095D02*
X11840475Y-75228095D01*
X11840475Y-75228095D02*
X11649999Y-75228095D01*
X11649999Y-75228095D02*
X11535713Y-75266190D01*
X11535713Y-75266190D02*
X11459523Y-75342380D01*
X11459523Y-75342380D02*
X11421428Y-75418571D01*
X11421428Y-75418571D02*
X11383332Y-75570952D01*
X11383332Y-75570952D02*
X11383332Y-75685238D01*
X11383332Y-75685238D02*
X11421428Y-75837619D01*
X11421428Y-75837619D02*
X11459523Y-75913809D01*
X11459523Y-75913809D02*
X11535713Y-75990000D01*
X11535713Y-75990000D02*
X11649999Y-76028095D01*
X11649999Y-76028095D02*
X11840475Y-76028095D01*
X39319048Y-48802619D02*
X39795238Y-48802619D01*
X39795238Y-48802619D02*
X39795238Y-47802619D01*
X38985714Y-48278809D02*
X38652381Y-48278809D01*
X38509524Y-48802619D02*
X38985714Y-48802619D01*
X38985714Y-48802619D02*
X38985714Y-47802619D01*
X38985714Y-47802619D02*
X38509524Y-47802619D01*
X37747619Y-48278809D02*
X38080952Y-48278809D01*
X38080952Y-48802619D02*
X38080952Y-47802619D01*
X38080952Y-47802619D02*
X37604762Y-47802619D01*
X37366666Y-47802619D02*
X36795238Y-47802619D01*
X37080952Y-48802619D02*
X37080952Y-47802619D01*
X39414285Y-49755952D02*
X39414285Y-50422619D01*
X39652380Y-49375000D02*
X39890475Y-50089285D01*
X39890475Y-50089285D02*
X39271428Y-50089285D01*
X38890475Y-50327380D02*
X38842856Y-50375000D01*
X38842856Y-50375000D02*
X38890475Y-50422619D01*
X38890475Y-50422619D02*
X38938094Y-50375000D01*
X38938094Y-50375000D02*
X38890475Y-50327380D01*
X38890475Y-50327380D02*
X38890475Y-50422619D01*
X38509523Y-49422619D02*
X37842857Y-49422619D01*
X37842857Y-49422619D02*
X38271428Y-50422619D01*
X37461904Y-50422619D02*
X37461904Y-49422619D01*
X36890476Y-50422619D02*
X37319047Y-49851190D01*
X36890476Y-49422619D02*
X37461904Y-49994047D01*
X52761904Y-85462619D02*
X52761904Y-84462619D01*
X52285714Y-85462619D02*
X52285714Y-84462619D01*
X52285714Y-84462619D02*
X51714286Y-85462619D01*
X51714286Y-85462619D02*
X51714286Y-84462619D01*
X51238095Y-85462619D02*
X51238095Y-84462619D01*
X51238095Y-84462619D02*
X50857143Y-84462619D01*
X50857143Y-84462619D02*
X50761905Y-84510238D01*
X50761905Y-84510238D02*
X50714286Y-84557857D01*
X50714286Y-84557857D02*
X50666667Y-84653095D01*
X50666667Y-84653095D02*
X50666667Y-84795952D01*
X50666667Y-84795952D02*
X50714286Y-84891190D01*
X50714286Y-84891190D02*
X50761905Y-84938809D01*
X50761905Y-84938809D02*
X50857143Y-84986428D01*
X50857143Y-84986428D02*
X51238095Y-84986428D01*
X50238095Y-84462619D02*
X50238095Y-85272142D01*
X50238095Y-85272142D02*
X50190476Y-85367380D01*
X50190476Y-85367380D02*
X50142857Y-85415000D01*
X50142857Y-85415000D02*
X50047619Y-85462619D01*
X50047619Y-85462619D02*
X49857143Y-85462619D01*
X49857143Y-85462619D02*
X49761905Y-85415000D01*
X49761905Y-85415000D02*
X49714286Y-85367380D01*
X49714286Y-85367380D02*
X49666667Y-85272142D01*
X49666667Y-85272142D02*
X49666667Y-84462619D01*
X49333333Y-84462619D02*
X48761905Y-84462619D01*
X49047619Y-85462619D02*
X49047619Y-84462619D01*
D11*
%TO.C,JP6*%
X12800000Y-72250000D02*
X12200000Y-72250000D01*
X11500000Y-72950000D02*
X11500000Y-74350000D01*
X13500000Y-74350000D02*
X13500000Y-72950000D01*
X12200000Y-75050000D02*
X12800000Y-75050000D01*
X13500000Y-72950000D02*
G75*
G03*
X12800000Y-72250000I-699999J1D01*
G01*
X12200000Y-72250000D02*
G75*
G03*
X11500000Y-72950000I-1J-699999D01*
G01*
X12800000Y-75050000D02*
G75*
G03*
X13500000Y-74350000I0J700000D01*
G01*
X11500000Y-74350000D02*
G75*
G03*
X12200000Y-75050000I700000J0D01*
G01*
%TO.C,JP7*%
X12800000Y-68250000D02*
X12200000Y-68250000D01*
X11500000Y-68950000D02*
X11500000Y-70350000D01*
X13500000Y-70350000D02*
X13500000Y-68950000D01*
X12200000Y-71050000D02*
X12800000Y-71050000D01*
X13500000Y-68950000D02*
G75*
G03*
X12800000Y-68250000I-699999J1D01*
G01*
X12200000Y-68250000D02*
G75*
G03*
X11500000Y-68950000I-1J-699999D01*
G01*
X12800000Y-71050000D02*
G75*
G03*
X13500000Y-70350000I0J700000D01*
G01*
X11500000Y-70350000D02*
G75*
G03*
X12200000Y-71050000I700000J0D01*
G01*
%TO.C,JP11*%
X46350000Y-77600000D02*
X46350000Y-78200000D01*
X47050000Y-78900000D02*
X48450000Y-78900000D01*
X48450000Y-76900000D02*
X47050000Y-76900000D01*
X49150000Y-78200000D02*
X49150000Y-77600000D01*
X47050000Y-76900000D02*
G75*
G03*
X46350000Y-77600000I-1J-699999D01*
G01*
X46350000Y-78200000D02*
G75*
G03*
X47050000Y-78900000I699999J-1D01*
G01*
X49150000Y-77600000D02*
G75*
G03*
X48450000Y-76900000I-700000J0D01*
G01*
X48450000Y-78900000D02*
G75*
G03*
X49150000Y-78200000I0J700000D01*
G01*
%TO.C,JP9*%
X16200000Y-75050000D02*
X16800000Y-75050000D01*
X17500000Y-74350000D02*
X17500000Y-72950000D01*
X15500000Y-72950000D02*
X15500000Y-74350000D01*
X16800000Y-72250000D02*
X16200000Y-72250000D01*
X15500000Y-74350000D02*
G75*
G03*
X16200000Y-75050000I699999J-1D01*
G01*
X16800000Y-75050000D02*
G75*
G03*
X17500000Y-74350000I1J699999D01*
G01*
X16200000Y-72250000D02*
G75*
G03*
X15500000Y-72950000I0J-700000D01*
G01*
X17500000Y-72950000D02*
G75*
G03*
X16800000Y-72250000I-700000J0D01*
G01*
%TO.C,JP10*%
X16200000Y-71050000D02*
X16800000Y-71050000D01*
X17500000Y-70350000D02*
X17500000Y-68950000D01*
X15500000Y-68950000D02*
X15500000Y-70350000D01*
X16800000Y-68250000D02*
X16200000Y-68250000D01*
X15500000Y-70350000D02*
G75*
G03*
X16200000Y-71050000I699999J-1D01*
G01*
X16800000Y-71050000D02*
G75*
G03*
X17500000Y-70350000I1J699999D01*
G01*
X16200000Y-68250000D02*
G75*
G03*
X15500000Y-68950000I0J-700000D01*
G01*
X17500000Y-68950000D02*
G75*
G03*
X16800000Y-68250000I-700000J0D01*
G01*
%TO.C,JP5*%
X8800000Y-68250000D02*
X8200000Y-68250000D01*
X7500000Y-68950000D02*
X7500000Y-70350000D01*
X9500000Y-70350000D02*
X9500000Y-68950000D01*
X8200000Y-71050000D02*
X8800000Y-71050000D01*
X9500000Y-68950000D02*
G75*
G03*
X8800000Y-68250000I-699999J1D01*
G01*
X8200000Y-68250000D02*
G75*
G03*
X7500000Y-68950000I-1J-699999D01*
G01*
X8800000Y-71050000D02*
G75*
G03*
X9500000Y-70350000I0J700000D01*
G01*
X7500000Y-70350000D02*
G75*
G03*
X8200000Y-71050000I700000J0D01*
G01*
%TO.C,JP8*%
X16200000Y-79050000D02*
X16800000Y-79050000D01*
X17500000Y-78350000D02*
X17500000Y-76950000D01*
X15500000Y-76950000D02*
X15500000Y-78350000D01*
X16800000Y-76250000D02*
X16200000Y-76250000D01*
X15500000Y-78350000D02*
G75*
G03*
X16200000Y-79050000I699999J-1D01*
G01*
X16800000Y-79050000D02*
G75*
G03*
X17500000Y-78350000I1J699999D01*
G01*
X16200000Y-76250000D02*
G75*
G03*
X15500000Y-76950000I0J-700000D01*
G01*
X17500000Y-76950000D02*
G75*
G03*
X16800000Y-76250000I-700000J0D01*
G01*
%TO.C,JP2*%
X36300000Y-38950000D02*
X36900000Y-38950000D01*
X37600000Y-38250000D02*
X37600000Y-36850000D01*
X35600000Y-36850000D02*
X35600000Y-38250000D01*
X36900000Y-36150000D02*
X36300000Y-36150000D01*
X35600000Y-38250000D02*
G75*
G03*
X36300000Y-38950000I699999J-1D01*
G01*
X36900000Y-38950000D02*
G75*
G03*
X37600000Y-38250000I1J699999D01*
G01*
X36300000Y-36150000D02*
G75*
G03*
X35600000Y-36850000I0J-700000D01*
G01*
X37600000Y-36850000D02*
G75*
G03*
X36900000Y-36150000I-700000J0D01*
G01*
%TO.C,JP3*%
X8800000Y-76250000D02*
X8200000Y-76250000D01*
X7500000Y-76950000D02*
X7500000Y-78350000D01*
X9500000Y-78350000D02*
X9500000Y-76950000D01*
X8200000Y-79050000D02*
X8800000Y-79050000D01*
X9500000Y-76950000D02*
G75*
G03*
X8800000Y-76250000I-699999J1D01*
G01*
X8200000Y-76250000D02*
G75*
G03*
X7500000Y-76950000I-1J-699999D01*
G01*
X8800000Y-79050000D02*
G75*
G03*
X9500000Y-78350000I0J700000D01*
G01*
X7500000Y-78350000D02*
G75*
G03*
X8200000Y-79050000I700000J0D01*
G01*
%TO.C,R14*%
X41760000Y-35570000D02*
X35220000Y-35570000D01*
X41760000Y-35240000D02*
X41760000Y-35570000D01*
X41760000Y-33160000D02*
X41760000Y-32830000D01*
X41760000Y-32830000D02*
X35220000Y-32830000D01*
X35220000Y-35570000D02*
X35220000Y-35240000D01*
X35220000Y-32830000D02*
X35220000Y-33160000D01*
%TO.C,JP4*%
X8800000Y-72250000D02*
X8200000Y-72250000D01*
X7500000Y-72950000D02*
X7500000Y-74350000D01*
X9500000Y-74350000D02*
X9500000Y-72950000D01*
X8200000Y-75050000D02*
X8800000Y-75050000D01*
X9500000Y-72950000D02*
G75*
G03*
X8800000Y-72250000I-699999J1D01*
G01*
X8200000Y-72250000D02*
G75*
G03*
X7500000Y-72950000I-1J-699999D01*
G01*
X8800000Y-75050000D02*
G75*
G03*
X9500000Y-74350000I0J700000D01*
G01*
X7500000Y-74350000D02*
G75*
G03*
X8200000Y-75050000I700000J0D01*
G01*
%TO.C,JP1*%
X36000000Y-47750000D02*
X35400000Y-47750000D01*
X34700000Y-48450000D02*
X34700000Y-49850000D01*
X36700000Y-49850000D02*
X36700000Y-48450000D01*
X35400000Y-50550000D02*
X36000000Y-50550000D01*
X36700000Y-48450000D02*
G75*
G03*
X36000000Y-47750000I-699999J1D01*
G01*
X35400000Y-47750000D02*
G75*
G03*
X34700000Y-48450000I-1J-699999D01*
G01*
X36000000Y-50550000D02*
G75*
G03*
X36700000Y-49850000I0J700000D01*
G01*
X34700000Y-49850000D02*
G75*
G03*
X35400000Y-50550000I700000J0D01*
G01*
%TO.C,R12*%
X41270000Y-54270000D02*
X34730000Y-54270000D01*
X41270000Y-53940000D02*
X41270000Y-54270000D01*
X41270000Y-51860000D02*
X41270000Y-51530000D01*
X41270000Y-51530000D02*
X34730000Y-51530000D01*
X34730000Y-54270000D02*
X34730000Y-53940000D01*
X34730000Y-51530000D02*
X34730000Y-51860000D01*
%TD*%
%LPC*%
D12*
%TO.C,J14*%
X47700000Y-65770000D03*
X47700000Y-82000000D03*
X35000000Y-65770000D03*
X35000000Y-82000000D03*
%TD*%
D13*
%TO.C,J4*%
X12700000Y-17780000D03*
D14*
X12700000Y-20320000D03*
X12700000Y-22860000D03*
X12700000Y-25400000D03*
X12700000Y-27940000D03*
X12700000Y-30480000D03*
X12700000Y-33020000D03*
X12700000Y-35560000D03*
X12700000Y-38100000D03*
X12700000Y-40640000D03*
X12700000Y-43180000D03*
X12700000Y-45720000D03*
X12700000Y-48260000D03*
X12700000Y-50800000D03*
X12700000Y-53340000D03*
X12700000Y-55880000D03*
X12700000Y-58420000D03*
X12700000Y-60960000D03*
%TD*%
D15*
%TO.C,R25*%
X5000000Y-101600000D03*
D16*
X5000000Y-93980000D03*
%TD*%
D13*
%TO.C,J5*%
X15240000Y-17780000D03*
D14*
X15240000Y-20320000D03*
X15240000Y-22860000D03*
X15240000Y-25400000D03*
X15240000Y-27940000D03*
X15240000Y-30480000D03*
X15240000Y-33020000D03*
X15240000Y-35560000D03*
X15240000Y-38100000D03*
X15240000Y-40640000D03*
X15240000Y-43180000D03*
X15240000Y-45720000D03*
X15240000Y-48260000D03*
X15240000Y-50800000D03*
X15240000Y-53340000D03*
X15240000Y-55880000D03*
X15240000Y-58420000D03*
X15240000Y-60960000D03*
%TD*%
D17*
%TO.C,J12*%
X50800000Y-12700000D03*
D14*
X50800000Y-10160000D03*
X50800000Y-7620000D03*
%TD*%
D13*
%TO.C,J9*%
X25400000Y-17780000D03*
D14*
X25400000Y-20320000D03*
X25400000Y-22860000D03*
X25400000Y-25400000D03*
X25400000Y-27940000D03*
X25400000Y-30480000D03*
X25400000Y-33020000D03*
X25400000Y-35560000D03*
X25400000Y-38100000D03*
X25400000Y-40640000D03*
X25400000Y-43180000D03*
X25400000Y-45720000D03*
X25400000Y-48260000D03*
X25400000Y-50800000D03*
X25400000Y-53340000D03*
X25400000Y-55880000D03*
X25400000Y-58420000D03*
X25400000Y-60960000D03*
%TD*%
D13*
%TO.C,J8*%
X22860000Y-17780000D03*
D14*
X22860000Y-20320000D03*
X22860000Y-22860000D03*
X22860000Y-25400000D03*
X22860000Y-27940000D03*
X22860000Y-30480000D03*
X22860000Y-33020000D03*
X22860000Y-35560000D03*
X22860000Y-38100000D03*
X22860000Y-40640000D03*
X22860000Y-43180000D03*
X22860000Y-45720000D03*
X22860000Y-48260000D03*
X22860000Y-50800000D03*
X22860000Y-53340000D03*
X22860000Y-55880000D03*
X22860000Y-58420000D03*
X22860000Y-60960000D03*
%TD*%
D13*
%TO.C,J3*%
X10160000Y-17780000D03*
D14*
X10160000Y-20320000D03*
X10160000Y-22860000D03*
X10160000Y-25400000D03*
X10160000Y-27940000D03*
X10160000Y-30480000D03*
X10160000Y-33020000D03*
X10160000Y-35560000D03*
X10160000Y-38100000D03*
X10160000Y-40640000D03*
X10160000Y-43180000D03*
X10160000Y-45720000D03*
X10160000Y-48260000D03*
X10160000Y-50800000D03*
X10160000Y-53340000D03*
X10160000Y-55880000D03*
X10160000Y-58420000D03*
X10160000Y-60960000D03*
%TD*%
D13*
%TO.C,J2*%
X7620000Y-17780000D03*
D14*
X7620000Y-20320000D03*
X7620000Y-22860000D03*
X7620000Y-25400000D03*
X7620000Y-27940000D03*
X7620000Y-30480000D03*
X7620000Y-33020000D03*
X7620000Y-35560000D03*
X7620000Y-38100000D03*
X7620000Y-40640000D03*
X7620000Y-43180000D03*
X7620000Y-45720000D03*
X7620000Y-48260000D03*
X7620000Y-50800000D03*
X7620000Y-53340000D03*
X7620000Y-55880000D03*
X7620000Y-58420000D03*
X7620000Y-60960000D03*
%TD*%
D17*
%TO.C,J11*%
X5080000Y-13970000D03*
D14*
X2540000Y-13970000D03*
%TD*%
D13*
%TO.C,J10*%
X50800000Y-17780000D03*
D14*
X50800000Y-20320000D03*
X50800000Y-22860000D03*
X50800000Y-25400000D03*
X50800000Y-27940000D03*
X50800000Y-30480000D03*
X50800000Y-33020000D03*
X50800000Y-35560000D03*
X50800000Y-38100000D03*
X50800000Y-40640000D03*
X50800000Y-43180000D03*
X50800000Y-45720000D03*
X50800000Y-48260000D03*
X50800000Y-50800000D03*
X50800000Y-53340000D03*
X50800000Y-55880000D03*
X50800000Y-58420000D03*
X50800000Y-60960000D03*
%TD*%
D17*
%TO.C,J13*%
X10160000Y-91440000D03*
D14*
X10160000Y-88900000D03*
X10160000Y-86360000D03*
X12700000Y-91440000D03*
X12700000Y-88900000D03*
X12700000Y-86360000D03*
X15240000Y-91440000D03*
X15240000Y-88900000D03*
X15240000Y-86360000D03*
%TD*%
D18*
%TO.C,H2*%
X50000000Y-98000000D03*
%TD*%
D12*
%TO.C,J15*%
X6300000Y-82000000D03*
X6300000Y-65770000D03*
X19000000Y-82000000D03*
X19000000Y-65770000D03*
%TD*%
D13*
%TO.C,J7*%
X20320000Y-17780000D03*
D14*
X20320000Y-20320000D03*
X20320000Y-22860000D03*
X20320000Y-25400000D03*
X20320000Y-27940000D03*
X20320000Y-30480000D03*
X20320000Y-33020000D03*
X20320000Y-35560000D03*
X20320000Y-38100000D03*
X20320000Y-40640000D03*
X20320000Y-43180000D03*
X20320000Y-45720000D03*
X20320000Y-48260000D03*
X20320000Y-50800000D03*
X20320000Y-53340000D03*
X20320000Y-55880000D03*
X20320000Y-58420000D03*
X20320000Y-60960000D03*
%TD*%
D13*
%TO.C,J6*%
X17780000Y-17780000D03*
D14*
X17780000Y-20320000D03*
X17780000Y-22860000D03*
X17780000Y-25400000D03*
X17780000Y-27940000D03*
X17780000Y-30480000D03*
X17780000Y-33020000D03*
X17780000Y-35560000D03*
X17780000Y-38100000D03*
X17780000Y-40640000D03*
X17780000Y-43180000D03*
X17780000Y-45720000D03*
X17780000Y-48260000D03*
X17780000Y-50800000D03*
X17780000Y-53340000D03*
X17780000Y-55880000D03*
X17780000Y-58420000D03*
X17780000Y-60960000D03*
%TD*%
D18*
%TO.C,H1*%
X4000000Y-8000000D03*
%TD*%
D19*
%TO.C,U1*%
X30480000Y-2540000D03*
X27940000Y-2540000D03*
D15*
X30480000Y-5080000D03*
X27940000Y-5080000D03*
X30480000Y-7620000D03*
X27940000Y-7620000D03*
X30480000Y-10160000D03*
X27940000Y-10160000D03*
X30480000Y-12700000D03*
X27940000Y-12700000D03*
X30480000Y-15240000D03*
X27940000Y-15240000D03*
X30480000Y-17780000D03*
X27940000Y-17780000D03*
X30480000Y-20320000D03*
X27940000Y-20320000D03*
X30480000Y-22860000D03*
X27940000Y-22860000D03*
X30480000Y-25400000D03*
X27940000Y-25400000D03*
X30480000Y-27940000D03*
X27940000Y-27940000D03*
X30480000Y-30480000D03*
X27940000Y-30480000D03*
X30480000Y-33020000D03*
X27940000Y-33020000D03*
X30480000Y-35560000D03*
X27940000Y-35560000D03*
X30480000Y-38100000D03*
X27940000Y-38100000D03*
X30480000Y-40640000D03*
X27940000Y-40640000D03*
X30480000Y-43180000D03*
X27940000Y-43180000D03*
X30480000Y-45720000D03*
X27940000Y-45720000D03*
X30480000Y-48260000D03*
X27940000Y-48260000D03*
X30480000Y-50800000D03*
X27940000Y-50800000D03*
X30480000Y-53340000D03*
X27940000Y-53340000D03*
X30480000Y-55880000D03*
X27940000Y-55880000D03*
X30480000Y-58420000D03*
X27940000Y-58420000D03*
X30480000Y-60960000D03*
X27940000Y-60960000D03*
X48260000Y-60960000D03*
X45720000Y-60960000D03*
X48260000Y-58420000D03*
X45720000Y-58420000D03*
X48260000Y-55880000D03*
X45720000Y-55880000D03*
X48260000Y-53340000D03*
X45720000Y-53340000D03*
X48260000Y-50800000D03*
X45720000Y-50800000D03*
X48260000Y-48260000D03*
X45720000Y-48260000D03*
X48260000Y-45720000D03*
X45720000Y-45720000D03*
X48260000Y-43180000D03*
X45720000Y-43180000D03*
X48260000Y-40640000D03*
X45720000Y-40640000D03*
X48260000Y-38100000D03*
X45720000Y-38100000D03*
X48260000Y-35560000D03*
X45720000Y-35560000D03*
X48260000Y-33020000D03*
X45720000Y-33020000D03*
X48260000Y-30480000D03*
X45720000Y-30480000D03*
X48260000Y-27940000D03*
X45720000Y-27940000D03*
X48260000Y-25400000D03*
X45720000Y-25400000D03*
X48260000Y-22860000D03*
X45720000Y-22860000D03*
X48260000Y-20320000D03*
X45720000Y-20320000D03*
X48260000Y-17780000D03*
X45720000Y-17780000D03*
X48260000Y-15240000D03*
X45720000Y-15240000D03*
X48260000Y-12700000D03*
X45720000Y-12700000D03*
X48260000Y-10160000D03*
X45720000Y-10160000D03*
X48260000Y-7620000D03*
X45720000Y-7620000D03*
X48260000Y-5080000D03*
X45720000Y-5080000D03*
X48260000Y-2540000D03*
X45720000Y-2540000D03*
%TD*%
D20*
%TO.C,D1*%
X7500000Y-2250000D03*
D21*
X17660000Y-2250000D03*
%TD*%
D22*
%TO.C,D5*%
X9000000Y-96000000D03*
D23*
X11540000Y-96000000D03*
%TD*%
D24*
%TO.C,SW1*%
X21700000Y-100800000D03*
X21700000Y-96000000D03*
X21700000Y-91200000D03*
X27000000Y-100800000D03*
X27000000Y-96000000D03*
X27000000Y-91200000D03*
X32300000Y-100800000D03*
X32300000Y-96000000D03*
X32300000Y-91200000D03*
%TD*%
D13*
%TO.C,J1*%
X5080000Y-17780000D03*
D14*
X5080000Y-20320000D03*
X5080000Y-22860000D03*
X5080000Y-25400000D03*
X5080000Y-27940000D03*
X5080000Y-30480000D03*
X5080000Y-33020000D03*
X5080000Y-35560000D03*
X5080000Y-38100000D03*
X5080000Y-40640000D03*
X5080000Y-43180000D03*
X5080000Y-45720000D03*
X5080000Y-48260000D03*
X5080000Y-50800000D03*
X5080000Y-53340000D03*
X5080000Y-55880000D03*
X5080000Y-58420000D03*
X5080000Y-60960000D03*
%TD*%
D25*
%TO.C,JP6*%
X12500000Y-73000000D03*
D26*
X12500000Y-74300000D03*
%TD*%
D25*
%TO.C,JP7*%
X12500000Y-69000000D03*
D26*
X12500000Y-70300000D03*
%TD*%
D27*
%TO.C,JP11*%
X47100000Y-77900000D03*
D28*
X48400000Y-77900000D03*
%TD*%
D29*
%TO.C,JP9*%
X16500000Y-74300000D03*
D30*
X16500000Y-73000000D03*
%TD*%
D29*
%TO.C,JP10*%
X16500000Y-70300000D03*
D30*
X16500000Y-69000000D03*
%TD*%
D25*
%TO.C,JP5*%
X8500000Y-69000000D03*
D26*
X8500000Y-70300000D03*
%TD*%
D29*
%TO.C,JP8*%
X16500000Y-78300000D03*
D30*
X16500000Y-77000000D03*
%TD*%
D29*
%TO.C,JP2*%
X36600000Y-38200000D03*
D30*
X36600000Y-36900000D03*
%TD*%
D25*
%TO.C,JP3*%
X8500000Y-77000000D03*
D26*
X8500000Y-78300000D03*
%TD*%
D15*
%TO.C,R14*%
X42300000Y-34200000D03*
D16*
X34680000Y-34200000D03*
%TD*%
D25*
%TO.C,JP4*%
X8500000Y-73000000D03*
D26*
X8500000Y-74300000D03*
%TD*%
D25*
%TO.C,JP1*%
X35700000Y-48500000D03*
D26*
X35700000Y-49800000D03*
%TD*%
D15*
%TO.C,R12*%
X41810000Y-52900000D03*
D16*
X34190000Y-52900000D03*
%TD*%
%LPD*%
M02*
