%TF.GenerationSoftware,KiCad,Pcbnew,7.0.2*%
%TF.CreationDate,2025-02-17T11:53:52+00:00*%
%TF.ProjectId,stomp_00,73746f6d-705f-4303-902e-6b696361645f,rev?*%
%TF.SameCoordinates,Original*%
%TF.FileFunction,Soldermask,Top*%
%TF.FilePolarity,Negative*%
%FSLAX46Y46*%
G04 Gerber Fmt 4.6, Leading zero omitted, Abs format (unit mm)*
G04 Created by KiCad (PCBNEW 7.0.2) date 2025-02-17 11:53:52*
%MOMM*%
%LPD*%
G01*
G04 APERTURE LIST*
G04 Aperture macros list*
%AMRoundRect*
0 Rectangle with rounded corners*
0 $1 Rounding radius*
0 $2 $3 $4 $5 $6 $7 $8 $9 X,Y pos of 4 corners*
0 Add a 4 corners polygon primitive as box body*
4,1,4,$2,$3,$4,$5,$6,$7,$8,$9,$2,$3,0*
0 Add four circle primitives for the rounded corners*
1,1,$1+$1,$2,$3*
1,1,$1+$1,$4,$5*
1,1,$1+$1,$6,$7*
1,1,$1+$1,$8,$9*
0 Add four rect primitives between the rounded corners*
20,1,$1+$1,$2,$3,$4,$5,0*
20,1,$1+$1,$4,$5,$6,$7,0*
20,1,$1+$1,$6,$7,$8,$9,0*
20,1,$1+$1,$8,$9,$2,$3,0*%
G04 Aperture macros list end*
%ADD10R,5.700000X1.700000*%
%ADD11RoundRect,0.225000X-0.225000X-0.250000X0.225000X-0.250000X0.225000X0.250000X-0.225000X0.250000X0*%
%ADD12RoundRect,0.200000X0.200000X0.275000X-0.200000X0.275000X-0.200000X-0.275000X0.200000X-0.275000X0*%
%ADD13RoundRect,0.200000X-0.275000X0.200000X-0.275000X-0.200000X0.275000X-0.200000X0.275000X0.200000X0*%
%ADD14RoundRect,0.200000X0.275000X-0.200000X0.275000X0.200000X-0.275000X0.200000X-0.275000X-0.200000X0*%
%ADD15C,3.000000*%
%ADD16C,1.700000*%
%ADD17O,1.700000X1.700000*%
%ADD18RoundRect,0.225000X0.225000X0.250000X-0.225000X0.250000X-0.225000X-0.250000X0.225000X-0.250000X0*%
%ADD19RoundRect,0.250000X1.000000X0.650000X-1.000000X0.650000X-1.000000X-0.650000X1.000000X-0.650000X0*%
%ADD20C,1.600000*%
%ADD21O,1.600000X1.600000*%
%ADD22RoundRect,0.150000X0.150000X-0.825000X0.150000X0.825000X-0.150000X0.825000X-0.150000X-0.825000X0*%
%ADD23RoundRect,0.050000X-0.375000X-0.050000X0.375000X-0.050000X0.375000X0.050000X-0.375000X0.050000X0*%
%ADD24RoundRect,0.050000X-0.050000X-0.375000X0.050000X-0.375000X0.050000X0.375000X-0.050000X0.375000X0*%
%ADD25R,1.650000X1.650000*%
%ADD26RoundRect,0.200000X-0.200000X-0.275000X0.200000X-0.275000X0.200000X0.275000X-0.200000X0.275000X0*%
%ADD27RoundRect,0.218750X0.218750X0.256250X-0.218750X0.256250X-0.218750X-0.256250X0.218750X-0.256250X0*%
%ADD28RoundRect,0.150000X-0.825000X-0.150000X0.825000X-0.150000X0.825000X0.150000X-0.825000X0.150000X0*%
%ADD29R,1.700000X1.700000*%
%ADD30RoundRect,0.250000X0.475000X-0.250000X0.475000X0.250000X-0.475000X0.250000X-0.475000X-0.250000X0*%
%ADD31RoundRect,0.225000X-0.250000X0.225000X-0.250000X-0.225000X0.250000X-0.225000X0.250000X0.225000X0*%
%ADD32RoundRect,0.150000X0.150000X-0.587500X0.150000X0.587500X-0.150000X0.587500X-0.150000X-0.587500X0*%
%ADD33RoundRect,0.225000X0.250000X-0.225000X0.250000X0.225000X-0.250000X0.225000X-0.250000X-0.225000X0*%
%ADD34C,3.200000*%
%ADD35RoundRect,0.250000X0.325000X1.100000X-0.325000X1.100000X-0.325000X-1.100000X0.325000X-1.100000X0*%
%ADD36R,1.600000X1.600000*%
%ADD37R,2.200000X2.200000*%
%ADD38O,2.200000X2.200000*%
%ADD39R,1.800000X1.800000*%
%ADD40C,1.800000*%
%ADD41O,4.000000X2.800000*%
G04 APERTURE END LIST*
D10*
%TO.C,L1*%
X23000000Y-5550000D03*
X23000000Y-10050000D03*
%TD*%
D11*
%TO.C,C21*%
X37275000Y-8600000D03*
X38825000Y-8600000D03*
%TD*%
D12*
%TO.C,R19*%
X44000000Y-19600000D03*
X42350000Y-19600000D03*
%TD*%
D11*
%TO.C,C7*%
X44350000Y-89200000D03*
X45900000Y-89200000D03*
%TD*%
D13*
%TO.C,R10*%
X41900000Y-48275000D03*
X41900000Y-49925000D03*
%TD*%
D14*
%TO.C,R23*%
X41700000Y-93700000D03*
X41700000Y-92050000D03*
%TD*%
D15*
%TO.C,J14*%
X47700000Y-65770000D03*
X47700000Y-82000000D03*
X35000000Y-65770000D03*
X35000000Y-82000000D03*
%TD*%
D16*
%TO.C,J4*%
X12700000Y-17780000D03*
D17*
X12700000Y-20320000D03*
X12700000Y-22860000D03*
X12700000Y-25400000D03*
X12700000Y-27940000D03*
X12700000Y-30480000D03*
X12700000Y-33020000D03*
X12700000Y-35560000D03*
X12700000Y-38100000D03*
X12700000Y-40640000D03*
X12700000Y-43180000D03*
X12700000Y-45720000D03*
X12700000Y-48260000D03*
X12700000Y-50800000D03*
X12700000Y-53340000D03*
X12700000Y-55880000D03*
X12700000Y-58420000D03*
X12700000Y-60960000D03*
%TD*%
D18*
%TO.C,C22*%
X34750000Y-16100000D03*
X33200000Y-16100000D03*
%TD*%
D19*
%TO.C,D2*%
X12000000Y-6000000D03*
X16000000Y-6000000D03*
%TD*%
D14*
%TO.C,R17*%
X35250000Y-31675000D03*
X35250000Y-30025000D03*
%TD*%
D20*
%TO.C,R25*%
X5000000Y-101600000D03*
D21*
X5000000Y-93980000D03*
%TD*%
D22*
%TO.C,U3*%
X36500000Y-45450000D03*
X37770000Y-45450000D03*
X39040000Y-45450000D03*
X40310000Y-45450000D03*
X40310000Y-40500000D03*
X39040000Y-40500000D03*
X37770000Y-40500000D03*
X36500000Y-40500000D03*
%TD*%
D23*
%TO.C,U5*%
X36850000Y-11850000D03*
X36850000Y-12250000D03*
X36850000Y-12650000D03*
X36850000Y-13050000D03*
X36850000Y-13450000D03*
D24*
X37500000Y-14100000D03*
X37900000Y-14100000D03*
X38300000Y-14100000D03*
X38700000Y-14100000D03*
X39100000Y-14100000D03*
D23*
X39750000Y-13450000D03*
X39750000Y-13050000D03*
X39750000Y-12650000D03*
X39750000Y-12250000D03*
X39750000Y-11850000D03*
D24*
X39100000Y-11200000D03*
X38700000Y-11200000D03*
X38300000Y-11200000D03*
X37900000Y-11200000D03*
X37500000Y-11200000D03*
D25*
X38300000Y-12650000D03*
%TD*%
D26*
%TO.C,R20*%
X42000000Y-8200000D03*
X43650000Y-8200000D03*
%TD*%
D14*
%TO.C,R16*%
X40750000Y-31675000D03*
X40750000Y-30025000D03*
%TD*%
D27*
%TO.C,FB1*%
X42775000Y-6100000D03*
X41200000Y-6100000D03*
%TD*%
D18*
%TO.C,C4*%
X18225000Y-15575000D03*
X19775000Y-15575000D03*
%TD*%
D16*
%TO.C,J5*%
X15240000Y-17780000D03*
D17*
X15240000Y-20320000D03*
X15240000Y-22860000D03*
X15240000Y-25400000D03*
X15240000Y-27940000D03*
X15240000Y-30480000D03*
X15240000Y-33020000D03*
X15240000Y-35560000D03*
X15240000Y-38100000D03*
X15240000Y-40640000D03*
X15240000Y-43180000D03*
X15240000Y-45720000D03*
X15240000Y-48260000D03*
X15240000Y-50800000D03*
X15240000Y-53340000D03*
X15240000Y-55880000D03*
X15240000Y-58420000D03*
X15240000Y-60960000D03*
%TD*%
D28*
%TO.C,U2*%
X10525000Y-11095000D03*
X10525000Y-12365000D03*
X10525000Y-13635000D03*
X10525000Y-14905000D03*
X15475000Y-14905000D03*
X15475000Y-13635000D03*
X15475000Y-12365000D03*
X15475000Y-11095000D03*
%TD*%
D11*
%TO.C,C8*%
X47450000Y-89200000D03*
X49000000Y-89200000D03*
%TD*%
D12*
%TO.C,R15*%
X40400000Y-38400000D03*
X38750000Y-38400000D03*
%TD*%
%TO.C,R18*%
X44000000Y-22200000D03*
X42350000Y-22200000D03*
%TD*%
D26*
%TO.C,R3*%
X24300000Y-15575000D03*
X22650000Y-15575000D03*
%TD*%
D29*
%TO.C,J12*%
X50800000Y-12700000D03*
D17*
X50800000Y-10160000D03*
X50800000Y-7620000D03*
%TD*%
D30*
%TO.C,C1*%
X8775000Y-7050000D03*
X8775000Y-8950000D03*
%TD*%
D16*
%TO.C,J9*%
X25400000Y-17780000D03*
D17*
X25400000Y-20320000D03*
X25400000Y-22860000D03*
X25400000Y-25400000D03*
X25400000Y-27940000D03*
X25400000Y-30480000D03*
X25400000Y-33020000D03*
X25400000Y-35560000D03*
X25400000Y-38100000D03*
X25400000Y-40640000D03*
X25400000Y-43180000D03*
X25400000Y-45720000D03*
X25400000Y-48260000D03*
X25400000Y-50800000D03*
X25400000Y-53340000D03*
X25400000Y-55880000D03*
X25400000Y-58420000D03*
X25400000Y-60960000D03*
%TD*%
D16*
%TO.C,J8*%
X22860000Y-17780000D03*
D17*
X22860000Y-20320000D03*
X22860000Y-22860000D03*
X22860000Y-25400000D03*
X22860000Y-27940000D03*
X22860000Y-30480000D03*
X22860000Y-33020000D03*
X22860000Y-35560000D03*
X22860000Y-38100000D03*
X22860000Y-40640000D03*
X22860000Y-43180000D03*
X22860000Y-45720000D03*
X22860000Y-48260000D03*
X22860000Y-50800000D03*
X22860000Y-53340000D03*
X22860000Y-55880000D03*
X22860000Y-58420000D03*
X22860000Y-60960000D03*
%TD*%
D16*
%TO.C,J3*%
X10160000Y-17780000D03*
D17*
X10160000Y-20320000D03*
X10160000Y-22860000D03*
X10160000Y-25400000D03*
X10160000Y-27940000D03*
X10160000Y-30480000D03*
X10160000Y-33020000D03*
X10160000Y-35560000D03*
X10160000Y-38100000D03*
X10160000Y-40640000D03*
X10160000Y-43180000D03*
X10160000Y-45720000D03*
X10160000Y-48260000D03*
X10160000Y-50800000D03*
X10160000Y-53340000D03*
X10160000Y-55880000D03*
X10160000Y-58420000D03*
X10160000Y-60960000D03*
%TD*%
D16*
%TO.C,J2*%
X7620000Y-17780000D03*
D17*
X7620000Y-20320000D03*
X7620000Y-22860000D03*
X7620000Y-25400000D03*
X7620000Y-27940000D03*
X7620000Y-30480000D03*
X7620000Y-33020000D03*
X7620000Y-35560000D03*
X7620000Y-38100000D03*
X7620000Y-40640000D03*
X7620000Y-43180000D03*
X7620000Y-45720000D03*
X7620000Y-48260000D03*
X7620000Y-50800000D03*
X7620000Y-53340000D03*
X7620000Y-55880000D03*
X7620000Y-58420000D03*
X7620000Y-60960000D03*
%TD*%
D29*
%TO.C,J11*%
X5080000Y-13970000D03*
D17*
X2540000Y-13970000D03*
%TD*%
D31*
%TO.C,C16*%
X39150000Y-27000000D03*
X39150000Y-28550000D03*
%TD*%
D32*
%TO.C,U4*%
X37075000Y-6600000D03*
X38975000Y-6600000D03*
X38025000Y-4725000D03*
%TD*%
D14*
%TO.C,R11*%
X42000000Y-40000000D03*
X42000000Y-38350000D03*
%TD*%
D12*
%TO.C,R13*%
X39825000Y-48200000D03*
X38175000Y-48200000D03*
%TD*%
D32*
%TO.C,D4*%
X35250000Y-25175000D03*
X37150000Y-25175000D03*
X36200000Y-23300000D03*
%TD*%
D16*
%TO.C,J10*%
X50800000Y-17780000D03*
D17*
X50800000Y-20320000D03*
X50800000Y-22860000D03*
X50800000Y-25400000D03*
X50800000Y-27940000D03*
X50800000Y-30480000D03*
X50800000Y-33020000D03*
X50800000Y-35560000D03*
X50800000Y-38100000D03*
X50800000Y-40640000D03*
X50800000Y-43180000D03*
X50800000Y-45720000D03*
X50800000Y-48260000D03*
X50800000Y-50800000D03*
X50800000Y-53340000D03*
X50800000Y-55880000D03*
X50800000Y-58420000D03*
X50800000Y-60960000D03*
%TD*%
D14*
%TO.C,R22*%
X41700000Y-90600000D03*
X41700000Y-88950000D03*
%TD*%
D31*
%TO.C,C26*%
X40100000Y-85950000D03*
X40100000Y-87500000D03*
%TD*%
D26*
%TO.C,R7*%
X47400000Y-86000000D03*
X49050000Y-86000000D03*
%TD*%
D31*
%TO.C,C3*%
X8000000Y-14775000D03*
X8000000Y-13225000D03*
%TD*%
D29*
%TO.C,J13*%
X10160000Y-91440000D03*
D17*
X10160000Y-88900000D03*
X10160000Y-86360000D03*
X12700000Y-91440000D03*
X12700000Y-88900000D03*
X12700000Y-86360000D03*
X15240000Y-91440000D03*
X15240000Y-88900000D03*
X15240000Y-86360000D03*
%TD*%
D32*
%TO.C,D3*%
X38850000Y-25175000D03*
X40750000Y-25175000D03*
X39800000Y-23300000D03*
%TD*%
D33*
%TO.C,C23*%
X32800000Y-13375000D03*
X32800000Y-11825000D03*
%TD*%
%TO.C,C24*%
X34500000Y-13775000D03*
X34500000Y-12225000D03*
%TD*%
D26*
%TO.C,R8*%
X44300000Y-87600000D03*
X45950000Y-87600000D03*
%TD*%
D34*
%TO.C,H2*%
X50000000Y-98000000D03*
%TD*%
D31*
%TO.C,C19*%
X43300000Y-13725000D03*
X43300000Y-15275000D03*
%TD*%
D26*
%TO.C,R6*%
X44300000Y-86000000D03*
X45950000Y-86000000D03*
%TD*%
D33*
%TO.C,C13*%
X34800000Y-43350000D03*
X34800000Y-41800000D03*
%TD*%
D14*
%TO.C,R21*%
X40100000Y-90600000D03*
X40100000Y-88950000D03*
%TD*%
D15*
%TO.C,J15*%
X6300000Y-82000000D03*
X6300000Y-65770000D03*
X19000000Y-82000000D03*
X19000000Y-65770000D03*
%TD*%
D31*
%TO.C,C17*%
X36850000Y-27025000D03*
X36850000Y-28575000D03*
%TD*%
D16*
%TO.C,J7*%
X20320000Y-17780000D03*
D17*
X20320000Y-20320000D03*
X20320000Y-22860000D03*
X20320000Y-25400000D03*
X20320000Y-27940000D03*
X20320000Y-30480000D03*
X20320000Y-33020000D03*
X20320000Y-35560000D03*
X20320000Y-38100000D03*
X20320000Y-40640000D03*
X20320000Y-43180000D03*
X20320000Y-45720000D03*
X20320000Y-48260000D03*
X20320000Y-50800000D03*
X20320000Y-53340000D03*
X20320000Y-55880000D03*
X20320000Y-58420000D03*
X20320000Y-60960000D03*
%TD*%
D31*
%TO.C,C14*%
X39150000Y-30075000D03*
X39150000Y-31625000D03*
%TD*%
D13*
%TO.C,R1*%
X20225000Y-13825000D03*
X20225000Y-12175000D03*
%TD*%
D26*
%TO.C,R9*%
X47400000Y-87600000D03*
X49050000Y-87600000D03*
%TD*%
D16*
%TO.C,J6*%
X17780000Y-17780000D03*
D17*
X17780000Y-20320000D03*
X17780000Y-22860000D03*
X17780000Y-25400000D03*
X17780000Y-27940000D03*
X17780000Y-30480000D03*
X17780000Y-33020000D03*
X17780000Y-35560000D03*
X17780000Y-38100000D03*
X17780000Y-40640000D03*
X17780000Y-43180000D03*
X17780000Y-45720000D03*
X17780000Y-48260000D03*
X17780000Y-50800000D03*
X17780000Y-53340000D03*
X17780000Y-55880000D03*
X17780000Y-58420000D03*
X17780000Y-60960000D03*
%TD*%
D18*
%TO.C,C11*%
X39775000Y-50000000D03*
X38225000Y-50000000D03*
%TD*%
D31*
%TO.C,C25*%
X41700000Y-85950000D03*
X41700000Y-87500000D03*
%TD*%
D35*
%TO.C,C6*%
X20625000Y-2500000D03*
X23575000Y-2500000D03*
%TD*%
D33*
%TO.C,C18*%
X35575000Y-6800000D03*
X35575000Y-5250000D03*
%TD*%
D31*
%TO.C,C9*%
X42000000Y-44600000D03*
X42000000Y-46150000D03*
%TD*%
D34*
%TO.C,H1*%
X4000000Y-8000000D03*
%TD*%
D36*
%TO.C,U1*%
X30480000Y-2540000D03*
X27940000Y-2540000D03*
D20*
X30480000Y-5080000D03*
X27940000Y-5080000D03*
X30480000Y-7620000D03*
X27940000Y-7620000D03*
X30480000Y-10160000D03*
X27940000Y-10160000D03*
X30480000Y-12700000D03*
X27940000Y-12700000D03*
X30480000Y-15240000D03*
X27940000Y-15240000D03*
X30480000Y-17780000D03*
X27940000Y-17780000D03*
X30480000Y-20320000D03*
X27940000Y-20320000D03*
X30480000Y-22860000D03*
X27940000Y-22860000D03*
X30480000Y-25400000D03*
X27940000Y-25400000D03*
X30480000Y-27940000D03*
X27940000Y-27940000D03*
X30480000Y-30480000D03*
X27940000Y-30480000D03*
X30480000Y-33020000D03*
X27940000Y-33020000D03*
X30480000Y-35560000D03*
X27940000Y-35560000D03*
X30480000Y-38100000D03*
X27940000Y-38100000D03*
X30480000Y-40640000D03*
X27940000Y-40640000D03*
X30480000Y-43180000D03*
X27940000Y-43180000D03*
X30480000Y-45720000D03*
X27940000Y-45720000D03*
X30480000Y-48260000D03*
X27940000Y-48260000D03*
X30480000Y-50800000D03*
X27940000Y-50800000D03*
X30480000Y-53340000D03*
X27940000Y-53340000D03*
X30480000Y-55880000D03*
X27940000Y-55880000D03*
X30480000Y-58420000D03*
X27940000Y-58420000D03*
X30480000Y-60960000D03*
X27940000Y-60960000D03*
X48260000Y-60960000D03*
X45720000Y-60960000D03*
X48260000Y-58420000D03*
X45720000Y-58420000D03*
X48260000Y-55880000D03*
X45720000Y-55880000D03*
X48260000Y-53340000D03*
X45720000Y-53340000D03*
X48260000Y-50800000D03*
X45720000Y-50800000D03*
X48260000Y-48260000D03*
X45720000Y-48260000D03*
X48260000Y-45720000D03*
X45720000Y-45720000D03*
X48260000Y-43180000D03*
X45720000Y-43180000D03*
X48260000Y-40640000D03*
X45720000Y-40640000D03*
X48260000Y-38100000D03*
X45720000Y-38100000D03*
X48260000Y-35560000D03*
X45720000Y-35560000D03*
X48260000Y-33020000D03*
X45720000Y-33020000D03*
X48260000Y-30480000D03*
X45720000Y-30480000D03*
X48260000Y-27940000D03*
X45720000Y-27940000D03*
X48260000Y-25400000D03*
X45720000Y-25400000D03*
X48260000Y-22860000D03*
X45720000Y-22860000D03*
X48260000Y-20320000D03*
X45720000Y-20320000D03*
X48260000Y-17780000D03*
X45720000Y-17780000D03*
X48260000Y-15240000D03*
X45720000Y-15240000D03*
X48260000Y-12700000D03*
X45720000Y-12700000D03*
X48260000Y-10160000D03*
X45720000Y-10160000D03*
X48260000Y-7620000D03*
X45720000Y-7620000D03*
X48260000Y-5080000D03*
X45720000Y-5080000D03*
X48260000Y-2540000D03*
X45720000Y-2540000D03*
%TD*%
D37*
%TO.C,D1*%
X7500000Y-2250000D03*
D38*
X17660000Y-2250000D03*
%TD*%
D13*
%TO.C,R2*%
X22725000Y-13900000D03*
X22725000Y-12250000D03*
%TD*%
D39*
%TO.C,D5*%
X9000000Y-96000000D03*
D40*
X11540000Y-96000000D03*
%TD*%
D41*
%TO.C,SW1*%
X21700000Y-100800000D03*
X21700000Y-96000000D03*
X21700000Y-91200000D03*
X27000000Y-100800000D03*
X27000000Y-96000000D03*
X27000000Y-91200000D03*
X32300000Y-100800000D03*
X32300000Y-96000000D03*
X32300000Y-91200000D03*
%TD*%
D18*
%TO.C,C2*%
X12225000Y-9000000D03*
X13775000Y-9000000D03*
%TD*%
D26*
%TO.C,R5*%
X47390000Y-90800000D03*
X49040000Y-90800000D03*
%TD*%
D16*
%TO.C,J1*%
X5080000Y-17780000D03*
D17*
X5080000Y-20320000D03*
X5080000Y-22860000D03*
X5080000Y-25400000D03*
X5080000Y-27940000D03*
X5080000Y-30480000D03*
X5080000Y-33020000D03*
X5080000Y-35560000D03*
X5080000Y-38100000D03*
X5080000Y-40640000D03*
X5080000Y-43180000D03*
X5080000Y-45720000D03*
X5080000Y-48260000D03*
X5080000Y-50800000D03*
X5080000Y-53340000D03*
X5080000Y-55880000D03*
X5080000Y-58420000D03*
X5080000Y-60960000D03*
%TD*%
D33*
%TO.C,C15*%
X36850000Y-31625000D03*
X36850000Y-30075000D03*
%TD*%
D26*
%TO.C,R4*%
X44300000Y-90800000D03*
X45950000Y-90800000D03*
%TD*%
D18*
%TO.C,C12*%
X40350000Y-36800000D03*
X38800000Y-36800000D03*
%TD*%
D31*
%TO.C,C20*%
X41500000Y-13725000D03*
X41500000Y-15275000D03*
%TD*%
D14*
%TO.C,R24*%
X40100000Y-93700000D03*
X40100000Y-92050000D03*
%TD*%
D33*
%TO.C,C10*%
X42000000Y-43100000D03*
X42000000Y-41550000D03*
%TD*%
%TO.C,C5*%
X17975000Y-12325000D03*
X17975000Y-13875000D03*
%TD*%
D20*
%TO.C,R14*%
X42300000Y-34200000D03*
D21*
X34680000Y-34200000D03*
%TD*%
D20*
%TO.C,R12*%
X41810000Y-52900000D03*
D21*
X34190000Y-52900000D03*
%TD*%
M02*
