%TF.GenerationSoftware,KiCad,Pcbnew,7.0.2*%
%TF.CreationDate,2025-02-17T11:53:52+00:00*%
%TF.ProjectId,stomp_00,73746f6d-705f-4303-902e-6b696361645f,rev?*%
%TF.SameCoordinates,Original*%
%TF.FileFunction,Paste,Top*%
%TF.FilePolarity,Positive*%
%FSLAX46Y46*%
G04 Gerber Fmt 4.6, Leading zero omitted, Abs format (unit mm)*
G04 Created by KiCad (PCBNEW 7.0.2) date 2025-02-17 11:53:52*
%MOMM*%
%LPD*%
G01*
G04 APERTURE LIST*
G04 Aperture macros list*
%AMRoundRect*
0 Rectangle with rounded corners*
0 $1 Rounding radius*
0 $2 $3 $4 $5 $6 $7 $8 $9 X,Y pos of 4 corners*
0 Add a 4 corners polygon primitive as box body*
4,1,4,$2,$3,$4,$5,$6,$7,$8,$9,$2,$3,0*
0 Add four circle primitives for the rounded corners*
1,1,$1+$1,$2,$3*
1,1,$1+$1,$4,$5*
1,1,$1+$1,$6,$7*
1,1,$1+$1,$8,$9*
0 Add four rect primitives between the rounded corners*
20,1,$1+$1,$2,$3,$4,$5,0*
20,1,$1+$1,$4,$5,$6,$7,0*
20,1,$1+$1,$6,$7,$8,$9,0*
20,1,$1+$1,$8,$9,$2,$3,0*%
G04 Aperture macros list end*
%ADD10R,5.700000X1.700000*%
%ADD11RoundRect,0.225000X-0.225000X-0.250000X0.225000X-0.250000X0.225000X0.250000X-0.225000X0.250000X0*%
%ADD12RoundRect,0.200000X0.200000X0.275000X-0.200000X0.275000X-0.200000X-0.275000X0.200000X-0.275000X0*%
%ADD13RoundRect,0.200000X-0.275000X0.200000X-0.275000X-0.200000X0.275000X-0.200000X0.275000X0.200000X0*%
%ADD14RoundRect,0.200000X0.275000X-0.200000X0.275000X0.200000X-0.275000X0.200000X-0.275000X-0.200000X0*%
%ADD15RoundRect,0.225000X0.225000X0.250000X-0.225000X0.250000X-0.225000X-0.250000X0.225000X-0.250000X0*%
%ADD16RoundRect,0.250000X1.000000X0.650000X-1.000000X0.650000X-1.000000X-0.650000X1.000000X-0.650000X0*%
%ADD17RoundRect,0.150000X0.150000X-0.825000X0.150000X0.825000X-0.150000X0.825000X-0.150000X-0.825000X0*%
%ADD18RoundRect,0.167500X-0.167500X-0.167500X0.167500X-0.167500X0.167500X0.167500X-0.167500X0.167500X0*%
%ADD19RoundRect,0.050000X-0.375000X-0.050000X0.375000X-0.050000X0.375000X0.050000X-0.375000X0.050000X0*%
%ADD20RoundRect,0.050000X-0.050000X-0.375000X0.050000X-0.375000X0.050000X0.375000X-0.050000X0.375000X0*%
%ADD21RoundRect,0.200000X-0.200000X-0.275000X0.200000X-0.275000X0.200000X0.275000X-0.200000X0.275000X0*%
%ADD22RoundRect,0.218750X0.218750X0.256250X-0.218750X0.256250X-0.218750X-0.256250X0.218750X-0.256250X0*%
%ADD23RoundRect,0.150000X-0.825000X-0.150000X0.825000X-0.150000X0.825000X0.150000X-0.825000X0.150000X0*%
%ADD24RoundRect,0.250000X0.475000X-0.250000X0.475000X0.250000X-0.475000X0.250000X-0.475000X-0.250000X0*%
%ADD25RoundRect,0.225000X-0.250000X0.225000X-0.250000X-0.225000X0.250000X-0.225000X0.250000X0.225000X0*%
%ADD26RoundRect,0.150000X0.150000X-0.587500X0.150000X0.587500X-0.150000X0.587500X-0.150000X-0.587500X0*%
%ADD27RoundRect,0.225000X0.250000X-0.225000X0.250000X0.225000X-0.250000X0.225000X-0.250000X-0.225000X0*%
%ADD28RoundRect,0.250000X0.325000X1.100000X-0.325000X1.100000X-0.325000X-1.100000X0.325000X-1.100000X0*%
G04 APERTURE END LIST*
D10*
%TO.C,L1*%
X23000000Y-5550000D03*
X23000000Y-10050000D03*
%TD*%
D11*
%TO.C,C21*%
X37275000Y-8600000D03*
X38825000Y-8600000D03*
%TD*%
D12*
%TO.C,R19*%
X44000000Y-19600000D03*
X42350000Y-19600000D03*
%TD*%
D11*
%TO.C,C7*%
X44350000Y-89200000D03*
X45900000Y-89200000D03*
%TD*%
D13*
%TO.C,R10*%
X41900000Y-48275000D03*
X41900000Y-49925000D03*
%TD*%
D14*
%TO.C,R23*%
X41700000Y-93700000D03*
X41700000Y-92050000D03*
%TD*%
D15*
%TO.C,C22*%
X34750000Y-16100000D03*
X33200000Y-16100000D03*
%TD*%
D16*
%TO.C,D2*%
X12000000Y-6000000D03*
X16000000Y-6000000D03*
%TD*%
D14*
%TO.C,R17*%
X35250000Y-31675000D03*
X35250000Y-30025000D03*
%TD*%
D17*
%TO.C,U3*%
X36500000Y-45450000D03*
X37770000Y-45450000D03*
X39040000Y-45450000D03*
X40310000Y-45450000D03*
X40310000Y-40500000D03*
X39040000Y-40500000D03*
X37770000Y-40500000D03*
X36500000Y-40500000D03*
%TD*%
D18*
%TO.C,U5*%
X37890000Y-12240000D03*
X37890000Y-13060000D03*
X38710000Y-12240000D03*
X38710000Y-13060000D03*
D19*
X36850000Y-11850000D03*
X36850000Y-12250000D03*
X36850000Y-12650000D03*
X36850000Y-13050000D03*
X36850000Y-13450000D03*
D20*
X37500000Y-14100000D03*
X37900000Y-14100000D03*
X38300000Y-14100000D03*
X38700000Y-14100000D03*
X39100000Y-14100000D03*
D19*
X39750000Y-13450000D03*
X39750000Y-13050000D03*
X39750000Y-12650000D03*
X39750000Y-12250000D03*
X39750000Y-11850000D03*
D20*
X39100000Y-11200000D03*
X38700000Y-11200000D03*
X38300000Y-11200000D03*
X37900000Y-11200000D03*
X37500000Y-11200000D03*
%TD*%
D21*
%TO.C,R20*%
X42000000Y-8200000D03*
X43650000Y-8200000D03*
%TD*%
D14*
%TO.C,R16*%
X40750000Y-31675000D03*
X40750000Y-30025000D03*
%TD*%
D22*
%TO.C,FB1*%
X42775000Y-6100000D03*
X41200000Y-6100000D03*
%TD*%
D15*
%TO.C,C4*%
X18225000Y-15575000D03*
X19775000Y-15575000D03*
%TD*%
D23*
%TO.C,U2*%
X10525000Y-11095000D03*
X10525000Y-12365000D03*
X10525000Y-13635000D03*
X10525000Y-14905000D03*
X15475000Y-14905000D03*
X15475000Y-13635000D03*
X15475000Y-12365000D03*
X15475000Y-11095000D03*
%TD*%
D11*
%TO.C,C8*%
X47450000Y-89200000D03*
X49000000Y-89200000D03*
%TD*%
D12*
%TO.C,R15*%
X40400000Y-38400000D03*
X38750000Y-38400000D03*
%TD*%
%TO.C,R18*%
X44000000Y-22200000D03*
X42350000Y-22200000D03*
%TD*%
D21*
%TO.C,R3*%
X24300000Y-15575000D03*
X22650000Y-15575000D03*
%TD*%
D24*
%TO.C,C1*%
X8775000Y-7050000D03*
X8775000Y-8950000D03*
%TD*%
D25*
%TO.C,C16*%
X39150000Y-27000000D03*
X39150000Y-28550000D03*
%TD*%
D26*
%TO.C,U4*%
X37075000Y-6600000D03*
X38975000Y-6600000D03*
X38025000Y-4725000D03*
%TD*%
D14*
%TO.C,R11*%
X42000000Y-40000000D03*
X42000000Y-38350000D03*
%TD*%
D12*
%TO.C,R13*%
X39825000Y-48200000D03*
X38175000Y-48200000D03*
%TD*%
D26*
%TO.C,D4*%
X35250000Y-25175000D03*
X37150000Y-25175000D03*
X36200000Y-23300000D03*
%TD*%
D14*
%TO.C,R22*%
X41700000Y-90600000D03*
X41700000Y-88950000D03*
%TD*%
D25*
%TO.C,C26*%
X40100000Y-85950000D03*
X40100000Y-87500000D03*
%TD*%
D21*
%TO.C,R7*%
X47400000Y-86000000D03*
X49050000Y-86000000D03*
%TD*%
D25*
%TO.C,C3*%
X8000000Y-14775000D03*
X8000000Y-13225000D03*
%TD*%
D26*
%TO.C,D3*%
X38850000Y-25175000D03*
X40750000Y-25175000D03*
X39800000Y-23300000D03*
%TD*%
D27*
%TO.C,C23*%
X32800000Y-13375000D03*
X32800000Y-11825000D03*
%TD*%
%TO.C,C24*%
X34500000Y-13775000D03*
X34500000Y-12225000D03*
%TD*%
D21*
%TO.C,R8*%
X44300000Y-87600000D03*
X45950000Y-87600000D03*
%TD*%
D25*
%TO.C,C19*%
X43300000Y-13725000D03*
X43300000Y-15275000D03*
%TD*%
D21*
%TO.C,R6*%
X44300000Y-86000000D03*
X45950000Y-86000000D03*
%TD*%
D27*
%TO.C,C13*%
X34800000Y-43350000D03*
X34800000Y-41800000D03*
%TD*%
D14*
%TO.C,R21*%
X40100000Y-90600000D03*
X40100000Y-88950000D03*
%TD*%
D25*
%TO.C,C17*%
X36850000Y-27025000D03*
X36850000Y-28575000D03*
%TD*%
%TO.C,C14*%
X39150000Y-30075000D03*
X39150000Y-31625000D03*
%TD*%
D13*
%TO.C,R1*%
X20225000Y-13825000D03*
X20225000Y-12175000D03*
%TD*%
D21*
%TO.C,R9*%
X47400000Y-87600000D03*
X49050000Y-87600000D03*
%TD*%
D15*
%TO.C,C11*%
X39775000Y-50000000D03*
X38225000Y-50000000D03*
%TD*%
D25*
%TO.C,C25*%
X41700000Y-85950000D03*
X41700000Y-87500000D03*
%TD*%
D28*
%TO.C,C6*%
X20625000Y-2500000D03*
X23575000Y-2500000D03*
%TD*%
D27*
%TO.C,C18*%
X35575000Y-6800000D03*
X35575000Y-5250000D03*
%TD*%
D25*
%TO.C,C9*%
X42000000Y-44600000D03*
X42000000Y-46150000D03*
%TD*%
D13*
%TO.C,R2*%
X22725000Y-13900000D03*
X22725000Y-12250000D03*
%TD*%
D15*
%TO.C,C2*%
X12225000Y-9000000D03*
X13775000Y-9000000D03*
%TD*%
D21*
%TO.C,R5*%
X47390000Y-90800000D03*
X49040000Y-90800000D03*
%TD*%
D27*
%TO.C,C15*%
X36850000Y-31625000D03*
X36850000Y-30075000D03*
%TD*%
D21*
%TO.C,R4*%
X44300000Y-90800000D03*
X45950000Y-90800000D03*
%TD*%
D15*
%TO.C,C12*%
X40350000Y-36800000D03*
X38800000Y-36800000D03*
%TD*%
D25*
%TO.C,C20*%
X41500000Y-13725000D03*
X41500000Y-15275000D03*
%TD*%
D14*
%TO.C,R24*%
X40100000Y-93700000D03*
X40100000Y-92050000D03*
%TD*%
D27*
%TO.C,C10*%
X42000000Y-43100000D03*
X42000000Y-41550000D03*
%TD*%
%TO.C,C5*%
X17975000Y-12325000D03*
X17975000Y-13875000D03*
%TD*%
M02*
